<svg width="39" height="43" viewBox="0 0 39 43" fill="none" xmlns="http://www.w3.org/2000/svg">
<path opacity="0.15" d="M17.1311 43C23.7878 43 29.1841 42.3773 29.1841 41.6092C29.1841 40.8412 23.7878 40.2185 17.1311 40.2185C10.4744 40.2185 5.07812 40.8412 5.07812 41.6092C5.07812 42.3773 10.4744 43 17.1311 43Z" fill="#45413C"/>
<path d="M23.7152 35.3046H3.78146C2.2053 35.3046 1 34.0993 1 32.5231V17.6887C1 16.1125 2.2053 14.9072 3.78146 14.9072H23.7152C25.2914 14.9072 26.4967 16.1125 26.4967 17.6887V32.5231C26.4967 34.0066 25.1987 35.3046 23.7152 35.3046Z" fill="#FFE500"/>
<path d="M23.7152 14.9072H3.78146C2.2053 14.9072 1 16.1125 1 17.6887V21.3973C1 19.8211 2.2053 18.6158 3.78146 18.6158H23.7152C25.2914 18.6158 26.4967 19.8211 26.4967 21.3973V17.6887C26.4967 16.1125 25.1987 14.9072 23.7152 14.9072Z" fill="#FFF48C"/>
<path d="M23.7152 35.3046H3.78146C2.2053 35.3046 1 34.0993 1 32.5231V17.6887C1 16.1125 2.2053 14.9072 3.78146 14.9072H23.7152C25.2914 14.9072 26.4967 16.1125 26.4967 17.6887V32.5231C26.4967 34.0066 25.1987 35.3046 23.7152 35.3046Z" stroke="#45413C" stroke-miterlimit="10" stroke-linecap="round" stroke-linejoin="round"/>
<path d="M13.7018 1C8.23158 1 3.78125 5.45033 3.78125 10.9205V14.8146H7.95344V10.9205C7.95344 7.6755 10.5495 5.17219 13.7945 5.17219C17.0395 5.17219 19.5428 7.76821 19.5428 10.9205V14.8146H23.715V10.9205C23.715 5.45033 19.2647 1 13.7018 1Z" fill="#DAEDF7"/>
<path d="M13.7018 1C8.23158 1 3.78125 5.45033 3.78125 10.9205V13.2384C3.78125 7.76821 8.23158 3.31788 13.7018 3.31788C19.172 3.31788 23.715 7.76821 23.715 13.3311V10.9205C23.715 5.45033 19.2647 1 13.7018 1Z" fill="white"/>
<path d="M13.7018 1C8.23158 1 3.78125 5.45033 3.78125 10.9205V14.8146H7.95344V10.9205C7.95344 7.6755 10.5495 5.17219 13.7945 5.17219C17.0395 5.17219 19.5428 7.76821 19.5428 10.9205V14.8146H23.715V10.9205C23.715 5.45033 19.2647 1 13.7018 1V1Z" stroke="#45413C" stroke-miterlimit="10" stroke-linecap="round" stroke-linejoin="round"/>
<path d="M36.0468 21.9536C33.3581 19.2648 28.9078 19.2648 26.219 21.9536C24.0866 24.086 23.623 27.2383 24.8283 29.8344L16.0203 38.735C15.8349 38.9205 15.7422 39.1986 15.7422 39.4767L15.9276 41.2383C16.0203 41.7019 16.2985 41.9801 16.7621 42.0728L18.5236 42.2582C18.8018 42.2582 19.0799 42.1655 19.2654 41.9801L20.2852 40.9602C20.4707 40.7748 20.5634 40.5893 20.5634 40.3112V39.384H21.4905C21.7687 39.384 21.9541 39.2913 22.1395 39.1059L22.974 38.2714C23.1594 38.086 23.2521 37.9006 23.2521 37.6224V37.0662C23.2521 36.788 23.3448 36.6026 23.5303 36.4171L24.6428 35.3046C24.8283 35.1191 25.0137 35.0264 25.2919 35.0264H25.8481C26.1263 35.0264 26.3117 34.9337 26.4972 34.7483L28.0733 33.1721C30.6693 34.3774 33.8217 33.9138 35.9541 31.7814C38.7356 29.0926 38.7356 24.6423 36.0468 21.9536ZM32.8018 25.1986C32.2455 24.6423 32.2455 23.8079 32.8018 23.2516C33.3581 22.6953 34.1925 22.6953 34.7488 23.2516C35.3051 23.8079 35.3051 24.6423 34.7488 25.1986C34.1925 25.7549 33.3581 25.7549 32.8018 25.1986Z" fill="#FFAA54"/>
<path d="M26.2173 24.9205C28.0716 23.0662 30.6676 22.5099 32.9855 23.1589C33.5418 22.788 34.2835 22.788 34.7471 23.3443C35.0252 23.6224 35.1179 23.9006 35.1179 24.1787C35.4888 24.3642 35.7669 24.6423 36.0451 24.9205C37.0649 25.9403 37.6212 27.1456 37.8994 28.3509C38.363 26.1258 37.7139 23.7152 36.0451 21.9536C33.3563 19.2648 28.906 19.2648 26.2173 21.9536C24.4557 23.7152 23.8994 26.1258 24.363 28.3509C24.6411 27.0529 25.2901 25.8476 26.2173 24.9205Z" fill="#FFCC99"/>
<path d="M16.113 41.6092L24.921 32.8013C24.5501 32.0596 24.3647 31.3178 24.272 30.4834L16.0203 38.7351C15.8349 38.9205 15.7422 39.1986 15.7422 39.4768L15.9276 41.2384C16.0203 41.3311 16.0203 41.4238 16.113 41.6092Z" fill="#FFCC99"/>
<path d="M36.0468 21.9536C33.3581 19.2648 28.9078 19.2648 26.219 21.9536C24.0866 24.086 23.623 27.2383 24.8283 29.8344L16.0203 38.735C15.8349 38.9205 15.7422 39.1986 15.7422 39.4767L15.9276 41.2383C16.0203 41.7019 16.2985 41.9801 16.7621 42.0728L18.5236 42.2582C18.8018 42.2582 19.0799 42.1655 19.2654 41.9801L20.2852 40.9602C20.4707 40.7748 20.5634 40.5893 20.5634 40.3112V39.384H21.4905C21.7687 39.384 21.9541 39.2913 22.1395 39.1059L22.974 38.2714C23.1594 38.086 23.2521 37.9006 23.2521 37.6224V37.0662C23.2521 36.788 23.3448 36.6026 23.5303 36.4171L24.6429 35.3046C24.8283 35.1191 25.0137 35.0264 25.2919 35.0264H25.8481C26.1263 35.0264 26.3117 34.9337 26.4972 34.7483L28.0733 33.1721C30.6693 34.3774 33.8217 33.9138 35.9541 31.7814C38.7356 29.0926 38.7356 24.6423 36.0468 21.9536V21.9536ZM32.8018 25.1986C32.2455 24.6423 32.2455 23.8079 32.8018 23.2516C33.3581 22.6953 34.1925 22.6953 34.7488 23.2516C35.3051 23.8079 35.3051 24.6423 34.7488 25.1986C34.1925 25.7549 33.3581 25.7549 32.8018 25.1986Z" stroke="#45413C" stroke-miterlimit="10" stroke-linecap="round" stroke-linejoin="round"/>
<path d="M16.1133 41.3311L24.5504 32.8013" stroke="#45413C" stroke-miterlimit="10" stroke-linecap="round" stroke-linejoin="round"/>
</svg>
