<svg width="49" height="49" viewBox="0 0 49 49" fill="none" xmlns="http://www.w3.org/2000/svg">
<path d="M29.1481 24.9128L26.5352 27.5257L24.2345 27.4883L24.273 29.7879L22.012 32.0489L19.7113 32.0115L19.7499 34.3111L17.4877 36.5732L15.1881 36.5347L15.2267 38.8343L11.6914 42.3695L6.43052 41.785L5.84598 36.5241L23.3027 19.0674" fill="#F9BC36"/>
<path fill-rule="evenodd" clip-rule="evenodd" d="M6.19697 39.6819L6.42846 41.7839L6.4343 41.7828L26.2268 21.9902L25.0578 20.8212L6.19697 39.6819Z" fill="#F9AA36"/>
<path d="M22.0335 20.3396C22.4772 21.7061 23.2384 22.9481 24.2547 23.9637C25.273 24.9773 26.5169 25.7349 27.8847 26.1745L29.1474 24.9118L23.3043 19.0688L22.0335 20.3396Z" fill="#F9AA36"/>
<path d="M38.2737 22.8003C34.7225 26.3515 28.965 26.3515 25.4138 22.8003C21.8626 19.2492 21.8626 13.4916 25.4138 9.94045C28.965 6.38928 34.7225 6.38928 38.2737 9.94045C41.8249 13.4916 41.8249 19.2492 38.2737 22.8003Z" fill="#F9BC36"/>
<path d="M35.7388 14.113C34.9641 14.8878 33.7078 14.8878 32.933 14.113C32.1582 13.3382 32.1582 12.082 32.933 11.3072C33.7078 10.5324 34.964 10.5323 35.7388 11.3071C36.5136 12.0819 36.5136 13.3382 35.7388 14.113Z" fill="white"/>
<path d="M35.1592 7.22214C35.0095 7.39049 34.8809 7.58222 34.7523 7.77395C35.2845 7.95511 35.7988 8.18523 36.2885 8.46136C36.7276 7.90667 37.3337 7.50829 38.0171 7.32529C38.7005 7.14228 39.4246 7.18439 40.0822 7.44541C40.8076 7.73026 41.4087 8.26292 41.7787 8.94884C42.1488 9.63477 42.2638 10.4296 42.1035 11.1923C41.9463 11.9564 41.5235 12.64 40.9101 13.122C40.2967 13.604 39.5324 13.8531 38.7529 13.8251C37.9839 13.8006 37.2478 13.5076 36.6723 12.997C36.0968 12.4864 35.7182 11.7904 35.6022 11.0298L35.5157 11.1163C35.2988 10.9557 35.0514 10.8411 34.7887 10.7794C34.526 10.7177 34.2534 10.7102 33.9877 10.7574C33.9351 10.9002 33.923 11.0548 33.9527 11.204C34.1148 12.3609 34.6796 13.4236 35.5477 14.2053C36.4158 14.987 37.5316 15.4377 38.6991 15.4782C39.8667 15.5157 41.0101 15.1407 41.9286 14.4189C42.8471 13.6971 43.4819 12.6747 43.7215 11.5314C43.9576 10.3877 43.7833 9.19746 43.2294 8.16942C42.6756 7.14137 41.7774 6.34117 40.6924 5.90924C39.7464 5.53665 38.709 5.46274 37.7198 5.69746C36.7305 5.93218 35.8369 6.46428 35.1592 7.22214Z" fill="#F9AA36"/>
</svg>
