<svg width="43" height="43" viewBox="0 0 43 43" fill="none" xmlns="http://www.w3.org/2000/svg">
<path d="M27.5 40.0001C27.5 42.7614 17.5 42.7614 17.5 40.0001V27.5001C17.5 26.174 18.0268 24.9023 18.9645 23.9646C19.9021 23.0269 21.1739 22.5001 22.5 22.5001C23.8261 22.5001 25.0979 23.0269 26.0355 23.9646C26.9732 24.9023 27.5 26.174 27.5 27.5001V40.0001Z" fill="#C1694F"/>
<path d="M12.5 2.5C9.84784 2.5 7.3043 3.55357 5.42893 5.42893C3.55357 7.30429 2.5 9.84784 2.5 12.5V27.5H22.5V12.5C22.5 9.84784 21.4464 7.30429 19.5711 5.42893C17.6957 3.55357 15.1522 2.5 12.5 2.5Z" fill="#092C4C"/>
<path d="M25 22.2C25 23.745 23.6688 24.9988 22.1338 24.9988H2.86625C1.33 24.9988 0 23.745 0 22.2V9.04878C0 7.50253 1.33 6.24878 2.86625 6.24878H22.1338C23.6688 6.24878 25 7.50253 25 9.04878V22.2Z" fill="#CCD6DD"/>
<path d="M8.2975 14.7452L0.125 22.9602C0.26625 23.4302 0.52 23.8552 0.87 24.1902L9.28125 15.7352C9.41103 15.6031 9.48375 15.4254 9.48375 15.2402C9.48375 15.055 9.41103 14.8773 9.28125 14.7452C9.21695 14.6801 9.14036 14.6284 9.05593 14.5931C8.97149 14.5578 8.88089 14.5396 8.78938 14.5396C8.69786 14.5396 8.60726 14.5578 8.52282 14.5931C8.43839 14.6284 8.3618 14.6801 8.2975 14.7452ZM16.7063 14.7452C16.642 14.6801 16.5654 14.6284 16.4809 14.5931C16.3965 14.5578 16.3059 14.5396 16.2144 14.5396C16.1229 14.5396 16.0323 14.5578 15.9478 14.5931C15.8634 14.6284 15.7868 14.6801 15.7225 14.7452C15.5921 14.8769 15.519 15.0548 15.519 15.2402C15.519 15.4255 15.5921 15.6034 15.7225 15.7352L24.1325 24.1902C24.4825 23.8552 24.7362 23.4302 24.8775 22.9602L16.7063 14.7452Z" fill="#99AAB5"/>
<path d="M22.1338 6.25004H2.86625C1.33 6.25004 0 7.50379 0 9.04879V10.8225L10.0912 20.965C10.4041 21.2802 10.7763 21.5303 11.1863 21.7009C11.5962 21.8716 12.0359 21.9595 12.48 21.9595C12.9241 21.9595 13.3638 21.8716 13.7737 21.7009C14.1837 21.5303 14.5559 21.2802 14.8688 20.965L25 10.8075V9.04879C25 7.50379 23.6688 6.25004 22.1338 6.25004Z" fill="#99AAB5"/>
<path d="M22.1322 6.25002H2.86469C1.40719 6.25002 0.149687 7.38252 0.0234375 8.81877L10.5322 19.3138C11.6184 20.4063 13.3784 20.3638 14.4634 19.27L24.9759 8.83752C24.8597 7.39252 23.5947 6.25002 22.1322 6.25002Z" fill="#E1E8ED"/>
<path d="M32.5 2.5H12.5C15.1522 2.5 17.6957 3.55357 19.5711 5.42893C21.4464 7.30429 22.5 9.84784 22.5 12.5V27.5H42.5V12.5C42.5 9.84784 41.4464 7.30429 39.5711 5.42893C37.6957 3.55357 35.1522 2.5 32.5 2.5Z" fill="#99AAB5"/>
<path d="M32.5 0H27.5C26.837 0 26.2011 0.26339 25.7322 0.732231C25.2634 1.20107 25 1.83696 25 2.5V17.5C25 18.163 25.2634 18.7989 25.7322 19.2678C26.2011 19.7366 26.837 20 27.5 20C28.163 20 28.7989 19.7366 29.2678 19.2678C29.7366 18.7989 30 18.163 30 17.5V7.5H32.5C33.163 7.5 33.7989 7.23661 34.2678 6.76777C34.7366 6.29893 35 5.66304 35 5V2.5C35 1.83696 34.7366 1.20107 34.2678 0.732231C33.7989 0.26339 33.163 0 32.5 0Z" fill="#DD2E44"/>
</svg>
