<svg width="382" height="254" viewBox="0 0 382 254" fill="none" xmlns="http://www.w3.org/2000/svg">
<g clip-path="url(#clip0_385_63558)">
<rect width="382" height="253.984" fill="white"/>
<path d="M193.52 71.385C190.113 65.7444 186.077 59.7218 179.757 57.88C172.437 55.747 164.917 59.9842 158.539 64.1655C139.464 76.6702 121.095 90.2218 103.516 104.758L103.535 104.977C117.221 104.032 130.908 103.087 144.594 102.142C154.482 101.459 164.711 100.682 173.449 95.9983C176.765 94.221 179.998 91.8468 183.755 91.6814C188.424 91.4759 192.494 94.7405 195.693 98.1513C214.616 118.327 220.092 149.181 241.321 166.907C227.935 133.851 211.951 101.91 193.52 71.385Z" fill="#F2F2F2"/>
<path d="M309.831 242.514C307.739 239.869 306.884 239.249 304.82 236.579C288.013 214.814 272.216 192.314 257.429 169.078C247.385 153.298 237.839 137.214 228.791 120.827C224.483 113.037 220.294 105.185 216.223 97.2727C213.063 91.1374 209.974 84.9654 206.956 78.7567C206.093 76.9834 205.254 75.2019 204.42 73.4164C202.453 69.2174 200.523 64.9982 198.451 60.8563C196.09 56.1356 193.215 51.1866 188.879 48.015C186.906 46.5124 184.546 45.6032 182.076 45.3937C178.546 45.1655 175.289 46.6249 172.227 48.2188C149.827 59.9146 128.855 74.5782 109.887 91.2638C90.8695 107.987 73.8713 126.88 59.2386 147.558C58.7909 148.198 57.7323 147.586 58.1841 146.942C59.9634 144.423 61.7779 141.931 63.6276 139.466C86.6279 108.836 114.83 82.497 146.944 61.6513C152.347 58.1454 157.851 54.8039 163.458 51.6268C166.283 50.0247 169.121 48.443 172.007 46.9591C174.837 45.5038 177.842 44.1952 181.074 44.1463C192.075 43.9751 197.771 56.4495 201.684 64.8433C202.913 67.4849 204.158 70.1184 205.417 72.7437C210.177 82.711 215.119 92.5873 220.245 102.373C223.408 108.414 226.641 114.42 229.943 120.391C240.219 138.985 251.141 157.202 262.71 175.042C278.034 198.674 293.237 219.551 310.695 241.65C311.175 242.262 310.316 243.134 309.831 242.514Z" fill="#E4E4E4"/>
<path d="M108.8 85.1041C108.161 84.3907 107.526 83.6773 106.882 82.9639C101.809 77.3463 96.3662 71.794 89.3999 68.5734C86.0784 66.9894 82.4524 66.1478 78.7736 66.1071C74.971 66.1193 71.2539 67.1181 67.7403 68.5164C66.0792 69.1809 64.4546 69.935 62.8547 70.7381C61.0266 71.6594 59.231 72.6419 57.4438 73.6325C54.0889 75.4915 50.7776 77.4319 47.5097 79.4539C41.0077 83.4775 34.7092 87.8083 28.6144 92.4461C25.4549 94.8513 22.3607 97.3353 19.3316 99.8982C16.5142 102.279 13.7539 104.723 11.0505 107.232C10.4724 107.766 9.60918 106.902 10.1873 106.368C10.8998 105.703 11.6204 105.043 12.3411 104.391C14.3767 102.548 16.445 100.741 18.5459 98.9687C22.377 95.7319 26.3072 92.62 30.3366 89.6332C36.6025 84.9859 43.0841 80.6538 49.7814 76.637C53.1281 74.6313 56.521 72.7099 59.9598 70.8727C60.9981 70.3182 62.0486 69.7761 63.1112 69.2624C65.5222 68.0447 68.0274 67.0235 70.6024 66.209C74.25 65.0275 78.1093 64.6479 81.9168 65.0961C85.5931 65.6315 89.135 66.8584 92.3558 68.7121C99.1957 72.54 104.501 78.4592 109.663 84.2358C110.184 84.8228 109.325 85.6911 108.8 85.1041Z" fill="#E4E4E4"/>
<path d="M248.947 143.317L265.337 137.314L273.475 134.334C276.125 133.364 278.769 132.259 281.509 131.564C283.89 130.883 286.418 130.915 288.781 131.656C290.888 132.437 292.817 133.635 294.452 135.177C296.124 136.718 297.679 138.381 299.105 140.151C300.876 142.283 302.622 144.438 304.375 146.585C311.612 155.446 318.801 164.346 325.943 173.285C333.085 182.223 340.179 191.199 347.225 200.213C354.289 209.249 361.303 218.323 368.27 227.435C369.123 228.551 369.976 229.668 370.828 230.786C371.298 231.403 372.36 230.794 371.882 230.168C364.865 220.965 357.798 211.799 350.682 202.671C343.549 193.521 336.367 184.41 329.135 175.338C321.904 166.266 314.624 157.233 307.294 148.24C305.468 145.999 303.639 143.761 301.807 141.525C300.262 139.64 298.734 137.733 297.039 135.978C293.928 132.756 290.041 129.909 285.388 129.832C282.653 129.786 280.005 130.656 277.463 131.576C274.723 132.569 271.99 133.58 269.253 134.582L252.749 140.627L248.622 142.138C247.89 142.406 248.206 143.588 248.947 143.317Z" fill="#E4E4E4"/>
<path d="M87.2431 75.6417C78.9141 71.3555 68.2476 72.195 60.5938 77.55C75.1928 80.0719 89.6321 83.4463 103.838 87.6559C97.9387 84.1945 93.3243 78.7712 87.2431 75.6417Z" fill="#F2F2F2"/>
<path d="M60.5136 77.5352L58.9102 78.8402C59.4525 78.3834 60.0164 77.9552 60.5956 77.5499C60.5682 77.5452 60.541 77.5399 60.5136 77.5352Z" fill="#F2F2F2"/>
<path d="M293.837 143.377C292.223 141.41 290.479 139.351 288.066 138.553L285.812 138.642C302.963 168.987 326.127 195.502 353.881 216.561C333.866 192.166 313.851 167.771 293.837 143.377Z" fill="#F2F2F2"/>
<path d="M153.733 127.155C154.776 130.948 157.125 134.249 160.364 136.475C161.617 137.329 163.099 138.148 163.527 139.603C163.752 140.531 163.613 141.51 163.139 142.338C162.665 143.155 162.089 143.909 161.424 144.58L161.363 144.807C158.255 142.963 155.298 140.63 153.581 137.447C151.865 134.264 151.625 130.093 153.733 127.155Z" fill="#F2F2F2"/>
<path d="M257.21 217.427C258.252 221.22 260.601 224.522 263.841 226.747C265.093 227.601 266.575 228.42 267.004 229.876C267.229 230.803 267.09 231.782 266.616 232.61C266.142 233.428 265.566 234.181 264.901 234.852L264.84 235.08C261.732 233.236 258.775 230.903 257.058 227.72C255.341 224.537 255.101 220.365 257.21 217.427Z" fill="#F2F2F2"/>
<path d="M50.6978 211.201C51.7404 214.994 54.0894 218.296 57.329 220.521C58.5815 221.375 60.0633 222.194 60.4918 223.65C60.7172 224.577 60.5783 225.556 60.1038 226.384C59.6302 227.202 59.0539 227.955 58.389 228.626L58.3283 228.854C55.2201 227.01 52.2632 224.677 50.5463 221.494C48.8294 218.311 48.5897 214.139 50.6978 211.201Z" fill="#F2F2F2"/>
<path d="M288.341 45.3584C300.851 45.3584 310.991 35.2046 310.991 22.6792C310.991 10.1538 300.851 0 288.341 0C275.832 0 265.691 10.1538 265.691 22.6792C265.691 35.2046 275.832 45.3584 288.341 45.3584Z" fill="#EB5757"/>
<path d="M329.218 5.27885C318.241 3.79317 305.709 9.73406 302.864 20.4533C302.147 18.5474 300.843 16.9191 299.141 15.8036C297.44 14.6881 295.428 14.1432 293.396 14.2475C291.365 14.3519 289.419 15.1002 287.841 16.3842C286.262 17.6683 285.132 19.4216 284.613 21.391L285.87 22.2922C309.394 27.3858 333.745 27.2756 357.222 21.9692C349.586 13.9341 340.195 6.76451 329.218 5.27885Z" fill="#F0F0F0"/>
<path d="M282.14 35.5176C271.163 34.0319 258.631 39.9728 255.786 50.692C255.069 48.7861 253.765 47.1579 252.063 46.0424C250.361 44.9269 248.35 44.3819 246.318 44.4863C244.287 44.5907 242.341 45.3389 240.763 46.623C239.184 47.907 238.054 49.6604 237.535 51.6297L238.792 52.531C262.316 57.6246 286.667 57.5143 310.143 52.208C302.508 44.1729 293.117 37.0033 282.14 35.5176Z" fill="#F0F0F0"/>
<path d="M377.949 41.2352C377.903 41.2353 377.858 41.2283 377.815 41.2144C260.387 4.03019 156.89 8.89268 90.7455 19.5196C81.7438 20.9653 72.7181 22.6351 63.919 24.4829C61.6726 24.9541 59.3421 25.4591 56.9923 25.985C54.1859 26.6108 51.4169 27.2553 48.7618 27.8997C47.615 28.1716 46.4907 28.4456 45.3888 28.7218C43.7197 29.1343 42.026 29.5643 40.2105 30.0367C38.1819 30.5605 36.1206 31.1098 34.0829 31.6696C34.0754 31.6722 34.0678 31.6744 34.0601 31.6761L34.0603 31.6765C31.7586 32.3058 29.4691 32.9533 27.255 33.5999C26.0566 33.9465 24.8995 34.2882 23.7912 34.6257C23.6673 34.66 23.5576 34.693 23.4464 34.7268L23.2083 34.7994C23.0703 34.8415 22.9342 34.8827 22.798 34.9218L22.7893 34.9244L22.7895 34.9249L22.4291 35.0369C21.9993 35.1672 21.5799 35.2945 21.1674 35.4213C10.2666 38.786 4.27403 41.1797 4.21483 41.2031C4.1607 41.2248 4.10282 41.2357 4.0445 41.235C3.98618 41.2343 3.92856 41.2222 3.87494 41.1992C3.82132 41.1762 3.77273 41.1429 3.73196 41.1012C3.6912 41.0594 3.65905 41.01 3.63735 40.9558C3.61565 40.9016 3.60483 40.8436 3.6055 40.7852C3.60617 40.7268 3.61832 40.6692 3.64125 40.6155C3.66419 40.5618 3.69746 40.5131 3.73917 40.4723C3.78088 40.4315 3.83021 40.3993 3.88435 40.3776C3.94398 40.3541 9.96582 37.9483 20.9064 34.571C21.3203 34.4437 21.7408 34.3165 22.1719 34.1858L22.5067 34.0815C22.5182 34.0772 22.5297 34.0737 22.5414 34.0703C22.677 34.0316 22.8123 33.9904 22.9498 33.9487L23.1883 33.8761C23.3071 33.8401 23.4242 33.8045 23.5442 33.7715C24.6449 33.4362 25.806 33.0936 27.0073 32.7457C29.2223 32.0987 31.514 31.4512 33.8174 30.8211C33.8246 30.8185 33.832 30.8167 33.8391 30.8146C35.8841 30.253 37.9529 29.7011 39.988 29.1756C41.8064 28.7027 43.5032 28.2719 45.1752 27.8585C46.2818 27.5827 47.4083 27.3081 48.5547 27.0347C51.2129 26.3894 53.9875 25.744 56.7988 25.117C59.1524 24.5906 61.4868 24.0843 63.7369 23.6126C72.5496 21.7618 81.5894 20.0894 90.6047 18.6416C156.844 7.99941 260.489 3.12908 378.082 40.3667C378.183 40.3986 378.27 40.4658 378.326 40.5559C378.382 40.6461 378.403 40.7534 378.387 40.8583C378.371 40.9632 378.318 41.0589 378.238 41.1281C378.157 41.1972 378.055 41.2352 377.949 41.2352Z" fill="#CCCCCC"/>
<path d="M116.797 186.699C116.644 186.249 116.385 185.842 116.042 185.511C115.916 185.394 115.779 185.288 115.634 185.196C114.475 184.422 112.743 184.249 111.641 185.196C111.53 185.292 111.428 185.398 111.335 185.511C111.006 185.916 110.669 186.312 110.322 186.699C109.754 187.348 109.172 187.975 108.563 188.584C108.39 188.753 108.217 188.927 108.039 189.096C107.937 189.198 107.835 189.296 107.733 189.394C107.342 189.767 106.942 190.127 106.538 190.483C106.325 190.674 106.112 190.861 105.894 191.043C105.57 191.315 105.246 191.586 104.917 191.848C104.886 191.871 104.855 191.893 104.824 191.919C104.815 191.924 104.811 191.933 104.802 191.937C104.797 191.937 104.793 191.937 104.788 191.946C104.776 191.951 104.766 191.959 104.757 191.968C104.66 192.035 104.593 192.08 104.544 192.12C104.562 192.111 104.58 192.097 104.597 192.088C104.518 192.151 104.433 192.213 104.353 192.275C103.576 192.849 102.781 193.4 101.968 193.916C99.9575 195.205 97.8454 196.328 95.6529 197.274C95.5064 197.331 95.3554 197.394 95.2044 197.451C89.4639 199.806 83.2369 200.725 77.0621 200.128C76.4315 200.08 75.8008 200.013 75.1702 199.928C74.4418 199.822 73.7179 199.693 72.9984 199.546C70.2594 198.999 67.5793 198.189 64.9954 197.127C61.7632 195.645 58.689 193.839 55.8199 191.737C55.3758 191.421 54.9273 191.106 54.4787 190.799C54.9894 189.545 55.4913 188.291 55.9798 187.028C56.2241 186.419 56.4595 185.809 56.6904 185.196C58.5069 180.469 60.2123 175.697 61.8466 170.908C63.4988 166.056 65.0576 161.177 66.5232 156.269C66.6742 155.771 66.8208 155.273 66.9629 154.775C67.7312 152.182 68.4684 149.583 69.1746 146.979C69.2412 146.726 69.3123 146.477 69.3744 146.223C69.5787 145.476 69.7786 144.729 69.974 143.982C70.4181 142.296 69.4144 140.282 67.6468 139.877C66.7958 139.659 65.8933 139.78 65.1294 140.214C64.3656 140.649 63.8001 141.364 63.552 142.208C63.3611 142.928 63.1701 143.644 62.9747 144.364C62.0376 147.846 61.0517 151.316 60.0169 154.775C59.8659 155.273 59.7149 155.771 59.5639 156.269C57.2811 163.802 54.7748 171.259 52.0449 178.641C51.7163 179.535 51.3832 180.426 51.0457 181.314C50.8813 181.749 50.717 182.185 50.5483 182.621C50.2241 183.479 49.891 184.337 49.5579 185.196C49.3669 185.698 49.1715 186.201 48.9761 186.699C48.8473 187.015 48.7229 187.33 48.5986 187.642C47.3323 187.186 46.0204 186.87 44.6859 186.699L44.4727 186.672C43.4381 186.547 42.3918 186.556 41.3595 186.699C39.8144 186.879 38.3278 187.397 37.0048 188.217C35.6817 189.036 34.5545 190.136 33.7029 191.439C31.5844 194.779 31.6111 199.555 34.5822 202.392C37.6422 205.314 42.2743 205.291 45.8761 203.464C47.7849 202.43 49.3943 200.919 50.5483 199.079C50.9904 198.412 51.3966 197.722 51.7652 197.011C51.8584 197.073 51.9517 197.136 52.0449 197.202C52.4002 197.451 52.7555 197.705 53.1064 197.954C55.1507 199.437 57.305 200.761 59.5505 201.916C64.379 204.32 69.5765 205.893 74.9259 206.572C75.0458 206.585 75.1613 206.603 75.2812 206.616C75.8719 206.692 76.467 206.75 77.0621 206.799C85.599 207.443 94.1464 205.694 101.746 201.747C102.39 201.414 103.028 201.064 103.66 200.698C104.642 200.128 105.601 199.524 106.538 198.883C107.049 198.536 107.546 198.185 108.039 197.816C110.194 196.227 112.202 194.449 114.039 192.502C114.737 191.768 115.404 191.011 116.042 190.23C116.646 189.591 116.994 188.752 117.019 187.873C117.016 187.471 116.941 187.074 116.797 186.699ZM43.2559 197.291C43.3491 197.225 43.4424 197.153 43.5312 197.082C43.5046 197.149 43.3757 197.225 43.2559 197.291ZM44.6815 195.855C44.5793 195.971 44.486 196.086 44.3839 196.202C44.0731 196.55 43.7393 196.877 43.3846 197.18C43.3358 197.225 43.2825 197.269 43.2292 197.309C43.2286 197.309 43.228 197.309 43.2275 197.309C43.2269 197.31 43.2264 197.31 43.226 197.31C43.2256 197.311 43.2253 197.311 43.2251 197.312C43.2249 197.312 43.2247 197.313 43.2248 197.314C43.1606 197.342 43.0983 197.375 43.0382 197.411C42.8472 197.527 42.6518 197.634 42.452 197.732C42.0607 197.876 41.6581 197.987 41.2484 198.065C40.9336 198.088 40.6177 198.091 40.3025 198.074H40.2936C40.0761 198.026 39.8611 197.966 39.6496 197.896C39.543 197.843 39.4409 197.781 39.3387 197.718C39.2988 197.683 39.2632 197.647 39.241 197.625C39.1976 197.585 39.1575 197.542 39.1211 197.496C39.1211 197.495 39.121 197.495 39.1208 197.494C39.1206 197.494 39.1203 197.493 39.1199 197.493C39.1194 197.492 39.1189 197.492 39.1184 197.492C39.1179 197.492 39.1173 197.491 39.1167 197.491C39.0678 197.403 39.0145 197.314 38.9657 197.225C38.9632 197.222 38.9616 197.219 38.9612 197.216C38.9257 197.105 38.8946 196.989 38.868 196.873C38.8584 196.67 38.8598 196.467 38.8724 196.264C38.932 195.98 39.0122 195.701 39.1122 195.428C39.2022 195.235 39.3045 195.048 39.4187 194.868C39.4276 194.85 39.472 194.779 39.5208 194.699C39.5253 194.694 39.5253 194.694 39.5253 194.69C39.5919 194.614 39.6585 194.534 39.7296 194.463C39.8495 194.33 39.9783 194.214 40.1071 194.094C40.3576 193.93 40.617 193.78 40.8843 193.645C41.3083 193.494 41.7433 193.377 42.1856 193.294C42.8377 193.242 43.4931 193.248 44.1441 193.311C44.7608 193.418 45.3692 193.569 45.965 193.76C45.6039 194.462 45.1928 195.137 44.7348 195.779C44.717 195.806 44.6992 195.833 44.6815 195.855ZM39.7429 194.392C39.7037 194.455 39.6576 194.513 39.6052 194.565C39.6404 194.5 39.6871 194.441 39.7429 194.392Z" fill="#092C4C"/>
<path d="M103.449 141.282C103.409 142.679 103.369 144.075 103.329 145.471C103.245 148.571 103.157 151.672 103.067 154.774C102.974 158.265 102.876 161.754 102.774 165.242C102.725 167.043 102.675 168.844 102.623 170.645C102.485 175.497 102.349 180.347 102.214 185.196C102.201 185.698 102.183 186.196 102.17 186.699C102.103 189.104 102.037 191.51 101.97 193.916C101.894 196.526 101.82 199.137 101.748 201.747C101.695 203.704 101.64 205.662 101.584 207.621C101.184 221.82 100.784 236.019 100.384 250.218C100.368 251.097 100.011 251.936 99.3902 252.558C98.7691 253.18 97.9317 253.536 97.0535 253.553C96.1723 253.546 95.3292 253.193 94.7061 252.569C94.083 251.945 93.7298 251.101 93.7227 250.218C93.9447 242.232 94.1697 234.245 94.3977 226.258C94.5976 219.037 94.8004 211.815 95.0062 204.593C95.0728 202.214 95.1394 199.833 95.206 197.451C95.3082 193.867 95.4088 190.283 95.508 186.699C95.5213 186.196 95.5391 185.698 95.5524 185.196C95.5613 184.755 95.5746 184.32 95.5879 183.879C95.7834 176.92 95.9788 169.959 96.1742 162.997C96.2541 160.257 96.3311 157.517 96.4051 154.774C96.4939 151.648 96.5828 148.523 96.6716 145.4C96.7116 144.026 96.7471 142.657 96.7871 141.282C96.804 140.403 97.1603 139.565 97.7813 138.943C98.4024 138.321 99.2398 137.964 100.118 137.947C100.999 137.954 101.842 138.308 102.465 138.932C103.089 139.556 103.442 140.4 103.449 141.282Z" fill="#092C4C"/>
<path d="M286.169 142.208C282.676 155.451 278.502 168.504 273.662 181.315C272.327 184.848 270.961 188.375 269.5 191.859L269.836 191.062C269.184 192.722 268.352 194.304 267.354 195.781C267.286 195.877 267.216 195.971 267.146 196.064C267.491 195.623 267.557 195.535 267.343 195.802C267.23 195.936 267.119 196.07 267.002 196.201C266.691 196.549 266.357 196.876 266.003 197.18C265.914 197.257 265.823 197.332 265.731 197.405L266.148 197.08C266.1 197.195 265.76 197.346 265.655 197.411C265.312 197.618 264.955 197.799 264.587 197.953L265.382 197.616C264.778 197.86 264.147 198.033 263.503 198.133L264.389 198.013C263.756 198.101 263.114 198.108 262.48 198.034L263.365 198.153C262.846 198.081 262.338 197.944 261.853 197.745L262.649 198.081C262.39 197.969 262.141 197.835 261.903 197.683C261.783 197.604 261.412 197.323 261.897 197.694C262.4 198.079 261.961 197.727 261.858 197.625C261.771 197.539 261.694 197.447 261.609 197.36C261.217 196.958 262.052 198.052 261.785 197.582C261.643 197.346 261.513 197.103 261.395 196.854L261.731 197.651C261.578 197.271 261.47 196.876 261.408 196.472L261.527 197.358C261.463 196.855 261.463 196.347 261.525 195.844L261.406 196.731C261.488 196.169 261.636 195.62 261.848 195.094L261.512 195.891C261.66 195.537 261.835 195.195 262.036 194.869C262.128 194.7 262.236 194.54 262.359 194.392C262.381 194.399 261.796 195.065 262.106 194.729C262.188 194.641 262.264 194.548 262.346 194.461C262.477 194.322 262.618 194.194 262.757 194.062C263.221 193.62 262.107 194.492 262.643 194.142C263.031 193.886 263.439 193.663 263.864 193.475L263.068 193.811C263.779 193.519 264.525 193.318 265.287 193.215L264.401 193.334C265.355 193.224 266.319 193.236 267.27 193.368L266.385 193.249C267.589 193.432 268.767 193.764 269.89 194.236L269.094 193.9C271.488 194.929 273.608 196.457 275.724 197.955C277.768 199.437 279.922 200.761 282.166 201.916C286.995 204.32 292.193 205.894 297.543 206.573C305.215 207.514 313.001 206.511 320.185 203.655C327.369 200.8 333.723 196.184 338.662 190.23C339.264 189.59 339.611 188.751 339.637 187.872C339.631 186.988 339.281 186.142 338.662 185.513C337.44 184.39 335.131 184.073 333.951 185.513C332.833 186.88 331.63 188.177 330.351 189.394C329.753 189.961 329.14 190.511 328.511 191.044C328.152 191.348 327.787 191.646 327.418 191.938C327.243 192.076 326.699 192.444 327.535 191.85C327.343 191.986 327.16 192.135 326.971 192.275C324.174 194.339 321.143 196.066 317.941 197.418L318.737 197.081C315.301 198.525 311.692 199.514 308.002 200.026L308.887 199.907C305.091 200.407 301.245 200.402 297.45 199.89L298.335 200.009C294.541 199.488 290.83 198.476 287.296 196.999L288.091 197.335C284.68 195.824 281.444 193.947 278.438 191.736C276.873 190.576 275.223 189.536 273.502 188.626C271.497 187.6 269.326 186.939 267.09 186.674C262.898 186.18 258.627 187.815 256.322 191.441C254.201 194.779 254.228 199.554 257.198 202.392C260.257 205.315 264.89 205.29 268.495 203.462C271.967 201.701 274.052 198.043 275.519 194.594C278.819 186.832 281.741 178.89 284.463 170.908C287.156 163.011 289.599 155.035 291.79 146.978C292.062 145.98 292.329 144.981 292.593 143.981C293.037 142.297 292.033 140.282 290.266 139.879C289.415 139.659 288.512 139.78 287.747 140.214C286.983 140.649 286.417 141.364 286.169 142.208Z" fill="#092C4C"/>
<path d="M319.406 141.282L318.207 183.881L317.014 226.257L316.34 250.219C316.347 251.101 316.701 251.945 317.324 252.569C317.947 253.192 318.79 253.546 319.671 253.554C320.549 253.537 321.386 253.18 322.007 252.558C322.628 251.936 322.985 251.098 323.002 250.219L324.201 207.62L325.393 165.244L326.068 141.282C326.06 140.4 325.707 139.556 325.084 138.932C324.461 138.309 323.618 137.955 322.737 137.947C321.859 137.964 321.021 138.321 320.4 138.943C319.779 139.565 319.423 140.403 319.406 141.282Z" fill="#092C4C"/>
<path opacity="0.2" d="M204.114 238.325H205.148V191.17H229.277V190.137H205.148V170.239H223.782C223.508 169.891 223.227 169.548 222.938 169.209H205.148V156.067C204.806 155.921 204.461 155.78 204.114 155.647V169.209H183.839V152.371C183.492 152.387 183.15 152.41 182.805 152.44V169.209H166.63V156.646C166.283 156.8 165.94 156.962 165.601 157.132V169.209H152.004V170.239H165.601V190.137H152.004V191.17H165.601V238.325H166.63V191.17C168.754 191.169 170.858 191.588 172.82 192.402C174.783 193.215 176.566 194.408 178.068 195.912C179.57 197.416 180.762 199.202 181.574 201.167C182.387 203.132 182.805 205.238 182.805 207.365V238.325H183.839V191.17H204.114V238.325ZM166.63 190.137V170.239H182.805V190.137H166.63ZM183.839 190.137V170.239H184.245C186.854 170.239 189.438 170.754 191.849 171.754C194.26 172.754 196.45 174.22 198.295 176.068C200.14 177.915 201.604 180.109 202.602 182.523C203.6 184.937 204.114 187.524 204.114 190.137H183.839Z" fill="#092C4C"/>
<path d="M197.795 224.186C196.492 230.002 193.373 235.251 188.89 239.172C188.561 239.457 188.233 239.732 187.891 240.004C187.06 240.079 186.236 240.156 185.417 240.235C184.738 240.297 184.067 240.364 183.401 240.426L183.281 240.439L183.196 239.71L182.859 236.757C181.55 234.617 180.738 232.209 180.484 229.712C180.231 227.215 180.541 224.692 181.393 222.332C182.566 219.165 184.689 216.368 186.776 213.594C189.658 209.76 192.461 205.972 192.563 201.298C193.981 203.115 195.16 205.107 196.071 207.226C195.212 207.631 194.439 208.2 193.798 208.902C193.615 209.102 193.433 209.382 193.558 209.622C193.664 209.827 193.931 209.876 194.162 209.903C194.717 209.96 195.276 210.018 195.832 210.076C196.276 210.125 196.72 210.169 197.164 210.218C197.701 211.984 198.066 213.798 198.252 215.635C198.551 218.491 198.397 221.378 197.795 224.186Z" fill="#092C4C"/>
<path d="M212.54 212.531C209.92 214.438 208.388 217.182 207.198 220.206C205.978 220.597 204.88 221.299 204.013 222.243C203.831 222.443 203.649 222.723 203.773 222.963C203.88 223.168 204.147 223.216 204.377 223.243C204.933 223.301 205.492 223.359 206.047 223.417C204.857 226.992 203.765 230.692 201.659 233.711C200.259 235.705 198.435 237.362 196.317 238.563C195.739 238.892 195.143 239.188 194.531 239.448C192.275 239.621 190.062 239.806 187.892 240.004C187.061 240.079 186.237 240.156 185.418 240.235C184.739 240.297 184.068 240.364 183.402 240.426C183.397 240.181 183.397 239.937 183.402 239.692C183.542 233.177 185.936 226.912 190.175 221.967C190.374 221.736 190.579 221.509 190.787 221.282C192.935 218.986 195.46 217.075 198.253 215.635C202.654 213.343 207.587 212.272 212.54 212.531Z" fill="#EB5757"/>
<path d="M186.186 237.954L185.675 239.466L185.417 240.235C184.738 240.297 184.067 240.364 183.401 240.426L183.281 240.44C182.544 240.515 181.811 240.591 181.078 240.666C180.887 240.444 180.696 240.217 180.51 239.986C175.874 234.365 173.649 227.136 174.321 219.877C174.992 212.619 178.506 205.921 184.094 201.249C183.508 204.322 184.192 207.266 185.315 210.187C185.195 210.236 185.08 210.285 184.969 210.338C184.109 210.744 183.337 211.313 182.695 212.015C182.513 212.215 182.331 212.495 182.455 212.735C182.562 212.94 182.828 212.989 183.059 213.015C183.614 213.073 184.174 213.131 184.729 213.189C185.173 213.238 185.617 213.282 186.061 213.331C186.27 213.353 186.479 213.376 186.688 213.398C186.719 213.465 186.745 213.527 186.776 213.594C188.042 216.342 189.406 219.103 190.174 221.967C190.367 222.686 190.518 223.415 190.627 224.151C190.969 226.638 190.747 229.17 189.978 231.559C189.21 233.949 187.913 236.134 186.186 237.954Z" fill="#EB5757"/>
<path d="M230.892 173.456C227.069 165.989 221.145 159.706 214.179 155.089C207.19 150.478 199.17 147.67 190.835 146.915C189.742 146.816 188.647 146.758 187.549 146.741C186.251 146.721 166.735 152.358 160.197 156.961C153.663 161.507 148.287 167.528 144.505 174.538C140.729 181.586 138.872 189.505 139.12 197.499C139.443 205.541 141.682 213.389 145.649 220.39C149.562 227.367 155.119 233.282 161.835 237.62C168.647 241.972 175.489 253.511 183.532 253.918C191.635 254.329 200.877 243.443 208.267 240.138C215.658 236.806 222.047 231.592 226.798 225.017C231.415 218.573 234.402 211.104 235.503 203.25C236.646 195.209 236.113 186.916 233.37 179.23C232.667 177.255 231.839 175.326 230.892 173.456C230.102 171.897 227.785 171.323 226.335 172.26C225.588 172.72 225.046 173.452 224.824 174.301C224.601 175.151 224.714 176.054 225.14 176.823C225.604 177.738 226.035 178.669 226.434 179.614L226.099 178.818C227.609 182.453 228.635 186.271 229.153 190.174L229.034 189.288C229.584 193.522 229.574 197.811 229.004 202.042L229.123 201.156C228.548 205.387 227.42 209.525 225.768 213.462L226.104 212.666C225.254 214.675 224.264 216.621 223.141 218.49C222.572 219.435 221.967 220.357 221.329 221.257C221.048 221.652 220.759 222.04 220.468 222.427C220.087 222.932 220.986 221.767 220.593 222.263C220.526 222.347 220.459 222.432 220.392 222.516C220.191 222.768 219.986 223.019 219.779 223.266C218.394 224.921 216.883 226.464 215.259 227.884C214.855 228.237 214.443 228.583 214.025 228.92C213.817 229.089 213.611 229.264 213.394 229.421C213.403 229.415 214.096 228.887 213.685 229.193C213.556 229.29 213.429 229.387 213.299 229.483C212.438 230.122 211.553 230.729 210.646 231.303C208.557 232.621 206.366 233.768 204.093 234.733L204.888 234.397C200.968 236.049 196.847 237.178 192.632 237.755L193.518 237.636C189.305 238.206 185.035 238.213 180.821 237.658L181.706 237.777C177.876 237.262 174.129 236.248 170.561 234.76L171.357 235.096C169.29 234.223 167.297 233.183 165.398 231.988C164.458 231.395 163.543 230.765 162.652 230.099C162.525 230.004 162.399 229.907 162.272 229.812C161.866 229.505 162.564 230.038 162.57 230.042C162.334 229.872 162.106 229.691 161.888 229.498C161.458 229.147 161.034 228.788 160.617 228.421C158.95 226.95 157.392 225.358 155.957 223.658C155.598 223.233 155.247 222.802 154.903 222.364C154.754 222.174 154.483 221.79 155.082 222.599C155.004 222.493 154.922 222.388 154.842 222.282C154.65 222.028 154.462 221.772 154.275 221.514C153.623 220.61 153.003 219.685 152.415 218.737C151.087 216.591 149.928 214.344 148.949 212.018L149.285 212.815C147.682 208.996 146.586 204.984 146.025 200.881L146.144 201.767C145.637 197.985 145.63 194.152 146.122 190.367L146.003 191.254C146.508 187.589 147.492 184.007 148.932 180.599L148.596 181.396C149.502 179.263 150.57 177.203 151.792 175.234C152.403 174.249 153.051 173.288 153.736 172.351C153.891 172.138 154.049 171.926 154.208 171.716C154.352 171.525 154.747 171.052 154.072 171.888C154.138 171.806 154.202 171.722 154.267 171.639C154.643 171.163 155.028 170.694 155.422 170.232C156.913 168.484 158.528 166.846 160.255 165.331C160.692 164.948 161.135 164.573 161.585 164.206C161.79 164.04 161.996 163.875 162.203 163.711C162.286 163.646 162.37 163.582 162.452 163.516C161.565 164.223 162.206 163.709 162.407 163.558C163.335 162.862 164.288 162.2 165.265 161.574C167.438 160.182 169.724 158.976 172.099 157.968L171.303 158.305C174.75 156.856 190.019 153.436 192.796 153.809L191.91 153.69C195.992 154.26 199.982 155.364 203.777 156.973L202.981 156.636C204.905 157.454 206.774 158.394 208.577 159.451C209.478 159.98 210.362 160.537 211.228 161.124C211.637 161.402 212.043 161.686 212.444 161.976C212.644 162.121 212.843 162.267 213.042 162.415C213.152 162.498 213.261 162.581 213.371 162.663C213.832 163.01 212.735 162.162 213.219 162.545C214.838 163.819 216.376 165.193 217.823 166.66C218.534 167.385 219.221 168.132 219.883 168.903C220.222 169.299 220.555 169.7 220.88 170.107C221.042 170.31 221.593 171.042 220.918 170.145C221.083 170.364 221.25 170.582 221.413 170.803C222.816 172.705 224.063 174.718 225.14 176.823C225.936 178.378 228.243 178.958 229.697 178.019C230.444 177.559 230.986 176.828 231.208 175.978C231.431 175.128 231.318 174.225 230.892 173.456Z" fill="#092C4C"/>
<path d="M192.082 227.884C191.738 227.9 191.397 227.81 191.106 227.625C190.816 227.441 190.588 227.172 190.456 226.854C190.323 226.536 190.291 226.184 190.364 225.848C190.437 225.511 190.612 225.205 190.865 224.971C190.907 224.802 190.938 224.681 190.98 224.513C190.965 224.476 190.95 224.44 190.934 224.403C189.389 220.713 179.527 230.999 179.101 234.467C178.913 236 178.992 237.554 179.335 239.06C176.14 232.083 174.482 224.499 174.471 216.824C174.47 214.898 174.577 212.973 174.791 211.059C174.968 209.49 175.213 207.932 175.527 206.385C177.239 197.993 180.915 190.126 186.253 183.432C189.306 183.603 191.981 183.137 192.24 177.213C192.286 176.159 193.066 175.247 193.238 174.209C192.947 174.247 192.65 174.271 192.359 174.29C192.268 174.295 192.173 174.3 192.082 174.304L192.048 174.306C191.727 174.32 191.41 174.242 191.133 174.079C190.856 173.917 190.632 173.678 190.488 173.392C190.344 173.105 190.285 172.783 190.32 172.464C190.354 172.144 190.48 171.842 190.682 171.593C190.808 171.438 190.933 171.283 191.059 171.128C191.251 170.889 191.447 170.654 191.638 170.415C191.66 170.392 191.68 170.368 191.7 170.343C191.92 170.07 192.139 169.803 192.359 169.53C191.958 168.906 191.418 168.384 190.782 168.004C188.58 166.712 185.541 167.607 183.95 169.602C182.354 171.597 182.053 174.395 182.608 176.888C183.153 179.008 184.054 181.021 185.274 182.839C185.154 182.992 185.03 183.14 184.91 183.293C182.727 186.105 180.824 189.123 179.229 192.306C179.68 188.776 174.16 176.027 172.026 173.327C169.462 170.083 164.205 171.499 163.753 175.611C163.749 175.65 163.744 175.69 163.74 175.73C164.057 175.909 164.367 176.099 164.671 176.3C165.053 176.555 165.348 176.92 165.519 177.346C165.69 177.773 165.728 178.241 165.629 178.689C165.53 179.138 165.298 179.546 164.963 179.86C164.628 180.174 164.207 180.379 163.753 180.449L163.707 180.456C159.463 186.524 173.068 202.315 176.473 198.769C174.87 203.318 173.865 208.055 173.482 212.863C173.265 215.699 173.278 218.549 173.52 221.383L173.506 221.283C172.749 215.109 159.769 205.931 155.978 206.695C153.795 207.136 151.644 207.036 151.975 209.241C151.981 209.276 151.986 209.312 151.992 209.347C152.58 209.587 153.153 209.863 153.707 210.174C154.024 210.353 154.334 210.544 154.638 210.745C155.019 211 155.315 211.364 155.486 211.791C155.657 212.217 155.695 212.685 155.596 213.133C155.497 213.582 155.264 213.99 154.93 214.304C154.595 214.618 154.173 214.824 153.72 214.894L153.673 214.901C153.64 214.906 153.611 214.91 153.578 214.915C151.646 221.571 165.972 232.312 174.681 228.894H174.686C175.549 232.649 176.8 236.305 178.417 239.801H191.747C191.795 239.653 191.838 239.5 191.881 239.352C190.647 239.429 189.409 239.355 188.193 239.132C189.182 237.916 190.171 236.692 191.16 235.477C191.182 235.454 191.203 235.43 191.222 235.405C191.724 234.783 192.23 234.166 192.732 233.544L192.732 233.543C192.759 231.637 192.54 229.735 192.082 227.884L192.082 227.884ZM176.817 197.817L176.824 197.808L176.817 197.827V197.817ZM173.864 224.469L173.75 224.21C173.754 224.024 173.754 223.837 173.75 223.646C173.75 223.593 173.74 223.541 173.74 223.488C173.783 223.818 173.821 224.148 173.869 224.478L173.864 224.469Z" fill="#092C4C"/>
<path d="M42.3033 200.111C45.0013 200.111 47.1886 197.921 47.1886 195.219C47.1886 192.518 45.0013 190.328 42.3033 190.328C39.6052 190.328 37.418 192.518 37.418 195.219C37.418 197.921 39.6052 200.111 42.3033 200.111Z" fill="#092C4C"/>
<path d="M100.924 253.474C103.622 253.474 105.81 251.284 105.81 248.582C105.81 245.88 103.622 243.69 100.924 243.69C98.2263 243.69 96.0391 245.88 96.0391 248.582C96.0391 251.284 98.2263 253.474 100.924 253.474Z" fill="#092C4C"/>
<path d="M323.428 253.474C326.126 253.474 328.314 251.284 328.314 248.582C328.314 245.88 326.126 243.69 323.428 243.69C320.73 243.69 318.543 245.88 318.543 248.582C318.543 251.284 320.73 253.474 323.428 253.474Z" fill="#092C4C"/>
<path d="M335.42 191.217C338.119 191.217 340.306 189.027 340.306 186.325C340.306 183.624 338.119 181.434 335.42 181.434C332.722 181.434 330.535 183.624 330.535 186.325C330.535 189.027 332.722 191.217 335.42 191.217Z" fill="#092C4C"/>
<path d="M321.21 145.858C323.908 145.858 326.095 143.668 326.095 140.967C326.095 138.265 323.908 136.075 321.21 136.075C318.511 136.075 316.324 138.265 316.324 140.967C316.324 143.668 318.511 145.858 321.21 145.858Z" fill="#092C4C"/>
<path d="M117.358 186.325C117.355 187.575 116.873 188.775 116.01 189.678C115.148 190.582 113.972 191.118 112.725 191.177C111.479 191.236 110.257 190.813 109.314 189.996C108.37 189.178 107.776 188.029 107.656 186.785C107.535 185.541 107.896 184.299 108.665 183.314C109.434 182.33 110.551 181.679 111.785 181.497C113.02 181.315 114.277 181.614 115.297 182.334C116.317 183.054 117.022 184.139 117.265 185.365C117.328 185.681 117.359 186.003 117.358 186.325Z" fill="#092C4C"/>
<path d="M215.065 160.088C217.763 160.088 219.95 157.898 219.95 155.197C219.95 152.495 217.763 150.305 215.065 150.305C212.367 150.305 210.18 152.495 210.18 155.197C210.18 157.898 212.367 160.088 215.065 160.088Z" fill="#092C4C"/>
<path d="M166.655 155.197C166.652 156.446 166.169 157.647 165.307 158.55C164.445 159.453 163.269 159.99 162.022 160.049C160.776 160.108 159.554 159.685 158.611 158.867C157.667 158.05 157.073 156.9 156.953 155.656C156.832 154.413 157.193 153.17 157.962 152.186C158.731 151.202 159.848 150.551 161.082 150.369C162.317 150.186 163.574 150.486 164.594 151.206C165.614 151.926 166.318 153.011 166.562 154.236C166.624 154.553 166.656 154.874 166.655 155.197Z" fill="#092C4C"/>
<path d="M103.589 140.967C103.586 142.216 103.103 143.417 102.241 144.32C101.378 145.223 100.202 145.76 98.9558 145.819C97.7093 145.878 96.4878 145.455 95.5442 144.637C94.6005 143.82 94.0069 142.67 93.8861 141.427C93.7654 140.183 94.1267 138.94 94.8954 137.956C95.6641 136.972 96.7814 136.321 98.0159 136.139C99.2504 135.956 100.508 136.256 101.528 136.976C102.548 137.696 103.252 138.781 103.495 140.006C103.558 140.323 103.589 140.644 103.589 140.967Z" fill="#092C4C"/>
<path d="M266.139 201.889C268.837 201.889 271.025 199.699 271.025 196.998C271.025 194.296 268.837 192.106 266.139 192.106C263.441 192.106 261.254 194.296 261.254 196.998C261.254 199.699 263.441 201.889 266.139 201.889Z" fill="#092C4C"/>
<path d="M189.305 157.421C193.23 157.421 196.411 154.235 196.411 150.305C196.411 146.376 193.23 143.19 189.305 143.19C185.381 143.19 182.199 146.376 182.199 150.305C182.199 154.235 185.381 157.421 189.305 157.421Z" fill="#092C4C"/>
<path d="M381.471 253.847L0.5288 253.984C0.459357 253.984 0.390591 253.97 0.326434 253.943C0.262277 253.917 0.203985 253.878 0.154882 253.829C0.105778 253.779 0.0668217 253.721 0.0402469 253.657C0.013672 253.593 0 253.524 0 253.454C0 253.385 0.013672 253.316 0.0402469 253.252C0.0668217 253.187 0.105778 253.129 0.154882 253.08C0.203985 253.031 0.262277 252.992 0.326434 252.965C0.390591 252.938 0.459357 252.925 0.5288 252.925L381.471 252.788C381.611 252.788 381.745 252.844 381.844 252.944C381.943 253.043 381.998 253.177 381.998 253.318C381.998 253.458 381.943 253.592 381.844 253.691C381.745 253.791 381.611 253.847 381.471 253.847Z" fill="#CACACA"/>
</g>
<defs>
<clipPath id="clip0_385_63558">
<rect width="382" height="253.984" fill="white"/>
</clipPath>
</defs>
</svg>
