<svg width="287" height="222" viewBox="0 0 287 222" fill="none" xmlns="http://www.w3.org/2000/svg">
<g clip-path="url(#clip0_385_110373)">
<path d="M189.22 217.988L195.085 217.988L197.874 195.264L189.219 195.264L189.22 217.988Z" fill="#A0616A"/>
<path d="M209.313 217.855C209.496 218.164 209.592 219.161 209.592 219.52C209.592 220.624 208.701 221.52 207.602 221.52H189.439C188.689 221.52 188.081 220.909 188.081 220.156V219.396C188.081 219.396 187.183 217.113 189.033 214.299C189.033 214.299 191.332 216.503 194.767 213.052L195.78 211.208L203.113 216.595L207.178 217.098C208.067 217.208 208.856 217.081 209.313 217.855Z" fill="#2F2E41"/>
<path d="M207.105 211.994L212.643 213.933L222.725 193.398L214.552 190.536L207.105 211.994Z" fill="#A0616A"/>
<path d="M226.122 218.513C226.193 218.865 225.958 219.838 225.84 220.177C225.478 221.22 224.343 221.771 223.305 221.407L206.155 215.4C205.447 215.152 205.073 214.375 205.32 213.663L205.569 212.946C205.569 212.946 205.469 210.493 208.138 208.448C208.138 208.448 209.587 211.289 213.962 209.166L215.522 207.761L220.681 215.273L224.354 217.092C225.158 217.49 225.944 217.631 226.122 218.513Z" fill="#2F2E41"/>
<path d="M24.5639 77.8804H1.78721C0.821141 77.8804 0.0351562 77.0908 0.0351562 76.1204C0.0351562 75.1499 0.821141 74.3604 1.78721 74.3604H24.5639C25.53 74.3604 26.316 75.1499 26.316 76.1204C26.316 77.0908 25.53 77.8804 24.5639 77.8804Z" fill="#E6E6E6"/>
<path d="M85.4482 60.9717H0V61.4117H85.4482V60.9717Z" fill="#E6E6E6"/>
<path d="M59.1674 108.68H36.3907C35.4247 108.68 34.6387 107.891 34.6387 106.92C34.6387 105.95 35.4247 105.16 36.3907 105.16H59.1674C60.1335 105.16 60.9195 105.95 60.9195 106.92C60.9195 107.891 60.1335 108.68 59.1674 108.68Z" fill="#E6E6E6"/>
<path d="M120.052 91.7715H34.6035V92.2115H120.052V91.7715Z" fill="#E6E6E6"/>
<path d="M27.1928 149.161H4.41612C3.45005 149.161 2.66406 148.371 2.66406 147.401C2.66406 146.43 3.45005 145.641 4.41612 145.641H27.1928C28.1589 145.641 28.9449 146.43 28.9449 147.401C28.9449 148.371 28.1589 149.161 27.1928 149.161Z" fill="#E6E6E6"/>
<path d="M88.0771 132.252H2.62891V132.692H88.0771V132.252Z" fill="#E6E6E6"/>
<path d="M78.3314 134.221L74.7266 132.506C76.2051 134.579 77.4791 137.816 78.1612 140.392C79.316 137.992 81.1777 135.056 83.0204 133.303L79.2105 134.287C81.5582 122.729 90.3882 114.432 100.5 114.432V113.552C89.938 113.552 80.7284 122.197 78.3314 134.221Z" fill="#3F3D56"/>
<path d="M94.9233 151.832H72.1466C71.1805 151.832 70.3945 151.042 70.3945 150.072C70.3945 149.101 71.1805 148.312 72.1466 148.312H94.9233C95.8894 148.312 96.6754 149.101 96.6754 150.072C96.6754 151.042 95.8894 151.832 94.9233 151.832Z" fill="#092C4C"/>
<path d="M242.669 118.424L239.064 116.709C240.543 118.782 241.817 122.019 242.499 124.595C243.654 122.196 245.516 119.26 247.358 117.506L243.548 118.49C245.896 106.932 254.726 98.6349 264.838 98.6349V97.7549C254.276 97.7549 245.066 106.4 242.669 118.424Z" fill="#3F3D56"/>
<path d="M259.261 136.035H236.484C235.518 136.035 234.732 135.245 234.732 134.275C234.732 133.304 235.518 132.515 236.484 132.515H259.261C260.227 132.515 261.013 133.304 261.013 134.275C261.013 135.245 260.227 136.035 259.261 136.035Z" fill="#092C4C"/>
<path d="M217.647 84.9209L178.664 90.6409L188.3 208.122L199.251 207.682L202.755 127.601L217.209 163.241L208.449 207.242L219.399 206.812L232.54 162.801L223.779 112.641L217.647 84.9209Z" fill="#2F2E41"/>
<path d="M206.26 27.2803H192.071L180.559 91.5007C180.559 91.5007 187.413 100.944 200.997 92.0525C214.582 83.1606 220.856 90.6207 220.856 90.6207L206.26 27.2803Z" fill="#092C4C"/>
<path d="M184.062 138.581L197.499 113.961L198.375 41.8003L192.07 27.2803L188.3 33.4403L176.912 40.5254L179.119 71.7259L178.336 91.9918L177.93 102.501C176.51 108.799 179.034 134.557 184.062 138.581Z" fill="#2F2E41"/>
<path d="M206.646 28.8877L220.494 40.7006L228.598 110.441L228.739 110.421C229.483 113.35 229.535 131.216 227.862 133.728L207.792 113.301L201.879 41.3606L206.646 28.8877Z" fill="#2F2E41"/>
<path d="M252.894 100.062C254.214 102.628 253.966 105.391 252.341 106.235C250.715 107.078 248.328 105.682 247.009 103.117C246.431 101.994 246.154 100.833 246.162 99.8114L240.707 88.8701L245.873 86.4082L250.702 97.4555C251.535 98.0406 252.317 98.9395 252.894 100.062Z" fill="#A0616A"/>
<path d="M209.088 30.7393C209.088 30.7393 219.355 39.0659 222.522 41.969C224.206 43.5118 235.494 67.3165 235.494 67.3165L251.174 94.7469L243.024 97.8568L226.351 72.5647L211.953 55.8804L209.088 30.7393Z" fill="#2F2E41"/>
<path d="M145.17 102.702C143.851 105.268 144.099 108.031 145.724 108.874C147.349 109.718 149.736 108.322 151.055 105.756C151.633 104.633 151.91 103.472 151.903 102.451L157.357 91.5098L152.192 89.0479L147.363 100.095C146.53 100.68 145.747 101.579 145.17 102.702Z" fill="#A0616A"/>
<path d="M188.693 32.7813C188.693 32.7813 178.71 38.1855 175.542 41.0887C173.859 42.6314 162.57 69.9562 162.57 69.9562L146.891 97.3866L155.041 100.497L171.713 75.2044L183.045 61.1601L188.693 32.7813Z" fill="#2F2E41"/>
<path d="M199.48 24.9074C205.797 24.9074 210.919 19.7628 210.919 13.4166C210.919 7.07039 205.797 1.92578 199.48 1.92578C193.162 1.92578 188.041 7.07039 188.041 13.4166C188.041 19.7628 193.162 24.9074 199.48 24.9074Z" fill="#A0616A"/>
<path d="M204.174 4.40002e-06C204.174 4.40002e-06 204.992 3.28772 201.31 0.410971C199.967 -0.638021 198.25 1.05074 196.81 1.2329C194.3 1.55029 192.31 1.3101 192.31 2.87676C192.31 3.87831 190.985 2.35419 190.264 2.46579C189.209 2.62894 188.628 4.10965 188.628 4.10965C187.03 5.13094 185.764 7.39737 188.218 8.2193C185.764 11.096 188.039 12.5619 188.039 12.5619L190.264 9.86315C191.416 10.4946 192.981 12.1261 193.555 11.211C195.173 8.63026 199.935 11.3209 201.909 10.237C203.896 9.14557 204.992 13.5618 204.992 13.5618L205.902 14.0375C205.902 14.0375 205.401 13.1509 207.856 12.3289C209.083 11.918 209.39 13.1509 209.39 14.4865C209.39 15.9972 208.961 17.4769 208.223 18.7928L205.902 22.9249L206.921 22.2723C209.065 20.8988 210.466 18.7137 211.223 16.2749C211.26 16.1572 211.309 16.0509 211.371 15.96L211.128 13.9728L211.929 14.9171C212.053 14.5635 212.084 14.2332 211.947 13.9728C210.472 11.1851 212.765 9.45219 210.31 5.75351C206.672 0.271737 204.174 4.40002e-06 204.174 4.40002e-06Z" fill="#2F2E41"/>
<path d="M126.832 221.477C126.832 221.767 127.064 222 127.353 222H286.479C286.768 222 287.001 221.767 287.001 221.477C287.001 221.186 286.768 220.953 286.479 220.953H127.353C127.064 220.953 126.832 221.186 126.832 221.477Z" fill="#CCCCCC"/>
<path d="M108.224 109.78H94.487C92.7193 109.78 91.2812 108.336 91.2812 106.56V91.0006C91.2812 89.2249 92.7193 87.7803 94.487 87.7803H108.224C109.992 87.7803 111.43 89.2249 111.43 91.0006V106.56C111.43 108.336 109.992 109.78 108.224 109.78Z" fill="white"/>
<path d="M108.224 109.78H94.487C92.7193 109.78 91.2812 108.336 91.2812 106.56V91.0006C91.2812 89.2249 92.7193 87.7803 94.487 87.7803H108.224C109.992 87.7803 111.43 89.2249 111.43 91.0006C112.969 95.8961 112.813 101.112 111.43 106.56C111.43 108.336 109.992 109.78 108.224 109.78ZM94.487 88.2203C92.9608 88.2203 91.7193 89.4674 91.7193 91.0006V106.56C91.7193 108.093 92.9608 109.34 94.487 109.34H108.224C109.75 109.34 110.992 108.093 110.992 106.56V91.0006C110.992 89.4674 109.75 88.2203 108.224 88.2203H94.487Z" fill="#3F3D56"/>
<path d="M106.836 97.2405H95.5172C95.0371 97.2405 94.6465 96.8481 94.6465 96.3658C94.6465 95.8836 95.0371 95.4912 95.5172 95.4912H106.836C107.316 95.4912 107.707 95.8836 107.707 96.3658C107.707 96.8481 107.316 97.2405 106.836 97.2405Z" fill="#092C4C"/>
<path d="M106.836 102.08H95.5172C95.0371 102.08 94.6465 101.688 94.6465 101.206C94.6465 100.723 95.0371 100.331 95.5172 100.331H106.836C107.316 100.331 107.707 100.723 107.707 101.206C107.707 101.688 107.316 102.08 106.836 102.08Z" fill="#092C4C"/>
<path d="M21.5913 68.0655H7.8542C6.08653 68.0655 4.64844 66.6209 4.64844 64.8452V49.2857C4.64844 47.51 6.08652 46.0654 7.8542 46.0654H21.5913C23.359 46.0654 24.7971 47.51 24.7971 49.2857V64.8452C24.7971 66.6209 23.359 68.0655 21.5913 68.0655Z" fill="white"/>
<path d="M21.5911 68.0655H7.85398C6.08631 68.0655 4.64821 66.6209 4.64821 64.8452C3.95745 59.1158 3.76716 53.7798 4.64821 49.2857C4.64821 47.51 6.08631 46.0654 7.85398 46.0654H21.5911C23.3588 46.0654 24.7969 47.51 24.7969 49.2857V64.8452C24.7969 66.6209 23.3588 68.0655 21.5911 68.0655ZM7.85398 46.5054C6.32777 46.5054 5.08623 47.7526 5.08623 49.2857V64.8452C5.08623 66.3784 6.32777 67.6255 7.85398 67.6255H21.5911C23.1173 67.6255 24.3588 66.3784 24.3588 64.8452V49.2857C24.3588 47.7526 23.1173 46.5054 21.5911 46.5054H7.85398Z" fill="#3F3D56"/>
<path d="M20.2031 55.5256H8.88435C8.40426 55.5256 8.01367 55.1333 8.01367 54.651C8.01367 54.1687 8.40427 53.7764 8.88435 53.7764H20.2031C20.6832 53.7764 21.0738 54.1687 21.0738 54.651C21.0738 55.1333 20.6832 55.5256 20.2031 55.5256Z" fill="#092C4C"/>
<path d="M20.2031 60.3655H8.88435C8.40426 60.3655 8.01367 59.9731 8.01367 59.4908C8.01367 59.0086 8.40427 58.6162 8.88435 58.6162H20.2031C20.6832 58.6162 21.0738 59.0086 21.0738 59.4908C21.0738 59.9731 20.6832 60.3655 20.2031 60.3655Z" fill="#092C4C"/>
<path d="M20.2031 50.6858H8.88435C8.40426 50.6858 8.01367 50.2934 8.01367 49.8112C8.01367 49.3289 8.40427 48.9365 8.88435 48.9365H20.2031C20.6832 48.9365 21.0738 49.3289 21.0738 49.8112C21.0738 50.2934 20.6832 50.6858 20.2031 50.6858Z" fill="#092C4C"/>
<path d="M168.174 99.8612L157.908 109.031C156.587 110.211 154.557 110.091 153.382 108.764C149.115 105.36 145.615 101.523 143.09 97.1369C141.915 95.8099 142.034 93.7704 143.355 92.5905L153.621 83.4208C154.942 82.2408 156.972 82.3604 158.147 83.6874L168.439 95.3148C169.614 96.6418 169.495 98.6813 168.174 99.8612Z" fill="white"/>
<path d="M168.174 99.8612L157.908 109.031C156.587 110.211 154.557 110.091 153.382 108.764C148.515 105.77 144.867 102.027 143.09 97.1369C141.915 95.8099 142.034 93.7704 143.355 92.5905L153.621 83.4208C154.942 82.2408 156.972 82.3604 158.147 83.6874L168.439 95.3148C169.614 96.6418 169.495 98.6813 168.174 99.8612ZM143.646 92.9193C142.506 93.938 142.403 95.6988 143.417 96.8445C145.694 101.484 149.204 105.307 153.71 108.472C154.724 109.618 156.477 109.721 157.617 108.702L167.883 99.5324C169.023 98.5137 169.126 96.7529 168.112 95.6072L157.819 83.9798C156.805 82.8341 155.053 82.7308 153.912 83.7496L143.646 92.9193Z" fill="#3F3D56"/>
<path d="M158.841 91.4165L150.382 98.9719C150.024 99.2924 149.472 99.2599 149.153 98.8995C148.834 98.5391 148.867 97.9852 149.225 97.6647L157.684 90.1093C158.042 89.7888 158.594 89.8213 158.913 90.1817C159.232 90.5421 159.2 91.096 158.841 91.4165Z" fill="#092C4C"/>
<path d="M162.044 95.0337L153.586 102.589C153.227 102.91 152.675 102.877 152.356 102.517C152.037 102.156 152.07 101.602 152.428 101.282L160.887 93.7265C161.246 93.406 161.797 93.4385 162.116 93.7989C162.435 94.1593 162.403 94.7132 162.044 95.0337Z" fill="#092C4C"/>
<path d="M155.64 87.7993L147.181 95.3548C146.823 95.6752 146.271 95.6427 145.952 95.2824C145.633 94.922 145.665 94.368 146.024 94.0476L154.483 86.4921C154.841 86.1717 155.393 86.2041 155.712 86.5645C156.031 86.9249 155.998 87.4788 155.64 87.7993Z" fill="#092C4C"/>
<path d="M50.062 145.066H36.3249C34.5572 145.066 33.1191 143.621 33.1191 141.845V126.286C33.1191 124.51 34.5572 123.065 36.3249 123.065H50.062C51.8297 123.065 53.2678 124.51 53.2678 126.286V141.845C53.2678 143.621 51.8297 145.066 50.062 145.066Z" fill="white"/>
<path d="M50.063 145.066H36.3259C34.5582 145.066 33.1201 143.621 33.1201 141.845C31.9022 136.718 32.0032 131.527 33.1201 126.286C33.1201 124.51 34.5582 123.065 36.3259 123.065H50.063C51.8307 123.065 53.2687 124.51 53.2687 126.286V141.845C53.2687 143.621 51.8307 145.066 50.063 145.066ZM36.3259 123.505C34.7997 123.505 33.5581 124.753 33.5581 126.286V141.845C33.5581 143.378 34.7997 144.626 36.3259 144.626H50.063C51.5892 144.626 52.8307 143.378 52.8307 141.845V126.286C52.8307 124.753 51.5892 123.505 50.063 123.505H36.3259Z" fill="#3F3D56"/>
<path d="M48.6758 132.526H37.357C36.8769 132.526 36.4863 132.133 36.4863 131.651C36.4863 131.169 36.8769 130.776 37.357 130.776H48.6758C49.1559 130.776 49.5465 131.169 49.5465 131.651C49.5465 132.133 49.1559 132.526 48.6758 132.526Z" fill="#092C4C"/>
</g>
<defs>
<clipPath id="clip0_385_110373">
<rect width="287" height="222" fill="white"/>
</clipPath>
</defs>
</svg>
