<svg width="287" height="211" viewBox="0 0 287 211" fill="none" xmlns="http://www.w3.org/2000/svg">
<g clip-path="url(#clip0_385_64874)">
<rect width="287" height="210.847" fill="white"/>
<path d="M76.2327 155.718C34.1977 155.718 0 121.521 0 79.4856C0 37.4506 34.1977 3.25293 76.2327 3.25293C88.4464 3.26548 100.479 6.20608 111.322 11.8282C122.165 17.4503 131.502 25.59 138.55 35.565L137.829 36.0745C130.862 26.2149 121.633 18.1693 110.916 12.6121C100.199 7.05494 88.3051 4.14829 76.2327 4.13585C34.6849 4.13585 0.882923 37.9378 0.882923 79.4856C0.882923 121.033 34.6849 154.835 76.2327 154.835C87.8066 154.873 99.2316 152.227 109.61 147.105C119.989 141.982 129.039 134.524 136.049 125.314L136.749 125.851C129.657 135.169 120.501 142.715 110.001 147.897C99.5009 153.079 87.9421 155.757 76.2327 155.718Z" fill="#E6E6E6"/>
<path d="M107.749 66.7199C106.913 66.7199 106.096 66.4721 105.401 66.0077C104.707 65.5434 104.165 64.8835 103.845 64.1113C103.525 63.3392 103.442 62.4895 103.605 61.6698C103.768 60.8501 104.17 60.0972 104.761 59.5062C105.352 58.9153 106.105 58.5128 106.925 58.3498C107.744 58.1867 108.594 58.2704 109.366 58.5902C110.138 58.91 110.798 59.4517 111.263 60.1466C111.727 60.8415 111.975 61.6585 111.975 62.4942C111.975 63.6149 111.53 64.6898 110.737 65.4822C109.945 66.2747 108.87 66.7199 107.749 66.7199Z" fill="#E6E6E6"/>
<path d="M109.222 63.3785L108.338 62.4943L109.222 61.61C109.261 61.5714 109.292 61.5254 109.313 61.4748C109.334 61.4241 109.345 61.3698 109.345 61.315C109.345 61.2601 109.334 61.2058 109.313 61.1551C109.292 61.1044 109.262 61.0583 109.223 61.0196C109.184 60.9808 109.138 60.95 109.087 60.9291C109.037 60.9081 108.982 60.8974 108.927 60.8975C108.873 60.8976 108.818 60.9085 108.768 60.9296C108.717 60.9507 108.671 60.9816 108.632 61.0205L107.748 61.9048L106.864 61.0205C106.786 60.9423 106.68 60.8984 106.569 60.8984C106.459 60.8984 106.353 60.9423 106.274 61.0205C106.196 61.0987 106.152 61.2047 106.152 61.3153C106.152 61.4258 106.196 61.5318 106.274 61.61L107.159 62.4943L106.274 63.3785C106.197 63.4568 106.153 63.5627 106.153 63.673C106.153 63.7833 106.197 63.889 106.275 63.9671C106.353 64.0451 106.459 64.089 106.569 64.0892C106.68 64.0893 106.786 64.0458 106.864 63.968L107.748 63.0838L108.632 63.968C108.671 64.0067 108.717 64.0374 108.768 64.0584C108.818 64.0793 108.872 64.0901 108.927 64.0901C108.982 64.0901 109.036 64.0793 109.087 64.0584C109.137 64.0374 109.183 64.0067 109.222 63.968C109.261 63.9293 109.291 63.8833 109.312 63.8328C109.333 63.7822 109.344 63.728 109.344 63.6733C109.344 63.6185 109.333 63.5643 109.312 63.5137C109.291 63.4632 109.261 63.4172 109.222 63.3785Z" fill="white"/>
<path d="M86.7335 16.8186C91.3778 16.8186 95.1428 13.0536 95.1428 8.40929C95.1428 3.76497 91.3778 0 86.7335 0C82.0892 0 78.3242 3.76497 78.3242 8.40929C78.3242 13.0536 82.0892 16.8186 86.7335 16.8186Z" fill="#E6E6E6"/>
<path d="M85.585 12.7859C85.4398 12.7859 85.2966 12.7521 85.1667 12.6871C85.0368 12.6222 84.9238 12.5279 84.8367 12.4117L82.5425 9.35269C82.4688 9.25442 82.4152 9.14259 82.3847 9.0236C82.3542 8.9046 82.3475 8.78077 82.3649 8.65916C82.3822 8.53756 82.4234 8.42058 82.486 8.31488C82.5486 8.20918 82.6314 8.11684 82.7296 8.04314C82.8279 7.96944 82.9398 7.91582 83.0588 7.88534C83.1777 7.85486 83.3016 7.84811 83.4232 7.86549C83.5448 7.88286 83.6618 7.92402 83.7675 7.98661C83.8732 8.0492 83.9655 8.13199 84.0392 8.23027L85.5401 10.2314L89.3951 4.44901C89.5335 4.24439 89.7472 4.10281 89.9896 4.05516C90.2319 4.00752 90.4833 4.05769 90.6889 4.19471C90.8944 4.33173 91.0374 4.54449 91.0866 4.78656C91.1359 5.02862 91.0874 5.28034 90.9517 5.48678L86.3634 12.3693C86.2804 12.4938 86.1687 12.5966 86.0378 12.669C85.9069 12.7414 85.7606 12.7814 85.611 12.7856L85.585 12.7859Z" fill="white"/>
<path d="M97.0305 23.5806H76.8083C75.5723 23.5806 74.5703 24.5826 74.5703 25.8186V26.624C74.5703 27.86 75.5723 28.862 76.8083 28.862H97.0305C98.2665 28.862 99.2685 27.86 99.2685 26.624V25.8186C99.2685 24.5826 98.2665 23.5806 97.0305 23.5806Z" fill="#E6E6E6"/>
<path d="M109.574 34.1431H64.2653C63.0293 34.1431 62.0273 35.1451 62.0273 36.3811V37.1865C62.0273 38.4225 63.0293 39.4245 64.2653 39.4245H109.574C110.81 39.4245 111.812 38.4225 111.812 37.1865V36.3811C111.812 35.1451 110.81 34.1431 109.574 34.1431Z" fill="#E6E6E6"/>
<path d="M109.574 44.7061H64.2653C63.0293 44.7061 62.0273 45.708 62.0273 46.944V47.7495C62.0273 48.9855 63.0293 49.9875 64.2653 49.9875H109.574C110.81 49.9875 111.812 48.9855 111.812 47.7495V46.944C111.812 45.708 110.81 44.7061 109.574 44.7061Z" fill="#E6E6E6"/>
<path d="M82.0147 157.329C81.179 157.329 80.362 157.081 79.6671 156.617C78.9722 156.152 78.4306 155.492 78.1107 154.72C77.7909 153.948 77.7072 153.098 77.8703 152.279C78.0333 151.459 78.4358 150.706 79.0267 150.115C79.6177 149.524 80.3706 149.122 81.1903 148.959C82.01 148.796 82.8597 148.879 83.6318 149.199C84.404 149.519 85.0639 150.061 85.5282 150.755C85.9926 151.45 86.2404 152.267 86.2404 153.103C86.2404 154.224 85.7952 155.299 85.0027 156.091C84.2103 156.884 83.1354 157.329 82.0147 157.329Z" fill="#E6E6E6"/>
<path d="M83.4875 153.987L82.6033 153.103L83.4875 152.218C83.5657 152.14 83.6096 152.034 83.6096 151.924C83.6096 151.813 83.5657 151.707 83.4875 151.629C83.4094 151.551 83.3034 151.507 83.1928 151.507C83.0822 151.507 82.9762 151.551 82.898 151.629L82.0138 152.513L81.1296 151.629C81.0514 151.551 80.9454 151.507 80.8348 151.507C80.7243 151.507 80.6182 151.551 80.5401 151.629C80.4619 151.707 80.418 151.813 80.418 151.924C80.418 152.034 80.4619 152.14 80.5401 152.218L81.4243 153.103L80.5401 153.987C80.4619 154.065 80.418 154.171 80.418 154.282C80.418 154.392 80.4619 154.498 80.5401 154.576C80.6182 154.655 80.7242 154.698 80.8348 154.698C80.9454 154.698 81.0514 154.655 81.1296 154.576L82.0138 153.692L82.898 154.576C82.9762 154.655 83.0822 154.698 83.1928 154.698C83.3033 154.698 83.4094 154.655 83.4875 154.576C83.5657 154.498 83.6096 154.392 83.6096 154.282C83.6096 154.171 83.5657 154.065 83.4875 153.987Z" fill="white"/>
<path d="M60.9991 107.427C65.6435 107.427 69.4084 103.662 69.4084 99.0182C69.4084 94.3738 65.6435 90.6089 60.9991 90.6089C56.3548 90.6089 52.5898 94.3738 52.5898 99.0182C52.5898 103.662 56.3548 107.427 60.9991 107.427Z" fill="#E6E6E6"/>
<path d="M59.8506 103.395C59.7054 103.395 59.5622 103.361 59.4323 103.296C59.3024 103.231 59.1894 103.137 59.1023 103.021L56.8082 99.9617C56.7345 99.8634 56.6808 99.7515 56.6503 99.6325C56.6199 99.5136 56.6131 99.3897 56.6305 99.2681C56.6479 99.1465 56.689 99.0295 56.7516 98.9238C56.8142 98.8181 56.897 98.7258 56.9953 98.6521C57.0936 98.5784 57.2054 98.5248 57.3244 98.4943C57.4434 98.4638 57.5672 98.4571 57.6888 98.4744C57.8104 98.4918 57.9274 98.533 58.0331 98.5956C58.1388 98.6581 58.2311 98.7409 58.3048 98.8392L59.8058 100.84L63.6607 95.058C63.7284 94.9549 63.8159 94.8662 63.9181 94.797C64.0203 94.7279 64.1351 94.6796 64.256 94.655C64.3769 94.6304 64.5014 94.63 64.6225 94.6537C64.7436 94.6775 64.8587 94.7249 64.9614 94.7933C65.064 94.8618 65.1521 94.9498 65.2206 95.0525C65.2891 95.1551 65.3366 95.2702 65.3604 95.3913C65.3842 95.5123 65.3838 95.6369 65.3592 95.7578C65.3347 95.8787 65.2865 95.9935 65.2174 96.0957L60.629 102.978C60.546 103.103 60.4344 103.206 60.3034 103.278C60.1725 103.35 60.0262 103.39 59.8766 103.395L59.8506 103.395Z" fill="white"/>
<path d="M71.2961 114.189H51.0739C49.8379 114.189 48.8359 115.191 48.8359 116.427V117.233C48.8359 118.469 49.8379 119.471 51.0739 119.471H71.2961C72.5321 119.471 73.5341 118.469 73.5341 117.233V116.427C73.5341 115.191 72.5321 114.189 71.2961 114.189Z" fill="#E6E6E6"/>
<path d="M83.8399 124.752H38.531C37.295 124.752 36.293 125.754 36.293 126.99V127.795C36.293 129.031 37.295 130.033 38.531 130.033H83.8399C85.0759 130.033 86.0779 129.031 86.0779 127.795V126.99C86.0779 125.754 85.0759 124.752 83.8399 124.752Z" fill="#E6E6E6"/>
<path d="M83.8399 135.315H38.531C37.295 135.315 36.293 136.317 36.293 137.553V138.358C36.293 139.594 37.295 140.596 38.531 140.596H83.8399C85.0759 140.596 86.0779 139.594 86.0779 138.358V137.553C86.0779 136.317 85.0759 135.315 83.8399 135.315Z" fill="#E6E6E6"/>
<path d="M169.429 139.299C168.275 139.299 167.147 138.957 166.187 138.316C165.228 137.675 164.48 136.763 164.038 135.697C163.596 134.631 163.481 133.458 163.706 132.326C163.931 131.194 164.487 130.154 165.303 129.338C166.119 128.522 167.159 127.966 168.291 127.741C169.423 127.516 170.596 127.631 171.662 128.073C172.728 128.515 173.64 129.263 174.281 130.222C174.922 131.182 175.264 132.31 175.264 133.464C175.264 135.012 174.649 136.496 173.555 137.59C172.461 138.685 170.977 139.299 169.429 139.299Z" fill="#E6E6E6"/>
<path d="M171.462 134.685L170.24 133.464L171.462 132.243C171.569 132.135 171.63 131.989 171.63 131.836C171.63 131.683 171.569 131.537 171.462 131.429C171.354 131.321 171.207 131.26 171.055 131.26C170.902 131.26 170.755 131.321 170.647 131.429L169.426 132.65L168.205 131.429C168.097 131.321 167.951 131.26 167.798 131.26C167.646 131.26 167.499 131.321 167.391 131.429C167.283 131.537 167.223 131.683 167.223 131.836C167.223 131.989 167.283 132.135 167.391 132.243L168.612 133.464L167.391 134.685C167.283 134.793 167.223 134.939 167.223 135.092C167.223 135.245 167.283 135.391 167.391 135.499C167.499 135.607 167.646 135.668 167.798 135.668C167.951 135.668 168.097 135.607 168.205 135.499L169.426 134.278L170.647 135.499C170.755 135.607 170.902 135.668 171.054 135.668C171.207 135.668 171.354 135.607 171.461 135.499C171.569 135.391 171.63 135.245 171.63 135.092C171.63 134.939 171.569 134.793 171.462 134.685Z" fill="white"/>
<path d="M144.003 70.3904C150.416 70.3904 155.615 65.1913 155.615 58.7779C155.615 52.3646 150.416 47.1655 144.003 47.1655C137.59 47.1655 132.391 52.3646 132.391 58.7779C132.391 65.1913 137.59 70.3904 144.003 70.3904Z" fill="#092C4C"/>
<path d="M142.421 64.8219C142.22 64.8219 142.022 64.7752 141.843 64.6855C141.664 64.5958 141.508 64.4655 141.387 64.3051L138.219 60.0809C138.117 59.9452 138.043 59.7908 138.001 59.6265C137.959 59.4622 137.95 59.2912 137.974 59.1232C137.998 58.9553 138.055 58.7938 138.141 58.6478C138.228 58.5019 138.342 58.3743 138.478 58.2726C138.613 58.1708 138.768 58.0967 138.932 58.0547C139.096 58.0126 139.267 58.0032 139.435 58.0272C139.603 58.0512 139.765 58.1081 139.911 58.1945C140.057 58.2809 140.184 58.3953 140.286 58.531L142.359 61.2943L147.682 53.3094C147.776 53.1682 147.897 53.0469 148.038 52.9525C148.179 52.8581 148.337 52.7923 148.503 52.759C148.67 52.7257 148.841 52.7255 149.008 52.7584C149.174 52.7913 149.332 52.8567 149.474 52.9508C149.615 53.045 149.736 53.166 149.83 53.3069C149.925 53.4479 149.99 53.6061 150.024 53.7725C150.057 53.9389 150.057 54.1102 150.024 54.2766C149.991 54.443 149.926 54.6013 149.832 54.7425L143.495 64.2466C143.381 64.4185 143.227 64.5604 143.046 64.6604C142.865 64.7604 142.663 64.8156 142.457 64.8214C142.445 64.8216 142.433 64.8219 142.421 64.8219Z" fill="white"/>
<path d="M129.445 80.228H159.075C160.035 80.228 160.813 81.0062 160.813 81.966V84.7832C160.813 85.743 160.035 86.5212 159.075 86.5212H129.445C128.485 86.5212 127.707 85.743 127.707 84.7832V81.966C127.707 81.0062 128.485 80.228 129.445 80.228Z" fill="#1E1E1E" stroke="#1E1E1E"/>
<path d="M112.125 94.8145H176.397C177.357 94.8145 178.135 95.5926 178.135 96.5524V99.3696C178.135 100.329 177.357 101.108 176.397 101.108H112.125C111.165 101.108 110.387 100.329 110.387 99.3696V96.5524C110.387 95.5926 111.165 94.8145 112.125 94.8145Z" fill="#1E1E1E" stroke="#1E1E1E"/>
<path d="M112.125 109.4H176.397C177.357 109.4 178.135 110.179 178.135 111.138V113.956C178.135 114.915 177.357 115.694 176.397 115.694H112.125C111.165 115.694 110.387 114.915 110.387 113.956V111.138C110.387 110.179 111.165 109.4 112.125 109.4Z" fill="#1E1E1E" stroke="#1E1E1E"/>
<path d="M198.955 204.678L193.324 204.677L190.645 182.956L198.956 182.956L198.955 204.678Z" fill="#FFB6B6"/>
<path d="M198.618 203.302L198.709 203.339H198.807H199.892V209.636H182.74C182.808 207.992 183.491 206.43 184.658 205.263C185.89 204.031 187.56 203.339 189.302 203.339L189.47 203.339L189.604 203.237L192.697 200.893L198.618 203.302Z" fill="#1E1E1E" stroke="#1E1E1E"/>
<path d="M246.555 199.961L241.177 201.632L232.172 181.684L240.109 179.218L246.555 199.961Z" fill="#FFB6B6"/>
<path d="M245.824 198.747L245.922 198.756L246.015 198.727L247.051 198.405L248.92 204.418L232.541 209.508C232.118 207.919 232.307 206.224 233.075 204.763C233.886 203.221 235.276 202.064 236.939 201.547L237.099 201.497L237.197 201.361L239.454 198.205L245.824 198.747Z" fill="#1E1E1E" stroke="#1E1E1E"/>
<path d="M207.691 125.013L199.094 194.231L190.065 193.99C190.028 193.894 189.984 193.777 189.936 193.642C189.788 193.235 189.596 192.67 189.418 192.039C189.239 191.407 189.077 190.717 188.986 190.056C188.894 189.389 188.879 188.785 188.974 188.312C189.026 188.052 189.07 187.871 189.106 187.747C189.228 187.69 189.298 187.599 189.331 187.544C189.391 187.443 189.404 187.339 189.407 187.315L189.407 187.313C189.413 187.27 189.416 187.224 189.418 187.18C189.425 187.011 189.425 186.673 189.425 186.043V186.007C189.425 185.283 189.294 184.774 189.09 184.388C188.916 184.059 188.696 183.842 188.556 183.705C188.535 183.684 188.516 183.666 188.499 183.648C188.382 183.529 188.394 183.518 188.398 183.514C188.398 183.513 188.399 183.513 188.399 183.513C188.406 183.423 188.477 183.194 188.827 182.663C190.096 180.74 190.154 178.985 190.194 177.756C190.201 177.543 190.208 177.346 190.22 177.166C190.232 176.981 190.227 176.002 190.212 174.482C190.196 172.943 190.169 170.813 190.133 168.288C190.063 163.237 189.961 156.606 189.856 149.959C189.788 145.669 189.719 141.374 189.657 137.494C189.526 129.347 189.425 123.031 189.425 122.436C189.425 121.598 189.358 121.21 189.302 120.885C189.296 120.851 189.29 120.817 189.284 120.784C189.235 120.491 189.197 120.196 189.27 119.362C189.313 118.874 189.502 118.712 189.835 118.426C189.93 118.345 190.036 118.254 190.154 118.142C190.414 117.896 190.675 117.575 190.817 117.08C190.955 116.599 190.969 115.997 190.829 115.202C190.696 114.443 190.584 113.905 190.494 113.491C190.463 113.351 190.436 113.228 190.411 113.117C190.36 112.893 190.321 112.717 190.289 112.548C190.201 112.078 190.177 111.692 190.221 110.578C190.263 109.469 190.588 105.627 190.903 102.04C191.061 100.252 191.216 98.5332 191.331 97.2619C191.389 96.6263 191.437 96.1024 191.47 95.7375L191.483 95.5977L223.676 93.926L225.814 100.007V103.422L225.496 107.274L225.489 107.362L225.512 107.447L229.046 120.32L231.823 148.755L231.828 148.811L231.846 148.864L245.677 190.526L235.882 193.347L208.652 124.89L207.691 125.013Z" fill="#1E1E1E" stroke="#1E1E1E"/>
<path d="M187.294 95.5259L206.967 76.5542L212.42 61.1154L204.377 57.6182C200.246 61.5754 195.78 73.9011 195.78 73.9011L182.243 91.1238C182.137 91.1599 182.032 91.1983 181.928 91.2442C181.318 91.5131 180.788 91.9347 180.389 92.4683C179.99 93.0019 179.735 93.6294 179.649 94.2902C179.564 94.9511 179.65 95.6229 179.9 96.2407C180.149 96.8585 180.554 97.4015 181.075 97.8171C181.596 98.2327 182.215 98.5069 182.873 98.6133C183.531 98.7196 184.205 98.6544 184.83 98.4241C185.456 98.1937 186.011 97.806 186.443 97.2983C186.874 96.7906 187.168 96.1801 187.294 95.5259Z" fill="#FFB8B8"/>
<path d="M202.113 59.342L212.315 62.5806L212.353 62.5742C216.15 61.9382 219.301 55.7367 221.275 50.6463C221.925 48.9673 221.913 47.1042 221.242 45.4338C220.57 43.7633 219.29 42.4101 217.659 41.6477C216.452 41.0934 215.114 40.8878 213.796 41.054C212.478 41.2203 211.234 41.7518 210.202 42.5885L204.964 46.869L202.113 59.342Z" fill="#092C4C"/>
<path d="M225.754 101.775L225.814 101.696C228.997 97.4748 224.643 87.021 223.985 85.5049L226.945 84.6282L226.429 78.9932L226.18 76.4805L228.481 74.2953L228.489 74.2395L230.072 62.9774L232.142 55.5235C232.923 52.7056 232.939 49.7308 232.19 46.9044C231.441 44.0781 229.953 41.502 227.879 39.4406L223.646 35.2379L218.575 27.3001L210.072 27.0806L207.015 32.5121C204.171 33.0924 201.622 34.6519 199.81 36.9188C197.998 39.1857 197.039 42.0164 197.099 44.9178L197.387 59.3776L194.336 77.2934L194.251 80.5478L191.256 83.7078L191.81 86.9024L189.57 87.7947L188.474 92.3343C188.055 92.858 185.291 96.3519 185.266 97.326C185.262 97.4722 185.366 97.6163 185.594 97.7791C187.383 99.0592 197.383 101.833 201.884 100.165C206.678 98.3906 225.467 101.724 225.656 101.758L225.754 101.775Z" fill="#092C4C"/>
<path d="M204.911 55.9362L200.568 47.2769C194.264 47.7075 181.751 54.9968 181.751 54.9968L158.077 60.0162C157.376 59.7466 156.616 59.6665 155.874 59.784C155.132 59.9015 154.434 60.2124 153.85 60.6854C153.266 61.1585 152.817 61.7769 152.549 62.4786C152.28 63.1802 152.201 63.9403 152.319 64.6822C152.437 65.4242 152.749 66.1219 153.223 66.7051C153.697 67.2882 154.316 67.7363 155.018 68.0042C155.72 68.2722 156.48 68.3504 157.222 68.2311C157.963 68.1119 158.661 67.7993 159.243 67.3249L189.358 65.1663L204.911 55.9362Z" fill="#FFB8B8"/>
<path d="M203.162 57.358L214.505 48.9283L216.503 41.7277C216.89 40.3127 216.874 38.8176 216.456 37.4114C216.038 36.0052 215.235 34.7439 214.138 33.7701C212.641 32.4601 210.704 31.7671 208.716 31.8312C206.728 31.8954 204.839 32.7119 203.43 34.1156C199.162 38.3763 194.293 44.3205 195.339 48.4423L195.349 48.4841L203.162 57.358Z" fill="#092C4C"/>
<path d="M214.606 25.1121C220.177 25.1121 224.693 20.5961 224.693 15.0253C224.693 9.4545 220.177 4.93848 214.606 4.93848C209.036 4.93848 204.52 9.4545 204.52 15.0253C204.52 20.5961 209.036 25.1121 214.606 25.1121Z" fill="#FFB8B8"/>
<mask id="path-34-inside-1_385_64874" fill="white">
<path d="M221.244 25.5742C219.556 24.7817 217.586 25.2633 215.723 25.3366C213.861 25.4099 211.604 24.7078 211.209 22.8861C210.917 21.5392 211.795 20.0629 211.241 18.8007C210.638 17.4242 208.826 17.2283 207.374 16.8428C205.553 16.3167 203.947 15.2239 202.789 13.723C201.631 12.2222 200.982 10.3914 200.935 8.49648C200.834 9.24858 202.121 9.49561 202.544 8.8654C202.967 8.2352 202.675 7.36293 202.209 6.7641C201.743 6.16526 201.114 5.68703 200.763 5.0145C200.411 4.34197 200.48 3.34319 201.166 3.01954C201.518 3.72956 202.016 4.35695 202.628 4.86031C203.24 5.36368 203.951 5.73159 204.716 5.93975C204.404 4.9914 204.845 3.92522 205.556 3.22378C206.31 2.56658 207.18 2.05443 208.121 1.7131C210.446 0.705185 213.161 -0.297801 215.413 0.865096C215.994 1.17103 216.498 1.60435 216.889 2.13268C217.279 2.66101 217.545 3.2707 217.667 3.91621C221.832 4.26839 226.109 8.78019 225.871 12.9534C225.616 17.446 225.43 17.8095 221.69 25.3695"/>
</mask>
<path d="M221.244 25.5742C219.556 24.7817 217.586 25.2633 215.723 25.3366C213.861 25.4099 211.604 24.7078 211.209 22.8861C210.917 21.5392 211.795 20.0629 211.241 18.8007C210.638 17.4242 208.826 17.2283 207.374 16.8428C205.553 16.3167 203.947 15.2239 202.789 13.723C201.631 12.2222 200.982 10.3914 200.935 8.49648C200.834 9.24858 202.121 9.49561 202.544 8.8654C202.967 8.2352 202.675 7.36293 202.209 6.7641C201.743 6.16526 201.114 5.68703 200.763 5.0145C200.411 4.34197 200.48 3.34319 201.166 3.01954C201.518 3.72956 202.016 4.35695 202.628 4.86031C203.24 5.36368 203.951 5.73159 204.716 5.93975C204.404 4.9914 204.845 3.92522 205.556 3.22378C206.31 2.56658 207.18 2.05443 208.121 1.7131C210.446 0.705185 213.161 -0.297801 215.413 0.865096C215.994 1.17103 216.498 1.60435 216.889 2.13268C217.279 2.66101 217.545 3.2707 217.667 3.91621C221.832 4.26839 226.109 8.78019 225.871 12.9534C225.616 17.446 225.43 17.8095 221.69 25.3695" fill="#1E1E1E"/>
<path d="M211.209 22.8861L210.231 23.0982L210.231 23.0982L211.209 22.8861ZM211.241 18.8007L212.157 18.3991L212.157 18.3991L211.241 18.8007ZM207.374 16.8428L207.096 17.8035L207.107 17.8066L207.117 17.8094L207.374 16.8428ZM200.935 8.49648L201.935 8.47187L199.944 8.36348L200.935 8.49648ZM201.166 3.01954L202.062 2.57568L201.627 1.69669L200.739 2.11505L201.166 3.01954ZM204.716 5.93975L204.453 6.90462L206.247 7.39309L205.666 5.62706L204.716 5.93975ZM205.556 3.22378L204.899 2.46959L204.875 2.49015L204.853 2.51215L205.556 3.22378ZM208.121 1.7131L208.462 2.65314L208.491 2.64274L208.519 2.6306L208.121 1.7131ZM215.413 0.865096L215.878 -0.0198434L215.871 -0.0234015L215.413 0.865096ZM216.889 2.13268L217.693 1.53848L216.889 2.13268ZM217.667 3.91621L216.684 4.10136L216.825 4.84859L217.582 4.91265L217.667 3.91621ZM225.871 12.9534L226.87 13.0101L225.871 12.9534ZM221.669 24.6691C220.617 24.1752 219.519 24.0986 218.517 24.1313C218.015 24.1476 217.513 24.1927 217.044 24.2355C216.564 24.2792 216.119 24.3203 215.684 24.3374L215.763 26.3358C216.259 26.3163 216.758 26.2698 217.225 26.2273C217.701 26.1839 218.147 26.1444 218.582 26.1302C219.452 26.1019 220.183 26.1808 220.818 26.4793L221.669 24.6691ZM215.684 24.3374C214.876 24.3692 214.011 24.2287 213.338 23.9154C212.672 23.6054 212.296 23.1833 212.186 22.6741L210.231 23.0982C210.516 24.4106 211.467 25.2504 212.494 25.7285C213.514 26.2034 214.708 26.3773 215.763 26.3358L215.684 24.3374ZM212.186 22.6741C212.09 22.2318 212.182 21.7537 212.31 20.9733C212.421 20.2952 212.567 19.3326 212.157 18.3991L210.326 19.2022C210.47 19.531 210.453 19.9377 210.336 20.65C210.236 21.2601 210.035 22.1936 210.231 23.0982L212.186 22.6741ZM212.157 18.3991C211.699 17.3544 210.8 16.826 209.981 16.5151C209.211 16.2231 208.237 16.0373 207.63 15.8763L207.117 17.8094C207.963 18.0338 208.621 18.1387 209.271 18.3851C209.871 18.6127 210.18 18.8704 210.326 19.2022L212.157 18.3991ZM207.651 15.8821C206.034 15.415 204.609 14.4447 203.581 13.1122L201.997 14.3338C203.285 16.003 205.071 17.2184 207.096 17.8035L207.651 15.8821ZM203.581 13.1122C202.553 11.7797 201.976 10.1543 201.935 8.47187L199.935 8.52109C199.987 10.6285 200.709 12.6646 201.997 14.3338L203.581 13.1122ZM199.944 8.36348C199.876 8.87276 200.053 9.32607 200.359 9.64859C200.643 9.94756 201.007 10.1076 201.335 10.1774C201.941 10.3062 202.858 10.1924 203.374 9.42245L201.713 8.30835C201.735 8.27545 201.761 8.25247 201.781 8.23841C201.791 8.23171 201.799 8.22752 201.804 8.22509C201.809 8.22267 201.812 8.22182 201.812 8.2218C201.812 8.22177 201.81 8.22236 201.806 8.22301C201.802 8.22366 201.796 8.22424 201.79 8.22446C201.776 8.22491 201.762 8.22354 201.751 8.22119C201.718 8.21404 201.752 8.21067 201.81 8.27149C201.842 8.30576 201.88 8.35929 201.905 8.43217C201.93 8.50693 201.933 8.57695 201.926 8.62949L199.944 8.36348ZM203.374 9.42245C203.777 8.82242 203.805 8.15092 203.688 7.59708C203.573 7.04912 203.306 6.54486 202.998 6.1499L201.42 7.37829C201.579 7.58217 201.69 7.81346 201.731 8.00889C201.771 8.19845 201.734 8.27818 201.713 8.30835L203.374 9.42245ZM202.998 6.1499C202.729 5.80379 202.394 5.47055 202.175 5.23525C201.928 4.97051 201.76 4.76334 201.649 4.55131L199.876 5.47769C200.117 5.93819 200.439 6.3064 200.711 6.59862C201.011 6.92027 201.223 7.12557 201.42 7.37829L202.998 6.1499ZM201.649 4.55131C201.571 4.40147 201.538 4.20019 201.563 4.04179C201.587 3.89019 201.633 3.90474 201.592 3.92402L200.739 2.11505C200.012 2.45798 199.681 3.13375 199.587 3.73059C199.494 4.32062 199.603 4.955 199.876 5.47769L201.649 4.55131ZM200.27 3.4634C200.684 4.3001 201.271 5.03942 201.992 5.6326L203.263 4.08803C202.76 3.67448 202.351 3.15903 202.062 2.57568L200.27 3.4634ZM201.992 5.6326C202.714 6.22577 203.552 6.65932 204.453 6.90462L204.979 4.97488C204.35 4.80385 203.766 4.50159 203.263 4.08803L201.992 5.6326ZM205.666 5.62706C205.513 5.16324 205.711 4.47595 206.258 3.93541L204.853 2.51215C203.98 3.37449 203.294 4.81957 203.766 6.25244L205.666 5.62706ZM206.212 3.97796C206.874 3.40162 207.637 2.95248 208.462 2.65314L207.78 0.773054C206.723 1.15638 205.747 1.73154 204.899 2.46959L206.212 3.97796ZM208.519 2.6306C209.675 2.12919 210.846 1.66747 211.976 1.45836C213.097 1.25103 214.092 1.30863 214.954 1.75359L215.871 -0.0234015C214.481 -0.741337 212.993 -0.763695 211.612 -0.508275C210.241 -0.254634 208.892 0.289094 207.723 0.795594L208.519 2.6306ZM214.947 1.75001C215.395 1.98578 215.784 2.31972 216.084 2.72688L217.693 1.53848C217.213 0.888979 216.593 0.356285 215.878 -0.0198168L214.947 1.75001ZM216.084 2.72688C216.385 3.13403 216.59 3.60389 216.684 4.10136L218.649 3.73106C218.5 2.93751 218.173 2.18799 217.693 1.53848L216.084 2.72688ZM217.582 4.91265C219.355 5.06253 221.247 6.11957 222.684 7.67947C224.123 9.2412 224.972 11.1597 224.873 12.8967L226.87 13.0101C227.008 10.5739 225.837 8.1499 224.155 6.32437C222.472 4.49702 220.143 3.12207 217.751 2.91976L217.582 4.91265ZM224.873 12.8967C224.746 15.1341 224.64 16.2296 224.141 17.6878C223.622 19.2073 222.679 21.1143 220.794 24.9261L222.586 25.8129C224.441 22.0647 225.461 20.0099 226.034 18.3346C226.627 16.5979 226.742 15.2653 226.87 13.0101L224.873 12.8967Z" fill="#1E1E1E" mask="url(#path-34-inside-1_385_64874)"/>
<path d="M271.774 210.395H257.123L257.06 210.28C256.873 209.941 256.692 209.581 256.523 209.211C255.014 205.98 254.376 202.285 253.813 199.025L253.389 196.568C253.338 196.27 253.377 195.964 253.5 195.688C253.624 195.413 253.827 195.18 254.084 195.021C254.34 194.862 254.638 194.782 254.94 194.794C255.242 194.805 255.534 194.905 255.778 195.083C258.004 196.703 260.231 198.322 262.46 199.939C263.303 200.553 264.267 201.263 265.19 202.031C265.279 201.599 265.372 201.165 265.465 200.737C265.529 200.442 265.68 200.173 265.898 199.964C266.117 199.755 266.392 199.615 266.69 199.564C266.988 199.512 267.294 199.551 267.57 199.675C267.846 199.798 268.078 200.001 268.238 200.258L269.952 203.012C271.202 205.023 272.305 207.005 272.081 209.142C272.082 209.168 272.08 209.194 272.075 209.22C272.03 209.571 271.946 209.916 271.826 210.249L271.774 210.395Z" fill="#F0F0F0"/>
<path d="M286.476 210.711L147.257 210.847C147.118 210.846 146.985 210.791 146.887 210.692C146.789 210.594 146.734 210.46 146.734 210.321C146.734 210.183 146.789 210.049 146.887 209.951C146.985 209.852 147.118 209.797 147.257 209.796L286.476 209.66C286.614 209.661 286.747 209.717 286.845 209.815C286.943 209.914 286.999 210.047 286.999 210.186C286.999 210.325 286.943 210.458 286.845 210.557C286.747 210.655 286.614 210.711 286.476 210.711Z" fill="#CACACA"/>
</g>
<defs>
<clipPath id="clip0_385_64874">
<rect width="287" height="210.847" fill="white"/>
</clipPath>
</defs>
</svg>
