<svg width="398" height="398" viewBox="0 0 398 398" fill="none" xmlns="http://www.w3.org/2000/svg">
<rect width="398" height="398" fill="white"/>
<path d="M68.6779 356.29C-3.28847 314.738 -3.28847 247.365 68.6779 205.846C140.644 164.326 257.33 164.294 329.32 205.846C401.31 247.397 401.286 314.77 329.32 356.29C257.354 397.809 140.652 397.849 68.6779 356.29Z" fill="#F5F5F5"/>
<path d="M126.278 358.296C157.509 358.296 182.826 343.681 182.826 325.652C182.826 307.623 157.509 293.008 126.278 293.008C95.0478 293.008 69.7305 307.623 69.7305 325.652C69.7305 343.681 95.0478 358.296 126.278 358.296Z" fill="#E0E0E0"/>
<path d="M256.977 310.395C296.188 289.246 319.444 256.284 308.92 236.771C298.396 217.258 258.077 218.584 218.866 239.732C179.654 260.881 156.399 293.843 166.923 313.356C177.447 332.869 217.766 331.543 256.977 310.395Z" fill="#E0E0E0"/>
<path d="M295.991 264.041C303.831 254.696 316.114 248.607 329.924 245.009C343.568 241.467 346.011 233.069 336.969 230.355C326.724 227.266 313.941 232.934 305.694 240.822C291.334 254.569 289.527 265.068 289.527 265.068L295.991 264.041Z" fill="#092C4C"/>
<path opacity="0.15" d="M329.799 244.525L329.798 244.525C316.007 248.118 303.667 254.202 295.729 263.577L290.183 264.458C290.258 264.175 290.364 263.81 290.509 263.369C290.895 262.194 291.559 260.477 292.67 258.33C294.891 254.036 298.899 248.019 306.04 241.183C310.117 237.283 315.316 233.933 320.754 231.941C326.196 229.949 331.837 229.33 336.825 230.833L336.825 230.833C339.021 231.493 340.445 232.476 341.188 233.572C341.916 234.646 342.026 235.883 341.492 237.181C340.949 238.499 339.732 239.895 337.777 241.19C335.826 242.48 333.169 243.65 329.799 244.525Z" fill="#1E1E1E" stroke="#1E1E1E"/>
<path d="M291.954 263.476C291.896 263.488 291.836 263.488 291.779 263.476C291.731 263.453 291.689 263.421 291.655 263.382C291.62 263.343 291.593 263.297 291.576 263.247C291.559 263.198 291.552 263.145 291.555 263.093C291.559 263.041 291.572 262.99 291.595 262.943C303.233 239.063 329.007 233.188 335.248 233.634C335.352 233.642 335.449 233.691 335.518 233.77C335.586 233.849 335.621 233.951 335.614 234.056C335.604 234.161 335.554 234.258 335.473 234.326C335.393 234.394 335.29 234.429 335.184 234.422C329.071 233.96 303.766 239.779 292.312 263.293C292.273 263.351 292.219 263.399 292.156 263.431C292.094 263.463 292.024 263.478 291.954 263.476Z" fill="white"/>
<path d="M289.527 266.525C289.528 266.909 289.63 267.286 289.824 267.617C290.017 267.949 290.295 268.223 290.629 268.413C290.963 268.602 291.341 268.699 291.725 268.695C292.109 268.69 292.485 268.584 292.815 268.388C300.106 264.145 310.741 261.797 327.95 266.7C337.104 269.303 341.61 267.56 343.536 263.834C345.685 259.695 341.148 255.691 335.974 253.805C318.358 247.365 302.462 251.759 289.527 264.607V266.525Z" fill="#092C4C"/>
<path d="M290.538 266.867C290.482 266.868 290.425 266.857 290.373 266.835C290.321 266.813 290.274 266.781 290.236 266.74C290.162 266.664 290.121 266.563 290.121 266.457C290.121 266.352 290.162 266.25 290.236 266.174C305.447 252.579 329.009 255.229 337.924 260.531C338.014 260.584 338.08 260.671 338.107 260.772C338.134 260.873 338.119 260.981 338.067 261.072C338.013 261.163 337.924 261.229 337.822 261.256C337.719 261.282 337.61 261.268 337.518 261.215C328.762 256.018 305.678 253.431 290.769 266.787C290.701 266.836 290.621 266.863 290.538 266.867Z" fill="white"/>
<path d="M119.335 298.221C112.649 288.017 101.17 280.518 87.8772 275.321C74.7591 270.194 73.3183 261.574 82.6156 259.934C93.1546 258.079 105.182 265.219 112.442 274.023C125.082 289.37 125.631 300.028 125.631 300.028L119.335 298.221Z" fill="#092C4C"/>
<path opacity="0.15" d="M125.052 299.342L119.651 297.792C112.871 287.546 101.335 280.046 88.0592 274.855L88.0591 274.855C84.8187 273.589 82.32 272.114 80.5367 270.603C78.7488 269.088 77.7054 267.558 77.3222 266.185C76.9448 264.833 77.1996 263.618 78.0489 262.636C78.9149 261.634 80.4443 260.825 82.7023 260.426L125.052 299.342ZM125.052 299.342C125.011 299.052 124.949 298.677 124.858 298.222C124.614 297.008 124.158 295.222 123.309 292.956C121.611 288.426 118.342 281.973 112.056 274.341C108.467 269.989 103.699 266.048 98.5323 263.427C93.3632 260.806 87.8332 259.523 82.7024 260.426L125.052 299.342Z" fill="#1E1E1E" stroke="#1E1E1E"/>
<path d="M123.38 298.158C123.438 298.169 123.497 298.169 123.555 298.158C123.654 298.122 123.736 298.048 123.782 297.953C123.828 297.858 123.835 297.749 123.802 297.648C115.046 272.566 90.1787 263.691 83.9062 263.42C83.8019 263.416 83.7001 263.453 83.6227 263.523C83.5453 263.593 83.4985 263.69 83.4923 263.794C83.4899 263.9 83.5282 264.003 83.5993 264.081C83.6704 264.16 83.7688 264.208 83.8744 264.216C90.0036 264.471 114.441 273.235 123.046 297.935C123.076 297.998 123.124 298.052 123.183 298.092C123.241 298.131 123.309 298.154 123.38 298.158Z" fill="white"/>
<path d="M125.688 299.543C125.626 300.109 125.419 300.649 125.087 301.111C124.755 301.573 124.31 301.942 123.793 302.182C123.277 302.422 122.708 302.525 122.141 302.481C121.573 302.437 121.027 302.248 120.554 301.931C113.804 297.41 103.751 294.472 87.2814 297.155C77.8886 298.659 73.622 296.359 72.1574 292.466C70.5176 288.104 75.5006 284.674 80.8577 283.408C99.1099 279.094 114.377 285.334 125.704 299.607L125.688 299.543Z" fill="#092C4C"/>
<path d="M124.429 301.684C124.485 301.692 124.541 301.687 124.595 301.671C124.649 301.654 124.698 301.626 124.74 301.589C124.813 301.513 124.854 301.411 124.854 301.306C124.854 301.2 124.813 301.099 124.74 301.023C111.208 285.732 87.5267 285.581 78.0463 289.792C77.9492 289.835 77.8732 289.915 77.8352 290.014C77.7971 290.114 77.8 290.224 77.8433 290.321C77.8866 290.418 77.9667 290.494 78.0659 290.532C78.1652 290.57 78.2755 290.567 78.3726 290.524C87.662 286.393 110.905 286.544 124.143 301.549C124.177 301.591 124.221 301.626 124.271 301.649C124.32 301.672 124.374 301.684 124.429 301.684Z" fill="white"/>
<path d="M303.131 116.352C317.252 123.659 326.597 140.271 327.799 164.51C330.251 213.121 299.111 273.952 258.244 300.379C237.883 313.545 218.954 315.67 204.777 308.506M303.131 116.352L303.004 116.288L272.66 98.8236M303.131 116.352L302.901 116.796L302.78 116.735L302.767 116.729L302.754 116.721L272.427 99.2665M303.131 116.352L302.907 116.799L302.904 116.797C316.81 123.995 326.103 140.403 327.3 164.534L327.3 164.535C328.52 188.732 321.378 216.005 308.821 240.535C296.264 265.066 278.315 286.804 257.973 299.959C237.704 313.065 218.973 315.115 205.011 308.064M272.66 98.8236L272.477 98.7361C258.3 91.5721 239.387 93.7292 219.041 106.879M272.66 98.8236L272.411 99.257L272.427 99.2665M272.66 98.8236L272.444 99.2747L272.427 99.2665M219.041 106.879C178.175 133.306 147.035 194.137 149.487 242.748M219.041 106.879L219.313 107.299M219.041 106.879L219.313 107.299C219.313 107.299 219.313 107.299 219.313 107.299M149.487 242.748C150.705 266.971 160.05 283.583 174.163 290.89L174.282 290.954L204.634 308.426M149.487 242.748L149.986 242.723C151.199 266.84 160.493 283.25 174.393 290.446L174.398 290.449L174.518 290.513L174.525 290.517L174.532 290.521L204.877 307.989L204.634 308.426M149.487 242.748L149.986 242.723C148.766 218.526 155.908 191.252 168.465 166.722C181.022 142.192 198.971 120.454 219.313 107.299M204.634 308.426L204.777 308.506M204.634 308.426L204.883 307.993L205.011 308.064M204.777 308.506L205.02 308.069L205.011 308.064M204.777 308.506L205.003 308.06C205.006 308.061 205.008 308.063 205.011 308.064M219.313 107.299C239.571 94.2059 258.289 92.1267 272.251 99.1823L272.251 99.1824L272.261 99.1871L272.427 99.2665" fill="#1E1E1E" stroke="#1E1E1E"/>
<path d="M195.808 302.784C186.302 293.86 180.286 279.367 179.354 260.213C179.354 260.213 179.354 260.213 179.354 260.213L179.853 260.189C178.763 238.506 184.343 214.411 194.5 192.035L195.808 302.784ZM195.808 302.784L174.582 290.511L174.577 290.508L174.438 290.424L174.424 290.415L174.408 290.407C160.508 283.194 151.222 266.785 150.001 242.699L195.808 302.784ZM164.591 174.805L193.86 192.236L150.001 242.699C148.916 221.123 154.482 197.119 164.591 174.805Z" fill="#1E1E1E" stroke="#1E1E1E"/>
<path d="M327.316 164.519C328.536 188.716 321.395 215.99 308.837 240.52C296.28 265.05 278.332 286.788 257.989 299.943C237.644 313.099 218.842 315.131 204.86 307.971C190.879 300.812 181.535 284.368 180.314 260.171C179.094 235.978 186.238 208.707 198.797 184.178C211.356 159.649 229.307 137.91 249.649 124.755C269.994 111.599 288.795 109.564 302.774 116.72C316.754 123.876 326.095 140.318 327.316 164.519Z" fill="#1E1E1E" stroke="#1E1E1E"/>
<path d="M241.777 218.982L241.28 218.443L230.262 206.51C230.261 206.509 230.26 206.508 230.259 206.507C227.063 203.181 222.69 201.241 218.079 201.102C213.466 200.964 208.983 202.64 205.593 205.771C202.203 208.902 200.176 213.237 199.947 217.846C199.719 222.453 201.306 226.967 204.367 230.417C204.368 230.418 204.369 230.419 204.37 230.421L233.41 261.879L233.41 261.88C236.513 265.25 240.811 267.272 245.386 267.513H245.386H245.388H245.39H245.392H245.394H245.396H245.398H245.4H245.402H245.404H245.406H245.408H245.41H245.412H245.414H245.416H245.418H245.42H245.422H245.424H245.426H245.427H245.429H245.431H245.433H245.435H245.437H245.439H245.441H245.443H245.445H245.447H245.449H245.451H245.453H245.455H245.457H245.459H245.461H245.463H245.465H245.467H245.469H245.471H245.473H245.475H245.476H245.478H245.48H245.482H245.484H245.486H245.488H245.49H245.492H245.494H245.496H245.498H245.5H245.502H245.504H245.506H245.508H245.51H245.512H245.514H245.516H245.518H245.52H245.522H245.523H245.525H245.527H245.529H245.531H245.533H245.535H245.537H245.539H245.541H245.543H245.545H245.547H245.549H245.551H245.553H245.555H245.557H245.559H245.561H245.563H245.565H245.567H245.569H245.57H245.572H245.574H245.576H245.578H245.58H245.582H245.584H245.586H245.588H245.59H245.592H245.594H245.596H245.598H245.6H245.602H245.604H245.606H245.608H245.61H245.612H245.614H245.616H245.618H245.619H245.621H245.623H245.625H245.627H245.629H245.631H245.633H245.635H245.637H245.639H245.641H245.643H245.645H245.647H245.649H245.651H245.653H245.655H245.657H245.659H245.661H245.663H245.665H245.666H245.668H245.67H245.672H245.674H245.676H245.678H245.68H245.682H245.684H245.686H245.688H245.69H245.692H245.694H245.696H245.698H245.7H245.702H245.704H245.706H245.708H245.71H245.712H245.713H245.715H245.717H245.719H245.721H245.723H245.725H245.727H245.729H245.731H245.733H245.735H245.737H245.739H245.741H245.743H245.745H245.747H245.749H245.751H245.753H245.755H245.757H245.759H245.761H245.762H245.764H245.766H245.768H245.77H245.772H245.774H245.776H245.778H245.78H245.782H245.784H245.786H245.788H245.79H245.792H245.794H245.796H245.798H245.8H245.802H245.804H245.806H245.808H245.809H245.811H245.813H245.815H245.817H245.819H245.821H245.823H245.825H245.827H245.829H245.831H245.833H245.835H245.837H245.839H245.841H245.843H245.845H245.847H245.849H245.851H245.853H245.855H245.856H245.858H245.86H245.862H245.864H245.866H245.868H245.87H245.872H245.874H245.876H245.878H245.88H245.882H245.884H245.886H245.888H245.89H245.892H245.894H245.896H245.898H245.9H245.902H245.904H245.905H245.907H245.909H245.911H245.913H245.915H245.917H245.919H245.921H245.923H245.925H245.927H245.929H245.931H245.933H245.935H245.937H245.939H245.941H245.943H245.945H245.947H245.949H245.951H245.952H245.954H245.956H245.958H245.96H245.962H245.964H245.966H245.968H245.97H245.972H245.974H245.976H245.978H245.98H245.982H245.984H245.986H245.988H245.99H245.992H245.994H245.996H245.998H245.999H246.001H246.003H246.005H246.007H246.009H246.011H246.013H246.015H246.017H246.019H246.021H246.023H246.025H246.027H246.029H246.031H246.033H246.035H246.037H246.039H246.041H246.043H246.045H246.047H246.048H246.05H246.052H246.054H246.056H246.058H246.06H246.062H246.064H246.066H246.068H246.07H246.072H246.074H246.076H246.078H246.08H246.082H246.084H246.086H246.088H246.09H246.092H246.094H246.095H246.097H246.099H246.101H246.103H246.105H246.107H246.109H246.111H246.113H246.115H246.117H246.119H246.121H246.123H246.125H246.127H246.129H246.131H246.133H246.135H246.137H246.139H246.141H246.142H246.144H246.146H246.148H246.15H246.152H246.154H246.156H246.158H246.16H246.162H246.164H246.166H246.168H246.17H246.172H246.174H246.176H246.178H246.18H246.182H246.184H246.186H246.188H246.189H246.191H246.193H246.195H246.197H246.199H246.201H246.203H246.205H246.207H246.209H246.211H246.213H246.215H246.217H246.219H246.221H246.223H246.225H246.227H246.229H246.231H246.233H246.235H246.237H246.238H246.24H246.242H246.244H246.246H246.248H246.25H246.252H246.254H246.256H246.258H246.26H246.262H246.264H246.266H246.268H246.27H246.272H246.274H246.276H246.278H246.28H246.282H246.284H246.285H246.287H246.289H246.291H246.293H246.295H246.297H246.299H246.301H246.303H246.305H246.307H246.309H246.311H246.313H246.315H246.317H246.319H246.321H246.323H246.325H246.327H246.329H246.331H246.332H246.334H246.336H246.338H246.34H246.342H246.344H246.346H246.348H246.35H246.352H246.354H246.356H246.358H246.36H246.362H246.364H246.366H246.368H246.37H246.372H246.374H246.375C247.23 267.512 248.084 267.45 248.931 267.327M241.777 218.982L248.931 267.327M241.777 218.982L242.097 218.322L293.15 113.146C305.228 115.664 314.954 123.761 320.87 136.809M241.777 218.982L320.87 136.809M248.931 267.327C251.773 266.914 254.472 265.81 256.79 264.112C259.108 262.415 260.975 260.176 262.228 257.591L262.228 257.59L320.87 136.809M248.931 267.327L320.87 136.809" fill="#1E1E1E" stroke="#1E1E1E"/>
<path d="M334.471 77.825C334.153 77.642 333.818 77.4668 333.484 77.3076C329.73 75.4884 325.407 75.2327 321.464 76.5967C317.522 77.9606 314.281 80.8328 312.454 84.5831L247.277 218.836L243.568 214.856C242.497 213.687 241.251 212.69 239.874 211.903C237.932 210.789 229.67 206.005 228.332 205.233C225.073 203.347 221.245 202.693 217.544 203.388C213.843 204.084 210.515 206.084 208.163 209.025C205.81 211.965 204.591 215.652 204.725 219.415C204.859 223.179 206.338 226.769 208.894 229.535L237.94 260.993C239.029 262.174 240.294 263.181 241.689 263.978C243.584 265.052 251.814 269.828 253.168 270.608C255.039 271.692 257.114 272.379 259.263 272.625C261.412 272.871 263.589 272.671 265.657 272.039C267.725 271.406 269.641 270.354 271.284 268.948C272.928 267.541 274.264 265.812 275.209 263.866L352.317 105.04C354.051 101.461 354.367 97.3579 353.202 93.555C352.037 89.752 349.478 86.5301 346.037 84.5353L334.471 77.825Z" fill="#092C4C"/>
<path opacity="0.15" d="M228.332 205.233C228.72 205.457 229.69 206.018 230.92 206.729C233.93 208.471 238.495 211.112 239.874 211.903C241.251 212.69 242.497 213.687 243.568 214.856L246.912 218.444L246.827 218.618L247.277 218.836L247.643 218.496L247.511 218.354L312.454 84.5831M228.332 205.233L241.937 263.543C241.937 263.543 241.936 263.543 241.936 263.543C240.585 262.772 239.362 261.797 238.308 260.654L238.307 260.653L209.261 229.195L209.261 229.195C206.787 226.518 205.354 223.041 205.225 219.397C205.095 215.754 206.276 212.184 208.553 209.337C210.83 206.49 214.053 204.553 217.637 203.88C221.22 203.206 224.926 203.84 228.082 205.666L228.082 205.666C228.469 205.889 229.435 206.448 230.659 207.156C233.67 208.898 238.245 211.545 239.626 212.337L239.626 212.337C240.958 213.099 242.163 214.062 243.199 215.194L243.202 215.197L246.911 219.177L247.408 219.711L247.727 219.055L312.903 84.8021L312.454 84.5831M228.332 205.233C225.073 203.347 221.245 202.693 217.544 203.388M228.332 205.233L217.544 203.388M312.454 84.5831C314.281 80.8328 317.522 77.9606 321.464 76.5967C325.407 75.2327 329.73 75.4884 333.484 77.3076L312.903 84.8015M312.454 84.5831L312.903 84.8015M312.903 84.8015C314.673 81.1705 317.811 78.3898 321.628 77.0692C325.445 75.7485 329.631 75.9961 333.266 77.7576L333.269 77.7591C333.591 77.9127 333.914 78.0816 334.221 78.2578L312.903 84.8015ZM351.867 104.822C353.546 101.356 353.852 97.3837 352.724 93.7014C351.596 90.0191 349.118 86.8994 345.786 84.9679L345.786 84.9678L334.222 78.2585L274.759 263.648M351.867 104.822L274.759 263.648M351.867 104.822L352.317 105.04M351.867 104.822L351.867 104.822L352.317 105.04M274.759 263.648L275.209 263.866M274.759 263.648L274.759 263.648L275.209 263.866M275.209 263.866L352.317 105.04M275.209 263.866C274.264 265.812 272.928 267.541 271.284 268.948C269.641 270.354 267.725 271.406 265.657 272.039C263.589 272.671 261.412 272.871 259.263 272.625C257.114 272.379 255.039 271.692 253.168 270.608L352.317 105.04M352.317 105.04C354.051 101.461 354.367 97.3579 353.202 93.555C352.037 89.752 349.478 86.5301 346.037 84.5353L352.317 105.04ZM217.544 203.388C213.843 204.084 210.515 206.084 208.163 209.025M217.544 203.388L208.163 209.025M208.163 209.025C205.81 211.965 204.591 215.652 204.725 219.415M208.163 209.025L204.725 219.415M204.725 219.415C204.859 223.179 206.338 226.769 208.894 229.535L204.725 219.415Z" fill="#1E1E1E" stroke="#1E1E1E"/>
<path opacity="0.15" d="M220.06 236.506L248.466 267.278C245.827 265.748 242.945 264.086 241.9 263.51C240.551 262.738 239.328 261.764 238.274 260.622L238.274 260.622L209.229 229.165C209.229 229.165 209.229 229.165 209.228 229.164C208.337 228.192 207.578 227.109 206.969 225.944L217.01 231.736C217.731 233.496 218.764 235.112 220.059 236.505C220.06 236.505 220.06 236.506 220.06 236.506Z" fill="#1E1E1E" stroke="#1E1E1E"/>
<path opacity="0.15" d="M312.904 84.8015L312.904 84.8007C313.711 83.1304 314.82 81.6248 316.174 80.3594L326.824 86.5097C325.485 87.8174 324.381 89.3482 323.562 91.0352C323.562 91.0352 323.562 91.0353 323.562 91.0353L256.843 228.466L247.876 218.748L312.904 84.8015Z" fill="#1E1E1E" stroke="#1E1E1E"/>
<path d="M345.041 83.9781C341.286 82.1632 336.965 81.9098 333.023 83.2733C329.082 84.6368 325.841 87.5063 324.011 91.2535L256.971 229.344L243.575 214.825C240.708 211.912 236.82 210.23 232.734 210.134C228.649 210.039 224.686 211.537 221.686 214.311C218.686 217.086 216.883 220.92 216.66 225C216.437 229.081 217.811 233.088 220.491 236.173L249.529 267.639C251.267 269.52 253.438 270.948 255.854 271.799C258.269 272.65 260.855 272.899 263.389 272.524C265.922 272.15 268.326 271.162 270.391 269.648C272.456 268.133 274.12 266.138 275.24 263.834L352.348 105.008C354.165 101.25 354.416 96.9244 353.046 92.9812C351.676 89.0381 348.797 85.7999 345.041 83.9781Z" fill="#092C4C"/>
<path d="M125.154 99.4998C119.08 99.4998 114.925 101.092 110.611 107.221C106.631 112.857 95.7736 131.642 95.7736 131.642C95.7736 131.642 87.8136 115.308 87.0176 112.053C86.2216 108.797 86.2693 107.348 87.0176 105.931C88.1131 104.257 88.8002 102.348 89.0235 100.359C89.3339 96.4432 90.2891 93.092 89.4135 92.9806C86.9857 92.8452 86.8902 95.9656 85.6166 97.8043C85.4548 97.9818 85.2535 98.1187 85.029 98.2039C84.8044 98.2891 84.563 98.3201 84.3242 98.2945C84.0854 98.2689 83.856 98.1874 83.6546 98.0566C83.4532 97.9258 83.2854 97.7494 83.1649 97.5416C82.6316 96.4511 82.9182 94.6601 82.6634 93.3706C82.7324 92.653 82.8468 91.9405 83.0057 91.2373C83.9252 91.4027 84.8643 91.4296 85.7917 91.3169C86.8424 92.9646 87.5588 93.6572 89.0235 92.9885C89.2145 92.686 88.3946 90.6005 87.4315 89.0085C87.2869 88.765 87.0525 88.5878 86.7788 88.515C85.0129 88.0678 83.17 88.0162 81.3819 88.3638C81.2467 88.3776 81.1157 88.4186 80.9967 88.4843C80.8777 88.5499 80.7732 88.6389 80.6894 88.7458C80.0173 89.7304 79.4818 90.8015 79.0974 91.9298C78.9939 92.2721 78.6755 92.2642 78.5959 91.9696C77.7999 88.125 77.7999 82.6644 77.7999 80.1092C77.7999 78.0954 74.8626 77.777 74.7592 80.6585C74.5846 84.5248 74.6511 88.3982 74.9582 92.2562C74.9582 92.6064 74.6079 92.7736 74.4646 92.3915C73.9552 91.0304 72.7055 86.915 72.1801 79.8147C72.0368 77.9043 68.9484 77.5939 68.9961 80.2764C69.1171 85.0324 69.7361 89.7625 70.8428 94.3895C70.9384 94.7238 70.6279 95.0183 70.3971 94.6362C68.948 91.8439 67.7904 88.9098 66.9424 85.8802C66.2818 83.5718 63.2012 84.1609 63.7584 87.0344C64.7216 92.1846 66.2499 98.6958 68.5344 103.352C70.9702 108.327 73.0716 110.819 74.2816 114.727C75.4915 118.636 80.4983 140.772 85.8554 149.401C90.0503 156.167 94.8502 155.538 100.016 151.972C105.182 148.406 123.642 122.687 123.642 122.687L125.154 99.4998Z" fill="#9E6767"/>
<path d="M95.7734 131.635C95.7734 131.635 98.3604 136.02 98.7584 139.531C99.416 136.122 98.7621 132.591 96.9276 129.645L95.7734 131.635Z" fill="#874C4C"/>
<path d="M98.7257 126.788C98.6952 126.687 98.6706 126.601 98.6515 126.532L98.8514 126.208L99.6931 124.844C100.399 123.701 101.361 122.143 102.388 120.482C104.443 117.159 106.756 113.428 107.793 111.787C108.228 111.1 108.632 110.403 109.036 109.707C110.614 106.99 112.184 104.285 115.494 102.2C119.44 99.7129 122.994 99.6805 125.954 99.9544L126.408 118.342L111.015 139.225C106.13 138.061 103.043 134.91 101.16 131.994C100.199 130.505 99.557 129.085 99.1556 128.037C98.955 127.513 98.8151 127.084 98.7257 126.788Z" fill="#1E1E1E" stroke="#1E1E1E"/>
<path d="M136.012 308.65L136.009 308.659L136.005 308.668C135.126 311.064 134.326 312.627 131.846 315.799L131.846 315.8C129.108 319.312 122.749 325.1 113.104 322.581C110.74 321.961 109.616 321.233 108.81 320.427C108.489 320.102 108.264 319.693 108.163 319.247C108.072 318.85 108.082 318.437 108.191 318.046L140.607 294.455C140.647 294.488 140.695 294.537 140.752 294.605C140.925 294.813 141.112 295.127 141.286 295.497C141.458 295.863 141.608 296.258 141.715 296.613C141.826 296.978 141.879 297.26 141.881 297.41C141.887 297.729 141.714 298.335 141.348 299.142C140.995 299.92 140.495 300.814 139.925 301.685C138.34 303.837 137.026 306.177 136.012 308.65Z" fill="#1E1E1E" stroke="#1E1E1E"/>
<path d="M121.493 290.928L121.487 290.966C121.382 291.65 121.402 292.347 121.545 293.023L121.55 293.044L121.552 293.065C121.834 295.327 121.634 297.623 120.964 299.802C120.294 301.981 119.171 303.994 117.667 305.707L117.66 305.715L117.652 305.723C116.24 307.198 114.645 308.487 112.907 309.559C110.416 311.135 109.119 312.414 108.506 313.637C107.911 314.822 107.923 316.029 108.256 317.58C108.62 318.35 109.513 319.117 110.851 319.744C112.199 320.375 113.93 320.829 115.823 320.996C119.617 321.333 123.96 320.514 127.107 317.813L127.116 317.806L127.126 317.798C129.882 315.658 131.99 312.793 133.212 309.525L133.216 309.516L133.216 309.516C134.175 307.093 135.29 304.735 136.553 302.456C136.88 301.84 137.277 301.21 137.681 300.584C137.765 300.453 137.85 300.322 137.935 300.191C138.259 299.691 138.582 299.195 138.882 298.695C139.647 297.422 140.202 296.232 140.234 295.142L140.234 295.142C140.25 294.594 139.975 293.723 139.484 292.667C139.005 291.637 138.358 290.51 137.715 289.484L121.493 290.928ZM121.493 290.928V290.89M121.493 290.928V290.89M121.493 290.89V290.879C121.582 290.612 121.747 290.377 121.968 290.201C122.192 290.046 122.463 289.976 122.734 290.003L122.787 290.008L122.84 290.002C123.958 289.875 125.082 289.807 126.207 289.798C126.336 289.803 126.47 289.805 126.608 289.808C126.967 289.814 127.353 289.821 127.739 289.87C128.269 289.937 128.634 290.069 128.821 290.261C128.996 290.53 129.077 290.849 129.051 291.168L129.049 291.196L129.05 291.224L129.121 293.524C129.114 293.759 129.157 293.993 129.247 294.211L129.254 294.226L129.261 294.242C129.347 294.414 129.486 294.554 129.657 294.641C129.829 294.728 130.023 294.758 130.213 294.727L130.281 294.715L130.344 294.686C130.483 294.62 130.606 294.524 130.704 294.405C130.795 294.295 130.861 294.169 130.9 294.033C131.142 293.413 131.288 292.735 131.424 292.102C131.463 291.922 131.501 291.746 131.54 291.576C131.726 290.77 131.943 290.058 132.367 289.471L132.367 289.471L132.37 289.467C132.7 288.999 133.146 288.679 133.675 288.34C133.741 288.298 133.809 288.255 133.878 288.211C134.341 287.919 134.862 287.59 135.298 287.138L135.498 286.932M121.493 290.89L135.498 286.932M135.498 286.932L135.42 286.655M135.498 286.932L135.42 286.655M135.42 286.655L135.358 286.434M135.42 286.655L135.358 286.434M135.358 286.434C135.544 286.569 135.748 286.761 135.969 287.009C136.529 287.637 137.116 288.53 137.715 289.484L135.358 286.434Z" fill="#1E1E1E" stroke="#1E1E1E"/>
<path d="M104.131 244.523C106.782 253.239 119.176 283.416 119.916 285.23L122.384 291.216C124.009 291.751 125.75 291.825 127.414 291.431C127.677 294.321 128.115 298.85 128.282 301.135C128.346 303.785 128.577 307.065 128.003 309.684C127.518 311.912 126.953 314.253 126.531 316.489C126.348 317.476 126.165 318.471 126.014 319.466C125.757 320.509 125.843 321.606 126.26 322.595C126.514 323.026 126.849 323.405 127.247 323.709C129.015 325.098 131.25 325.753 133.488 325.54C134.671 325.483 135.817 325.103 136.799 324.441C138.726 323.064 139.402 320.668 140.381 318.631C141.448 316.426 141.106 316.179 141.177 313.815C141.241 312.159 141.703 307.956 142.363 303.562C143.024 299.168 145.874 283.726 147.243 268.339C147.801 261.505 147.801 254.637 147.243 247.803C158.116 218.263 162.956 200.695 164.381 190.889C165.821 180.923 165.129 177.357 164.946 171.633L112.068 172.907C107.833 200.242 100.573 232.838 104.131 244.523Z" fill="#9E6767"/>
<path d="M103.305 222.713C104.395 212.667 111.909 174.053 111.909 174.053H165.178C165.178 174.053 165.52 181.464 165.425 184.871C165.329 188.278 164.231 194.494 162.328 202.383C160.426 210.271 153.373 232.535 151.98 235.815C150.587 239.094 148 248.607 148 248.607C149.306 266.469 145.907 282.5 143.359 303.809C143.359 303.809 142.619 306.683 135.073 306.118C127.734 305.56 126.253 302.854 126.253 302.854L125.768 284.474C125.768 284.474 121.788 285.7 119.4 285.143C119.4 285.143 103.631 246.211 102.867 243.87C102.103 241.53 102.214 232.758 103.305 222.713Z" fill="#092C4C"/>
<path opacity="0.45" d="M147.518 248.475L147.495 248.558L147.501 248.643C148.488 262.137 146.78 274.565 144.784 289.097C144.149 293.717 143.485 298.55 142.869 303.698C142.866 303.705 142.862 303.715 142.857 303.726C142.835 303.775 142.793 303.856 142.72 303.958C142.575 304.159 142.3 304.453 141.797 304.742C140.787 305.322 138.827 305.897 135.111 305.619C131.499 305.345 129.371 304.545 128.162 303.844C127.557 303.494 127.18 303.167 126.959 302.938C126.86 302.836 126.792 302.753 126.749 302.696L126.268 284.461L126.25 283.803L125.621 283.996L125.621 283.996L125.62 283.997L125.619 283.997L125.611 283.999L125.58 284.009C125.568 284.012 125.552 284.017 125.534 284.022C125.512 284.029 125.485 284.036 125.455 284.045C125.345 284.077 125.184 284.121 124.983 284.173C124.581 284.277 124.021 284.41 123.389 284.526C122.199 284.744 120.822 284.887 119.762 284.706L119.686 284.518L119.184 283.278C118.752 282.209 118.133 280.679 117.388 278.836C115.897 275.149 113.902 270.21 111.884 265.197C107.839 255.155 103.717 244.864 103.342 243.715C103.173 243.196 103.038 242.264 102.959 240.959C102.88 239.668 102.856 238.053 102.89 236.19C102.959 232.466 103.258 227.777 103.802 222.767C104.345 217.767 106.491 205.624 108.508 194.707C109.515 189.253 110.488 184.114 111.209 180.337C111.57 178.449 111.868 176.902 112.075 175.827C112.179 175.289 112.26 174.87 112.316 174.584L112.322 174.553H164.699C164.708 174.747 164.718 174.994 164.73 175.285C164.761 176.032 164.8 177.063 164.837 178.201C164.911 180.48 164.972 183.171 164.925 184.857C164.831 188.206 163.744 194.378 161.842 202.266C160.895 206.192 158.661 213.715 156.486 220.678C154.307 227.651 152.204 234.008 151.52 235.619C150.81 237.291 149.807 240.518 148.988 243.299C148.577 244.696 148.209 245.99 147.945 246.934C147.812 247.406 147.706 247.791 147.632 248.059C147.595 248.192 147.567 248.296 147.547 248.367L147.525 248.448L147.52 248.468L147.518 248.474L147.518 248.475L147.518 248.475C147.518 248.475 147.518 248.475 148 248.607L147.518 248.475ZM142.877 303.677L142.877 303.677L142.878 303.673C142.879 303.672 142.878 303.674 142.877 303.677Z" fill="#1E1E1E" stroke="#1E1E1E"/>
<path opacity="0.2" d="M125.901 199.223L126.396 199.294L126.434 199.03L126.236 198.851C122.499 195.485 120.223 192.469 118.884 190.305C118.749 190.086 118.623 189.876 118.506 189.675C121.749 192.895 125.414 195.668 129.403 197.916L129.389 197.989C129.337 198.268 129.26 198.679 129.163 199.204C128.968 200.254 128.69 201.763 128.358 203.598C127.694 207.267 126.815 212.241 125.951 217.458C125.088 222.675 124.241 228.139 123.642 232.787C123.046 237.416 122.688 241.289 122.824 243.291C123.086 247.177 123.697 257.478 124.242 266.812C124.364 268.89 124.482 270.92 124.592 272.82C124.308 270.805 124.006 268.657 123.703 266.486C122.412 257.234 121.111 247.641 121.036 246.242C120.952 244.404 121.24 240.564 121.728 235.793C122.214 231.036 122.895 225.396 123.587 219.987C124.278 214.579 124.981 209.406 125.51 205.584C125.775 203.673 125.997 202.101 126.152 201.006C126.23 200.459 126.291 200.031 126.332 199.739L126.38 199.408L126.392 199.323L126.395 199.301L126.396 199.296L126.396 199.295C126.396 199.294 126.396 199.294 125.901 199.223Z" fill="#1E1E1E" stroke="#1E1E1E"/>
<path d="M139.114 329.12L139.105 329.125L139.097 329.131C136.968 330.581 135.191 332.49 133.898 334.718C131.897 337.776 129.252 340.359 126.148 342.288C122.037 344.617 117.194 345.296 112.601 344.184C110.115 343.479 108.861 342.846 108.223 342.222C107.704 341.714 107.564 341.183 107.552 340.451L142.399 323.344C142.406 323.36 142.413 323.378 142.42 323.398C142.486 323.581 142.529 323.848 142.541 324.164C142.566 324.785 142.468 325.448 142.341 325.785C141.555 327.144 140.447 328.289 139.114 329.12Z" fill="#1E1E1E" stroke="#1E1E1E"/>
<mask id="path-33-inside-1_385_65590" fill="white">
<path d="M127.04 311.172C125.727 317.54 123.443 322.221 118.149 326.153C113.93 329.289 110.874 330.881 107.507 333.675C106.082 334.869 105.962 337.408 107.053 340.147C109.329 341.97 112.561 343.02 116.899 343.012C121.755 343.012 123.618 342.145 126.404 340.242C127.772 339.307 129.046 338.24 130.209 337.058C132.541 334.718 134.189 331.828 135.844 329.974C137.5 328.119 141.169 326.225 142.212 323.988C142.785 322.762 142.547 319.92 142.164 317.5C141.814 315.28 142.491 311.379 141.424 311.132L141.273 312.724C141.185 313.083 140.962 313.266 140.214 313.52C139.542 313.666 138.848 313.685 138.169 313.576C137.927 313.489 137.664 313.479 137.417 313.549C137.17 313.619 136.951 313.765 136.791 313.966C136.075 314.81 135.884 316.004 134.961 316.704C134.901 316.757 134.83 316.795 134.754 316.816C134.718 316.836 134.678 316.846 134.637 316.844C134.596 316.843 134.557 316.83 134.523 316.808C134.498 316.769 134.482 316.726 134.475 316.681C134.468 316.636 134.471 316.589 134.483 316.545L134.746 314.157C134.777 313.92 134.777 313.679 134.746 313.441C134.696 313.219 134.599 313.011 134.462 312.829C134.324 312.648 134.15 312.498 133.95 312.39C133.279 312 132.559 311.703 131.808 311.507C131.027 311.294 130.228 311.159 129.42 311.101C128.628 310.999 127.825 311.023 127.04 311.172Z"/>
</mask>
<path d="M127.04 311.172C125.727 317.54 123.443 322.221 118.149 326.153C113.93 329.289 110.874 330.881 107.507 333.675C106.082 334.869 105.962 337.408 107.053 340.147C109.329 341.97 112.561 343.02 116.899 343.012C121.755 343.012 123.618 342.145 126.404 340.242C127.772 339.307 129.046 338.24 130.209 337.058C132.541 334.718 134.189 331.828 135.844 329.974C137.5 328.119 141.169 326.225 142.212 323.988C142.785 322.762 142.547 319.92 142.164 317.5C141.814 315.28 142.491 311.379 141.424 311.132L141.273 312.724C141.185 313.083 140.962 313.266 140.214 313.52C139.542 313.666 138.848 313.685 138.169 313.576C137.927 313.489 137.664 313.479 137.417 313.549C137.17 313.619 136.951 313.765 136.791 313.966C136.075 314.81 135.884 316.004 134.961 316.704C134.901 316.757 134.83 316.795 134.754 316.816C134.718 316.836 134.678 316.846 134.637 316.844C134.596 316.843 134.557 316.83 134.523 316.808C134.498 316.769 134.482 316.726 134.475 316.681C134.468 316.636 134.471 316.589 134.483 316.545L134.746 314.157C134.777 313.92 134.777 313.679 134.746 313.441C134.696 313.219 134.599 313.011 134.462 312.829C134.324 312.648 134.15 312.498 133.95 312.39C133.279 312 132.559 311.703 131.808 311.507C131.027 311.294 130.228 311.159 129.42 311.101C128.628 310.999 127.825 311.023 127.04 311.172Z" fill="#1E1E1E"/>
<path d="M127.04 311.172L126.854 310.19L126.196 310.315L126.061 310.97L127.04 311.172ZM118.149 326.153L117.553 325.35L117.553 325.35L118.149 326.153ZM107.507 333.675L106.868 332.906L106.864 332.909L107.507 333.675ZM107.053 340.147L106.124 340.517L106.222 340.762L106.428 340.927L107.053 340.147ZM116.899 343.012V342.012L116.898 342.012L116.899 343.012ZM126.404 340.242L126.968 341.068L126.968 341.068L126.404 340.242ZM130.209 337.058L129.5 336.352L129.495 336.357L130.209 337.058ZM142.212 323.988L141.306 323.564L141.306 323.565L142.212 323.988ZM142.164 317.5L141.177 317.656L141.177 317.656L142.164 317.5ZM141.424 311.132L141.65 310.158L140.537 309.901L140.429 311.038L141.424 311.132ZM141.273 312.724L142.244 312.962L142.262 312.891L142.268 312.819L141.273 312.724ZM140.214 313.52L140.426 314.498L140.482 314.486L140.536 314.467L140.214 313.52ZM138.169 313.576L137.828 314.516L137.917 314.549L138.01 314.564L138.169 313.576ZM136.791 313.966L137.554 314.613L137.564 314.601L137.574 314.588L136.791 313.966ZM134.961 316.704L134.356 315.908L134.328 315.929L134.302 315.952L134.961 316.704ZM134.754 316.816L134.489 315.852L134.371 315.884L134.265 315.943L134.754 316.816ZM134.523 316.808L133.681 317.347L133.796 317.528L133.976 317.645L134.523 316.808ZM134.483 316.545L135.447 316.811L135.468 316.734L135.477 316.655L134.483 316.545ZM134.746 314.157L133.755 314.025L133.753 314.036L133.752 314.048L134.746 314.157ZM134.746 313.441L135.737 313.309L135.731 313.265L135.721 313.221L134.746 313.441ZM133.95 312.39L133.447 313.254L133.46 313.262L133.474 313.27L133.95 312.39ZM131.808 311.507L131.546 312.472L131.556 312.474L131.808 311.507ZM129.42 311.101L129.293 312.093L129.321 312.096L129.349 312.098L129.42 311.101ZM126.061 310.97C124.782 317.173 122.595 321.605 117.553 325.35L118.745 326.956C124.29 322.837 126.672 317.907 128.02 311.374L126.061 310.97ZM117.553 325.35C115.469 326.899 113.676 328.065 111.955 329.21C110.237 330.352 108.594 331.473 106.868 332.906L108.145 334.445C109.786 333.083 111.355 332.011 113.062 330.875C114.766 329.742 116.61 328.543 118.746 326.956L117.553 325.35ZM106.864 332.909C105.881 333.733 105.422 334.961 105.338 336.268C105.255 337.577 105.538 339.046 106.124 340.517L107.982 339.777C107.477 338.509 107.274 337.339 107.334 336.395C107.395 335.45 107.708 334.811 108.149 334.442L106.864 332.909ZM106.428 340.927C108.929 342.93 112.404 344.021 116.901 344.012L116.898 342.012C112.718 342.02 109.729 341.009 107.678 339.366L106.428 340.927ZM116.899 344.012C119.383 344.012 121.176 343.791 122.732 343.293C124.292 342.794 125.55 342.036 126.968 341.068L125.84 339.416C124.471 340.351 123.404 340.978 122.123 341.388C120.838 341.8 119.272 342.012 116.899 342.012V344.012ZM126.968 341.068C128.39 340.096 129.714 338.988 130.922 337.759L129.495 336.357C128.379 337.493 127.154 338.518 125.839 339.417L126.968 341.068ZM130.917 337.764C132.14 336.536 133.173 335.177 134.088 333.924C135.022 332.645 135.805 331.519 136.59 330.64L135.098 329.308C134.228 330.283 133.359 331.53 132.472 332.744C131.567 333.985 130.609 335.24 129.5 336.352L130.917 337.764ZM136.59 330.64C137.34 329.8 138.544 328.956 139.876 327.911C141.108 326.943 142.482 325.776 143.119 324.41L141.306 323.565C140.9 324.436 139.918 325.335 138.641 326.338C137.462 327.263 136.004 328.293 135.098 329.308L136.59 330.64ZM143.118 324.411C143.515 323.563 143.582 322.33 143.546 321.161C143.508 319.937 143.347 318.577 143.152 317.345L141.177 317.656C141.364 318.844 141.513 320.114 141.547 321.223C141.583 322.386 141.483 323.187 141.306 323.564L143.118 324.411ZM143.152 317.345C142.993 316.333 143.072 314.961 143.063 313.57C143.059 312.927 143.034 312.256 142.919 311.712C142.861 311.441 142.768 311.131 142.595 310.855C142.413 310.563 142.109 310.265 141.65 310.158L141.199 312.107C141.006 312.062 140.914 311.939 140.9 311.916C140.896 311.91 140.928 311.963 140.962 312.126C141.031 312.452 141.059 312.942 141.063 313.582C141.07 314.759 140.986 316.447 141.177 317.656L143.152 317.345ZM140.429 311.038L140.277 312.63L142.268 312.819L142.42 311.227L140.429 311.038ZM140.302 312.487C140.299 312.499 140.304 312.472 140.329 312.432C140.341 312.414 140.354 312.397 140.365 312.385C140.377 312.372 140.384 312.367 140.384 312.367C140.381 312.369 140.351 312.391 140.265 312.43C140.181 312.469 140.062 312.516 139.892 312.574L140.536 314.467C140.923 314.335 141.3 314.184 141.598 313.956C141.96 313.679 142.153 313.337 142.244 312.962L140.302 312.487ZM140.002 312.543C139.452 312.663 138.883 312.678 138.327 312.589L138.01 314.564C138.813 314.692 139.632 314.67 140.426 314.498L140.002 312.543ZM138.509 312.636C138.07 312.477 137.593 312.46 137.145 312.587L137.69 314.512C137.735 314.499 137.784 314.5 137.828 314.516L138.509 312.636ZM137.145 312.587C136.696 312.714 136.299 312.979 136.008 313.344L137.574 314.588C137.604 314.551 137.644 314.524 137.69 314.512L137.145 312.587ZM136.029 313.319C135.575 313.854 135.28 314.513 135.064 314.932C134.821 315.405 134.627 315.703 134.356 315.908L135.565 317.501C136.218 317.006 136.581 316.356 136.843 315.846C137.133 315.282 137.292 314.922 137.554 314.613L136.029 313.319ZM134.302 315.952C134.355 315.905 134.419 315.871 134.489 315.852L135.019 317.78C135.241 317.719 135.446 317.608 135.62 317.457L134.302 315.952ZM134.265 315.943C134.389 315.874 134.53 315.84 134.672 315.845L134.603 317.844C134.826 317.851 135.047 317.798 135.242 317.689L134.265 315.943ZM134.672 315.845C134.814 315.85 134.951 315.893 135.07 315.971L133.976 317.645C134.162 317.767 134.379 317.836 134.603 317.844L134.672 315.845ZM135.365 316.269C135.416 316.348 135.45 316.438 135.464 316.531L133.486 316.831C133.514 317.015 133.58 317.191 133.681 317.347L135.365 316.269ZM135.464 316.531C135.478 316.624 135.472 316.72 135.447 316.811L133.519 316.28C133.47 316.459 133.458 316.647 133.486 316.831L135.464 316.531ZM135.477 316.655L135.74 314.267L133.752 314.048L133.489 316.436L135.477 316.655ZM135.737 314.29C135.78 313.964 135.78 313.634 135.737 313.309L133.755 313.573C133.775 313.723 133.775 313.875 133.755 314.025L135.737 314.29ZM135.721 313.221C135.64 312.86 135.482 312.52 135.259 312.225L133.664 313.433C133.716 313.501 133.752 313.578 133.77 313.661L135.721 313.221ZM135.259 312.225C135.035 311.93 134.751 311.687 134.425 311.51L133.474 313.27C133.549 313.31 133.613 313.366 133.664 313.433L135.259 312.225ZM134.453 311.526C133.704 311.09 132.899 310.758 132.061 310.539L131.556 312.474C132.218 312.647 132.855 312.91 133.447 313.254L134.453 311.526ZM132.071 310.542C131.227 310.313 130.364 310.166 129.492 310.103L129.349 312.098C130.092 312.151 130.828 312.276 131.546 312.472L132.071 310.542ZM129.548 310.109C128.651 309.994 127.742 310.021 126.854 310.19L127.227 312.155C127.908 312.025 128.606 312.004 129.293 312.093L129.548 310.109Z" fill="#1E1E1E" mask="url(#path-33-inside-1_385_65590)"/>
<path d="M160.369 101.784C160.369 101.784 162.558 104.793 164.349 110.994C166.53 121.178 167.65 131.56 167.693 141.974C167.693 156.04 165.798 178.829 165.798 178.829C149.472 187.012 123.141 182.172 111.551 174.189C112.02 171.657 112.418 158.348 113.334 149.568C113.947 134.508 114.456 126.62 114.56 119.917C114.775 106.529 121.437 99.6113 126.5 99.5078L139.283 99.7068L160.369 101.784Z" fill="#092C4C"/>
<path d="M164.398 174.698C161.97 176.696 157.234 180.533 156.335 182.467C155.332 184.68 154.743 188.039 154.066 189.297C153.389 190.554 154.408 191.191 155.809 190.737C157.21 190.284 158.046 189.098 159.128 186.2C160.211 183.303 163.22 181.034 163.22 181.034L164.398 174.698Z" fill="#874C4C"/>
<path d="M155.529 200.751C156.11 201.873 157.463 201.881 158.713 201.977C160.236 202.152 161.78 201.977 163.226 201.468C164.964 200.965 166.489 199.905 167.564 198.451C168.79 196.684 169.109 194.471 169.809 192.441C171.274 188.182 175.636 185.11 176.352 180.596C176.647 178.734 176.647 176.537 177.148 175.383C177.459 174.698 184.631 162.352 187.194 157.003C189.645 151.861 191.484 149.441 189.255 143.264C187.027 137.087 179.441 115.348 174.068 107.794C171.027 103.512 166.195 102.286 160.337 101.784C155.879 113.39 161.061 125.386 161.061 125.386L172.89 148.136C172.89 148.136 168.305 163.801 165.439 172.509C164.643 174.897 163.051 176.425 161.228 179.108C160.432 180.27 158.633 182.292 157.996 183.558C157.2 185.15 157.2 186.2 156.802 188.453C156.182 192.043 155.218 200.218 155.529 200.751Z" fill="#9E6767"/>
<path d="M184.237 130.384C184.301 130.551 184.35 130.68 184.383 130.768C184.37 130.823 184.353 130.896 184.329 130.984C184.266 131.215 184.159 131.554 183.988 131.97C183.646 132.803 183.046 133.946 182.017 135.163C180 137.548 176.301 140.255 169.562 141.43L160.196 124.158C160.189 124.139 160.178 124.109 160.164 124.071C160.135 123.991 160.093 123.871 160.04 123.714C159.934 123.399 159.787 122.933 159.624 122.337C159.296 121.144 158.902 119.431 158.639 117.357C158.124 113.289 158.116 107.852 160.087 102.236C161.536 102.305 163.24 102.463 164.894 102.748C166.697 103.058 168.408 103.513 169.664 104.149C170.943 104.796 172.007 105.506 173.124 106.788C174.253 108.082 175.451 109.974 176.964 113.008C178.475 116.037 180.341 120.506 181.833 124.229C182.578 126.088 183.229 127.757 183.693 128.961C183.925 129.563 184.11 130.049 184.237 130.384Z" fill="#1E1E1E" stroke="#1E1E1E"/>
<path d="M119.234 49.4633L119.453 49.7929L119.5 49.8646L119.671 49.4633M119.234 49.4633C119.303 49.4342 119.377 49.4192 119.453 49.4192C119.528 49.4192 119.602 49.4342 119.671 49.4633M119.234 49.4633L119.38 49.812L119.003 49.8375C119.012 49.7621 119.037 49.6897 119.077 49.6251C119.117 49.5605 119.17 49.5053 119.234 49.4633ZM119.671 49.4633C120.469 49.8037 121.285 50.0987 122.115 50.3469L119.502 49.8671L119.671 49.4633ZM119.265 55.2742C118.893 55.1018 118.534 54.9022 118.191 54.6772C117.607 54.2855 117.095 53.7953 116.678 53.2284L119.265 55.2742ZM119.265 55.2742C119.363 55.3193 119.463 55.3601 119.564 55.3964M119.265 55.2742L119.564 55.3964M119.564 55.3964C119.67 55.5614 119.783 55.7225 119.902 55.8793L120.3 55.5766L120.368 55.0812C120.206 55.0592 120.047 55.0247 119.892 54.978L119.564 55.3964ZM123.452 73.0297L123.429 72.9879L123.398 72.9513C122.714 72.131 121.937 71.3917 121.085 70.7477C120.755 70.4382 120.398 70.1463 120.053 69.8653C120.008 69.8281 119.962 69.7912 119.917 69.7544C119.518 69.4281 119.14 69.1112 118.803 68.7669L118.803 68.7668C118.263 68.2155 117.819 67.5781 117.489 66.8807L117.488 66.8786C117.12 66.1114 116.951 65.2639 116.996 64.4143C117.042 63.5647 117.301 62.7402 117.748 62.0167L117.941 61.7048L117.702 61.427C116.746 60.3194 116.073 58.9968 115.741 57.5723L115.74 57.57C115.577 56.8883 115.558 56.1803 115.683 55.4907C115.799 54.8454 116.04 54.2294 116.391 53.6764C116.819 54.2258 117.333 54.7039 117.912 55.0924L117.912 55.0925L117.917 55.0952C118.28 55.3337 118.661 55.5452 119.055 55.7279L119.056 55.728C119.429 55.9005 119.825 56.0164 120.233 56.072L121.429 56.2354L120.698 55.274C120.127 54.5229 119.724 53.658 119.516 52.7377C119.308 51.8174 119.3 50.8631 119.492 49.9394L119.494 49.9312C120.303 50.2756 121.13 50.5743 121.972 50.826L122.003 50.8353L122.036 50.8405C122.737 50.9537 123.45 50.9878 124.159 50.942C125.75 50.9026 127.335 50.7376 128.9 50.4485L128.9 50.4486L128.908 50.4471C131.643 49.898 134.42 49.5791 137.208 49.4937C140.044 49.4788 142.872 49.7924 145.636 50.4282L145.646 50.4304L145.655 50.4321C147.702 50.8216 149.648 51.6242 151.375 52.791L151.382 52.7957L151.389 52.8001C152.239 53.334 152.958 54.0517 153.494 54.9005C154.03 55.7485 154.368 56.7058 154.485 57.702C154.559 58.3895 154.495 59.0849 154.296 59.7472L154.185 60.1158L154.514 60.3171C155.511 60.9291 156.298 61.831 156.769 62.9022L156.772 62.9091L156.775 62.9159C157.838 65.1454 157.856 67.7066 157.353 70.3062C156.85 72.9051 155.837 75.4889 154.895 77.7349L154.895 77.7349L154.892 77.7426L154.89 77.7463C154.88 77.7698 154.823 77.9063 154.725 78.1416C154.617 78.3971 154.464 78.7619 154.277 79.2042C153.905 80.0888 153.399 81.2831 152.866 82.5319C151.796 85.0399 150.626 87.7385 150.182 88.6155L150.181 88.6179C149.908 89.1628 149.653 89.6843 149.423 90.1577L149.639 86.1139L149.664 85.6326L149.184 85.5893L142.92 85.0242L142.919 85.0241C142.48 84.9851 142.03 84.9327 141.569 84.879L141.568 84.8789C141.109 84.8254 140.638 84.7706 140.168 84.7286C139.23 84.6448 138.268 84.6091 137.344 84.7406C135.807 84.9592 134.323 84.2085 132.908 83.3021L132.907 83.3015C132.714 83.1788 132.521 83.0562 132.327 82.9333C130.137 81.5438 127.901 80.1256 126.273 78.2537C125.587 77.3873 125.011 76.4387 124.56 75.4299C124.249 74.604 123.879 73.8019 123.452 73.0297ZM117.037 67.0947C117.391 67.8423 117.867 68.5256 118.446 69.1166L115.19 55.4017C115.053 56.1593 115.075 56.9371 115.254 57.686C115.605 59.1892 116.315 60.5849 117.323 61.7536C116.831 62.5484 116.547 63.4542 116.497 64.3875C116.447 65.3209 116.633 66.2519 117.037 67.0947ZM119.493 49.8816L119.453 49.8567L119.493 49.8816Z" fill="#1E1E1E" stroke="#1E1E1E"/>
<path d="M142.094 62.3027C142.071 63.4914 142.224 64.6771 142.548 65.821C142.926 66.8259 143.534 67.7283 144.323 68.4558C145.216 69.2134 146.042 70.047 146.791 70.9473C147.599 72.3486 148.073 73.9177 148.176 75.5322C148.18 76.0078 148.291 76.4763 148.501 76.9033C148.71 77.3303 149.012 77.705 149.386 77.9998C151.089 79.0585 152.108 77.0128 153.015 76.0098C154.185 74.9273 157.664 73.6218 159.272 77.2993C160.935 81.1201 157.863 86.1827 155.069 86.9628C150.253 88.308 149.202 85.0285 149.202 85.0285L148.279 102.222C145.565 107.372 139.181 109.012 134.986 108.192C131.364 107.484 129.374 104.944 132.781 101.267L132.964 96.0292C132.964 96.0292 128.618 96.5466 126.524 96.1486C123.03 95.4959 121.303 92.5268 120.355 88.6981C118.851 82.545 118.158 76.0735 120.029 62.2152C120.881 61.7455 124.327 64.428 129.581 64.7862C133.899 65.0906 138.22 64.2331 142.094 62.3027Z" fill="#9E6767"/>
<path d="M132.931 96.0135C132.931 96.0135 140.811 94.6921 143.597 93.323C145.232 92.5356 146.592 91.2733 147.498 89.7012C147.033 91.2889 146.253 92.7668 145.205 94.0473C143.12 96.5388 132.859 98.099 132.859 98.099L132.931 96.0135Z" fill="#874C4C"/>
<path d="M140.095 68.3188C140.197 68.5076 140.256 68.714 140.271 68.9239L137.714 68.1418C137.727 68.1226 137.741 68.1037 137.755 68.0851C137.867 67.938 138.008 67.8149 138.169 67.7234C138.33 67.6318 138.507 67.5735 138.691 67.552C138.873 67.5308 139.057 67.5459 139.232 67.5965C139.602 67.7175 139.911 67.9761 140.095 68.3188Z" fill="#1E1E1E" stroke="#1E1E1E"/>
<path d="M135.756 85.8406L130.352 87.6714C130.457 88.0326 130.634 88.3691 130.871 88.6607C131.109 88.9524 131.403 89.1933 131.735 89.3693C132.068 89.5452 132.433 89.6526 132.807 89.685C133.182 89.7174 133.56 89.6742 133.918 89.5579C134.645 89.2957 135.242 88.7623 135.585 88.0693C135.928 87.3764 135.989 86.5777 135.756 85.8406Z" fill="#874C4C"/>
<path d="M135.319 87.1619C134.613 87.1624 133.928 87.3972 133.37 87.8294C132.813 88.2616 132.415 88.8668 132.238 89.5499C132.784 89.7291 133.372 89.7291 133.918 89.5499C134.421 89.3718 134.867 89.0598 135.206 88.6474C135.546 88.2351 135.766 87.738 135.844 87.2096C135.671 87.178 135.495 87.162 135.319 87.1619Z" fill="#F28F8F"/>
<path d="M122.377 67.4553L122.377 67.4553L122.383 67.4544C122.558 67.4292 122.736 67.4394 122.907 67.4842C123.078 67.529 123.238 67.6076 123.378 67.7152L123.668 67.3376L123.378 67.7152C123.518 67.8229 123.635 67.9575 123.722 68.1112C123.726 68.1179 123.73 68.1247 123.733 68.1316L121.198 68.4613C121.25 68.2859 121.335 68.1206 121.452 67.9753C121.681 67.6889 122.013 67.5025 122.377 67.4553Z" fill="#1E1E1E" stroke="#1E1E1E"/>
<path d="M144.139 72.9642L144.11 71.3317L154.032 74.7115C153.92 74.7583 153.81 74.8091 153.701 74.864C153.131 75.1531 152.622 75.5483 152.202 76.0272L144.139 72.9642Z" fill="#1E1E1E" stroke="#1E1E1E"/>
<path d="M122.987 75.4721L122.988 75.4571L122.988 75.4421C122.989 75.3102 123.017 75.1799 123.069 75.0585C123.12 74.9372 123.195 74.8272 123.29 74.735C123.384 74.6427 123.496 74.5699 123.618 74.5207C123.738 74.4726 123.865 74.448 123.994 74.4482C124.123 74.4553 124.249 74.4874 124.366 74.5429C124.485 74.5996 124.591 74.6796 124.679 74.7781C124.767 74.8766 124.834 74.9917 124.876 75.1165C124.919 75.2414 124.936 75.3735 124.927 75.505L124.926 75.52L124.925 75.5351C124.924 75.667 124.897 75.7973 124.845 75.9186C124.793 76.04 124.718 76.1499 124.624 76.2422C124.529 76.3345 124.418 76.4073 124.295 76.4565C124.176 76.5046 124.048 76.5292 123.919 76.5289C123.79 76.5219 123.664 76.4898 123.548 76.4343C123.429 76.3776 123.322 76.2976 123.234 76.1991C123.147 76.1005 123.08 75.9855 123.037 75.8606C122.995 75.7358 122.978 75.6037 122.987 75.4721Z" fill="#1E1E1E" stroke="#1E1E1E"/>
<path d="M137.215 75.9695C137.11 75.8125 137.053 75.6283 137.051 75.4394C137.056 75.1759 137.165 74.9251 137.354 74.7411C137.543 74.5572 137.797 74.4549 138.06 74.4563C138.249 74.4635 138.432 74.5255 138.586 74.6348C138.741 74.7451 138.861 74.8988 138.93 75.0766L139.367 74.9071L138.93 75.0766C138.999 75.2545 139.014 75.4487 138.974 75.6351C138.933 75.8216 138.839 75.9919 138.702 76.125C138.565 76.2581 138.392 76.3481 138.205 76.3837C138.018 76.4193 137.824 76.3991 137.648 76.3254C137.472 76.2518 137.321 76.128 137.215 75.9695Z" fill="#1E1E1E" stroke="#1E1E1E"/>
<path d="M116.399 72.9329L116.405 72.9402C116.6 73.1788 116.739 73.4574 116.813 73.7561L116.814 73.7593L116.814 73.7594C116.908 74.1484 117 74.6584 117.097 75.1946C117.15 75.4933 117.206 75.8002 117.264 76.0989C117.432 76.9669 117.626 77.7902 117.883 78.3603L117.889 78.3741L117.894 78.3882C118.241 79.3036 118.867 80.0866 119.684 80.626C120.5 81.1653 121.466 81.4337 122.444 81.3929L122.464 81.3921L122.484 81.3929C123.021 81.413 123.558 81.3683 124.083 81.2596L124.133 81.2492H124.185H124.252C124.67 81.1458 125.071 80.9868 125.446 80.7764L125.506 80.7346L125.52 80.7246L125.535 80.7155L125.642 80.6515L125.762 80.569L125.881 80.4717L125.889 80.4652L125.889 80.4653L126.04 80.3459L126.054 80.3348L126.069 80.3247C126.086 80.313 126.102 80.2991 126.115 80.2834L126.135 80.2603L126.158 80.2398C126.238 80.1676 126.313 80.0902 126.383 80.0082L126.391 79.999L126.391 79.9991C126.824 79.5149 127.173 78.9621 127.425 78.3634L127.429 78.3533L127.429 78.3534C127.676 77.8003 127.804 77.1848 127.936 76.5523C127.986 76.3121 128.036 76.0694 128.094 75.8268C128.192 75.413 128.317 74.9895 128.517 74.644C128.725 74.2847 129.038 73.974 129.511 73.8668L129.565 73.8544H129.621H129.765H129.924C130.48 73.8544 130.905 74.0859 131.217 74.4524C131.508 74.7941 131.693 75.2429 131.838 75.6828C131.927 75.9542 132.012 76.2621 132.096 76.5662C132.146 76.7464 132.196 76.9253 132.246 77.0944C132.386 77.5719 132.543 78.0262 132.754 78.4277C133.207 79.2871 133.76 80.0922 134.595 80.6925C135.423 81.2879 136.57 81.7115 138.261 81.7348H138.712H138.728L138.745 81.7359C138.845 81.7426 138.945 81.7426 139.044 81.7359L139.047 81.7357C139.306 81.7199 139.563 81.684 139.817 81.6283L140.074 81.5658L140.084 81.5635L140.084 81.5636C140.152 81.5485 140.219 81.5296 140.285 81.507L140.297 81.5028L140.309 81.4993L140.462 81.4558C140.757 81.3507 141.041 81.2153 141.309 81.0519L141.319 81.0458L141.319 81.0459C141.41 80.9932 141.497 80.9342 141.58 80.8694L141.586 80.8647L141.592 80.8601C141.765 80.7337 141.926 80.5916 142.073 80.4356L142.437 80.7781M116.399 72.9329L124.826 70.9294C125.894 71.2777 126.645 71.6397 127.295 71.9531C127.409 72.0083 127.521 72.062 127.63 72.1138C128.361 72.46 129.031 72.737 129.908 72.737C130.77 72.737 131.463 72.4915 132.237 72.1832C132.341 72.1416 132.448 72.0987 132.557 72.0547C133.26 71.7709 134.08 71.44 135.229 71.1275C137.3 70.5663 140.843 70.6961 143.624 71.0376C143.625 71.0377 143.625 71.0378 143.626 71.0378L144.435 71.1418C144.616 71.2136 144.772 71.3389 144.88 71.5014C144.994 71.6707 145.051 71.8714 145.043 72.0748C144.961 72.5916 144.729 73.0733 144.376 73.4602L144.347 73.4923L144.323 73.529C144.16 73.7858 144.046 74.0704 143.986 74.3687C143.89 74.7859 143.808 75.3396 143.723 75.9131C143.684 76.1733 143.645 76.4376 143.604 76.695C143.465 77.5602 143.299 78.3692 143.055 78.9191L143.055 78.919L143.05 78.9288C142.817 79.4854 142.485 79.9958 142.072 80.4359L142.437 80.7781M116.399 72.9329L116.393 72.9258M116.399 72.9329L116.393 72.9258M142.437 80.7781C142.891 80.2946 143.255 79.7339 143.511 79.1224L140.614 81.9323C140.947 81.8149 141.268 81.6628 141.569 81.4786C141.68 81.4143 141.787 81.3425 141.888 81.2637C142.085 81.119 142.269 80.9565 142.437 80.7781ZM116.393 72.9258C116.033 72.5159 115.799 72.0107 115.72 71.4711M116.393 72.9258L115.72 71.4711M115.72 71.4711C115.711 71.2853 115.762 71.1013 115.864 70.9456C115.96 70.8003 116.096 70.6866 116.255 70.6183L116.981 70.5457C118.261 70.428 119.738 70.3635 121.143 70.4104C122.557 70.4576 123.865 70.6166 124.826 70.9293L115.72 71.4711Z" fill="#1E1E1E" stroke="#1E1E1E"/>
<path d="M130.353 74.3941L130.075 84.6306L124.367 82.975L129.692 74.3065C129.916 74.2851 130.142 74.3151 130.353 74.3941Z" fill="#874C4C"/>
<path d="M210.16 75.6916C226.448 75.6916 239.652 64.1271 239.652 49.8614C239.652 35.5958 226.448 24.0312 210.16 24.0312C193.872 24.0312 180.668 35.5958 180.668 49.8614C180.668 64.1271 193.872 75.6916 210.16 75.6916Z" fill="#092C4C"/>
<path d="M186.621 64.8025C186.453 68.2651 183.524 74.458 178.231 76.7425C178.16 76.7726 178.101 76.8241 178.061 76.8899C178.021 76.9556 178.003 77.0322 178.009 77.1088C178.015 77.1854 178.045 77.2582 178.095 77.3167C178.145 77.3752 178.212 77.4166 178.286 77.435C181.312 78.1056 184.468 77.8783 187.367 76.7811C190.266 75.6838 192.781 73.7643 194.604 71.258L186.621 64.8025Z" fill="#092C4C"/>
<path d="M190.162 47.8158C190.228 46.6837 190.498 45.5729 190.958 44.5363C191.391 43.522 192.037 42.6127 192.852 41.8697C193.713 41.0817 194.719 40.4681 195.814 40.0627C198.438 39.1711 201.284 39.1711 203.909 40.0627C205.014 40.4663 206.03 41.0799 206.902 41.8697C207.713 42.6279 208.354 43.5506 208.78 44.5761C209.24 45.6127 209.51 46.7235 209.576 47.8556C209.616 48.7471 209.632 49.6784 209.632 50.6495C209.632 51.6207 209.632 52.5361 209.576 53.3798C209.51 54.5119 209.24 55.6227 208.78 56.6593C208.342 57.6755 207.697 58.5891 206.886 59.3419C206.02 60.1392 205.002 60.7538 203.893 61.1488C201.265 62.0189 198.426 62.0189 195.798 61.1488C194.693 60.7545 193.68 60.1397 192.821 59.3419C192.007 58.5914 191.361 57.6772 190.926 56.6593C190.466 55.6227 190.197 54.5119 190.13 53.3798C190.09 52.5361 190.066 51.6207 190.066 50.6495C190.066 49.6784 190.122 48.7073 190.162 47.8158ZM203.774 53.1888C203.774 52.8147 203.813 52.3928 203.837 51.947C203.861 51.5013 203.837 51.0237 203.837 50.5461C203.837 50.0685 203.837 49.6068 203.837 49.161C203.837 48.7153 203.789 48.365 203.774 47.967C203.739 47.478 203.629 46.9973 203.447 46.5422C203.276 46.1169 203.021 45.7299 202.699 45.4039C202.359 45.0704 201.952 44.8127 201.505 44.6477C200.419 44.2765 199.24 44.2765 198.154 44.6477C197.705 44.8144 197.296 45.0719 196.952 45.4039C196.632 45.7302 196.38 46.1172 196.212 46.5422C196.03 46.9973 195.919 47.478 195.885 47.967C195.836 48.3632 195.81 48.7618 195.806 49.161C195.806 49.6068 195.806 50.0685 195.806 50.5461C195.806 51.0237 195.806 51.4853 195.806 51.947C195.81 52.3621 195.836 52.7766 195.885 53.1888C195.933 54.1456 196.31 55.0565 196.952 55.7678C197.333 56.1286 197.786 56.4057 198.281 56.5811C198.776 56.7566 199.302 56.8266 199.825 56.7867C200.347 56.8284 200.871 56.7591 201.363 56.5835C201.856 56.4079 202.306 56.1299 202.683 55.7678C203.319 55.0507 203.702 54.1447 203.774 53.1888Z" fill="#FAFAFA"/>
<path d="M231.635 60.4244C231.701 60.5258 231.732 60.6461 231.722 60.7667C231.724 60.8557 231.706 60.9439 231.672 61.0261C231.638 61.1082 231.587 61.1825 231.523 61.2443C231.462 61.3093 231.388 61.3612 231.306 61.3968C231.224 61.4324 231.135 61.4509 231.046 61.4513H226.063C225.81 61.4605 225.561 61.394 225.346 61.2602C225.139 61.1092 224.952 60.9327 224.789 60.7349L218.899 53.3321V60.5995C218.895 60.8142 218.812 61.0198 218.665 61.1759C218.517 61.332 218.317 61.4274 218.103 61.4433H214.027C213.917 61.4441 213.807 61.4218 213.706 61.3779C213.605 61.3341 213.513 61.2696 213.438 61.1886C213.359 61.1128 213.296 61.0213 213.253 60.9199C213.211 60.8185 213.19 60.7094 213.192 60.5995V40.5483C213.19 40.4384 213.211 40.3293 213.253 40.228C213.296 40.1266 213.359 40.0351 213.438 39.9593C213.513 39.8783 213.605 39.8138 213.706 39.7699C213.807 39.7261 213.917 39.7038 214.027 39.7045H218.103C218.317 39.7204 218.517 39.8158 218.665 39.9719C218.812 40.1281 218.895 40.3337 218.899 40.5483V47.0994L224.367 40.3891C224.493 40.2392 224.625 40.0957 224.765 39.9593C225.002 39.7669 225.305 39.6754 225.609 39.7045H230.449C230.54 39.7038 230.63 39.7218 230.713 39.7574C230.797 39.793 230.872 39.8455 230.934 39.9115C230.998 39.9733 231.049 40.0476 231.083 40.1297C231.117 40.2119 231.134 40.3001 231.133 40.3891C231.142 40.5108 231.108 40.6316 231.038 40.7314L223.396 50.1481L231.635 60.4244Z" fill="#FAFAFA"/>
<path d="M286.256 74.2827L281.79 75.6279L278.566 64.858L283.016 63.5208L286.256 74.2827Z" fill="#E0E0E0"/>
<path d="M300.196 64.7228C300.233 65.1597 300.13 65.5971 299.903 65.9719C299.675 66.3467 299.335 66.6396 298.93 66.8083C299.22 67.1375 299.434 67.526 299.559 67.9466C299.814 68.7426 299.137 69.8968 297.792 70.3346L287.579 73.4072L284.578 63.4015C284.578 63.4015 286.305 58.9837 286.393 58.315C286.481 57.6464 285.462 55.1947 285.318 54.733C285.175 54.2713 286.831 53.6664 288.136 54.1917C288.44 54.3267 288.711 54.5248 288.932 54.7728C289.402 55.2729 289.796 55.8387 290.102 56.4524C290.536 57.3271 290.749 58.2944 290.723 59.2702L296.908 57.3837C297.335 57.2293 297.803 57.2293 298.23 57.3837C298.509 57.4941 298.755 57.6749 298.944 57.9085C299.133 58.1421 299.259 58.4206 299.308 58.7169C299.358 59.0132 299.33 59.3174 299.228 59.5998C299.125 59.8823 298.951 60.1334 298.723 60.3289C299.091 60.3022 299.458 60.3999 299.764 60.6063C300.07 60.8127 300.297 61.1159 300.411 61.4672C300.505 61.8756 300.455 62.3042 300.269 62.68C300.084 63.0558 299.773 63.3557 299.392 63.5288C299.804 63.8074 300.093 64.2356 300.196 64.7228Z" fill="#E0E0E0"/>
<path d="M350.239 185.954L344.516 184.577L347.851 170.774L353.574 172.151L350.239 185.954Z" fill="#E0E0E0"/>
<path d="M371.549 184.401C371.311 184.901 370.921 185.313 370.435 185.578C369.949 185.842 369.391 185.946 368.842 185.874C368.945 186.417 368.932 186.976 368.802 187.514C368.548 188.588 367.091 189.376 365.372 188.954L352.27 185.77L355.358 172.947C355.358 172.947 360.062 169.23 360.58 168.553C361.097 167.876 361.543 164.573 361.686 163.96C361.83 163.347 364.018 163.761 365.109 165.17C365.374 165.512 365.559 165.909 365.65 166.332C365.844 167.175 365.913 168.041 365.857 168.903C365.771 170.135 365.389 171.329 364.743 172.382L372.655 174.292C373.216 174.411 373.718 174.724 374.072 175.176C374.268 175.434 374.407 175.73 374.48 176.046C374.553 176.361 374.557 176.689 374.494 177.006C374.388 177.425 374.167 177.805 373.856 178.105C373.545 178.405 373.157 178.611 372.735 178.702C373.153 178.907 373.491 179.247 373.693 179.667C373.895 180.087 373.95 180.563 373.849 181.018C373.688 181.521 373.359 181.954 372.917 182.244C372.475 182.534 371.947 182.663 371.421 182.61C371.695 183.168 371.741 183.811 371.549 184.401Z" fill="#E0E0E0"/>
<path d="M61.1484 177.699L67.397 179.578L71.9183 164.502L65.6777 162.623L61.1484 177.699Z" fill="#E0E0E0"/>
<path d="M41.6226 164.303C41.5705 164.915 41.7144 165.528 42.0334 166.053C42.3525 166.578 42.8303 166.988 43.3977 167.224C42.9965 167.687 42.6981 168.229 42.5221 168.816C42.1639 169.986 43.1191 171.554 44.9897 172.111L59.3177 176.418L63.5046 162.384C63.5046 162.384 61.0768 156.191 60.9574 155.22C60.838 154.249 62.2708 150.858 62.4619 150.205C62.6211 149.68 60.3445 148.717 58.4819 149.457C58.039 149.631 57.6416 149.903 57.3197 150.253C56.6583 150.964 56.1057 151.769 55.68 152.641C55.07 153.877 54.7696 155.243 54.8044 156.621L46.2076 154.026C45.6013 153.827 44.944 153.849 44.3529 154.09C43.9611 154.244 43.616 154.497 43.3512 154.824C43.0864 155.152 42.911 155.542 42.842 155.957C42.773 156.373 42.8129 156.799 42.9577 157.194C43.1026 157.59 43.3474 157.941 43.6683 158.213C43.1488 158.169 42.6295 158.302 42.1956 158.591C41.7617 158.88 41.439 159.308 41.2803 159.805C41.148 160.378 41.2175 160.98 41.4771 161.507C41.7367 162.035 42.1704 162.457 42.7052 162.703C42.1598 163.085 41.7744 163.654 41.6226 164.303Z" fill="#E0E0E0"/>
</svg>
