<svg width="398" height="390" viewBox="0 0 398 390" fill="none" xmlns="http://www.w3.org/2000/svg">
<rect width="398" height="390" fill="white"/>
<path d="M68.1315 301.782C140.066 339.557 256.696 339.557 328.63 301.782C400.565 264.007 400.557 202.769 328.63 164.993C256.704 127.218 140.066 127.218 68.1315 164.993C-3.80302 202.769 -3.79506 264.014 68.1315 301.782Z" fill="#F5F5F5"/>
<path d="M91.5389 57.3612L85.9669 60.4812C85.9669 60.2394 86.0146 59.9976 86.0146 59.7636V58.2036C86.0146 55.4112 84.0087 54.3036 81.5411 55.6764C80.4762 56.3133 79.5661 57.1705 78.8745 58.188C78.4685 54.6702 75.6905 53.3598 72.2359 55.2942C68.5424 57.3846 65.5415 62.4702 65.5415 66.6588V68.9988C65.5301 69.9536 65.7425 70.8983 66.1624 71.76L61.5695 74.3574C60.8471 74.8191 60.2458 75.441 59.8144 76.1728C59.3829 76.9045 59.1333 77.7256 59.0859 78.5694C59.0859 80.1294 60.2003 80.7534 61.5695 79.9734L91.5389 62.9772C92.2617 62.516 92.8633 61.8942 93.2948 61.1623C93.7263 60.4305 93.9756 59.6092 94.0224 58.7652C94.0383 57.2208 92.9239 56.589 91.5389 57.3612Z" fill="#EBEBEB"/>
<path d="M115.236 73.164L111.057 75.504C111.069 75.3222 111.069 75.1398 111.057 74.958V73.7958C111.057 71.6898 109.545 70.8318 107.682 71.8848C106.881 72.3692 106.194 73.0153 105.668 73.7802C105.366 71.1282 103.24 70.1454 100.661 71.604C99.1881 72.5424 97.9623 73.8089 97.0838 75.3C96.2054 76.7911 95.6992 78.4646 95.6066 80.184V81.9546C95.5909 82.6639 95.7378 83.3675 96.0365 84.0138L92.5659 85.9716C92.0211 86.3209 91.5678 86.791 91.2428 87.3439C90.9178 87.8968 90.7303 88.5169 90.6953 89.154C90.6953 90.324 91.5311 90.7998 92.5659 90.2148L115.196 77.4072C115.741 77.0596 116.194 76.5909 116.519 76.0393C116.844 75.4876 117.032 74.8686 117.067 74.2326C117.107 73.0548 116.271 72.579 115.236 73.164Z" fill="#EBEBEB"/>
<path d="M338.896 94.4346L334.717 96.7746C334.729 96.5928 334.729 96.4104 334.717 96.2286V95.043C334.717 92.937 333.205 92.079 331.342 93.1398C330.537 93.6197 329.85 94.2667 329.328 95.0352C329.026 92.3832 326.94 91.3926 324.321 92.8512C322.85 93.7905 321.625 95.0573 320.748 96.5484C319.871 98.0395 319.366 99.7125 319.275 101.431V103.202C319.254 103.911 319.399 104.615 319.697 105.261L316.234 107.219C315.688 107.568 315.234 108.038 314.907 108.59C314.581 109.143 314.392 109.764 314.355 110.401C314.355 111.571 315.199 112.047 316.234 111.462L338.864 98.6544C339.409 98.3068 339.862 97.8381 340.187 97.2865C340.512 96.7348 340.7 96.1158 340.735 95.4798C340.767 94.3254 339.931 93.8496 338.896 94.4346Z" fill="#EBEBEB"/>
<path d="M89.4316 170.383L27.3516 205.506V208.431L84.2576 240.622L146.338 205.506V202.581L89.4316 170.383Z" fill="#092C4C"/>
<path opacity="0.15" d="M27.3516 205.507L84.2576 237.697V240.622L27.3516 208.432V205.507Z" fill="#092C4C"/>
<path opacity="0.1" d="M84.2578 237.697L146.338 202.582V205.507L84.2578 240.622V237.697Z" fill="#092C4C"/>
<path d="M140.813 192.02L138.359 196.757L138.757 196.955L141.21 192.218L140.813 192.02Z" fill="#092C4C"/>
<path d="M136.277 191.649L135.898 191.879L138.291 195.666L138.67 195.436L136.277 191.649Z" fill="#092C4C"/>
<path d="M138.936 191.209V202.628C138.934 202.66 138.923 202.69 138.905 202.717C138.887 202.743 138.862 202.763 138.832 202.776C138.751 202.819 138.661 202.841 138.569 202.841C138.478 202.841 138.388 202.819 138.307 202.776C138.276 202.765 138.249 202.744 138.229 202.718C138.209 202.692 138.198 202.661 138.195 202.628V191.209H138.936Z" fill="#092C4C"/>
<path d="M147.747 187.66C147.747 188.709 147.43 189.734 146.835 190.607C146.24 191.479 145.395 192.159 144.406 192.56C143.417 192.962 142.329 193.067 141.279 192.862C140.229 192.657 139.264 192.152 138.507 191.41C137.75 190.669 137.235 189.724 137.026 188.695C136.817 187.666 136.924 186.599 137.334 185.63C137.744 184.661 138.437 183.833 139.327 183.25C140.218 182.667 141.264 182.356 142.335 182.356C143.77 182.358 145.145 182.917 146.16 183.912C147.174 184.906 147.745 186.254 147.747 187.66Z" fill="#092C4C"/>
<path opacity="0.2" d="M144.027 186.303C144.728 184.15 145.468 183.308 144.999 183.042C144.102 182.544 143.079 182.307 142.05 182.358C141.021 182.41 140.028 182.748 139.188 183.334C138.349 183.92 137.697 184.728 137.31 185.664C136.923 186.6 136.817 187.625 137.004 188.618C137.191 189.611 137.664 190.531 138.366 191.27C139.068 192.009 139.972 192.536 140.969 192.79C141.967 193.043 143.018 193.012 143.998 192.7C144.978 192.388 145.847 191.809 146.503 191.03C144.871 191.49 143.12 189.095 144.027 186.303Z" fill="#092C4C"/>
<path d="M137.614 189.158C137.614 189.895 137.391 190.616 136.972 191.229C136.554 191.842 135.96 192.32 135.265 192.602C134.57 192.884 133.805 192.958 133.066 192.814C132.328 192.67 131.65 192.315 131.118 191.794C130.586 191.273 130.224 190.608 130.077 189.885C129.93 189.162 130.006 188.412 130.294 187.731C130.582 187.05 131.069 186.467 131.695 186.058C132.321 185.648 133.056 185.429 133.809 185.429C134.818 185.429 135.786 185.822 136.499 186.521C137.213 187.22 137.614 188.169 137.614 189.158Z" fill="#092C4C"/>
<path opacity="0.2" d="M133.807 185.429C133.009 185.429 132.231 185.678 131.586 186.139C131.483 188.409 133.457 190.632 132.9 191.381C132.343 192.129 130.997 191.669 130.512 191.03C130.847 191.595 131.328 192.065 131.907 192.391C132.486 192.716 133.142 192.887 133.81 192.886C134.478 192.885 135.133 192.711 135.711 192.383C136.288 192.055 136.768 191.584 137.1 191.017C137.433 190.45 137.608 189.807 137.607 189.152C137.606 188.498 137.43 187.856 137.095 187.29C136.761 186.723 136.28 186.253 135.701 185.927C135.123 185.6 134.467 185.429 133.799 185.429H133.807Z" fill="#092C4C"/>
<path d="M138.567 191.981C142.422 191.981 145.548 188.919 145.548 185.141C145.548 181.363 142.422 178.3 138.567 178.3C134.711 178.3 131.586 181.363 131.586 185.141C131.586 188.919 134.711 191.981 138.567 191.981Z" fill="#092C4C"/>
<path opacity="0.1" d="M145.358 186.701C145.094 187.808 144.553 188.834 143.783 189.685C143.013 190.536 142.039 191.185 140.948 191.575C139.858 191.964 138.685 192.081 137.537 191.914C136.389 191.748 135.301 191.303 134.373 190.621C133.444 189.939 132.703 189.041 132.218 188.008C131.733 186.975 131.518 185.839 131.593 184.705C131.668 183.57 132.031 182.471 132.648 181.508C133.265 180.545 134.118 179.748 135.129 179.189C134.539 179.53 134.003 179.953 133.537 180.445C133.19 181.907 133.344 183.441 133.975 184.809C134.607 186.176 135.68 187.302 137.03 188.013C138.38 188.723 139.931 188.978 141.443 188.738C142.956 188.498 144.345 187.776 145.397 186.685L145.358 186.701Z" fill="#092C4C"/>
<path d="M37.3831 194.935L34.9297 199.672L35.3272 199.87L37.7806 195.133L37.3831 194.935Z" fill="#092C4C"/>
<path d="M32.8282 194.558L32.4492 194.788L34.8416 198.574L35.2206 198.345L32.8282 194.558Z" fill="#092C4C"/>
<path d="M35.4942 194.118V205.538C35.491 205.57 35.479 205.601 35.4593 205.627C35.4397 205.653 35.4133 205.673 35.3827 205.686C35.3008 205.725 35.211 205.745 35.1201 205.745C35.0291 205.745 34.9393 205.725 34.8574 205.686C34.8279 205.673 34.8025 205.652 34.7843 205.626C34.766 205.6 34.7555 205.569 34.7539 205.538V194.118H35.4942Z" fill="#092C4C"/>
<path d="M44.3061 190.562C44.3061 191.611 43.9886 192.636 43.3939 193.508C42.7991 194.381 41.9537 195.06 40.9647 195.462C39.9756 195.863 38.8873 195.968 37.8373 195.764C36.7873 195.559 35.8228 195.054 35.0658 194.312C34.3089 193.57 33.7933 192.625 33.5845 191.596C33.3756 190.567 33.4828 189.501 33.8925 188.532C34.3022 187.563 34.996 186.734 35.8861 186.151C36.7762 185.569 37.8227 185.258 38.8933 185.258C40.3288 185.258 41.7056 185.816 42.7207 186.811C43.7358 187.806 44.3061 189.155 44.3061 190.562Z" fill="#092C4C"/>
<path opacity="0.2" d="M40.5952 189.204C41.2957 187.052 42.036 186.209 41.5663 185.952C40.7553 185.495 39.8354 185.255 38.8997 185.258C37.9877 185.257 37.0903 185.483 36.291 185.913C35.4916 186.343 34.8162 186.964 34.3274 187.719C33.8386 188.473 33.5523 189.337 33.495 190.229C33.4378 191.121 33.6115 192.012 34 192.821C34.3885 193.629 34.9791 194.329 35.7172 194.854C36.4552 195.379 37.3167 195.713 38.2216 195.824C39.1265 195.936 40.0455 195.821 40.8932 195.492C41.741 195.162 42.49 194.628 43.0708 193.939C41.4628 194.399 39.6798 191.997 40.5952 189.204Z" fill="#092C4C"/>
<path d="M34.1723 192.067C34.1723 192.804 33.9491 193.525 33.531 194.138C33.1129 194.752 32.5187 195.229 31.8234 195.512C31.1282 195.794 30.3632 195.868 29.6251 195.724C28.887 195.58 28.209 195.225 27.6769 194.703C27.1448 194.182 26.7824 193.518 26.6356 192.794C26.4888 192.071 26.5641 191.322 26.8521 190.64C27.1401 189.959 27.6278 189.377 28.2535 188.967C28.8792 188.557 29.6148 188.339 30.3674 188.339C30.8673 188.338 31.3626 188.433 31.8247 188.62C32.2868 188.807 32.7067 189.082 33.0602 189.428C33.4137 189.775 33.6939 190.186 33.8848 190.639C34.0756 191.092 34.1733 191.577 34.1723 192.067Z" fill="#092C4C"/>
<path opacity="0.2" d="M30.3658 188.339C29.5682 188.336 28.7904 188.582 28.1449 189.041C28.0414 191.318 30.0076 193.541 29.4583 194.282C28.9091 195.023 27.5479 194.571 27.0703 193.939C27.4055 194.505 27.8868 194.974 28.4657 195.3C29.0446 195.626 29.7009 195.797 30.3685 195.795C31.0361 195.794 31.6916 195.621 32.2692 195.293C32.8468 194.964 33.3261 194.493 33.659 193.926C33.9919 193.359 34.1666 192.716 34.1657 192.062C34.1648 191.408 33.9882 190.765 33.6537 190.199C33.3191 189.633 32.8385 189.163 32.26 188.836C31.6814 188.51 31.0254 188.338 30.3578 188.339H30.3658Z" fill="#092C4C"/>
<path d="M35.1176 194.883C38.9731 194.883 42.0986 191.82 42.0986 188.042C42.0986 184.264 38.9731 181.202 35.1176 181.202C31.2622 181.202 28.1367 184.264 28.1367 188.042C28.1367 191.82 31.2622 194.883 35.1176 194.883Z" fill="#092C4C"/>
<path opacity="0.1" d="M41.911 189.61C41.6444 190.714 41.1014 191.736 40.3311 192.583C39.5607 193.43 38.5871 194.076 37.4983 194.462C36.4095 194.848 35.2397 194.963 34.0945 194.795C32.9493 194.627 31.8647 194.183 30.9388 193.501C30.0128 192.82 29.2745 191.924 28.7905 190.893C28.3066 189.862 28.0922 188.729 28.1668 187.597C28.2414 186.465 28.6026 185.368 29.2177 184.407C29.8329 183.446 30.6827 182.65 31.6903 182.091C31.0882 182.431 30.5387 182.854 30.0585 183.347C29.7145 184.807 29.8702 186.338 30.5016 187.704C31.133 189.069 32.2051 190.193 33.5526 190.902C34.9002 191.612 36.4485 191.867 37.9589 191.63C39.4693 191.392 40.858 190.674 41.911 189.587V189.61Z" fill="#092C4C"/>
<path d="M103.52 218.018L112.188 213.119L119.965 217.519L111.304 222.409L103.52 218.018Z" fill="#F0F0F0"/>
<path d="M42.8791 205.506L42.8711 179.166L84.2631 202.574V228.922L42.8791 205.506Z" fill="#F0F0F0"/>
<path d="M42.8711 189.618L84.2631 213.041V202.574L42.8711 179.166V189.618Z" fill="#E0E0E0"/>
<path d="M130.816 202.574V176.966L115.294 173.308V170.383L84.2656 202.574V228.922L130.816 202.574Z" fill="#FAFAFA"/>
<path d="M115.293 170.383V173.308L133.402 177.699V174.774L115.293 170.383Z" fill="#092C4C"/>
<path d="M92.0271 151.359L133.403 174.775L115.294 170.383L73.9102 146.968L92.0271 151.359Z" fill="#092C4C"/>
<path d="M81.669 206.981L115.3 170.383V167.458L79.082 208.431L81.669 206.981Z" fill="#092C4C"/>
<path d="M73.9172 144.042L115.301 167.458L79.1469 208.47L37.6992 185.016L73.9172 144.042Z" fill="#092C4C"/>
<path d="M60.9336 181.982L66.1474 184.93V192.332L60.9336 189.407V181.982Z" fill="#092C4C"/>
<path d="M66.1484 184.93L71.3543 181.982V186.482L66.1484 192.332V184.93Z" fill="#092C4C"/>
<path d="M66.1457 176.966L60.3906 180.219V181.693L66.1457 184.93L71.8928 181.693V180.219L66.1457 176.966Z" fill="#F5F5F5"/>
<path d="M60.3906 181.693L66.1457 184.93V183.456L60.3906 180.219V181.693Z" fill="#E0E0E0"/>
<path d="M71.8956 181.693L66.1484 184.93V183.456L71.8956 180.219V181.693Z" fill="#EBEBEB"/>
<path d="M62.3281 180.219L66.1489 178.058L69.9697 180.219L66.1489 182.372L62.3281 180.219Z" fill="#092C4C"/>
<path d="M66.1489 178.058V182.372L62.3281 180.219L66.1489 178.058Z" fill="#092C4C"/>
<path d="M66.1484 178.058L69.9692 180.219L66.1484 182.372V178.058Z" fill="#092C4C"/>
<path d="M87.6172 209.461L99.2627 202.878V211.661L87.6172 218.244V209.461Z" fill="#092C4C"/>
<path d="M98.7453 211.364V203.174L87.6172 209.461V217.659L98.7453 211.364Z" fill="#E0E0E0"/>
<path d="M99.2627 211.661L98.7453 211.364L87.6172 217.659V218.244L99.2627 211.661Z" fill="#092C4C"/>
<path d="M87.6172 213.853L99.2627 207.269V206.677L87.6172 213.26V213.853Z" fill="#092C4C"/>
<path d="M116.074 193.354L127.712 186.771V195.554L116.074 202.137V193.354Z" fill="#092C4C"/>
<path d="M127.194 195.257V187.067L116.074 193.354V201.552L127.194 195.257Z" fill="#E0E0E0"/>
<path d="M127.712 195.554L127.194 195.257L116.074 201.552V202.137L127.712 195.554Z" fill="#092C4C"/>
<path d="M116.074 197.746L127.712 191.162V190.57L116.074 197.161V197.746Z" fill="#092C4C"/>
<path d="M103.52 218.018V200.46L112.188 195.562V213.119L103.52 218.018Z" fill="#092C4C"/>
<path d="M111.885 212.893V195.733L103.52 200.46V217.62L111.885 212.893Z" fill="#092C4C"/>
<path d="M112.189 195.562L111.887 195.733V212.893L112.189 213.119V195.562Z" fill="#092C4C"/>
<path d="M74.8158 206.021L68.7344 202.582V211.357L74.8158 214.796V206.021Z" fill="#092C4C"/>
<path d="M69.2539 211.06V202.87L74.8179 206.021V214.211L69.2539 211.06Z" fill="#FAFAFA"/>
<path d="M68.7344 211.356L69.2518 211.06L74.8158 214.211V214.796L68.7344 211.356Z" fill="#092C4C"/>
<path d="M74.8158 210.382L68.7344 206.965V206.372L74.8158 209.789V210.382Z" fill="#092C4C"/>
<path d="M69.2539 202.87L74.8179 206.021V207.714L69.2539 204.586V202.87Z" fill="#F5F5F5"/>
<path d="M56.7064 195.772L50.625 192.332V201.115L56.7064 204.555V195.772Z" fill="#092C4C"/>
<path d="M51.1523 200.819V192.629L56.7084 195.772V203.962L51.1523 200.819Z" fill="#FAFAFA"/>
<path d="M50.625 201.115L51.1504 200.819L56.7064 203.962V204.555L50.625 201.115Z" fill="#092C4C"/>
<path d="M56.7064 200.132L50.625 196.716V196.123L56.7064 199.539V200.132Z" fill="#092C4C"/>
<path d="M51.1523 192.629L56.7084 195.772V197.394L51.1523 194.274V192.629Z" fill="#F5F5F5"/>
<path d="M304.756 167.825L242.676 202.948V205.873L304.756 240.997L366.844 205.873V202.948L304.756 167.825Z" fill="#092C4C"/>
<path opacity="0.15" d="M242.676 202.948L304.764 238.071L304.756 240.996L242.676 205.873V202.948Z" fill="#092C4C"/>
<path opacity="0.1" d="M304.762 238.071L366.842 202.948V205.873L304.754 240.996L304.762 238.071Z" fill="#092C4C"/>
<path d="M361.492 192.483L359.039 197.219L359.437 197.417L361.89 192.68L361.492 192.483Z" fill="#092C4C"/>
<path d="M357.578 190.779L357.199 191.011L359.608 194.797L359.987 194.565L357.578 190.779Z" fill="#092C4C"/>
<path d="M359.623 191.677V203.096C359.622 203.128 359.611 203.158 359.593 203.185C359.574 203.211 359.549 203.231 359.52 203.244C359.439 203.287 359.349 203.309 359.257 203.309C359.165 203.309 359.075 203.287 358.994 203.244C358.964 203.232 358.937 203.211 358.918 203.185C358.898 203.159 358.886 203.128 358.883 203.096V191.677H359.623Z" fill="#092C4C"/>
<path d="M368.435 188.128C368.435 189.177 368.118 190.202 367.523 191.075C366.928 191.947 366.083 192.627 365.094 193.028C364.105 193.43 363.016 193.535 361.966 193.33C360.916 193.125 359.952 192.62 359.195 191.878C358.438 191.137 357.922 190.192 357.713 189.163C357.505 188.134 357.612 187.067 358.021 186.098C358.431 185.129 359.125 184.301 360.015 183.718C360.905 183.135 361.952 182.824 363.022 182.824C364.458 182.824 365.835 183.383 366.85 184.377C367.865 185.372 368.435 186.721 368.435 188.128Z" fill="#092C4C"/>
<path opacity="0.2" d="M364.717 186.771C365.418 184.618 366.166 183.776 365.688 183.51C364.792 183.013 363.769 182.777 362.739 182.83C361.71 182.882 360.718 183.222 359.879 183.808C359.04 184.395 358.389 185.204 358.003 186.14C357.617 187.076 357.512 188.101 357.7 189.094C357.888 190.087 358.362 191.006 359.065 191.745C359.768 192.483 360.671 193.009 361.669 193.262C362.667 193.514 363.717 193.482 364.697 193.17C365.677 192.857 366.546 192.277 367.201 191.498C365.593 191.958 363.818 189.54 364.717 186.771Z" fill="#092C4C"/>
<path d="M358.301 189.626C358.301 190.363 358.078 191.084 357.66 191.697C357.242 192.31 356.648 192.788 355.952 193.07C355.257 193.352 354.492 193.426 353.754 193.282C353.016 193.139 352.338 192.783 351.806 192.262C351.274 191.741 350.911 191.076 350.765 190.353C350.618 189.63 350.693 188.88 350.981 188.199C351.269 187.518 351.757 186.935 352.382 186.526C353.008 186.116 353.744 185.897 354.496 185.897C355.505 185.897 356.473 186.29 357.187 186.989C357.9 187.688 358.301 188.637 358.301 189.626Z" fill="#092C4C"/>
<path opacity="0.2" d="M354.498 185.897C353.7 185.898 352.923 186.147 352.278 186.607C352.174 188.877 354.148 191.1 353.599 191.849C353.05 192.597 351.689 192.137 351.211 191.498C351.546 192.063 352.027 192.533 352.606 192.859C353.185 193.184 353.841 193.355 354.509 193.354C355.177 193.353 355.832 193.179 356.41 192.851C356.987 192.523 357.467 192.052 357.8 191.485C358.133 190.918 358.307 190.275 358.306 189.62C358.305 188.966 358.129 188.324 357.794 187.758C357.46 187.191 356.979 186.721 356.401 186.395C355.822 186.068 355.166 185.897 354.498 185.897Z" fill="#092C4C"/>
<path d="M359.258 192.449C363.114 192.449 366.239 189.387 366.239 185.609C366.239 181.831 363.114 178.768 359.258 178.768C355.403 178.768 352.277 181.831 352.277 185.609C352.277 189.387 355.403 192.449 359.258 192.449Z" fill="#092C4C"/>
<path opacity="0.1" d="M366.047 187.2C365.777 188.303 365.231 189.323 364.459 190.169C363.686 191.014 362.711 191.658 361.622 192.042C360.532 192.426 359.362 192.539 358.217 192.369C357.072 192.2 355.988 191.754 355.063 191.073C354.137 190.391 353.399 189.494 352.916 188.463C352.432 187.432 352.218 186.299 352.292 185.167C352.366 184.035 352.726 182.938 353.34 181.977C353.955 181.015 354.803 180.218 355.81 179.657C355.203 179.993 354.65 180.416 354.171 180.913C353.824 182.375 353.978 183.909 354.609 185.277C355.24 186.644 356.314 187.77 357.664 188.481C359.014 189.191 360.564 189.446 362.077 189.206C363.589 188.966 364.979 188.244 366.031 187.153L366.047 187.2Z" fill="#092C4C"/>
<path d="M252.688 192.233L250.234 196.969L250.632 197.167L253.085 192.431L252.688 192.233Z" fill="#092C4C"/>
<path d="M248.805 190.908L248.426 191.14L250.835 194.926L251.214 194.694L248.805 190.908Z" fill="#092C4C"/>
<path d="M250.818 191.427V202.847C250.814 202.879 250.802 202.909 250.783 202.935C250.763 202.961 250.737 202.982 250.707 202.995C250.625 203.034 250.535 203.054 250.444 203.054C250.353 203.054 250.264 203.034 250.182 202.995C250.153 202.98 250.129 202.959 250.111 202.933C250.093 202.907 250.082 202.878 250.078 202.847V191.427H250.818Z" fill="#092C4C"/>
<path d="M259.63 187.871C259.63 188.92 259.313 189.945 258.718 190.817C258.123 191.69 257.278 192.369 256.289 192.771C255.3 193.172 254.211 193.277 253.162 193.073C252.112 192.868 251.147 192.363 250.39 191.621C249.633 190.879 249.118 189.934 248.909 188.905C248.7 187.877 248.807 186.81 249.217 185.841C249.626 184.872 250.32 184.043 251.21 183.461C252.1 182.878 253.147 182.567 254.217 182.567C255.652 182.569 257.028 183.128 258.043 184.122C259.057 185.117 259.628 186.465 259.63 187.871Z" fill="#092C4C"/>
<path opacity="0.2" d="M255.914 186.514C256.614 184.361 257.354 183.518 256.885 183.253C255.988 182.756 254.966 182.519 253.937 182.572C252.908 182.624 251.916 182.963 251.077 183.548C250.238 184.134 249.587 184.942 249.2 185.878C248.814 186.813 248.708 187.838 248.894 188.83C249.081 189.823 249.553 190.743 250.255 191.482C250.957 192.221 251.859 192.748 252.856 193.002C253.853 193.256 254.903 193.226 255.883 192.915C256.864 192.604 257.733 192.026 258.389 191.248C256.789 191.701 255.006 189.306 255.914 186.514Z" fill="#092C4C"/>
<path d="M249.496 189.368C249.498 190.106 249.276 190.828 248.859 191.442C248.442 192.056 247.848 192.535 247.153 192.818C246.458 193.102 245.693 193.177 244.954 193.034C244.216 192.891 243.537 192.536 243.004 192.015C242.471 191.494 242.108 190.83 241.96 190.106C241.813 189.383 241.888 188.633 242.176 187.951C242.463 187.269 242.951 186.687 243.577 186.277C244.203 185.867 244.939 185.648 245.692 185.648C246.699 185.648 247.666 186.039 248.379 186.737C249.093 187.434 249.494 188.381 249.496 189.368Z" fill="#092C4C"/>
<path opacity="0.2" d="M245.69 185.64C244.892 185.637 244.115 185.883 243.469 186.342C243.366 188.62 245.34 190.835 244.783 191.584C244.225 192.332 242.872 191.872 242.395 191.24C242.73 191.806 243.211 192.275 243.79 192.601C244.369 192.927 245.025 193.098 245.693 193.097C246.36 193.095 247.016 192.922 247.593 192.594C248.171 192.266 248.65 191.794 248.983 191.227C249.316 190.66 249.491 190.017 249.49 189.363C249.489 188.709 249.312 188.066 248.978 187.5C248.643 186.934 248.163 186.464 247.584 186.138C247.006 185.811 246.35 185.639 245.682 185.64H245.69Z" fill="#092C4C"/>
<path d="M250.442 192.192C254.297 192.192 257.423 189.129 257.423 185.351C257.423 181.573 254.297 178.51 250.442 178.51C246.586 178.51 243.461 181.573 243.461 185.351C243.461 189.129 246.586 192.192 250.442 192.192Z" fill="#092C4C"/>
<path opacity="0.1" d="M257.242 186.919C256.977 188.026 256.435 189.05 255.664 189.9C254.894 190.75 253.919 191.398 252.829 191.786C251.738 192.174 250.566 192.29 249.419 192.123C248.271 191.956 247.185 191.511 246.257 190.829C245.329 190.146 244.589 189.248 244.104 188.216C243.619 187.183 243.404 186.048 243.48 184.914C243.555 183.779 243.917 182.681 244.534 181.718C245.151 180.756 246.003 179.959 247.014 179.4C246.41 179.738 245.86 180.161 245.382 180.656C245.042 182.116 245.2 183.646 245.833 185.009C246.466 186.373 247.539 187.495 248.886 188.204C250.232 188.913 251.78 189.169 253.289 188.932C254.799 188.696 256.188 187.98 257.242 186.896V186.919Z" fill="#092C4C"/>
<path d="M317.262 152.552L322.468 155.501V161.397L317.262 158.449V152.552Z" fill="#E0E0E0"/>
<path d="M322.465 155.501L327.679 152.552V164.338L322.465 161.397V155.501Z" fill="#F0F0F0"/>
<path d="M322.466 147.537L316.719 150.782V152.256L322.466 155.501L328.221 152.256V150.782L322.466 147.537Z" fill="#092C4C"/>
<path d="M316.719 152.256L322.466 155.5V154.026L316.719 150.781V152.256Z" fill="#092C4C"/>
<path d="M328.22 152.256L322.465 155.5V154.026L328.22 150.781V152.256Z" fill="#092C4C"/>
<path d="M318.645 150.782L322.465 148.629L326.294 150.782L322.465 152.942L318.645 150.782Z" fill="#092C4C"/>
<path d="M322.465 148.629V152.942L318.645 150.782L322.465 148.629Z" fill="#092C4C"/>
<path d="M322.465 148.629L326.294 150.782L322.465 152.942V148.629Z" fill="#092C4C"/>
<path d="M304.762 211.731L304.754 185.39L320.252 194.165V220.506L304.762 211.731Z" fill="#F0F0F0"/>
<path d="M304.754 185.39L320.252 194.165V204.656L304.754 195.897V185.39Z" fill="#E0E0E0"/>
<path d="M351.322 202.948V176.608L335.768 167.825L320.254 194.165V220.506L351.322 202.948Z" fill="#FAFAFA"/>
<path d="M317.689 198.557L335.766 167.825V164.9L315.102 200.023L317.689 198.557Z" fill="#092C4C"/>
<path d="M304.754 147.342L335.766 164.9L315.102 200.023L304.762 194.165L304.754 147.342Z" fill="#092C4C"/>
<path d="M335.766 167.825L353.906 178.066L356.493 176.607L335.766 164.9V167.825Z" fill="#092C4C"/>
<path d="M342.254 191.061L348.335 187.645V196.427L342.254 199.844V191.061Z" fill="#092C4C"/>
<path d="M347.818 196.131V187.941L342.254 191.061V199.251L347.818 196.131Z" fill="#E0E0E0"/>
<path d="M348.335 196.427L347.818 196.131L342.254 199.251V199.844L348.335 196.427Z" fill="#092C4C"/>
<path d="M342.254 195.452L348.335 192.036V191.443L342.254 194.86V195.452Z" fill="#092C4C"/>
<path d="M323.168 201.848L329.249 198.432V207.207L323.168 210.631V201.848Z" fill="#092C4C"/>
<path d="M328.732 206.918V198.72L323.168 201.848V210.038L328.732 206.918Z" fill="#E0E0E0"/>
<path d="M329.249 207.207L328.732 206.918L323.168 210.038V210.631L329.249 207.207Z" fill="#092C4C"/>
<path d="M323.168 206.24L329.249 202.823V202.23L323.168 205.647V206.24Z" fill="#092C4C"/>
<path d="M331.891 180.999L339.652 176.607V183.191L331.891 187.582V180.999Z" fill="#092C4C"/>
<path d="M339.134 182.894V176.896L331.891 180.999V186.997L339.134 182.894Z" fill="#E0E0E0"/>
<path d="M339.652 183.191L339.134 182.894L331.891 186.997V187.582L339.652 183.191Z" fill="#092C4C"/>
<path d="M353.907 178.066H351.32V176.607L353.907 178.066Z" fill="#092C4C"/>
<path d="M331.438 214.172V196.614L340.106 191.716V209.274L331.438 214.172Z" fill="#092C4C"/>
<path d="M339.803 209.048V191.888L331.438 196.615V213.775L339.803 209.048Z" fill="#092C4C"/>
<path d="M340.103 191.716L339.801 191.888V209.048L340.103 209.274V191.716Z" fill="#092C4C"/>
<path d="M304.756 211.731V185.39L289.266 194.165V220.506L304.756 211.731Z" fill="#FAFAFA"/>
<path d="M304.756 185.39L289.266 194.165V204.656L304.764 195.897L304.756 185.39Z" fill="#F5F5F5"/>
<path d="M258.195 202.948V176.608L273.741 167.825L289.263 194.165V220.506L258.195 202.948Z" fill="#EBEBEB"/>
<path d="M291.827 198.557L273.742 167.825V164.9L294.414 200.023L291.827 198.557Z" fill="#092C4C"/>
<path d="M304.754 147.342L273.742 164.9L294.414 200.023L304.754 194.165V147.342Z" fill="#092C4C"/>
<path d="M273.743 167.825L255.61 178.066L253.023 176.607L273.743 164.9V167.825Z" fill="#092C4C"/>
<path d="M269.453 191.732L263.371 188.315V197.098L269.453 200.507V191.732Z" fill="#092C4C"/>
<path d="M263.887 196.802V188.604L269.451 191.732V199.922L263.887 196.802Z" fill="#FAFAFA"/>
<path d="M263.887 188.604L269.451 191.755V192.839L263.887 189.711V188.604Z" fill="#F5F5F5"/>
<path d="M278.504 196.872L284.068 200.023V201.107L278.504 197.979V196.872Z" fill="#F5F5F5"/>
<path d="M263.371 197.098L263.888 196.802L269.453 199.922V200.507L263.371 197.098Z" fill="#092C4C"/>
<path d="M269.453 196.123L263.371 192.707V192.114L269.453 195.53V196.123Z" fill="#092C4C"/>
<path d="M277.628 180.999L269.867 176.607V183.191L277.628 187.582V180.999Z" fill="#092C4C"/>
<path d="M270.383 182.894V176.896L277.626 180.999V186.997L270.383 182.894Z" fill="#FAFAFA"/>
<path d="M270.383 176.896L277.626 180.999V182.083L270.383 178.011V176.896Z" fill="#F5F5F5"/>
<path d="M269.867 183.191L270.385 182.894L277.628 186.997V187.582L269.867 183.191Z" fill="#092C4C"/>
<path d="M255.609 178.066H258.196V176.607L255.609 178.066Z" fill="#092C4C"/>
<path d="M284.066 200.023L277.984 196.583V205.358L284.066 208.798V200.023Z" fill="#092C4C"/>
<path d="M278.504 205.062V196.872L284.068 200.023V208.213L278.504 205.062Z" fill="#FAFAFA"/>
<path d="M277.984 205.358L278.502 205.062L284.066 208.213V208.798L277.984 205.358Z" fill="#092C4C"/>
<path d="M284.066 204.383L277.984 200.967V200.374L284.066 203.79V204.383Z" fill="#092C4C"/>
<path d="M278.504 196.872L284.068 200.023V201.107L278.504 197.979V196.872Z" fill="#F5F5F5"/>
<path d="M315.101 200.023L307.332 195.624V203.72L315.101 208.112V200.023Z" fill="#092C4C"/>
<path d="M307.812 203.447V195.897L315.104 200.023V207.573L307.812 203.447Z" fill="#FAFAFA"/>
<path d="M307.812 195.897V197.652L315.104 201.786V200.023L307.812 195.897Z" fill="#F0F0F0"/>
<path d="M307.332 203.72L307.81 203.447L315.101 207.573V208.112L307.332 203.72Z" fill="#092C4C"/>
<path d="M307.332 199.672L307.81 199.399L315.101 203.525V204.071L307.332 199.672Z" fill="#092C4C"/>
<path d="M311.059 205.826L311.536 206.091V198.003L311.059 197.73V205.826Z" fill="#092C4C"/>
<path d="M299.448 217.62L300.825 216.84C301.204 214.646 301.26 212.411 300.992 210.202C300.299 205.896 297.299 204.407 296.216 204.836C295.133 205.265 294.879 206.544 296.845 209.032C298.622 211.551 299.534 214.559 299.448 217.62Z" fill="#092C4C"/>
<g opacity="0.2">
<path d="M299.448 217.62L300.825 216.84C301.204 214.646 301.26 212.411 300.992 210.202C300.299 205.896 297.299 204.407 296.216 204.836C295.133 205.265 294.879 206.544 296.845 209.032C298.622 211.551 299.534 214.559 299.448 217.62Z" fill="#092C4C"/>
</g>
<path d="M299.948 215.935C299.934 215.934 299.921 215.93 299.909 215.924C299.898 215.918 299.887 215.91 299.879 215.899C299.871 215.889 299.865 215.877 299.861 215.865C299.858 215.852 299.858 215.839 299.86 215.826C300.433 211.793 298.777 207.371 296.915 205.584C296.897 205.567 296.887 205.543 296.887 205.518C296.887 205.493 296.897 205.469 296.915 205.452C296.933 205.434 296.957 205.424 296.982 205.424C297.008 205.424 297.032 205.434 297.05 205.452C298.945 207.261 300.632 211.754 300.059 215.857C300.057 215.869 300.053 215.881 300.046 215.892C300.039 215.903 300.03 215.912 300.02 215.919C300.01 215.926 299.998 215.931 299.985 215.934C299.973 215.937 299.96 215.937 299.948 215.935Z" fill="white"/>
<path d="M295.626 219.812C295.403 219.936 294.957 219.671 294.782 219.554C294.489 219.356 294.254 219.088 294.098 218.774C293.921 218.421 293.86 218.024 293.923 217.635C293.957 217.43 294.005 217.227 294.066 217.027C294.13 216.824 294.185 216.629 294.241 216.434C294.313 216.242 294.343 216.038 294.329 215.834C294.274 215.637 294.18 215.454 294.051 215.294C293.923 215.135 293.762 215.003 293.58 214.905C293.376 214.789 293.201 214.628 293.072 214.434C292.942 214.241 292.86 214.02 292.832 213.79C292.858 213.411 293.012 213.052 293.27 212.768C293.509 212.472 293.787 212.214 294.002 211.902C294.149 211.734 294.236 211.524 294.25 211.303C294.265 211.082 294.206 210.863 294.082 210.678C293.88 210.375 293.705 210.057 293.556 209.726C293.484 209.56 293.461 209.377 293.491 209.199C293.52 209.021 293.601 208.855 293.724 208.72C293.844 208.631 293.982 208.567 294.128 208.531C294.274 208.495 294.426 208.487 294.575 208.509C294.858 208.541 295.13 208.634 295.371 208.782C296.167 209.211 296.613 210.132 297.449 210.459C297.78 210.563 298.117 210.644 298.46 210.701C298.632 210.731 298.795 210.797 298.94 210.893C299.084 210.99 299.205 211.116 299.296 211.263C299.606 211.863 299.033 212.604 299.248 213.244C299.463 213.884 300.004 214.024 300.314 214.539C300.448 214.76 300.501 215.018 300.466 215.272C300.438 215.706 300.33 216.131 300.147 216.528C299.939 216.917 299.705 217.292 299.447 217.651L295.626 219.812Z" fill="#092C4C"/>
<g opacity="0.1">
<path d="M295.626 219.812C295.403 219.936 294.957 219.671 294.782 219.554C294.489 219.356 294.254 219.088 294.098 218.774C293.921 218.421 293.86 218.024 293.923 217.635C293.957 217.43 294.005 217.227 294.066 217.027C294.13 216.824 294.185 216.629 294.241 216.434C294.313 216.242 294.343 216.038 294.329 215.834C294.274 215.637 294.18 215.454 294.051 215.294C293.923 215.135 293.762 215.003 293.58 214.905C293.376 214.789 293.201 214.628 293.072 214.434C292.942 214.241 292.86 214.02 292.832 213.79C292.858 213.411 293.012 213.052 293.27 212.768C293.509 212.472 293.787 212.214 294.002 211.902C294.149 211.734 294.236 211.524 294.25 211.303C294.265 211.082 294.206 210.863 294.082 210.678C293.88 210.375 293.705 210.057 293.556 209.726C293.484 209.56 293.461 209.377 293.491 209.199C293.52 209.021 293.601 208.855 293.724 208.72C293.844 208.631 293.982 208.567 294.128 208.531C294.274 208.495 294.426 208.487 294.575 208.509C294.858 208.541 295.13 208.634 295.371 208.782C296.167 209.211 296.613 210.132 297.449 210.459C297.78 210.563 298.117 210.644 298.46 210.701C298.632 210.731 298.795 210.797 298.94 210.893C299.084 210.99 299.205 211.116 299.296 211.263C299.606 211.863 299.033 212.604 299.248 213.244C299.463 213.884 300.004 214.024 300.314 214.539C300.448 214.76 300.501 215.018 300.466 215.272C300.438 215.706 300.33 216.131 300.147 216.528C299.939 216.917 299.705 217.292 299.447 217.651L295.626 219.812Z" fill="#092C4C"/>
</g>
<path d="M297.862 218.649C297.836 218.646 297.813 218.634 297.796 218.615C297.778 218.597 297.768 218.573 297.766 218.548C297.933 214.726 296.095 210.506 294.757 209.282C294.748 209.273 294.74 209.262 294.735 209.251C294.73 209.239 294.727 209.227 294.727 209.214C294.726 209.201 294.728 209.189 294.733 209.177C294.738 209.165 294.745 209.154 294.753 209.145C294.762 209.136 294.773 209.128 294.785 209.123C294.797 209.118 294.809 209.115 294.822 209.115C294.835 209.114 294.848 209.117 294.86 209.121C294.872 209.126 294.883 209.132 294.893 209.141C296.254 210.389 298.132 214.679 297.965 218.556C297.963 218.581 297.952 218.605 297.932 218.622C297.913 218.64 297.888 218.649 297.862 218.649Z" fill="white"/>
<path d="M297.273 214.133C296.348 213.887 295.398 213.738 294.44 213.689C294.426 213.689 294.413 213.686 294.401 213.681C294.389 213.676 294.378 213.668 294.369 213.659C294.36 213.649 294.353 213.638 294.349 213.625C294.345 213.613 294.343 213.6 294.344 213.587C294.346 213.562 294.358 213.538 294.377 213.521C294.396 213.503 294.421 213.494 294.448 213.494C295.422 213.543 296.389 213.698 297.329 213.954C297.341 213.957 297.352 213.963 297.362 213.971C297.372 213.979 297.38 213.989 297.386 213.999C297.392 214.01 297.395 214.022 297.397 214.034C297.398 214.047 297.396 214.059 297.393 214.071C297.384 214.094 297.367 214.112 297.345 214.124C297.323 214.135 297.298 214.139 297.273 214.133Z" fill="white"/>
<path d="M331.438 214.172L340.106 209.274L347.883 213.673L339.214 218.563L331.438 214.172Z" fill="#F0F0F0"/>
<path d="M191.262 226.902L115.594 269.708V273L194.167 317.452L269.827 274.646V271.354L191.262 226.902Z" fill="#092C4C"/>
<path d="M226.184 286.174L234.86 291.143L249.435 282.898L240.734 277.945L226.184 286.174Z" fill="#F0F0F0"/>
<path opacity="0.15" d="M115.594 269.708L194.167 314.16V317.452L115.594 273V269.708Z" fill="#092C4C"/>
<path opacity="0.1" d="M194.168 314.16L269.828 271.354V274.646L194.168 317.452V314.16Z" fill="#092C4C"/>
<path d="M261.325 256.778L257.953 263.288L258.5 263.56L261.872 257.049L261.325 256.778Z" fill="#092C4C"/>
<path d="M255.061 256.224L254.547 256.536L257.836 261.743L258.35 261.43L255.061 256.224Z" fill="#092C4C"/>
<path d="M258.699 255.622V271.307C258.694 271.351 258.677 271.393 258.651 271.429C258.624 271.464 258.589 271.492 258.547 271.51C258.435 271.566 258.311 271.596 258.185 271.596C258.059 271.596 257.935 271.566 257.823 271.51C257.783 271.492 257.748 271.464 257.723 271.428C257.698 271.392 257.683 271.351 257.68 271.307V255.622H258.699Z" fill="#092C4C"/>
<path d="M263.388 258.024C267.494 258.024 270.822 254.762 270.822 250.739C270.822 246.715 267.494 243.453 263.388 243.453C259.282 243.453 255.953 246.715 255.953 250.739C255.953 254.762 259.282 258.024 263.388 258.024Z" fill="#092C4C"/>
<path d="M265.72 248.882C266.675 245.918 267.702 244.764 267.049 244.405C265.818 243.721 264.413 243.396 262.999 243.468C261.586 243.54 260.223 244.005 259.07 244.81C257.917 245.615 257.023 246.725 256.492 248.011C255.961 249.296 255.816 250.703 256.073 252.067C256.33 253.431 256.979 254.695 257.944 255.709C258.909 256.724 260.149 257.448 261.519 257.796C262.889 258.144 264.332 258.101 265.678 257.673C267.024 257.245 268.218 256.449 269.119 255.38C266.922 256.004 264.478 252.72 265.72 248.882Z" fill="#092C4C"/>
<path d="M251.679 257.923C254.563 257.923 256.901 255.632 256.901 252.806C256.901 249.98 254.563 247.689 251.679 247.689C248.795 247.689 246.457 249.98 246.457 252.806C246.457 255.632 248.795 257.923 251.679 257.923Z" fill="#092C4C"/>
<path d="M251.677 247.681C250.58 247.68 249.51 248.018 248.621 248.648C248.485 251.768 251.192 254.826 250.436 255.856C249.679 256.885 247.809 256.246 247.164 255.38C247.626 256.154 248.287 256.796 249.082 257.241C249.877 257.686 250.777 257.918 251.692 257.915C252.607 257.911 253.505 257.672 254.297 257.222C255.088 256.771 255.744 256.124 256.2 255.347C256.656 254.569 256.895 253.688 256.894 252.791C256.893 251.894 256.651 251.013 256.193 250.237C255.735 249.46 255.077 248.816 254.284 248.367C253.492 247.919 252.593 247.682 251.677 247.681Z" fill="#092C4C"/>
<path d="M267.532 249.424C268.748 244.377 265.558 239.319 260.406 238.127C255.255 236.936 250.093 240.062 248.877 245.11C247.661 250.158 250.852 255.216 256.003 256.407C261.155 257.599 266.317 254.472 267.532 249.424Z" fill="#092C4C"/>
<path d="M267.545 249.428C267.172 250.934 266.424 252.325 265.367 253.477C264.31 254.629 262.978 255.506 261.491 256.029C260.003 256.553 258.406 256.706 256.842 256.476C255.279 256.245 253.799 255.639 252.534 254.709C251.269 253.78 250.259 252.558 249.595 251.153C248.931 249.747 248.633 248.202 248.728 246.655C248.824 245.109 249.309 243.61 250.141 242.293C250.973 240.976 252.126 239.882 253.496 239.109C252.666 239.573 251.909 240.154 251.251 240.833C251.085 241.536 250.999 242.256 250.996 242.978C250.98 244.865 251.546 246.713 252.621 248.279C253.695 249.845 255.228 251.056 257.018 251.754C258.807 252.451 260.77 252.603 262.649 252.188C264.527 251.773 266.234 250.811 267.545 249.428Z" fill="#092C4C"/>
<path d="M130.454 254.917L127.082 261.427L127.629 261.699L131.001 255.189L130.454 254.917Z" fill="#092C4C"/>
<path d="M124.206 254.4L123.691 254.712L126.98 259.918L127.495 259.606L124.206 254.4Z" fill="#092C4C"/>
<path d="M127.863 253.789V269.474C127.86 269.518 127.845 269.559 127.819 269.595C127.794 269.631 127.76 269.659 127.719 269.677C127.607 269.733 127.483 269.763 127.357 269.763C127.231 269.763 127.107 269.733 126.995 269.677C126.954 269.659 126.918 269.631 126.891 269.596C126.865 269.56 126.848 269.518 126.844 269.474V253.789H127.863Z" fill="#092C4C"/>
<path d="M132.532 256.199C136.638 256.199 139.967 252.937 139.967 248.913C139.967 244.89 136.638 241.628 132.532 241.628C128.426 241.628 125.098 244.89 125.098 248.913C125.098 252.937 128.426 256.199 132.532 256.199Z" fill="#092C4C"/>
<path d="M134.864 247.049C135.82 244.085 136.838 242.931 136.194 242.572C134.962 241.888 133.557 241.563 132.144 241.635C130.731 241.707 129.367 242.172 128.215 242.977C127.062 243.782 126.168 244.892 125.637 246.178C125.106 247.463 124.96 248.871 125.218 250.234C125.475 251.598 126.124 252.862 127.089 253.876C128.053 254.891 129.293 255.615 130.664 255.963C132.034 256.311 133.477 256.268 134.823 255.84C136.169 255.412 137.363 254.616 138.263 253.547C136.066 254.178 133.615 250.887 134.864 247.049Z" fill="#092C4C"/>
<path d="M120.823 256.09C123.707 256.09 126.045 253.799 126.045 250.973C126.045 248.147 123.707 245.856 120.823 245.856C117.939 245.856 115.602 248.147 115.602 250.973C115.602 253.799 117.939 256.09 120.823 256.09Z" fill="#092C4C"/>
<path d="M120.826 245.856C119.73 245.854 118.661 246.19 117.769 246.815C117.626 249.935 120.34 252.993 119.584 254.023C118.828 255.052 116.957 254.413 116.305 253.547C116.765 254.322 117.426 254.965 118.22 255.411C119.014 255.858 119.914 256.092 120.829 256.09C121.745 256.088 122.644 255.85 123.436 255.4C124.228 254.95 124.885 254.304 125.342 253.527C125.799 252.75 126.04 251.868 126.039 250.971C126.039 250.074 125.798 249.193 125.341 248.416C124.883 247.639 124.225 246.993 123.433 246.544C122.64 246.095 121.741 245.857 120.826 245.856Z" fill="#092C4C"/>
<path d="M134.131 252.093C137.874 248.425 137.874 242.479 134.131 238.812C130.388 235.144 124.32 235.144 120.578 238.812C116.835 242.479 116.835 248.425 120.578 252.093C124.32 255.76 130.388 255.76 134.131 252.093Z" fill="#092C4C"/>
<path d="M136.679 247.595C136.307 249.101 135.559 250.493 134.502 251.646C133.446 252.799 132.113 253.677 130.625 254.201C129.136 254.725 127.539 254.879 125.975 254.648C124.411 254.417 122.93 253.81 121.665 252.88C120.399 251.95 119.39 250.727 118.726 249.321C118.062 247.914 117.765 246.368 117.862 244.821C117.958 243.274 118.445 241.775 119.279 240.458C120.112 239.141 121.267 238.048 122.638 237.276C121.805 237.736 121.048 238.317 120.393 239C120.227 239.703 120.141 240.423 120.138 241.145C120.124 243.03 120.691 244.876 121.765 246.44C122.839 248.005 124.37 249.215 126.158 249.912C127.946 250.609 129.907 250.761 131.784 250.347C133.662 249.934 135.368 248.975 136.679 247.595Z" fill="#092C4C"/>
<path d="M150.516 259.834L211.633 294.403V241.722L150.516 207.152V259.834Z" fill="#F0F0F0"/>
<path d="M194.168 274.646V304.286L133.059 269.708V240.076L194.168 274.646Z" fill="#F0F0F0"/>
<path d="M133.059 249.951L194.168 284.528V274.646L133.059 240.076V249.951Z" fill="#E0E0E0"/>
<path d="M150.516 217.027L211.633 251.597V241.722L150.516 207.145V217.027Z" fill="#E0E0E0"/>
<path d="M211.633 241.722L252.372 218.673V271.354L211.633 294.403V241.722Z" fill="#FAFAFA"/>
<path d="M194.168 274.646L211.632 258.188V294.403L194.168 304.286V274.646Z" fill="#FAFAFA"/>
<path d="M232.002 207.145L211.633 241.722L252.372 218.673L232.002 207.145Z" fill="#FAFAFA"/>
<path d="M208.719 246.659L232.002 207.144V204.68L208.719 244.194V246.659Z" fill="#092C4C"/>
<path opacity="0.1" d="M208.719 246.659L232.002 207.144V204.68L208.719 244.194V246.659Z" fill="#092C4C"/>
<path d="M170.888 170.109L147.609 209.619L208.721 244.193L232 204.683L170.888 170.109Z" fill="#092C4C"/>
<path d="M147.609 209.617L208.718 244.195V246.659L147.609 212.09V209.617Z" fill="#092C4C"/>
<path opacity="0.15" d="M147.609 209.617L208.718 244.195V246.659L147.609 212.09V209.617Z" fill="#092C4C"/>
<path d="M232.004 204.68L257.468 219.086L255.279 220.319L232.004 207.144V204.68Z" fill="#092C4C"/>
<path opacity="0.15" d="M232.004 204.68L257.468 219.086L255.279 220.319L232.004 207.144V204.68Z" fill="#092C4C"/>
<path d="M255.277 220.319H252.371V218.673L255.277 220.319Z" fill="#092C4C"/>
<path opacity="0.3" d="M255.277 220.319H252.371V218.673L255.277 220.319Z" fill="#092C4C"/>
<path d="M159.891 209.149V197.293L166.856 193.354L173.797 205.132V217.027L159.891 209.149Z" fill="#F0F0F0"/>
<path opacity="0.2" d="M166.859 193.354L158.263 198.213L157.164 197.589L166.859 192.106V193.354Z" fill="#092C4C"/>
<path d="M173.797 217.027L180.746 205.218L184.296 199.181L173.797 205.132V217.027Z" fill="#FAFAFA"/>
<path opacity="0.4" d="M158.262 198.213H159.894V197.293L158.262 198.213Z" fill="#092C4C"/>
<path d="M175.456 207.94L166.859 193.354V192.106L176.531 208.548L175.456 207.94Z" fill="#092C4C"/>
<path opacity="0.1" d="M175.456 207.94L166.859 193.354V192.106L176.531 208.548L175.456 207.94Z" fill="#092C4C"/>
<path d="M176.531 208.549L166.859 192.106L176.865 186.443L186.536 202.886L176.531 208.549Z" fill="#092C4C"/>
<path opacity="0.3" d="M176.531 208.549L166.859 192.106L176.865 186.443L186.536 202.886L176.531 208.549Z" fill="white"/>
<path d="M170.328 203.229L163.371 199.29V207.152L170.328 211.091V203.229Z" fill="#092C4C"/>
<path d="M164.078 206.747V199.688L170.327 203.229V210.28L164.078 206.747Z" fill="#E0E0E0"/>
<path d="M163.371 207.152L164.08 206.747L170.328 210.28V211.091L163.371 207.152Z" fill="#092C4C"/>
<path d="M188.984 225.615V213.759L195.957 209.82L202.898 221.598V233.493L188.984 225.615Z" fill="#F0F0F0"/>
<path opacity="0.2" d="M195.961 209.82L187.364 214.679L186.258 214.055L195.961 208.572V209.82Z" fill="#092C4C"/>
<path d="M202.898 233.493L209.84 221.684L213.39 215.646L202.898 221.598V233.493Z" fill="#FAFAFA"/>
<path opacity="0.4" d="M187.363 214.679H188.987V213.759L187.363 214.679Z" fill="#092C4C"/>
<path d="M204.558 224.406L195.961 209.82V208.572L205.624 225.014L204.558 224.406Z" fill="#092C4C"/>
<path opacity="0.1" d="M204.558 224.406L195.961 209.82V208.572L205.624 225.014L204.558 224.406Z" fill="#092C4C"/>
<path d="M205.624 225.014L195.961 208.572L205.959 202.901L215.63 219.344L205.624 225.014Z" fill="#092C4C"/>
<path opacity="0.3" d="M205.624 225.014L195.961 208.572L205.959 202.901L215.63 219.344L205.624 225.014Z" fill="white"/>
<path d="M199.422 219.687L192.465 215.756V223.618L199.422 227.557V219.687Z" fill="#092C4C"/>
<path d="M193.18 223.213V216.154L199.42 219.687V226.746L193.18 223.213Z" fill="#E0E0E0"/>
<path d="M192.465 223.618L193.181 223.212L199.422 226.746V227.557L192.465 223.618Z" fill="#092C4C"/>
<path d="M150.514 221.387L211.631 255.957V258.188L191.261 279.591L130.145 245.013V242.79L150.514 221.387Z" fill="#092C4C"/>
<path d="M150.514 221.387L211.631 255.957L191.261 277.36L130.145 242.79L150.514 221.387Z" fill="#092C4C"/>
<path opacity="0.1" d="M191.262 277.36V279.591L211.631 258.188V255.957L191.262 277.36Z" fill="#092C4C"/>
<path opacity="0.15" d="M191.261 279.591L130.145 245.014V242.791L191.261 277.36V279.591Z" fill="#092C4C"/>
<path d="M156.344 259.826L141.793 251.597V266.744L156.344 274.973V259.826Z" fill="#092C4C"/>
<path d="M142.684 266.237V252.104L156.343 259.834V273.959L142.684 266.237Z" fill="#FAFAFA"/>
<path d="M142.684 252.104V255.403L156.343 263.125V259.826L142.684 252.104Z" fill="#F0F0F0"/>
<path d="M141.793 266.744L142.684 266.237L156.344 273.959V274.973L141.793 266.744Z" fill="#092C4C"/>
<path d="M141.793 259.171L142.684 258.664L156.344 266.386V267.4L141.793 259.171Z" fill="#092C4C"/>
<path d="M148.766 270.691L149.657 271.198V256.05L148.766 255.543V270.691Z" fill="#092C4C"/>
<path d="M182.531 274.646L167.98 266.417V281.564L182.531 289.793V274.646Z" fill="#092C4C"/>
<path d="M168.871 281.057V266.924L182.53 274.646V288.779L168.871 281.057Z" fill="#FAFAFA"/>
<path d="M168.871 266.924V270.215L182.53 277.945V274.646L168.871 266.924Z" fill="#F0F0F0"/>
<path d="M167.98 281.564L168.872 281.057L182.531 288.779V289.793L167.98 281.564Z" fill="#092C4C"/>
<path d="M167.98 273.99L168.872 273.483L182.531 281.205V282.219L167.98 273.99Z" fill="#092C4C"/>
<path d="M174.953 285.511L175.845 286.018V270.871L174.953 270.364V285.511Z" fill="#092C4C"/>
<path d="M202.898 276.299L217.449 268.062V283.21L202.898 291.439V276.299Z" fill="#092C4C"/>
<path d="M216.558 282.703V268.57L202.898 276.299V290.425L216.558 282.703Z" fill="#E6E6E6"/>
<path d="M216.558 268.57V270.02L202.898 277.742V276.299L216.558 268.57Z" fill="#E0E0E0"/>
<path d="M217.449 283.21L216.558 282.703L202.898 290.425V291.439L217.449 283.21Z" fill="#092C4C"/>
<path d="M217.449 275.636L216.558 275.129L202.898 282.851V283.865L217.449 275.636Z" fill="#092C4C"/>
<path d="M210.477 287.157L209.586 287.664V272.516L210.477 272.009V287.157Z" fill="#092C4C"/>
<path d="M225.914 227.276L240.465 219.047V234.195L225.914 242.424V227.276Z" fill="#092C4C"/>
<path d="M239.573 233.688V219.554L225.914 227.276V241.41L239.573 233.688Z" fill="#E6E6E6"/>
<path d="M239.573 219.554V221.005L225.914 228.727V227.276L239.573 219.554Z" fill="#E0E0E0"/>
<path d="M240.465 234.195L239.573 233.688L225.914 241.41V242.424L240.465 234.195Z" fill="#092C4C"/>
<path d="M240.465 226.621L239.573 226.114L225.914 233.844V234.858L240.465 226.621Z" fill="#092C4C"/>
<path d="M233.489 238.142L232.598 238.649V223.501L233.489 222.994V238.142Z" fill="#092C4C"/>
<path d="M226.184 286.174V259.833L240.734 251.597V277.945L226.184 286.174Z" fill="#092C4C"/>
<path d="M240.201 277.547V251.901L226.184 259.833V285.48L240.201 277.547Z" fill="#092C4C"/>
<path d="M240.733 251.597L240.199 251.901V277.547L240.733 277.945V251.597Z" fill="#092C4C"/>
<path d="M309.199 67.431C309.154 65.3653 308.613 63.339 307.62 61.5163C306.627 59.6936 305.21 58.1258 303.483 56.94C301.891 55.9494 300.363 55.8012 299.249 56.3628C292.523 59.67 245.256 89.3646 242.239 90.831H242.199C241.881 91.0378 241.625 91.3238 241.457 91.6596C241.289 91.9955 241.216 92.3691 241.244 92.742C241.263 93.7833 241.533 94.8054 242.032 95.7247C242.532 96.6439 243.246 97.4341 244.118 98.0304C244.419 98.2611 244.778 98.4088 245.157 98.4581C245.537 98.5075 245.922 98.4568 246.275 98.3112H246.323C251.099 95.7294 297.752 76.245 307.288 71.2374C308.411 70.629 309.135 69.3186 309.199 67.431Z" fill="#092C4C"/>
<path opacity="0.1" d="M307.345 61.0271C306.409 59.3822 305.086 57.9808 303.484 56.9399C301.892 55.9493 300.38 55.8011 299.266 56.3549L299.122 56.4329C292.985 59.5061 257.81 81.4943 245.973 88.6469L245.894 88.6937L245.416 88.9823L245.273 89.0681L245.002 89.2319L244.684 89.4191C243.434 90.1991 242.59 90.6515 242.296 90.8153H242.256C242.155 90.8742 242.061 90.9449 241.977 91.0259C241.754 91.2505 241.579 91.5167 241.463 91.8088C241.347 92.1009 241.292 92.4129 241.301 92.7263C241.285 92.947 241.285 93.1686 241.301 93.3893C241.301 93.4751 241.301 93.5609 241.341 93.6467C241.38 93.7325 241.388 93.9119 241.42 94.0523C241.452 94.1927 241.476 94.2707 241.508 94.3721C241.54 94.4735 241.587 94.6295 241.635 94.7543C241.683 94.8791 241.707 94.9415 241.739 95.0351V95.0819L307.345 61.0271Z" fill="#092C4C"/>
<path d="M244.108 98.038C243.241 97.4431 242.529 96.6564 242.03 95.7417C241.53 94.8271 241.258 93.81 241.234 92.773C241.306 90.8698 242.691 90.1366 244.339 91.1428C245.207 91.7385 245.92 92.5264 246.419 93.4425C246.918 94.3587 247.19 95.3773 247.212 96.4156C247.149 98.3188 245.756 99.0598 244.108 98.038Z" fill="#092C4C"/>
<path d="M229.981 99.3173C230 100.114 230.209 100.895 230.592 101.599C230.975 102.302 231.521 102.907 232.186 103.366C232.417 103.541 232.691 103.652 232.981 103.689C233.27 103.726 233.565 103.687 233.834 103.576L245.264 97.6091C245.507 97.4512 245.703 97.2329 245.832 96.9767C245.96 96.7205 246.017 96.4354 245.997 96.1505C245.979 95.3535 245.771 94.5717 245.388 93.8684C245.004 93.1652 244.458 92.5601 243.792 92.1023C243.562 91.9253 243.288 91.8117 242.998 91.7733C242.709 91.7349 242.414 91.7731 242.144 91.8839L230.713 97.8509C230.469 98.0095 230.273 98.229 230.144 98.4867C230.016 98.7445 229.959 99.0312 229.981 99.3173Z" fill="#092C4C"/>
<path d="M230.729 97.8509C230.482 98.0076 230.282 98.2263 230.151 98.4841C230.019 98.742 229.96 99.0297 229.98 99.3173C229.976 99.9093 230.096 100.496 230.331 101.041L245.073 93.3347C244.738 92.8456 244.308 92.4267 243.807 92.1023C243.577 91.9253 243.303 91.8117 243.013 91.7733C242.724 91.7349 242.429 91.7731 242.159 91.8839L230.729 97.8509Z" fill="#092C4C"/>
<path d="M244.65 109.255C244.65 102.079 239.81 94.9026 230.123 89.427C210.764 78.468 179.37 78.468 160.003 89.427C150.324 94.887 145.484 102.079 145.484 109.255V122.515C145.484 129.691 150.324 136.867 160.011 142.35C179.37 153.27 210.764 153.27 230.123 142.35C239.81 136.89 244.65 129.691 244.65 122.515V109.255ZM162.383 93.4908C171.028 88.6002 182.626 85.9092 195.019 85.9092C207.413 85.9092 219.035 88.6002 227.655 93.4908C235.472 97.9134 239.779 103.514 239.779 109.262C239.779 115.011 235.472 120.604 227.655 125.026C219.011 129.917 207.413 132.608 195.019 132.608C182.626 132.608 171.004 129.917 162.383 125.026C154.559 120.604 150.26 115.003 150.26 109.262C150.26 103.522 154.583 97.9134 162.383 93.4908Z" fill="#092C4C"/>
<path opacity="0.3" d="M159.996 129.09C179.362 140.049 210.749 140.049 230.115 129.09C249.482 118.131 249.482 100.378 230.115 89.427C210.749 78.4758 179.362 78.468 159.996 89.427C140.629 100.386 140.645 118.139 159.996 129.09ZM150.268 109.262C150.268 103.514 154.575 97.9134 162.392 93.4908C171.044 88.6002 182.642 85.9092 195.028 85.9092C207.413 85.9092 219.043 88.6002 227.664 93.4908C235.48 97.9134 239.787 103.514 239.787 109.262C239.787 115.011 235.48 120.604 227.664 125.026C219.011 129.917 207.413 132.608 195.028 132.608C182.642 132.608 171.012 129.917 162.392 125.026C154.583 120.604 150.276 115.003 150.276 109.262H150.268Z" fill="white"/>
<path d="M150.277 109.255C150.306 111.592 150.974 113.879 152.212 115.877C154.178 112.538 157.64 109.411 162.408 106.72C171.045 101.821 182.651 99.1302 195.044 99.1302C207.438 99.1302 219.06 101.821 227.68 106.72C232.456 109.411 235.911 112.538 237.885 115.877C239.117 113.877 239.782 111.591 239.811 109.255C239.811 103.514 235.505 97.9134 227.68 93.4908C219.044 88.6002 207.438 85.9092 195.044 85.9092C182.651 85.9092 171.021 88.6002 162.408 93.4908C154.584 97.9134 150.277 103.514 150.277 109.255Z" fill="#092C4C"/>
<path opacity="0.1" d="M150.277 109.255C150.306 111.592 150.974 113.879 152.212 115.877C154.178 112.538 157.64 109.411 162.408 106.72C171.045 101.821 182.651 99.1302 195.044 99.1302C207.438 99.1302 219.06 101.821 227.68 106.72C232.456 109.411 235.911 112.538 237.885 115.877C239.117 113.877 239.782 111.591 239.811 109.255C239.811 103.514 235.505 97.9134 227.68 93.4908C219.044 88.6002 207.438 85.9092 195.044 85.9092C182.651 85.9092 171.021 88.6002 162.408 93.4908C154.584 97.9134 150.277 103.514 150.277 109.255Z" fill="#092C4C"/>
<path opacity="0.4" d="M162.385 99.481C171.038 94.5904 182.635 91.8916 195.021 91.8916C207.407 91.8916 219.037 94.5904 227.657 99.481C234.105 103.131 238.156 107.577 239.382 112.25C238.156 116.93 234.105 121.376 227.657 125.026C219.005 129.917 207.407 132.608 195.021 132.608C182.635 132.608 171.006 129.917 162.385 125.026C155.938 121.376 151.886 116.922 150.66 112.25C151.902 107.577 155.954 103.131 162.385 99.481Z" fill="white"/>
<path opacity="0.1" d="M183.383 136.5V149.76C174.818 148.59 166.667 146.117 160.012 142.334C150.325 136.874 145.485 129.675 145.485 122.491V109.231C145.489 107.769 145.687 106.314 146.074 104.902C143.686 113.443 148.367 122.483 159.996 129.082C166.699 132.881 174.818 135.353 183.383 136.5Z" fill="#092C4C"/>
</svg>
