<svg width="241" height="204" viewBox="0 0 241 204" fill="none" xmlns="http://www.w3.org/2000/svg">
<g clip-path="url(#clip0_385_77117)">
<path d="M123.086 203.568C130.334 203.568 136.21 196.51 136.21 187.803C136.21 179.097 130.334 172.039 123.086 172.039C115.837 172.039 109.961 179.097 109.961 187.803C109.961 196.51 115.837 203.568 123.086 203.568Z" fill="#F39A4A"/>
<path d="M201.491 202.682C208.834 200.033 216.64 197.271 222.463 190.975C227.666 185.348 231.179 176.756 229.024 168.318C226.872 159.897 220.429 154.282 213.776 151.489C210.002 149.905 206.055 149.026 202.109 148.336C197.819 147.586 193.51 146.971 189.204 146.379C171.766 143.984 154.262 142.52 136.693 141.989C128.024 141.727 119.356 141.733 110.686 141.884C102.942 142.019 94.7873 142.016 87.6039 138.063C82.0178 134.989 76.9479 129.396 75.3914 122.047C73.5947 113.563 76.9087 104.924 81.6626 98.7798C84.1685 95.5412 87.0971 92.8154 90.1183 90.309C93.3959 87.5899 96.7877 85.0634 100.253 82.705C107.078 78.0623 114.214 74.1111 121.585 70.8924C125.222 69.3042 128.912 67.9339 132.635 66.6698C135.778 65.6024 138.931 64.5334 141.969 63.0791C147.842 60.2676 153.428 55.5053 154.921 47.6979C156.336 40.2984 153.95 32.2656 149.767 26.7686C144.927 20.409 137.63 17.6212 130.633 17.1701C122.779 16.6637 115.106 19.0249 107.723 22.0214C99.8496 25.2175 92.1456 28.8924 84.1054 31.4812C76.1325 34.0458 68.0053 35.8604 59.7977 36.9085C55.7798 37.4224 51.6404 38.0027 47.5986 37.6093C44.2112 37.2795 40.8411 36.0829 38.3446 33.1953C36.204 30.7194 34.9288 27.3165 35.3672 23.7255C35.4469 23.0733 36.2718 23.3506 36.1926 23.9988C35.659 28.3701 38.1327 32.3981 41.1811 34.4614C44.7043 36.8461 48.9914 36.8493 52.9139 36.5766C61.4189 35.9596 69.8663 34.4928 78.1685 32.1915C86.3265 29.9534 94.193 26.754 102.051 23.3363C109.513 20.0903 117.143 16.9222 125.116 16.2192C132.034 15.6091 139.311 16.8197 145.337 21.1621C150.634 24.9785 154.529 31.3429 155.77 38.6463C156.982 45.7831 155.303 52.9663 150.805 57.9466C146.148 63.103 139.763 65.3076 133.813 67.338C126.266 69.9132 118.88 72.9235 111.731 76.832C104.485 80.7827 97.536 85.4754 90.9603 90.8583C84.6131 96.0683 78.3491 102.624 76.3417 111.918C75.4066 116.248 75.5792 120.839 77.1439 124.929C78.5351 128.565 80.8263 131.623 83.4955 133.983C89.864 139.611 97.8905 140.767 105.583 140.882C114.223 141.011 122.863 140.661 131.506 140.831C149.119 141.179 166.696 142.466 184.237 144.694C188.633 145.253 193.023 145.871 197.407 146.548C201.35 147.156 205.307 147.761 209.184 148.842C216.078 150.764 222.787 154.459 227.071 161.48C228.973 164.523 230.151 168.13 230.48 171.914C230.78 175.863 229.975 179.82 228.489 183.333C225.198 191.11 219.035 196.056 212.49 199.305C208.984 201.046 205.348 202.364 201.719 203.673C201.19 203.864 200.964 202.872 201.491 202.682L201.491 202.682Z" fill="#F2F2F2"/>
<path d="M35.9179 32.0432C39.6997 32.0432 42.7655 28.3607 42.7655 23.8182C42.7655 19.2757 39.6997 15.5933 35.9179 15.5933C32.1361 15.5933 29.0703 19.2757 29.0703 23.8182C29.0703 28.3607 32.1361 32.0432 35.9179 32.0432Z" fill="#F2F2F2"/>
<path d="M83.4257 47.6362C87.2076 47.6362 90.2733 43.9538 90.2733 39.4112C90.2733 34.8687 87.2076 31.1863 83.4257 31.1863C79.6439 31.1863 76.5781 34.8687 76.5781 39.4112C76.5781 43.9538 79.6439 47.6362 83.4257 47.6362Z" fill="#F2F2F2"/>
<path d="M123.652 16.4499C127.434 16.4499 130.5 12.7675 130.5 8.22496C130.5 3.68244 127.434 0 123.652 0C119.87 0 116.805 3.68244 116.805 8.22496C116.805 12.7675 119.87 16.4499 123.652 16.4499Z" fill="#F2F2F2"/>
<path d="M148.762 51.406C152.543 51.406 155.609 47.7235 155.609 43.181C155.609 38.6385 152.543 34.9561 148.762 34.9561C144.98 34.9561 141.914 38.6385 141.914 43.181C141.914 47.7235 144.98 51.406 148.762 51.406Z" fill="#F2F2F2"/>
<path d="M114.809 91.8454C118.59 91.8454 121.656 88.163 121.656 83.6205C121.656 79.0779 118.59 75.3955 114.809 75.3955C111.027 75.3955 107.961 79.0779 107.961 83.6205C107.961 88.163 111.027 91.8454 114.809 91.8454Z" fill="#F2F2F2"/>
<path d="M71.7265 111.38C75.5083 111.38 78.5741 107.697 78.5741 103.155C78.5741 98.6121 75.5083 94.9297 71.7265 94.9297C67.9447 94.9297 64.8789 98.6121 64.8789 103.155C64.8789 107.697 67.9447 111.38 71.7265 111.38Z" fill="#F2F2F2"/>
<path d="M117.379 141.881C121.161 141.881 124.226 138.198 124.226 133.656C124.226 129.113 121.161 125.431 117.379 125.431C113.597 125.431 110.531 129.113 110.531 133.656C110.531 138.198 113.597 141.881 117.379 141.881Z" fill="#F2F2F2"/>
<path d="M166.453 159.016C170.235 159.016 173.301 155.333 173.301 150.791C173.301 146.248 170.235 142.566 166.453 142.566C162.671 142.566 159.605 146.248 159.605 150.791C159.605 155.333 162.671 159.016 166.453 159.016Z" fill="#F2F2F2"/>
<path d="M223.801 155.246C227.583 155.246 230.648 151.564 230.648 147.021C230.648 142.479 227.583 138.796 223.801 138.796C220.019 138.796 216.953 142.479 216.953 147.021C216.953 151.564 220.019 155.246 223.801 155.246Z" fill="#F2F2F2"/>
<path d="M121.676 23.3051C101.164 23.4792 84.3694 43.5008 84.078 68.1368C84.0753 68.3642 84.0741 69.9635 84.0742 72.0553C84.0744 75.1224 85.0887 78.0638 86.8942 80.2326C88.6997 82.4014 91.1485 83.6199 93.7019 83.6203H93.7019C94.9677 83.62 96.221 83.3201 97.3903 82.7377C98.5595 82.1553 99.6218 81.302 100.516 80.2263C101.411 79.1507 102.12 77.8738 102.604 76.4688C103.087 75.0637 103.336 73.558 103.335 72.0376C103.334 70.6147 103.333 69.6298 103.333 69.5693C103.332 65.7619 104.157 62.0198 105.725 58.7112C107.294 55.4026 109.553 52.6414 112.279 50.6993C115.006 48.7572 118.106 47.7011 121.275 47.6348C124.445 47.5685 127.574 48.4943 130.355 50.3212C133.136 52.1481 135.473 54.8131 137.137 58.0541C138.801 61.2951 139.733 65.0004 139.843 68.8056C139.953 72.6108 139.236 76.3847 137.763 79.7562C136.29 83.1277 134.112 85.9805 131.442 88.0342L131.446 88.039C131.446 88.039 117.743 98.6354 113.565 113.172L113.568 113.173C112.834 116.15 112.461 119.24 112.463 122.346C112.463 123.623 112.526 134.794 112.646 143.86C112.689 146.989 113.753 149.972 115.61 152.166C117.467 154.36 119.968 155.589 122.573 155.589H122.573C123.882 155.589 125.177 155.278 126.386 154.674C127.594 154.07 128.691 153.185 129.614 152.07C130.537 150.955 131.267 149.631 131.762 148.176C132.257 146.721 132.508 145.162 132.5 143.59C132.458 135.287 132.435 125.618 132.435 124.916C132.435 115.991 139.604 107.097 145.492 101.298C152.273 94.6197 157.153 85.5188 159.113 75.2526C159.546 73.139 159.785 70.9746 159.826 68.7982C159.826 62.7962 158.837 56.8535 156.916 51.3125C154.996 45.7714 152.181 40.7417 148.635 36.5129C145.089 32.2842 140.881 28.9401 136.255 26.6733C131.628 24.4065 126.673 23.2618 121.676 23.3051Z" fill="#F39A4A"/>
<path d="M240.659 204H0.33874C0.24881 204 0.162655 203.957 0.0991573 203.88C0.0356596 203.804 0 203.7 0 203.592C0 203.484 0.0356596 203.38 0.0991573 203.304C0.162655 203.227 0.24881 203.184 0.33874 203.184H240.659C240.749 203.184 240.836 203.227 240.9 203.303C240.963 203.38 240.999 203.484 240.999 203.592C240.999 203.7 240.963 203.804 240.9 203.88C240.836 203.957 240.749 204 240.659 204Z" fill="#F39A4A"/>
<path d="M179.306 93.5575C184.033 93.5575 187.865 88.9545 187.865 83.2763C187.865 77.5982 184.033 72.9951 179.306 72.9951C174.578 72.9951 170.746 77.5982 170.746 83.2763C170.746 88.9545 174.578 93.5575 179.306 93.5575Z" fill="#2F2E41"/>
<path d="M163.49 199.499H159.992L158.328 183.293H163.491L163.49 199.499Z" fill="#A0616A"/>
<path d="M157.494 198.299H164.24V203.401H153.246C153.246 202.731 153.356 202.067 153.569 201.448C153.783 200.829 154.096 200.267 154.49 199.793C154.885 199.319 155.353 198.944 155.868 198.687C156.383 198.431 156.936 198.299 157.494 198.299Z" fill="#2F2E41"/>
<path d="M190.596 199.499H187.098L185.434 183.293H190.596L190.596 199.499Z" fill="#A0616A"/>
<path d="M184.599 198.299H191.345V203.401H180.352C180.352 202.731 180.461 202.067 180.675 201.448C180.888 200.829 181.201 200.267 181.596 199.793C181.99 199.319 182.458 198.944 182.974 198.687C183.489 198.431 184.041 198.299 184.599 198.299Z" fill="#2F2E41"/>
<path d="M178.008 93.6174C181.878 93.6174 185.015 89.8489 185.015 85.2002C185.015 80.5515 181.878 76.783 178.008 76.783C174.137 76.783 171 80.5515 171 85.2002C171 89.8489 174.137 93.6174 178.008 93.6174Z" fill="#A0616A"/>
<path d="M182.184 120.772L185.32 112.118C186.081 110.088 186.299 107.825 185.944 105.639C185.589 103.454 184.678 101.455 183.337 99.9181C183.061 99.591 182.769 99.2853 182.461 99.003C180.914 97.5493 179.007 96.7569 177.043 96.7515C175.722 96.7576 174.418 97.106 173.219 97.7727C173.117 97.8276 173.017 97.8858 172.914 97.9441C172.717 98.0572 172.523 98.1806 172.335 98.3074C171.107 99.1545 170.061 100.336 169.283 101.758C168.505 103.18 168.016 104.801 167.855 106.491L166.472 120.419C166.124 121.512 153.707 160.992 158.049 191.133C158.095 191.455 158.226 191.75 158.422 191.977C158.618 192.203 158.869 192.348 159.139 192.391L163.542 193.11C163.863 193.163 164.189 193.068 164.454 192.843C164.72 192.619 164.904 192.282 164.971 191.9L172.358 149.607C172.404 149.344 172.522 149.108 172.693 148.935C172.864 148.762 173.079 148.663 173.302 148.654C173.526 148.645 173.745 148.726 173.926 148.885C174.106 149.043 174.237 149.27 174.298 149.528L184.735 194.005C184.809 194.328 184.97 194.613 185.192 194.816C185.414 195.019 185.685 195.129 185.965 195.129C186.048 195.128 186.131 195.119 186.213 195.101L191.591 193.857C191.904 193.787 192.183 193.579 192.375 193.274C192.566 192.969 192.656 192.589 192.627 192.209C191.836 181.623 187.636 128.596 182.184 120.772Z" fill="#2F2E41"/>
<path d="M150.773 92.205C150.725 92.7055 150.768 93.2126 150.9 93.6907C151.032 94.1689 151.25 94.6064 151.538 94.9724C151.827 95.3385 152.178 95.6242 152.568 95.8094C152.958 95.9947 153.377 96.0749 153.796 96.0445L157.713 107.351L160.676 102.075L156.502 92.1473C156.413 91.3058 156.07 90.5329 155.538 89.9749C155.006 89.4169 154.322 89.1126 153.616 89.1198C152.91 89.1269 152.231 89.4449 151.707 90.0135C151.183 90.5821 150.851 91.3619 150.773 92.205L150.773 92.205Z" fill="#A0616A"/>
<path d="M177.617 132.157C178.033 132.097 178.434 131.928 178.79 131.662C179.146 131.396 179.45 131.04 179.679 130.618C179.908 130.196 180.057 129.719 180.117 129.22C180.176 128.721 180.143 128.213 180.021 127.731L188.262 120.521L183.301 118.289L176.235 125.478C175.574 125.778 175.029 126.359 174.701 127.11C174.373 127.862 174.286 128.731 174.456 129.554C174.627 130.378 175.042 131.097 175.625 131.577C176.207 132.056 176.916 132.263 177.617 132.157Z" fill="#A0616A"/>
<path d="M164.184 114.889C163.868 114.889 163.553 114.852 163.243 114.778C162.493 114.606 161.79 114.216 161.195 113.641C160.601 113.067 160.133 112.325 159.834 111.482L154.346 103.445C154.23 103.275 154.145 103.077 154.098 102.865C154.051 102.652 154.042 102.43 154.072 102.214C154.102 101.997 154.17 101.79 154.272 101.608C154.374 101.425 154.507 101.271 154.663 101.155L158.567 98.2522C158.711 98.145 158.872 98.0732 159.039 98.0408C159.207 98.0085 159.378 98.0163 159.543 98.0637C159.707 98.1112 159.863 98.1975 160 98.3175C160.137 98.4375 160.253 98.5889 160.341 98.7629L164.208 106.417L171.616 99.8416C172.205 99.4702 172.887 99.366 173.535 99.5481C174.184 99.7303 174.756 100.187 175.147 100.834C175.539 101.481 175.724 102.275 175.668 103.072C175.612 103.869 175.319 104.616 174.843 105.175L167.449 113.275C166.581 114.309 165.407 114.89 164.184 114.889Z" fill="#2F2E41"/>
<path d="M184.197 126.977C184.187 126.977 184.176 126.977 184.166 126.977C183.986 126.972 183.809 126.921 183.647 126.828C183.484 126.736 183.339 126.603 183.222 126.439L179.751 121.575C179.632 121.409 179.545 121.215 179.493 121.006C179.442 120.796 179.429 120.576 179.453 120.36C179.478 120.144 179.541 119.937 179.637 119.752C179.734 119.567 179.862 119.409 180.013 119.288L186.513 114.083L180.625 105.58C180.282 104.894 180.156 104.083 180.271 103.295C180.385 102.507 180.731 101.794 181.247 101.288C181.762 100.781 182.412 100.514 183.077 100.536C183.743 100.557 184.38 100.865 184.872 101.405L192.029 109.805C192.592 110.423 193.022 111.196 193.282 112.058C193.542 112.919 193.624 113.844 193.521 114.752C193.417 115.66 193.132 116.524 192.69 117.271C192.247 118.017 191.661 118.624 190.98 119.038L185.131 126.493C185.011 126.646 184.866 126.768 184.705 126.851C184.545 126.934 184.372 126.977 184.197 126.977Z" fill="#2F2E41"/>
<path d="M176.224 109.054C176.168 109.054 176.113 109.05 176.057 109.041C175.816 109.006 175.587 108.888 175.4 108.702C175.212 108.515 175.073 108.268 174.999 107.99L172.39 98.3839C172.325 98.1411 172.335 97.878 172.419 97.6434C172.502 97.4087 172.654 97.2184 172.845 97.1075L172.93 97.0595C173.006 97.0156 173.082 96.9723 173.16 96.9308C174.376 96.2532 175.7 95.8998 177.041 95.8948C178.782 95.8986 180.484 96.5128 181.938 97.662C182.133 97.8179 182.269 98.0594 182.317 98.3347C182.365 98.61 182.321 98.8969 182.195 99.1338L177.302 108.342C177.187 108.56 177.028 108.74 176.839 108.865C176.651 108.989 176.439 109.055 176.224 109.054Z" fill="#E6E6E6"/>
<path d="M186.055 78.6865C187.602 78.6865 188.856 77.1803 188.856 75.3222C188.856 73.4642 187.602 71.958 186.055 71.958C184.508 71.958 183.254 73.4642 183.254 75.3222C183.254 77.1803 184.508 78.6865 186.055 78.6865Z" fill="#2F2E41"/>
<path d="M176.453 71.6243C174.486 71.6243 172.599 72.563 171.208 74.234C169.817 75.9051 169.035 78.1714 169.035 80.5346V84.3044H172.895L174.741 80.5346L175.295 84.3044H187.01L183.872 80.5346C183.872 78.1714 183.09 75.9051 181.699 74.234C180.308 72.563 178.421 71.6243 176.453 71.6243Z" fill="#2F2E41"/>
<path d="M187.496 73.0177C187.806 71.8544 188.447 70.8594 189.307 70.2078C190.167 69.5563 191.191 69.2897 192.198 69.455C193.983 69.8135 195.395 71.5368 196.235 73.4616C197.076 75.3865 197.465 77.5407 198.03 79.6056C198.595 81.6706 199.397 83.7468 200.824 85.0835C202.251 86.4202 204.441 86.7827 205.843 85.4077C205.682 86.8407 205.151 88.1771 204.324 89.2276C203.497 90.2782 202.416 90.9899 201.234 91.262C200.052 91.5341 198.828 91.3529 197.736 90.744C196.644 90.135 195.74 89.1292 195.15 87.8687C194.41 86.2883 194.219 84.4359 194 82.6421C193.781 80.8484 193.496 78.9924 192.613 77.522C191.73 76.0515 190.077 75.0912 188.674 75.7609L187.496 73.0177Z" fill="#2F2E41"/>
<path d="M96.4224 78.1502C93.8689 78.1498 91.4201 76.9312 89.6146 74.7624C87.8091 72.5936 86.7947 69.6522 86.7946 66.5852C86.7944 64.4934 86.7957 62.8941 86.7983 62.6666C86.8795 55.5018 88.3817 48.4635 91.1805 42.1355C86.5822 49.6966 84.0538 58.7873 83.9452 68.1499C83.9425 68.3774 83.9413 69.9767 83.9414 72.0685C83.9416 75.1356 84.956 78.0769 86.7615 80.2457C88.567 82.4145 91.0157 83.6331 93.5692 83.6335C95.6674 83.6325 97.708 82.809 99.3811 81.2879C101.054 79.7669 102.268 77.6315 102.838 75.2061C101.076 77.105 98.7903 78.1536 96.4224 78.1502Z" fill="#F39A4A"/>
<path d="M122.328 47.6736C125.28 47.8429 128.154 48.8703 130.703 50.6674C133.251 52.4646 135.399 54.9778 136.96 57.9914C138.522 61.005 139.452 64.4288 139.669 67.9689C139.887 71.5091 139.386 75.0597 138.209 78.316C139.911 75.9152 141.162 73.1019 141.876 70.0677C142.591 67.0336 142.753 63.8501 142.35 60.7342C141.947 57.6183 140.99 54.6433 139.544 52.012C138.097 49.3808 136.195 47.1551 133.968 45.4867C131.74 43.8183 129.239 42.7464 126.636 42.3442C124.032 41.942 121.387 42.2189 118.88 43.1559C116.374 44.093 114.065 45.6682 112.111 47.7743C110.157 49.8803 108.604 52.4676 107.559 55.3597C109.366 52.8056 111.638 50.7843 114.199 49.4517C116.76 48.1191 119.541 47.5107 122.328 47.6736Z" fill="#F39A4A"/>
<path d="M125.291 150.119C122.686 150.119 120.185 148.89 118.328 146.696C116.471 144.502 115.407 141.519 115.365 138.39C115.244 129.324 115.181 118.153 115.181 116.876C115.18 113.77 115.552 110.68 116.286 107.703L116.283 107.702C116.717 106.207 117.241 104.752 117.851 103.349C115.978 106.346 114.488 109.661 113.43 113.185L113.433 113.186C112.699 116.164 112.326 119.254 112.328 122.359C112.328 123.636 112.391 134.807 112.511 143.874C112.554 147.002 113.618 149.985 115.475 152.179C117.332 154.373 119.833 155.603 122.438 155.602C124.585 155.602 126.675 154.765 128.393 153.217C130.112 151.669 131.366 149.494 131.968 147.018C130.143 149.017 127.761 150.123 125.291 150.119Z" fill="#F39A4A"/>
<path d="M36.1024 199.656L39.6001 199.655L41.2644 183.449L36.1016 183.45L36.1024 199.656Z" fill="#FFB8B8"/>
<path d="M46.3477 203.557L35.3542 203.557L35.354 198.455L42.1 198.455C43.2265 198.455 44.3069 198.992 45.1035 199.949C45.9001 200.906 46.3476 202.204 46.3477 203.557L46.3477 203.557Z" fill="#2F2E41"/>
<path d="M23.5516 199.656L27.0493 199.655L28.7136 183.449L23.5508 183.45L23.5516 199.656Z" fill="#FFB8B8"/>
<path d="M33.793 203.557L22.7995 203.557L22.7993 198.455L29.5453 198.455C30.6718 198.455 31.7522 198.992 32.5488 199.949C33.3454 200.906 33.7929 202.204 33.793 203.557L33.793 203.557Z" fill="#2F2E41"/>
<path d="M26.6059 194.671L23.1892 194.456C23.013 194.444 22.8404 194.391 22.6814 194.3C22.5224 194.208 22.3802 194.079 22.2629 193.921C22.1457 193.762 22.0557 193.578 21.9983 193.377C21.9409 193.177 21.9172 192.965 21.9285 192.753L26.0122 138.446L44.8177 144.541L46.6295 143.948L40.9636 192.024C40.9153 192.386 40.7658 192.717 40.5397 192.963C40.3137 193.208 40.0245 193.354 39.7201 193.376L36.037 193.582C35.8529 193.594 35.6686 193.561 35.4958 193.483C35.3231 193.405 35.1656 193.286 35.0334 193.131C34.9011 192.977 34.797 192.791 34.7276 192.586C34.6581 192.38 34.6249 192.16 34.63 191.939L35.2973 163.084C35.3005 162.951 35.2619 162.82 35.1892 162.72C35.1165 162.619 35.0149 162.554 34.9045 162.539C34.7941 162.523 34.6829 162.558 34.5928 162.636C34.5027 162.714 34.4402 162.83 34.4177 162.961L27.9818 193.397C27.921 193.758 27.7579 194.083 27.5202 194.316C27.2824 194.549 26.9849 194.675 26.6781 194.674C26.6542 194.674 26.6301 194.673 26.6059 194.671Z" fill="#2F2E41"/>
<path d="M36.7303 94.0112C40.6006 94.0112 43.738 90.2427 43.738 85.594C43.738 80.9453 40.6006 77.1768 36.7303 77.1768C32.8601 77.1768 29.7227 80.9453 29.7227 85.594C29.7227 90.2427 32.8601 94.0112 36.7303 94.0112Z" fill="#FFB8B8"/>
<path d="M25.0631 110.323L25.8336 130.292L26.1121 137.557C26.1232 137.873 26.2126 138.178 26.3689 138.433C26.5251 138.688 26.7411 138.881 26.9893 138.988L45.0601 146.851C45.2061 146.916 45.3607 146.948 45.5165 146.947C45.6945 146.948 45.8708 146.906 46.035 146.823C46.1991 146.74 46.3477 146.619 46.4719 146.466C46.5961 146.313 46.6934 146.131 46.7578 145.932C46.8223 145.732 46.8526 145.52 46.8471 145.306L46.1062 109.402C46.0576 106.456 45.1548 103.623 43.5536 101.391C41.9523 99.1587 39.7529 97.6677 37.3346 97.1747C37.1598 97.1427 36.9819 97.1107 36.8041 97.0822C35.3045 96.8586 33.7823 97.0324 32.3447 97.5914C30.9071 98.1504 29.5889 99.081 28.4828 100.318C27.3376 101.583 26.4377 103.135 25.8467 104.864C25.2558 106.593 24.9883 108.457 25.0631 110.323L25.0631 110.323Z" fill="#CCCCCC"/>
<path d="M53.695 142.866C53.2676 142.707 52.8771 142.43 52.5547 142.057C52.2323 141.684 51.9869 141.226 51.8381 140.719C51.6893 140.212 51.6411 139.67 51.6976 139.137C51.754 138.604 51.9135 138.094 52.1632 137.648L46.0352 127.86L51.3233 127.467L56.3318 136.822C56.868 137.32 57.2412 138.029 57.3857 138.824C57.5303 139.619 57.4372 140.45 57.1226 141.172C56.808 141.893 56.2921 142.458 55.6653 142.767C55.0386 143.077 54.341 143.112 53.695 142.866H53.695Z" fill="#FFB8B8"/>
<path d="M49.384 135.876C49.2216 135.797 49.0739 135.68 48.9495 135.532C48.8251 135.384 48.7263 135.208 48.659 135.013L39.4266 108.593C39.2455 108.075 39.1509 107.52 39.1485 106.959C39.146 106.398 39.2357 105.842 39.4123 105.322C39.5889 104.803 39.849 104.33 40.1777 103.931C40.5065 103.532 40.8974 103.215 41.3282 102.998C41.759 102.781 42.2213 102.668 42.6885 102.665C43.1557 102.663 43.6187 102.771 44.0511 102.983C44.4836 103.196 44.8769 103.509 45.2086 103.904C45.5403 104.299 45.804 104.769 45.9844 105.287L55.2168 131.708C55.3532 132.099 55.3547 132.54 55.221 132.933C55.0873 133.326 54.8292 133.64 54.5033 133.804L50.4047 135.871C50.2433 135.953 50.07 135.995 49.8948 135.996C49.7196 135.997 49.546 135.957 49.384 135.877L49.384 135.876Z" fill="#CCCCCC"/>
<path d="M34.4777 134.945L43.3451 114.551C43.5161 114.158 43.8097 113.864 44.1614 113.731C44.5131 113.598 44.8942 113.639 45.2211 113.843L58.0922 121.918C58.4187 122.123 58.6641 122.476 58.7744 122.898C58.8848 123.32 58.8511 123.778 58.6809 124.171L49.8134 144.565C49.6424 144.957 49.3489 145.252 48.9972 145.384C48.6455 145.517 48.2644 145.477 47.9375 145.272L35.0664 137.198C34.7399 136.992 34.4945 136.64 34.3842 136.217C34.2738 135.795 34.3074 135.337 34.4777 134.945Z" fill="#F39A4A"/>
<path d="M40.4263 125.627C40.2686 125.124 40.0153 124.672 39.6864 124.308C39.3576 123.943 38.9623 123.676 38.5322 123.527C38.1021 123.379 37.6491 123.353 37.2093 123.452C36.7694 123.551 36.355 123.773 35.999 124.098L27.5027 117.329L27.4883 123.693L35.5587 129.146C36.0042 129.759 36.6153 130.165 37.2849 130.291C37.9544 130.418 38.6396 130.257 39.2203 129.837C39.801 129.417 40.2402 128.765 40.4607 127.995C40.6812 127.226 40.669 126.387 40.4263 125.627Z" fill="#FFB8B8"/>
<path d="M29.6842 127.058L22.7405 120.452C21.9894 120.149 21.3106 119.631 20.7626 118.944C20.2145 118.257 19.8135 117.42 19.594 116.505C19.3745 115.591 19.343 114.626 19.5023 113.693C19.6615 112.761 20.0068 111.889 20.5084 111.152L26.8131 101.228C27.2512 100.585 27.8674 100.152 28.5489 100.01C29.2305 99.8678 29.932 100.025 30.5251 100.453C31.1182 100.88 31.5633 101.55 31.7791 102.34C31.995 103.129 31.967 103.985 31.7004 104.752L26.712 114.554L34.0429 118.73C34.2134 118.827 34.3648 118.967 34.4871 119.139C34.6093 119.312 34.6997 119.514 34.7523 119.731C34.8048 119.949 34.8183 120.178 34.7918 120.402C34.7654 120.626 34.6996 120.841 34.5988 121.033L31.6395 126.658C31.5395 126.848 31.4074 127.011 31.2517 127.135C31.0961 127.26 30.9204 127.344 30.736 127.382C30.7287 127.383 30.7213 127.385 30.714 127.386C30.5328 127.419 30.3479 127.407 30.1708 127.35C29.9937 127.294 29.8281 127.195 29.6842 127.058Z" fill="#CCCCCC"/>
<path d="M31.4374 91.2303C31.4074 91.1247 31.3978 91.0122 31.4096 90.9014C31.4213 90.7906 31.454 90.6846 31.5051 90.5913C31.5562 90.4981 31.6244 90.4201 31.7045 90.3634C31.7846 90.3067 31.8744 90.2728 31.9671 90.2642C32.1569 90.2766 32.3426 90.3351 32.5131 90.4361C32.6836 90.5371 32.8352 90.6786 32.9589 90.8519C33.2125 91.2032 33.5077 91.5077 33.8351 91.7557C34.1741 91.9609 34.6339 91.9317 34.8271 91.5404C35.0086 91.1729 34.8843 90.6809 34.7744 90.2541C34.4948 89.1681 34.3384 88.0419 34.3094 86.9058C34.2777 85.6377 34.4267 84.3143 35.0112 83.3252C35.7655 82.0487 37.1143 81.5641 38.3909 81.5992C39.6674 81.6344 40.9232 82.1077 42.1876 82.4069C42.6241 82.5102 43.1372 82.563 43.4292 82.1566C43.7396 81.7245 43.6256 81.0252 43.4936 80.4418C43.1509 78.9279 42.7874 77.3627 41.9913 76.1401C41.1305 74.8696 39.9009 74.0381 38.5501 73.813C37.2533 73.6201 35.9369 73.7996 34.7091 74.3368C32.7087 75.0941 30.9485 76.567 29.6639 78.5585C28.3396 80.6763 27.7674 83.3378 28.0724 85.961C28.3703 88.2457 29.3782 90.3098 30.8929 91.7372L31.4374 91.2303Z" fill="#2F2E41"/>
<path d="M120.193 199.723C118.328 198.747 116.678 197.265 115.373 195.392C114.067 193.52 113.141 191.308 112.669 188.932C112.197 186.556 112.19 184.081 112.651 181.702C113.111 179.323 114.026 177.105 115.322 175.223C113.819 176.541 112.567 178.228 111.648 180.172C110.729 182.116 110.165 184.273 109.994 186.499C109.822 188.725 110.046 190.969 110.652 193.083C111.257 195.197 112.23 197.132 113.506 198.759C114.781 200.387 116.331 201.67 118.051 202.523C119.771 203.377 121.622 203.781 123.482 203.709C125.343 203.638 127.169 203.092 128.84 202.107C130.511 201.123 131.988 199.723 133.174 198.001C131.324 199.625 129.152 200.638 126.875 200.94C124.597 201.243 122.293 200.823 120.193 199.723Z" fill="#F39A4A"/>
</g>
<defs>
<clipPath id="clip0_385_77117">
<rect width="241" height="204" fill="white"/>
</clipPath>
</defs>
</svg>
