<svg width="241" height="204" viewBox="0 0 241 204" fill="none" xmlns="http://www.w3.org/2000/svg">
<g clip-path="url(#clip0_385_76965)">
<path d="M196.275 98.4578C196.275 101.324 196.155 104.162 195.915 106.97C195.726 109.162 195.468 111.335 195.141 113.488C194.793 115.767 194.367 118.019 193.863 120.244V120.247C193.533 121.711 193.171 123.163 192.777 124.603C191.632 128.79 190.209 132.894 188.516 136.89C188.148 137.759 187.769 138.622 187.377 139.479C185.894 142.726 184.233 145.888 182.403 148.951C177.271 157.552 170.863 165.32 163.402 171.988C162.594 172.709 161.776 173.417 160.946 174.114C143.329 188.879 121.093 196.951 98.1377 196.916C43.9371 196.916 0 152.835 0 98.4578C0 44.0803 43.9371 -0.000122193 98.1377 -0.000122193C120.303 -0.0351853 141.821 7.49188 159.16 21.3452C159.972 21.9914 160.775 22.652 161.567 23.3272C165.433 26.6168 169.041 30.1999 172.36 34.0448H172.362C187.817 51.9186 196.31 74.7956 196.275 98.4578Z" fill="#F2F2F2"/>
<path d="M28.9712 115.465C19.6224 109.883 12.5663 99.4504 13.4824 88.5745C22.0295 96.7815 33.1946 101.691 45.0023 102.434C49.557 102.704 54.6511 102.529 58.0039 105.634C60.0901 107.565 61.0613 110.474 61.2206 113.318C61.3798 116.161 60.812 118.99 60.2471 121.782L60.4415 122.465C49.5623 122.506 38.32 121.048 28.9712 115.465Z" fill="#E6E6E6"/>
<path d="M13.7096 88.5629C17.4554 96.7785 23.6862 103.601 31.517 108.062C33.2005 109.007 34.9902 109.819 36.8921 110.196C38.7488 110.549 40.6658 110.396 42.4439 109.755C44.1138 109.19 45.7567 108.418 47.5345 108.27C49.4083 108.114 51.143 108.839 52.506 110.109C54.1736 111.664 55.1851 113.726 56.1044 115.778C57.125 118.056 58.1492 120.438 60.1062 122.077C60.3433 122.275 60.0225 122.633 59.7857 122.434C56.381 119.584 55.8252 114.811 53.1036 111.454C51.8336 109.888 50.0855 108.696 48.0088 108.728C46.1928 108.755 44.4979 109.55 42.812 110.137C41.0418 110.753 39.2684 111.042 37.3996 110.771C35.4878 110.494 33.6627 109.75 31.9625 108.852C28.1223 106.787 24.6297 104.129 21.6126 100.975C18.1492 97.3945 15.3219 93.2463 13.2528 88.7095C13.1249 88.4287 13.5825 88.2838 13.7096 88.5629H13.7096Z" fill="#092C4C"/>
<path d="M28.9095 106.774C27.9852 107.991 26.66 108.838 25.1705 109.165C23.681 109.492 22.1242 109.277 20.7782 108.558C20.5063 108.412 20.7202 107.981 20.9924 108.127C22.2446 108.799 23.6947 108.999 25.0811 108.692C26.4676 108.385 27.6989 107.591 28.5529 106.453C28.7388 106.206 29.0943 106.529 28.9095 106.774L28.9095 106.774Z" fill="#092C4C"/>
<path d="M41.6349 110.153C41.2459 107.05 39.7056 104.209 37.3211 102.195C37.0847 101.996 37.4055 101.638 37.6416 101.837C40.119 103.937 41.7159 106.898 42.1137 110.127C42.1514 110.435 41.6724 110.459 41.6349 110.153V110.153Z" fill="#092C4C"/>
<path d="M18.7445 97.1686C19.1999 96.7727 19.5502 96.2695 19.7638 95.7042C19.9775 95.1389 20.0478 94.5292 19.9686 93.9299C19.927 93.6227 20.4061 93.599 20.4474 93.9042C20.5319 94.5668 20.4534 95.24 20.2187 95.8651C19.984 96.4902 19.6003 97.0482 19.1012 97.4902C19.0576 97.5358 18.9984 97.5631 18.9355 97.5664C18.8726 97.5698 18.8108 97.549 18.7626 97.5083C18.7156 97.4655 18.6873 97.4058 18.6839 97.3422C18.6806 97.2786 18.7023 97.2162 18.7445 97.1686V97.1686Z" fill="#092C4C"/>
<path d="M43.7429 67.5039C43.7743 67.695 43.8057 67.8861 43.8407 68.079C44.276 70.6458 44.9185 73.1728 45.7617 75.6352C45.8239 75.8267 45.8898 76.0197 45.9573 76.2089C48.052 82.1197 51.2222 87.589 55.3069 92.3386C56.934 94.2272 58.702 95.9887 60.5956 97.6081C63.2107 99.8445 66.2236 102.06 67.9003 104.948C68.0786 105.247 68.2382 105.557 68.3783 105.876L61.257 122.174C61.2223 122.203 61.1912 122.234 61.1564 122.263L60.9018 122.927C60.7983 122.85 60.6926 122.768 60.5891 122.692C60.5289 122.647 60.4703 122.599 60.4101 122.555C60.3705 122.525 60.3309 122.494 60.2934 122.468C60.2802 122.458 60.267 122.448 60.2575 122.439C60.22 122.414 60.1878 122.386 60.154 122.363C59.562 121.907 58.9723 121.447 58.3846 120.982C58.3809 120.98 58.3809 120.98 58.3788 120.975C53.9104 117.418 49.6987 113.456 46.2204 108.978C46.1158 108.843 46.0074 108.707 45.906 108.565C44.3493 106.538 42.9603 104.387 41.753 102.132C41.0958 100.896 40.5015 99.6271 39.9722 98.3304C38.6111 94.9773 37.7842 91.4303 37.5217 87.8194C36.9996 80.621 38.778 73.3352 43.3867 67.9146C43.5047 67.776 43.6212 67.6409 43.7429 67.5039Z" fill="#E6E6E6"/>
<path d="M43.9321 67.6313C41.9926 76.4536 42.8732 85.6648 46.4488 93.9564C47.2256 95.7281 48.1673 97.4575 49.4599 98.9071C50.7306 100.31 52.3526 101.347 54.1575 101.908C55.8299 102.466 57.6049 102.842 59.1131 103.797C60.7028 104.805 61.6526 106.432 61.9785 108.269C62.3773 110.518 61.947 112.776 61.4498 114.969C60.8977 117.404 60.2858 119.925 60.8652 122.415C60.9354 122.717 60.4647 122.809 60.3946 122.507C59.3865 118.175 61.8072 114.028 61.6485 109.704C61.5745 107.687 60.8939 105.679 59.2169 104.45C57.7504 103.375 55.9203 102.985 54.2222 102.436C52.439 101.858 50.8494 101.018 49.5199 99.6728C48.1599 98.2966 47.1488 96.6005 46.3303 94.8565C44.5035 90.8879 43.3101 86.6557 42.7937 82.3152C42.1769 77.3646 42.4088 72.3446 43.4794 67.4725C43.5458 67.171 43.998 67.3318 43.9321 67.6313Z" fill="#092C4C"/>
<path d="M45.1415 91.3545C43.6734 91.7675 42.1068 91.6436 40.7215 91.0047C39.3361 90.3659 38.2222 89.2538 37.5787 87.8671C37.4494 87.586 37.8787 87.3713 38.0081 87.6527C38.605 88.9452 39.6427 89.981 40.9339 90.5732C42.2252 91.1655 43.6849 91.2751 45.0497 90.8824C45.3464 90.7974 45.4365 91.27 45.1415 91.3545H45.1415Z" fill="#092C4C"/>
<path d="M53.2731 101.737C54.8243 99.0253 55.2996 95.8262 54.6043 92.778C54.5352 92.4761 55.0058 92.3844 55.0749 92.6859C55.7926 95.8592 55.2912 99.1874 53.6708 102.006C53.5161 102.275 53.1193 102.005 53.2731 101.737Z" fill="#092C4C"/>
<path d="M42.7874 77.5433C43.3886 77.5023 43.9702 77.3121 44.4801 76.9898C44.9899 76.6674 45.412 76.2231 45.7083 75.6967C45.8595 75.4263 46.2562 75.6968 46.106 75.9655C45.7759 76.5455 45.3092 77.0357 44.7467 77.393C44.1842 77.7504 43.543 77.9641 42.8792 78.0155C42.817 78.0256 42.7534 78.0116 42.7011 77.9763C42.6489 77.941 42.612 77.8871 42.598 77.8255C42.5861 77.7629 42.5994 77.6982 42.6349 77.6453C42.6703 77.5925 42.7251 77.5559 42.7874 77.5434V77.5433Z" fill="#092C4C"/>
<path d="M67.9804 22.8196L79.9921 163.889L55.9688 165.701V24.6144C58.8314 22.7141 62.9406 22.4167 67.9804 22.8196Z" fill="#CCCCCC"/>
<path d="M127.273 22.8196L115.262 163.889L139.285 165.701V24.6144C136.422 22.7141 132.313 22.4167 127.273 22.8196Z" fill="#CCCCCC"/>
<path d="M135.687 171.532H59.3107C58.086 171.531 56.9119 171.042 56.0459 170.173C55.1799 169.304 54.6928 168.126 54.6914 166.898V26.6849C54.6928 25.4562 55.1799 24.2783 56.0459 23.4095C56.9119 22.5406 58.086 22.0519 59.3107 22.0505H135.687C136.912 22.0519 138.086 22.5406 138.952 23.4095C139.818 24.2783 140.305 25.4562 140.306 26.6849V166.898C140.305 168.126 139.818 169.304 138.952 170.173C138.086 171.042 136.912 171.531 135.687 171.532ZM59.3107 23.5889C58.4926 23.5898 57.7082 23.9163 57.1297 24.4967C56.5511 25.0771 56.2257 25.8641 56.2248 26.6849V166.898C56.2257 167.719 56.5511 168.505 57.1296 169.086C57.7082 169.666 58.4925 169.993 59.3107 169.994H135.687C136.505 169.993 137.29 169.666 137.868 169.086C138.447 168.505 138.772 167.719 138.773 166.898V26.6849C138.772 25.8641 138.447 25.0771 137.868 24.4967C137.29 23.9163 136.505 23.5899 135.687 23.5889L59.3107 23.5889Z" fill="#CCCCCC"/>
<path d="M139.539 45.3828H55.457V46.9212H139.539V45.3828Z" fill="#CCCCCC"/>
<path d="M139.539 71.0229H55.457V72.5614H139.539V71.0229Z" fill="#CCCCCC"/>
<path d="M82.7443 22.8196H81.2109V92.817H82.7443V22.8196Z" fill="#CCCCCC"/>
<path d="M113.787 22.8196H112.254V92.817H113.787V22.8196Z" fill="#CCCCCC"/>
<path d="M149.125 175.763H48.4316C46.6015 175.763 44.8464 175.033 43.5523 173.735C42.2582 172.437 41.5312 170.676 41.5312 168.84C41.5312 167.004 42.2582 165.243 43.5523 163.945C44.8464 162.646 46.6015 161.917 48.4316 161.917H149.125C150.955 161.917 152.71 162.646 154.004 163.945C155.298 165.243 156.025 167.004 156.025 168.84C156.025 170.676 155.298 172.437 154.004 173.735C152.71 175.033 150.955 175.763 149.125 175.763Z" fill="#CCCCCC"/>
<path d="M139.539 89.2275H55.9688V94.3556H139.539V89.2275Z" fill="#CCCCCC"/>
<path d="M82.9811 105.548L82.8751 105.496C77.1781 102.735 69.7177 102.738 58.6848 105.505L58.567 105.535L58.5317 105.418C57.3645 101.579 56.0424 97.2302 58.5262 95.0907C58.561 88.8127 64.0501 83.7148 70.7923 83.7148C77.5331 83.7148 83.0215 88.8101 83.0583 95.0865C86.7531 97.9207 84.9922 102.109 83.0408 105.446L82.9811 105.548Z" fill="#2F2E41"/>
<path d="M117.995 92.1044C117.893 92.6131 117.681 93.0932 117.374 93.5108C117.067 93.9284 116.672 94.2734 116.218 94.5214C115.764 94.7695 115.261 94.9145 114.744 94.9464C114.228 94.9784 113.711 94.8963 113.23 94.7061L93.097 115.004L91.3008 108.701L111.297 89.852C111.669 89.0621 112.317 88.4366 113.118 88.094C113.919 87.7513 114.817 87.7155 115.643 87.9931C116.469 88.2707 117.164 88.8426 117.598 89.6003C118.031 90.3581 118.173 91.249 117.995 92.1044L117.995 92.1044Z" fill="#FFB6B6"/>
<path d="M68.2372 111.645C68.2372 111.645 66.4106 115.798 70.9177 118.359C75.4248 120.92 91.1772 117.382 93.7332 116.888C96.2891 116.394 105.836 102.061 105.836 102.061L104.486 95.0315L91.8249 106.058L68.2372 111.645Z" fill="#F39A4A"/>
<path d="M64.9123 134.61L65.1678 139.482C65.1678 139.482 64.4135 143.797 65.0339 144.729C65.6496 145.655 82.4509 145.772 82.4509 145.772C82.4509 145.772 83.561 139.768 84.5172 134.513L64.9123 134.61Z" fill="#FFB6B6"/>
<path d="M113.22 199.024L116.732 198.312L115.727 184.078L110.543 185.129L113.22 199.024Z" fill="#FFB6B6"/>
<path d="M118.251 180.5L121.516 179.027L117.28 165.408L112.461 167.583L118.251 180.5Z" fill="#FFB6B6"/>
<path d="M121.096 172.827L114.947 176.32L99.784 151.874C89.1392 159.069 78.73 162.514 68.2366 164.353C64.6888 164.987 61.0717 164.665 60.3906 161.043C60.3587 160.873 60.3333 160.703 60.3144 160.532C59.8954 156.575 64.8017 151.503 65.4254 146.661L78.853 145.853L80.5088 147.982L96.0374 138.404C99.1602 136.478 103.268 137.52 105.211 140.731C105.314 140.901 105.409 141.075 105.497 141.253L121.096 172.827Z" fill="#2F2E41"/>
<path d="M117.334 189.272L110.299 189.928L97.5424 163.754C84.893 165.937 72.9594 166.636 62.6374 163.995C59.1426 163.114 57.0063 159.494 57.8659 155.909C57.9061 155.742 57.9525 155.576 58.0053 155.412C59.2406 151.63 62.4743 148.955 65.0221 144.796L83.6317 145.079L81.5531 152.275L99.631 149.928C103.267 149.456 106.587 152.096 107.047 155.824C107.071 156.021 107.087 156.219 107.095 156.418L117.334 189.272Z" fill="#2F2E41"/>
<path d="M72.1815 101.826C76.3549 101.826 79.7381 98.4322 79.7381 94.2453C79.7381 90.0583 76.3549 86.6641 72.1815 86.6641C68.0082 86.6641 64.625 90.0583 64.625 94.2453C64.625 98.4322 68.0082 101.826 72.1815 101.826Z" fill="#FFB6B6"/>
<path d="M67.7497 104.563L74.6784 105.381C74.9706 105.416 75.2448 105.541 75.4627 105.739C75.6807 105.937 75.8316 106.199 75.8944 106.487L76.9963 111.545L83.8651 119.661C83.8651 119.661 86.3316 124.301 85.4067 129.559C84.4817 134.817 84.0753 138.725 84.0753 138.725C84.0753 138.725 65.6499 145.656 65.0332 144.728C64.4166 143.8 64.2165 139.585 64.2165 139.585L61.75 112.055C61.75 112.055 64.5248 107.415 66.0664 107.415C67.0613 107.382 66.9337 105.135 67.7497 104.563Z" fill="#F39A4A"/>
<path d="M84.2632 140.417C85.2348 140.417 86.0224 139.469 86.0224 138.299C86.0224 137.129 85.2348 136.181 84.2632 136.181C83.2916 136.181 82.5039 137.129 82.5039 138.299C82.5039 139.469 83.2916 140.417 84.2632 140.417Z" fill="#F39A4A"/>
<path d="M111.477 195.359L116.832 192.666L117.841 195.029L124.613 196.402C124.947 196.47 125.251 196.643 125.48 196.896C125.71 197.15 125.852 197.47 125.887 197.811C125.922 198.151 125.848 198.494 125.675 198.789C125.502 199.084 125.24 199.316 124.926 199.451L118.383 202.265L116.257 200.413L116.815 202.939L114.348 204L111.477 195.359Z" fill="#2F2E41"/>
<path d="M116.719 179.367L122.026 176.581L123.076 178.925L129.871 180.179C130.207 180.24 130.514 180.408 130.747 180.658C130.981 180.907 131.129 181.225 131.17 181.565C131.211 181.905 131.143 182.249 130.975 182.547C130.807 182.845 130.549 183.081 130.238 183.222L123.745 186.15L121.587 184.337L122.189 186.852L119.742 187.957L116.719 179.367Z" fill="#2F2E41"/>
<path d="M67.8629 91.8672C65.8665 91.8704 63.9181 91.2537 62.285 90.1017L62.2305 90.0634V89.9966C62.2327 88.0593 63.0007 86.2019 64.3662 84.8319C65.7317 83.462 67.5831 82.6914 69.5141 82.6892H72.5809C74.512 82.6914 76.3634 83.462 77.7288 84.8319C79.0943 86.2019 79.8624 88.0593 79.8646 89.9966C79.8626 90.4401 79.688 90.8652 79.3782 91.1814C79.0684 91.4977 78.6478 91.6801 78.2059 91.6898L68.0353 91.8657C67.9779 91.8667 67.9202 91.8672 67.8629 91.8672Z" fill="#2F2E41"/>
<path d="M80.3748 88.5931C81.3527 88.0267 81.5161 86.474 80.7398 85.125C79.9635 83.776 78.5415 83.1416 77.5636 83.708C76.5857 84.2745 76.4223 85.8272 77.1986 87.1762C77.9749 88.5252 79.3969 89.1596 80.3748 88.5931Z" fill="#2F2E41"/>
<path d="M65.0824 87.0884C66.1802 85.987 66.423 84.4447 65.6245 83.6436C64.8261 82.8426 63.2888 83.0861 62.191 84.1876C61.0931 85.289 60.8504 86.8313 61.6488 87.6323C62.4473 88.4334 63.9845 88.1898 65.0824 87.0884Z" fill="#2F2E41"/>
<path d="M131.959 156.405H124.416C124.246 156.404 124.078 156.441 123.924 156.513C123.769 156.584 123.632 156.689 123.522 156.819C123.244 156.768 122.958 156.784 122.687 156.865C122.416 156.946 122.168 157.091 121.963 157.287C121.759 157.483 121.603 157.725 121.51 157.993C121.417 158.261 121.388 158.547 121.427 158.828C121.465 159.109 121.569 159.377 121.731 159.61C121.893 159.843 122.107 160.034 122.357 160.167C122.606 160.301 122.884 160.373 123.167 160.378C123.449 160.384 123.729 160.321 123.984 160.197L124.609 162.236C124.683 162.478 124.833 162.689 125.035 162.84C125.238 162.99 125.484 163.071 125.736 163.071H130.64C130.892 163.071 131.137 162.99 131.34 162.84C131.542 162.689 131.692 162.478 131.766 162.236L133.085 157.935C133.139 157.758 133.152 157.571 133.121 157.388C133.09 157.206 133.016 157.033 132.907 156.884C132.797 156.736 132.654 156.615 132.49 156.531C132.325 156.448 132.143 156.405 131.959 156.405ZM123.204 159.866C122.865 159.866 122.54 159.731 122.3 159.49C122.061 159.25 121.926 158.924 121.926 158.584C121.926 158.244 122.061 157.918 122.3 157.677C122.54 157.437 122.865 157.302 123.204 157.302C123.227 157.302 123.249 157.308 123.272 157.309C123.221 157.515 123.227 157.732 123.29 157.935L123.83 159.695C123.64 159.806 123.424 159.865 123.204 159.866Z" fill="#3F3D56"/>
<path d="M98.2787 150.839C97.7637 150.886 97.2444 150.82 96.7576 150.645C96.2707 150.47 95.8281 150.189 95.4609 149.824C95.0937 149.458 94.8109 149.017 94.6323 148.53C94.4537 148.043 94.3837 147.522 94.4272 147.005L69.2695 133.479L74.7721 129.945L98.5073 143.754C99.3684 143.885 100.152 144.328 100.709 145C101.266 145.672 101.558 146.525 101.529 147.398C101.501 148.271 101.155 149.104 100.556 149.738C99.9566 150.372 99.1464 150.764 98.2787 150.839Z" fill="#FFB6B6"/>
<path d="M65.346 108.623C65.346 108.623 60.8565 108.059 59.7043 113.126C58.5521 118.192 66.4502 132.316 67.6553 134.631C68.8604 136.946 85.2851 142.008 85.2851 142.008L91.6096 138.694L77.4485 129.69L65.346 108.623Z" fill="#F39A4A"/>
<path d="M96.987 87.689H98.5204C99.266 87.689 99.9811 87.9861 100.508 88.515C101.035 89.044 101.332 89.7614 101.332 90.5094H94.1758C94.1758 89.7614 94.472 89.044 94.9992 88.515C95.5264 87.9861 96.2414 87.689 96.987 87.689Z" fill="#CCCCCC"/>
<path d="M48.3633 35.0668C56.7532 35.0668 63.5546 28.2432 63.5546 19.8259C63.5546 11.4086 56.7532 4.58496 48.3633 4.58496C39.9733 4.58496 33.1719 11.4086 33.1719 19.8259C33.1719 28.2432 39.9733 35.0668 48.3633 35.0668Z" fill="#FF6584"/>
<path d="M94.8768 19.0316C90.8565 14.8004 86.1872 10.9404 80.6597 8.90063C79.12 8.33003 77.5235 7.92752 75.8978 7.70008C75.8848 7.69828 75.8724 7.70094 75.8594 7.69988C75.8329 7.69304 75.8061 7.68776 75.7791 7.68406C73.5054 7.39347 71.1976 7.53325 68.9753 8.09616C67.8886 8.36976 66.8284 8.74029 65.8074 9.20333C64.7828 9.70481 63.7901 10.2693 62.8348 10.8935C60.8129 12.1077 58.5867 12.9409 56.2661 13.352C55.1013 13.5624 53.9215 13.6785 52.7381 13.6994C51.7113 13.72 50.743 13.7558 49.7701 14.128C48.7309 14.52 47.7975 15.1504 47.0442 15.9686C46.2909 16.7869 45.7387 17.7705 45.4317 18.8409C45.408 18.9362 45.4151 19.0366 45.452 19.1276C45.4889 19.2186 45.5537 19.2955 45.637 19.3471C45.9002 19.5362 46.1567 19.7507 46.4332 19.9192C46.6792 20.0322 46.9419 20.104 47.2109 20.132C47.6505 20.2251 48.0907 20.3154 48.5314 20.403C50.1549 20.7258 51.7852 21.0115 53.4223 21.2601C56.7348 21.7632 60.0652 22.1176 63.4135 22.3232C70.1211 22.7309 76.8517 22.5279 83.5228 21.7169C87.272 21.2613 90.9957 20.6151 94.6796 19.7809C94.7542 19.759 94.8219 19.7182 94.8762 19.6623C94.9304 19.6065 94.9693 19.5375 94.9891 19.4621C95.009 19.3867 95.0091 19.3075 94.9894 19.2321C94.9697 19.1567 94.9309 19.0876 94.8768 19.0316Z" fill="#E6E6E6"/>
<path d="M49.0855 29.2219C47.5458 28.6513 45.9493 28.2488 44.3236 28.0214C44.3105 28.0196 44.2982 28.0222 44.2852 28.0212C44.2587 28.0143 44.2319 28.009 44.2048 28.0054C41.9312 27.7148 39.6234 27.8545 37.4011 28.4174C36.3143 28.6911 35.2542 29.0616 34.2332 29.5246C33.2086 30.0261 32.2159 30.5906 31.2606 31.2147C29.2387 32.429 27.0125 33.2622 24.6919 33.6733C23.5271 33.8837 22.3473 33.9998 21.1639 34.0207C20.1371 34.0413 19.1688 34.0771 18.1959 34.4493C17.1567 34.8413 16.2233 35.4716 15.47 36.2899C14.7167 37.1082 14.1645 38.0918 13.8575 39.1622C13.8338 39.2575 13.8409 39.3579 13.8778 39.4489C13.9147 39.5399 13.9795 39.6167 14.0628 39.6684C14.3259 39.8575 14.5825 40.072 14.859 40.2405C15.1049 40.3534 15.3676 40.4253 15.6367 40.4533C16.0763 40.5464 16.5164 40.6367 16.9571 40.7243C18.5807 41.047 20.211 41.3327 21.8481 41.5814C25.1606 42.0845 28.491 42.4388 31.8393 42.6445C38.5469 43.0521 45.2775 42.8492 51.9486 42.0382C55.6978 41.5826 59.4215 40.9364 63.1054 40.1021C63.18 40.0803 63.2477 40.0394 63.3019 39.9836C63.3562 39.9277 63.3951 39.8588 63.4149 39.7834C63.4347 39.708 63.4348 39.6288 63.4152 39.5534C63.3955 39.4779 63.3567 39.4089 63.3026 39.3529C59.2822 35.1217 54.613 31.2617 49.0855 29.2219Z" fill="#E6E6E6"/>
<path d="M158.635 142.84L146.952 127.443L137.734 132.672L157.268 155.944L158.635 142.84Z" fill="#3F3D56"/>
<path d="M185.545 117.811C185.804 124.264 186.801 130.665 188.515 136.89C188.147 137.759 187.767 138.622 187.375 139.479C185.892 142.726 184.232 145.888 182.401 148.951C177.269 157.552 170.862 165.32 163.4 171.988C162.592 172.709 161.774 173.417 160.944 174.114C156.213 167.571 153.66 160.35 152.651 152.92C152.523 151.976 152.418 151.023 152.339 150.074V150.069C152.145 147.763 152.083 145.448 152.153 143.136C152.155 142.951 152.16 142.764 152.168 142.577C152.257 140.105 152.48 137.628 152.814 135.174V135.172C152.853 134.89 152.891 134.608 152.935 134.326C153.057 133.48 153.195 132.633 153.346 131.792C154.224 126.942 155.448 122.162 157.011 117.488V117.485C157.054 117.349 157.098 117.216 157.146 117.083C157.315 116.575 157.486 116.073 157.663 115.57C157.674 115.531 157.687 115.492 157.703 115.455C157.931 114.798 158.163 114.147 158.401 113.501C158.465 113.321 158.531 113.142 158.6 112.962C158.869 112.242 159.142 111.527 159.421 110.821C159.508 110.596 159.597 110.37 159.687 110.147C159.756 109.975 159.822 109.804 159.894 109.634V109.632C160.3 108.624 160.711 107.636 161.128 106.668C162.296 103.945 163.497 101.383 164.668 99.0219L164.67 99.0193C169.529 89.2428 173.945 82.8943 173.945 82.8943L190.528 88.2787C188.55 91.7991 187.02 96.9912 186.181 103.117C185.535 107.985 185.322 112.902 185.545 117.808L185.545 117.811Z" fill="#3F3D56"/>
<path d="M157.984 116.244C157.887 116.016 157.777 115.793 157.665 115.57C157.082 114.438 156.332 113.4 155.439 112.493C155.306 112.357 155.168 112.221 155.025 112.093C153.486 110.671 151.614 109.661 149.582 109.156C147.551 108.651 145.425 108.669 143.402 109.206L143.392 109.211L143.315 109.232L143.333 109.319C143.409 109.725 143.521 110.124 143.665 110.511C143.703 110.616 143.747 110.716 143.79 110.816C143.808 110.863 143.831 110.904 143.852 110.95C143.852 110.95 143.849 110.952 143.854 110.952C143.854 110.955 143.857 110.957 143.857 110.96C143.905 111.055 143.951 111.152 144.002 111.245C143.898 111.145 143.798 111.042 143.701 110.937C143.606 110.839 143.519 110.737 143.432 110.634C143.135 110.286 142.865 109.914 142.627 109.522L142.587 109.452L142.515 109.481C141.551 109.816 140.631 110.268 139.775 110.827L139.683 110.888C139.03 111.318 138.294 111.606 137.524 111.732C136.753 111.859 135.964 111.821 135.208 111.622C134.017 111.313 132.775 111.257 131.562 111.456C130.348 111.655 129.188 112.105 128.157 112.778C127.474 113.225 126.857 113.765 126.322 114.383C126.276 114.437 126.23 114.493 126.184 114.547C126.087 114.665 125.995 114.786 125.906 114.909C124.945 116.197 124.355 117.725 124.201 119.326L124.196 119.385L124.244 119.419C125.109 120.013 126.087 120.422 127.117 120.619C126.47 120.709 125.815 120.726 125.165 120.667H125.162C124.867 120.643 124.573 120.602 124.283 120.544L124.229 120.534H124.227L124.16 120.521L124.17 120.644C124.247 122.211 124.738 123.729 125.594 125.042L125.619 125.077C125.629 125.091 125.637 125.104 125.645 125.118C126.008 125.675 126.309 126.269 126.545 126.89C127.142 128.434 127.274 130.12 126.923 131.739C126.526 133.47 126.658 135.281 127.301 136.935C127.945 138.59 129.071 140.012 130.531 141.015C131.815 141.901 133.31 142.428 134.863 142.541C135.075 142.559 135.29 142.569 135.505 142.569C136.734 142.573 137.95 142.319 139.075 141.823L139.116 141.808L139.126 141.761C139.342 141.061 139.646 140.391 140.031 139.767C139.905 140.258 139.842 140.764 139.842 141.272V141.441L139.987 141.356C140.113 141.282 140.24 141.202 140.355 141.128C141.046 140.676 141.671 140.131 142.213 139.508C142.426 139.262 142.64 139.023 142.865 138.785L142.868 138.782C143.305 138.315 143.767 137.859 144.248 137.423C145.27 136.502 146.364 135.664 147.519 134.918C148.673 134.174 149.88 133.516 151.13 132.949H151.133C151.273 132.882 151.416 132.818 151.557 132.757C152.179 132.485 152.778 132.162 153.348 131.793C153.369 131.78 153.387 131.77 153.405 131.757C155.875 130.134 157.692 127.684 158.53 124.843C159.369 122.003 159.175 118.955 157.984 116.244L157.984 116.244Z" fill="#F39A4A"/>
<path opacity="0.15" d="M127.344 135.379C127.274 135.691 127.221 136.006 127.185 136.324C126.71 134.815 126.641 133.207 126.986 131.663C127.039 131.427 127.079 131.188 127.11 130.948C127.582 132.377 127.663 133.908 127.344 135.379Z" fill="white"/>
<path opacity="0.15" d="M127.538 124.257C126.781 124.363 126.013 124.366 125.255 124.268C125.056 123.892 124.885 123.503 124.742 123.103C125.586 123.674 126.537 124.067 127.538 124.257Z" fill="white"/>
<path opacity="0.15" d="M125.195 120.585C124.915 121.302 124.73 122.052 124.642 122.817C124.409 122.089 124.271 121.333 124.233 120.569L124.227 120.446L124.347 120.469C124.628 120.522 124.91 120.561 125.195 120.585Z" fill="white"/>
<path opacity="0.15" d="M128.222 112.702C129.253 112.028 130.411 111.577 131.624 111.378C132.838 111.179 134.079 111.235 135.27 111.544C136.025 111.744 136.815 111.783 137.586 111.657C138.358 111.53 139.094 111.243 139.747 110.812L139.839 110.751C140.694 110.191 141.613 109.737 142.577 109.401L142.651 109.376L142.691 109.443C143.073 110.075 143.534 110.655 144.065 111.167C143.743 110.564 143.517 109.914 143.396 109.241L143.379 109.153L143.466 109.129C145.364 108.626 147.353 108.579 149.272 108.993C151.191 109.408 152.985 110.271 154.508 111.514C156.03 112.756 157.239 114.342 158.034 116.142C158.83 117.943 159.19 119.906 159.085 121.873C158.683 120.269 157.967 118.762 156.98 117.439C155.993 116.115 154.753 115.001 153.334 114.161C151.914 113.322 150.343 112.773 148.71 112.547C147.078 112.321 145.417 112.423 143.824 112.845L143.737 112.869L143.754 112.957C143.875 113.63 144.101 114.28 144.423 114.883C143.893 114.371 143.431 113.791 143.049 113.159L143.009 113.092L142.936 113.117C141.971 113.453 141.052 113.907 140.197 114.467L140.105 114.528C139.452 114.958 138.716 115.246 137.944 115.373C137.173 115.499 136.383 115.46 135.628 115.26C133.649 114.745 131.554 114.934 129.699 115.796C127.844 116.657 126.345 118.138 125.456 119.984C125.061 119.794 124.677 119.579 124.308 119.341L124.258 119.309L124.264 119.25C124.391 117.93 124.813 116.656 125.498 115.522C126.184 114.389 127.115 113.425 128.222 112.702Z" fill="white"/>
<path d="M223.234 47.1881L222.991 47.0265L222.815 47.2573C221.45 48.9812 220.365 50.9098 219.597 52.9725C219.703 50.5963 220.117 48.2441 220.829 45.9753L220.906 45.7368L220.686 45.6112C217.827 43.9867 214.78 42.7192 211.614 41.837L211.269 41.7447C208.842 41.0766 206.583 39.903 204.639 38.3001C202.694 36.6973 201.109 34.7014 199.985 32.4425C197.374 27.2582 193.249 22.9961 188.161 20.2249C183.073 17.4537 177.263 16.3053 171.507 16.9328H171.505C171.444 16.9379 171.38 16.9456 171.318 16.9533C171.214 16.9635 171.111 16.9764 171.009 16.9892C170.8 17.0174 170.595 17.0456 170.391 17.0764C170.217 17.102 170.04 17.1302 169.867 17.161C169.775 17.1738 169.685 17.1892 169.596 17.2071C169.506 17.2225 169.414 17.2379 169.325 17.2558H169.322C167.606 17.5815 165.924 18.0664 164.298 18.7045H164.295V18.707L163.884 18.8686C163.46 19.0429 163.039 19.2275 162.621 19.4224C162.527 19.466 162.435 19.5121 162.34 19.5557C162.315 19.5686 162.287 19.5814 162.261 19.5968C161.993 19.725 161.727 19.8583 161.464 19.9993C161.425 20.0173 161.387 20.0378 161.349 20.0583L161.103 20.189C160.564 20.4813 160.034 20.7916 159.514 21.1198C159.47 21.1454 159.429 21.1711 159.386 21.1993C159.34 21.23 159.291 21.2608 159.245 21.2916C159.217 21.307 159.189 21.3275 159.161 21.3454C159.082 21.3941 159.005 21.4454 158.928 21.4993C158.775 21.5992 158.622 21.7018 158.471 21.8069C158.315 21.9121 158.162 22.0223 158.008 22.1326L157.855 22.2428L157.883 22.4326C157.909 22.589 157.932 22.7454 157.96 22.8992C157.985 23.053 158.011 23.2043 158.039 23.3556C158.083 23.6094 158.131 23.8607 158.18 24.1043C158.213 24.2658 158.244 24.4248 158.279 24.5812C158.313 24.7427 158.348 24.9043 158.387 25.0658C158.461 25.3991 158.54 25.7222 158.624 26.0401C158.665 26.1991 158.709 26.358 158.755 26.5145C158.78 26.6093 158.806 26.7042 158.834 26.7965C158.854 26.8606 158.875 26.9247 158.895 26.9888C158.9 27.0093 158.905 27.0324 158.913 27.0555C158.919 27.0772 158.926 27.0986 158.934 27.1196C158.962 27.2144 158.99 27.3067 159.018 27.3965C159.033 27.4452 159.049 27.4939 159.066 27.5401C159.102 27.6503 159.141 27.7631 159.179 27.8708C159.22 27.9939 159.263 28.117 159.307 28.2375C159.317 28.2682 159.327 28.2964 159.337 28.3272C159.345 28.3503 159.353 28.3734 159.363 28.3964C159.373 28.4221 159.383 28.4503 159.394 28.4759C159.437 28.5913 159.48 28.7092 159.526 28.8246C159.542 28.8656 159.557 28.9092 159.575 28.9503C159.989 29.9948 160.498 30.999 161.096 31.9502C160.434 31.3809 159.797 30.7775 159.184 30.14C158.238 29.1541 157.367 28.0991 156.577 26.9837C156.513 26.8965 156.449 26.8068 156.391 26.717C156.271 26.5452 156.153 26.3734 156.038 26.1991C155.915 26.0196 155.798 25.8324 155.683 25.6478C155.606 25.5247 155.529 25.3991 155.455 25.276C155.381 25.1581 155.312 25.0427 155.246 24.9248L155.046 24.5812H155.044V24.5838L154.763 24.8607C154.65 24.9709 154.538 25.0812 154.428 25.1914C150.993 28.6588 148.505 32.9544 147.203 37.6653L147.165 37.8063L147.126 37.9525C147.052 38.214 146.978 38.4678 146.899 38.7268V38.7294C146.822 38.9858 146.74 39.2422 146.654 39.4934C146.574 39.7319 146.493 39.9678 146.406 40.2037C146.378 40.2832 146.347 40.3626 146.314 40.4421C146.26 40.596 146.201 40.7472 146.142 40.9011C146.114 40.9703 146.086 41.0421 146.058 41.1113C145.989 41.2806 145.92 41.4498 145.851 41.6164C145.841 41.6421 145.828 41.6703 145.815 41.6959C145.795 41.7472 145.772 41.7985 145.751 41.8472C145.698 41.9703 145.642 42.0959 145.588 42.219C145.55 42.2985 145.514 42.3805 145.478 42.46C145.463 42.4959 145.445 42.5318 145.429 42.5677C145.335 42.7728 145.238 42.9754 145.135 43.1754C145.02 43.4113 144.903 43.6472 144.778 43.8779C144.668 44.0933 144.553 44.3035 144.433 44.5138C144.226 44.8856 144.008 45.2548 143.784 45.6137C143.697 45.7522 143.61 45.8907 143.52 46.0291C143.5 46.0624 143.479 46.0958 143.459 46.1266C143.385 46.2471 143.308 46.3624 143.229 46.4804C143.175 46.5599 143.122 46.6393 143.068 46.7163C142.979 46.8547 142.884 46.9881 142.787 47.1188C142.761 47.1598 142.733 47.1983 142.705 47.2368C142.562 47.4368 142.419 47.6316 142.273 47.8265C142.268 47.829 142.268 47.8316 142.265 47.8342C142.26 47.8342 142.26 47.8367 142.258 47.8393C142.194 47.9239 142.13 48.0085 142.064 48.0906C141.977 48.2111 141.882 48.329 141.788 48.4444C141.634 48.6393 141.473 48.8367 141.31 49.029C141.305 49.0341 141.302 49.0393 141.297 49.0418C140.45 50.04 139.533 50.9757 138.552 51.8417C138.534 51.8571 138.521 51.8725 138.504 51.8853C138.366 52.0058 138.228 52.1263 138.084 52.2443C138.026 52.293 137.967 52.3417 137.908 52.3904C137.811 52.4725 137.711 52.5545 137.614 52.6289C137.603 52.6406 137.59 52.651 137.576 52.6596C137.489 52.7314 137.405 52.7981 137.318 52.8648C137.213 52.9494 137.108 53.0289 137.001 53.1083C136.495 53.4929 135.975 53.8562 135.442 54.198C135.363 54.2519 135.278 54.3057 135.197 54.357C135.148 54.3878 135.099 54.4186 135.053 54.4442C134.859 54.5647 134.665 54.6826 134.471 54.7955C134.276 54.9108 134.077 55.0211 133.88 55.1288C133.459 55.3595 133.042 55.6006 132.636 55.8518C132.431 55.98 132.227 56.1082 132.025 56.239C131.222 56.7621 130.45 57.3219 129.707 57.9184C128.964 58.5153 128.252 59.1494 127.573 59.8184C127.489 59.9004 127.404 59.985 127.32 60.0722C127.151 60.2388 126.988 60.4081 126.832 60.5773C126.581 60.8363 126.341 61.1029 126.103 61.3721C124.85 62.7988 123.741 64.3465 122.791 65.9925C122.315 66.8144 121.881 67.6608 121.493 68.5283C121.199 69.177 120.931 69.8411 120.688 70.5128C120.527 70.9615 120.376 71.4145 120.236 71.8717C120.167 72.0999 120.1 72.3307 120.036 72.5615C119.819 73.3435 119.638 74.1332 119.489 74.9255C119.369 75.5614 119.272 76.1981 119.198 76.8357C119.16 77.1562 119.129 77.4767 119.101 77.7946C119.035 78.576 119.001 79.3582 119 80.1412C118.996 82.4902 119.28 84.8307 119.847 87.1096C119.972 87.6122 120.111 88.1122 120.264 88.6096C120.34 88.8583 120.422 89.1044 120.504 89.3506C120.711 89.9659 120.94 90.5753 121.191 91.1787C121.342 91.5402 121.501 91.8992 121.667 92.2556C122.723 94.5213 124.07 96.6384 125.674 98.5528C125.937 98.8682 126.209 99.1784 126.489 99.4835C126.492 99.4835 126.489 99.4861 126.489 99.4861C127.185 100.247 127.921 100.969 128.695 101.65H128.697C129.007 101.924 129.321 102.19 129.64 102.448C129.643 102.445 129.643 102.448 129.643 102.448C129.965 102.709 130.29 102.96 130.622 103.204C130.788 103.324 130.957 103.445 131.128 103.565C131.463 103.804 131.804 104.034 132.153 104.255H132.155C132.503 104.481 132.856 104.696 133.213 104.901C133.931 105.314 134.667 105.701 135.424 106.053L135.552 106.111L135.682 106.053C136.895 105.505 138.145 105.045 139.424 104.676C139.705 104.594 139.988 104.519 140.27 104.447C140.98 104.271 141.696 104.122 142.416 104.001C141.714 104.355 141.036 104.755 140.387 105.199C139.884 105.54 139.388 105.912 138.889 106.322C138.723 106.458 138.557 106.599 138.391 106.742L137.977 107.101L138.496 107.273C138.685 107.335 138.874 107.396 139.063 107.452C139.321 107.535 139.577 107.609 139.827 107.678C140.374 107.832 140.925 107.968 141.478 108.086C141.614 108.114 141.747 108.142 141.882 108.17C142.145 108.222 142.411 108.273 142.677 108.319C142.688 108.322 142.699 108.324 142.71 108.324C142.986 108.37 143.265 108.414 143.541 108.452C144.054 108.527 144.568 108.586 145.082 108.629C145.138 108.637 145.194 108.64 145.253 108.642C145.378 108.652 145.501 108.663 145.626 108.67C145.902 108.688 146.181 108.701 146.459 108.711C146.48 108.711 146.498 108.714 146.518 108.714C146.659 108.719 146.799 108.724 146.94 108.727C146.94 108.727 146.94 108.729 146.942 108.727C147.083 108.729 147.223 108.732 147.364 108.732H148.141C148.287 108.732 148.432 108.734 148.581 108.734C148.785 108.734 148.992 108.737 149.196 108.74C149.25 108.74 149.306 108.742 149.363 108.742C149.69 108.747 150.017 108.755 150.344 108.763C150.364 108.763 150.385 108.765 150.405 108.765C150.732 108.775 151.06 108.786 151.387 108.801C151.458 108.804 151.53 108.806 151.604 108.811C151.918 108.824 152.233 108.84 152.547 108.858C152.636 108.863 152.728 108.87 152.82 108.875C153.058 108.888 153.298 108.904 153.536 108.922C153.677 108.929 153.815 108.94 153.955 108.952C154.522 108.996 155.087 109.045 155.655 109.101C155.844 109.117 156.033 109.137 156.222 109.158C156.728 109.211 157.236 109.27 157.745 109.334C157.973 109.36 158.2 109.391 158.428 109.422C158.453 109.424 158.479 109.427 158.504 109.432C158.785 109.47 159.064 109.509 159.345 109.55C159.529 109.575 159.713 109.604 159.897 109.632C160.086 109.66 160.275 109.688 160.464 109.722C160.567 109.737 160.669 109.755 160.774 109.773C161.019 109.811 161.267 109.852 161.515 109.899C161.537 109.901 161.559 109.904 161.581 109.909C162.108 110.001 162.637 110.099 163.163 110.204C163.472 110.263 163.779 110.324 164.086 110.388C164.326 110.437 164.566 110.488 164.806 110.54C164.847 110.547 164.888 110.557 164.929 110.568C164.938 110.57 164.948 110.572 164.957 110.573C165.32 110.652 165.686 110.734 166.049 110.822C167.309 111.114 168.567 111.439 169.823 111.796C170.112 111.875 170.401 111.96 170.69 112.045C170.812 112.081 170.932 112.116 171.053 112.152C171.303 112.227 171.551 112.301 171.801 112.38C172.021 112.447 172.244 112.516 172.463 112.588C172.601 112.632 172.739 112.675 172.877 112.722C173.092 112.788 173.307 112.857 173.519 112.932C173.7 112.988 173.879 113.047 174.058 113.111C174.314 113.196 174.572 113.283 174.827 113.375C174.901 113.401 174.978 113.427 175.052 113.455C175.364 113.563 175.676 113.673 175.988 113.788C176.292 113.898 176.596 114.011 176.897 114.124C177.107 114.204 177.317 114.28 177.524 114.362C177.756 114.452 177.989 114.542 178.219 114.634C178.551 114.765 178.886 114.898 179.218 115.034C179.525 115.157 179.829 115.283 180.135 115.414C180.192 115.437 180.25 115.46 180.307 115.486C180.572 115.596 180.838 115.711 181.101 115.827C181.273 115.898 181.441 115.973 181.61 116.047C182.346 116.37 183.081 116.704 183.816 117.05H183.818C184.278 117.268 184.746 117.475 185.216 117.673C185.326 117.719 185.436 117.765 185.548 117.809C185.735 117.888 185.924 117.962 186.113 118.039C186.236 118.088 186.358 118.137 186.484 118.183C186.665 118.255 186.849 118.324 187.033 118.391C187.227 118.462 187.419 118.534 187.616 118.601C187.685 118.626 187.754 118.65 187.825 118.675C188.053 118.752 188.28 118.829 188.51 118.903C188.533 118.911 188.556 118.919 188.582 118.926C188.822 119.003 189.062 119.08 189.305 119.152C189.324 119.159 189.344 119.165 189.364 119.17C189.625 119.249 189.89 119.326 190.154 119.401C190.542 119.508 190.933 119.611 191.324 119.706C191.396 119.724 191.467 119.742 191.539 119.757C191.748 119.808 191.955 119.857 192.165 119.903C192.387 119.955 192.612 120.001 192.835 120.047C193.059 120.093 193.284 120.139 193.507 120.18C193.627 120.203 193.747 120.226 193.864 120.247L194.179 120.301C194.396 120.339 194.613 120.373 194.833 120.408C194.839 120.408 194.845 120.409 194.851 120.411C195.099 120.449 195.344 120.485 195.592 120.516C195.83 120.549 196.067 120.578 196.305 120.606C196.354 120.611 196.405 120.616 196.456 120.621C196.653 120.644 196.85 120.667 197.046 120.685C197.103 120.69 197.159 120.696 197.215 120.701C197.409 120.719 197.603 120.737 197.798 120.749C197.837 120.755 197.876 120.757 197.915 120.757C198.089 120.773 198.263 120.785 198.437 120.793C198.559 120.803 198.679 120.808 198.802 120.816C198.866 120.819 198.927 120.821 198.991 120.824C199.16 120.834 199.329 120.839 199.5 120.844C199.707 120.852 199.914 120.857 200.118 120.862C200.366 120.867 200.617 120.87 200.864 120.87H200.87C201.112 120.87 201.358 120.867 201.601 120.862H201.693L201.961 120.855C202.099 120.852 202.237 120.847 202.372 120.842C202.633 120.831 202.891 120.819 203.149 120.803C203.251 120.798 203.356 120.79 203.459 120.785C203.505 120.783 203.553 120.778 203.599 120.775C203.76 120.765 203.919 120.755 204.08 120.742C204.246 120.729 204.414 120.714 204.58 120.696C204.795 120.675 205.01 120.652 205.224 120.629C205.393 120.611 205.562 120.59 205.728 120.57C205.75 120.568 205.772 120.565 205.794 120.56C205.955 120.542 206.116 120.521 206.275 120.498C206.464 120.473 206.651 120.444 206.837 120.416C206.858 120.414 206.875 120.411 206.896 120.408C207.218 120.357 207.542 120.306 207.867 120.247C208.207 120.185 208.547 120.119 208.884 120.049C209.009 120.024 209.132 119.996 209.257 119.97C209.326 119.955 209.398 119.942 209.464 119.926C209.569 119.903 209.671 119.88 209.774 119.855C209.791 119.852 209.812 119.847 209.83 119.844C209.973 119.814 210.113 119.778 210.257 119.742C210.543 119.673 210.824 119.601 211.105 119.524C211.23 119.493 211.356 119.46 211.476 119.426C211.511 119.416 211.547 119.406 211.58 119.396C212.099 119.25 212.614 119.095 213.124 118.932C213.349 118.86 213.571 118.785 213.794 118.706C214.272 118.542 214.745 118.369 215.215 118.188C215.34 118.142 215.465 118.091 215.59 118.042C215.774 117.968 215.958 117.893 216.14 117.819C216.303 117.75 216.467 117.68 216.633 117.609C216.715 117.575 216.797 117.539 216.878 117.503C217.124 117.396 217.369 117.285 217.612 117.175C217.775 117.098 217.936 117.024 218.097 116.947C218.353 116.824 218.606 116.698 218.859 116.573C218.923 116.539 218.984 116.506 219.046 116.475C219.207 116.393 219.368 116.309 219.531 116.227C219.789 116.088 220.047 115.95 220.303 115.806C220.39 115.76 220.474 115.711 220.561 115.662C220.842 115.503 221.121 115.342 221.397 115.178C222.008 114.811 222.61 114.428 223.204 114.029C223.352 113.932 223.5 113.829 223.646 113.729C223.922 113.539 224.193 113.345 224.464 113.15C224.492 113.129 224.517 113.109 224.545 113.091C224.681 112.991 224.816 112.891 224.952 112.788C225.233 112.575 225.511 112.36 225.79 112.14C225.795 112.137 225.803 112.129 225.81 112.124C225.936 112.024 226.061 111.924 226.184 111.824C226.564 111.514 226.94 111.199 227.308 110.873C227.489 110.716 227.668 110.555 227.845 110.393C227.978 110.273 228.111 110.152 228.241 110.029C228.504 109.781 228.762 109.534 229.018 109.283C229.146 109.16 229.271 109.032 229.399 108.904C229.524 108.776 229.652 108.647 229.777 108.517C229.82 108.473 229.864 108.427 229.907 108.381C230.035 108.245 230.163 108.106 230.291 107.97C230.4 107.852 230.508 107.729 230.618 107.606C230.802 107.401 230.988 107.196 231.17 106.988C231.179 106.977 231.189 106.966 231.2 106.955C231.211 106.942 231.221 106.932 231.228 106.922H231.226C234.941 102.612 237.701 97.56 239.324 92.0999C240.946 86.6398 241.395 80.8962 240.639 75.2492C239.884 69.6022 237.942 64.1805 234.941 59.343C231.941 54.5055 227.95 50.3625 223.234 47.1881L223.234 47.1881Z" fill="#F39A4A"/>
<g opacity="0.15">
<path d="M171.506 16.9307C172.015 18.7666 172.781 20.5207 173.782 22.1407C172.107 20.6971 170.61 19.0573 169.324 17.2565C170.047 17.1194 170.774 17.0108 171.506 16.9307Z" fill="white"/>
<path d="M146.569 45.3237C144.677 46.3594 142.909 47.6066 141.297 49.0415C144.018 45.8129 146.007 42.0291 147.126 37.9524C147.14 37.9034 147.153 37.8541 147.166 37.805L147.204 37.6663C148.549 32.8007 151.157 28.3806 154.763 24.8582L155.046 24.5811L155.246 24.9235C156.351 26.809 157.674 28.5574 159.187 30.1327C156.869 36.695 152.358 42.1566 146.569 45.3237Z" fill="white"/>
<path d="M159.892 27.8589L159.854 27.9976C159.841 28.0467 159.827 28.096 159.813 28.145C159.739 28.4148 159.659 28.6825 159.578 28.9492C158.769 26.8483 158.201 24.662 157.885 22.4324L157.855 22.2432L158.011 22.1321C159.955 20.7301 162.067 19.5781 164.298 18.7031C162.295 21.4662 160.803 24.5672 159.892 27.8589Z" fill="white"/>
<path d="M133.881 55.1311C135.555 54.2118 137.122 53.1085 138.553 51.8413C135.695 55.1793 133.647 59.1358 132.568 63.4009C131.489 67.666 131.41 72.1237 132.335 76.4248C133.261 80.7258 135.167 84.7534 137.904 88.1919C140.64 91.6304 144.134 94.3865 148.11 96.244L148.239 96.3039L148.368 96.2455C150.515 95.2721 152.78 94.5822 155.104 94.1933C153.653 94.9347 152.301 95.8558 151.079 96.935L150.665 97.2937L151.184 97.4655C151.631 97.6141 152.079 97.7507 152.515 97.8719C155.072 98.5867 157.717 98.9416 160.372 98.9266C172.435 98.8491 184.592 101.647 196.504 107.243C198.547 108.201 200.666 108.987 202.839 109.592C212.309 112.237 222.419 111.285 231.233 106.919C226.264 112.685 219.766 116.919 212.494 119.128C205.222 121.337 197.475 121.431 190.152 119.399C187.979 118.794 185.86 118.008 183.817 117.05C171.905 111.454 159.748 108.656 147.685 108.734C145.03 108.749 142.386 108.394 139.828 107.679C139.393 107.558 138.945 107.421 138.497 107.273L137.978 107.101L138.392 106.742C139.614 105.663 140.966 104.742 142.417 104.001C140.093 104.39 137.829 105.079 135.681 106.053L135.552 106.111L135.423 106.051C130.648 103.822 126.585 100.305 123.687 95.8934C120.789 91.4818 119.169 86.3491 119.009 81.0679C118.849 75.7867 120.155 70.5648 122.781 65.9849C125.407 61.405 129.25 57.6473 133.881 55.1311L133.881 55.1311Z" fill="white"/>
</g>
</g>
<defs>
<clipPath id="clip0_385_76965">
<rect width="241" height="204" fill="white"/>
</clipPath>
</defs>
</svg>
