<svg width="175" height="175" viewBox="0 0 175 175" fill="none" xmlns="http://www.w3.org/2000/svg">
<path d="M87.6057 0C86.1765 0 84.7473 0.0337981 83.3181 0.106223C81.8889 0.17382 80.4646 0.280044 79.0402 0.420065C77.6159 0.560087 76.1963 0.733909 74.7816 0.946354C73.3669 1.15397 71.957 1.40022 70.5568 1.68026C69.1518 1.95548 67.7564 2.26932 66.3707 2.61696C64.9849 2.9646 63.604 3.34604 62.2376 3.76128C60.8664 4.17651 59.5096 4.62555 58.1625 5.10838C56.8154 5.58639 55.4828 6.10302 54.1598 6.64862C52.8368 7.19905 51.5332 7.77845 50.2392 8.38682C48.9452 9.00002 47.6657 9.64219 46.4055 10.3182C45.1453 10.9893 43.8996 11.6942 42.6732 12.433C41.4468 13.1669 40.2397 13.9298 39.0471 14.7264C37.8593 15.5183 36.6909 16.3439 35.5417 17.1937C34.3926 18.0483 33.2676 18.9271 32.1619 19.8348C31.0514 20.7425 29.9698 21.6744 28.9124 22.6352C27.8502 23.5961 26.8169 24.5811 25.803 25.595C24.7938 26.6041 23.804 27.6422 22.848 28.6996C21.8872 29.7619 20.9505 30.8434 20.0428 31.9491C19.135 33.0548 18.2563 34.1798 17.4017 35.3289C16.5519 36.4781 15.7262 37.6465 14.9344 38.8391C14.1377 40.0269 13.3748 41.234 12.6361 42.4604C11.9022 43.6868 11.1973 44.9325 10.5261 46.1927C9.85014 47.4577 9.20797 48.7324 8.59478 50.0264C7.98158 51.3204 7.40218 52.6289 6.85657 53.947C6.31097 55.27 5.79434 56.6026 5.31151 57.9497C4.82867 59.2968 4.37964 60.6536 3.9644 62.0248C3.54916 63.3912 3.16772 64.7721 2.82008 66.1579C2.47244 67.5436 2.1586 68.939 1.88339 70.344C1.60334 71.7443 1.3571 73.1541 1.14948 74.5688C0.937032 75.9836 0.763213 77.4031 0.62319 78.8274C0.483169 80.2518 0.376945 81.6762 0.30452 83.1053C0.236923 84.5345 0.203125 85.9637 0.203125 87.3929C0.203125 88.8269 0.236923 90.2561 0.30452 91.6805C0.376945 93.1097 0.483169 94.5388 0.62319 95.9632C0.763213 97.3827 0.937032 98.8023 1.14465 100.217C1.3571 101.632 1.59851 103.042 1.87856 104.447C2.1586 105.847 2.47244 107.242 2.82008 108.633C3.16772 110.019 3.54916 111.395 3.9644 112.766C4.37964 114.132 4.82867 115.494 5.30668 116.841C5.78951 118.188 6.30614 119.521 6.85175 120.844C7.40218 122.162 7.98158 123.47 8.58995 124.764C9.20315 126.058 9.84531 127.333 10.5213 128.593C11.1924 129.858 11.8974 131.099 12.6361 132.325C13.37 133.557 14.1329 134.764 14.9296 135.952C15.7214 137.139 16.547 138.313 17.3968 139.462C18.2515 140.606 19.1302 141.736 20.0379 142.842C20.9457 143.947 21.8775 145.029 22.8384 146.091C23.7992 147.148 24.7842 148.187 25.7981 149.196C26.8073 150.21 27.8454 151.195 28.9028 152.155C29.965 153.116 31.0465 154.048 32.1522 154.956C33.2579 155.864 34.3829 156.742 35.5321 157.597C36.6812 158.447 37.8497 159.272 39.0423 160.069C40.23 160.861 41.4371 161.629 42.6635 162.363C43.8948 163.096 45.1356 163.801 46.3958 164.477C47.6609 165.148 48.9355 165.795 50.2295 166.404C51.5235 167.017 52.832 167.596 54.1501 168.142C55.4731 168.692 56.8057 169.204 58.1528 169.687C59.4999 170.17 60.8567 170.619 62.228 171.034C63.5944 171.449 64.9753 171.831 66.361 172.179C67.7467 172.526 69.1421 172.84 70.5472 173.12C71.9522 173.395 73.3573 173.642 74.772 173.854C76.1867 174.062 77.6062 174.235 79.0306 174.375C80.4549 174.515 81.8793 174.622 83.3085 174.694C84.7377 174.762 86.1668 174.795 87.596 174.795C89.0301 174.8 90.4592 174.762 91.8884 174.694C93.3128 174.622 94.742 174.515 96.1663 174.375C97.5859 174.235 99.0054 174.062 100.42 173.854C101.835 173.642 103.245 173.4 104.65 173.12C106.05 172.84 107.445 172.526 108.836 172.179C110.222 171.831 111.603 171.449 112.969 171.034C114.34 170.619 115.697 170.17 117.044 169.687C118.391 169.209 119.724 168.692 121.047 168.147C122.365 167.596 123.673 167.017 124.967 166.409C126.261 165.795 127.536 165.153 128.796 164.477C130.061 163.806 131.302 163.101 132.533 162.363C133.76 161.629 134.967 160.866 136.155 160.069C137.342 159.272 138.516 158.452 139.665 157.597C140.809 156.747 141.939 155.868 143.045 154.961C144.15 154.053 145.232 153.121 146.294 152.16C147.352 151.199 148.39 150.21 149.399 149.2C150.413 148.187 151.398 147.153 152.359 146.091C153.319 145.034 154.251 143.952 155.159 142.846C156.067 141.741 156.945 140.611 157.8 139.462C158.65 138.313 159.475 137.144 160.267 135.956C161.064 134.769 161.827 133.557 162.566 132.33C163.3 131.104 164.004 129.863 164.68 128.598C165.352 127.338 165.994 126.058 166.607 124.769C167.22 123.475 167.8 122.167 168.345 120.844C168.896 119.525 169.407 118.188 169.89 116.841C170.373 115.499 170.822 114.137 171.237 112.771C171.653 111.399 172.034 110.023 172.382 108.638C172.729 107.247 173.043 105.852 173.318 104.451C173.598 103.046 173.845 101.637 174.052 100.222C174.265 98.8071 174.439 97.3876 174.579 95.968C174.719 94.5437 174.825 93.1145 174.892 91.6853C174.965 90.2609 174.999 88.8269 174.999 87.3977C174.999 85.9686 174.965 84.5394 174.892 83.1102C174.825 81.681 174.719 80.2566 174.579 78.8323C174.439 77.4079 174.265 75.9884 174.052 74.5737C173.845 73.159 173.598 71.7491 173.323 70.3489C173.043 68.9438 172.729 67.5484 172.382 66.1627C172.034 64.777 171.653 63.3961 171.237 62.0297C170.822 60.6584 170.373 59.3016 169.89 57.9545C169.412 56.6074 168.896 55.2748 168.35 53.9518C167.8 52.6337 167.22 51.3252 166.612 50.0312C165.999 48.7372 165.356 47.4626 164.68 46.1975C164.009 44.9373 163.304 43.6965 162.57 42.4652C161.832 41.2388 161.069 40.0317 160.272 38.844C159.48 37.6562 158.655 36.4829 157.805 35.3338C156.95 34.1895 156.072 33.0596 155.164 31.9539C154.256 30.8482 153.324 29.7667 152.363 28.7045C151.403 27.6471 150.418 26.609 149.404 25.5998C148.394 24.5859 147.356 23.6009 146.299 22.6401C145.237 21.6792 144.155 20.7474 143.049 19.8396C141.944 18.9319 140.819 18.0532 139.67 17.1985C138.521 16.3488 137.352 15.5231 136.159 14.7313C134.972 13.9346 133.765 13.1717 132.538 12.433C131.312 11.6991 130.066 10.9941 128.806 10.3182C127.546 9.64702 126.266 9.00485 124.972 8.39165C123.683 7.77845 122.375 7.19905 121.052 6.65345C119.729 6.10785 118.396 5.59122 117.049 5.10838C115.702 4.62555 114.345 4.17651 112.979 3.76128C111.607 3.34604 110.231 2.9646 108.841 2.61696C107.455 2.27415 106.06 1.96031 104.659 1.68026C103.254 1.40022 101.844 1.15397 100.43 0.946354C99.0151 0.733909 97.5955 0.560087 96.1712 0.420065C94.7516 0.280044 93.3224 0.17382 91.8933 0.106223C90.4689 0.0337981 89.0397 0 87.6057 0Z" fill="#F39A4A"/>
<path d="M136.708 66.0225L135.112 66.3105C130.666 67.1171 126.337 66.7186 122.114 65.1199L96.6153 55.3885C95.465 54.9516 94.276 54.6635 93.053 54.5243C91.8251 54.3851 90.602 54.3995 89.379 54.5675C88.1608 54.7356 86.9766 55.0524 85.841 55.5181C84.7004 55.9838 83.6376 56.5791 82.6475 57.3136L59.2449 74.6737C59.0314 74.8322 58.8664 75.029 58.7499 75.2642C58.6286 75.4995 58.5703 75.7491 58.5703 76.0084C58.5703 76.2724 58.6286 76.5221 58.7499 76.7525C58.8664 76.9878 59.0314 77.1846 59.2449 77.343C59.7739 77.7319 60.3321 78.0776 60.9145 78.38C61.5017 78.6825 62.1035 78.9369 62.7296 79.1386C63.3557 79.345 63.9963 79.4986 64.6466 79.6043C65.297 79.7099 65.9522 79.7627 66.6122 79.7627C67.2723 79.7627 67.9275 79.7099 68.5778 79.6043C69.233 79.4986 69.8688 79.345 70.4949 79.1386C71.1209 78.9369 71.7276 78.6825 72.3148 78.38C72.8972 78.0776 73.4554 77.7319 73.9844 77.343L83.5599 70.2377C84.1375 69.8152 84.7393 69.4359 85.375 69.1095C86.0108 68.783 86.6709 68.5046 87.3503 68.2837C88.0298 68.0581 88.7287 67.89 89.4324 67.7796C90.141 67.6644 90.8544 67.6068 91.5727 67.6068C92.291 67.6068 92.9996 67.6644 93.7081 67.7796C94.4167 67.89 95.1107 68.0581 95.7902 68.2837C96.4745 68.5046 97.1297 68.783 97.7655 69.1095C98.4013 69.4359 99.0079 69.8152 99.5806 70.2377L133.534 95.5865C134.607 96.3642 135.495 97.31 136.194 98.4238C136.898 99.5376 137.364 100.743 137.592 102.039V102.106C137.635 102.351 137.718 102.577 137.844 102.793C137.97 103.004 138.125 103.191 138.32 103.345C138.509 103.503 138.722 103.623 138.955 103.705C139.193 103.786 139.436 103.825 139.683 103.825H146.07L136.708 66.0225Z" fill="#092C4C"/>
<path d="M132.624 103.045C132.528 102.327 132.291 101.661 131.92 101.038C131.548 100.415 131.066 99.8925 130.477 99.4708L96.6545 74.1749C95.9308 73.6334 95.1395 73.2213 94.2807 72.9338C93.4218 72.6511 92.5389 72.5073 91.6318 72.5073C90.7295 72.5073 89.8466 72.6511 88.9878 72.9338C88.1289 73.2213 87.3376 73.6334 86.6139 74.1749L77.0992 81.2667C76.361 81.8082 75.5842 82.2922 74.7688 82.7139C73.9534 83.1403 73.109 83.4949 72.2405 83.7824C71.3672 84.0699 70.4746 84.2856 69.5676 84.4293C68.6605 84.5731 67.7486 84.6498 66.827 84.6498C65.9103 84.6498 64.9935 84.5731 64.0865 84.4293C63.1794 84.2856 62.2916 84.0699 61.4183 83.7824C60.545 83.4949 59.7006 83.1403 58.8852 82.7139C58.0698 82.2922 57.2978 81.8082 56.5596 81.2667C55.7008 80.6294 55.0398 79.834 54.5766 78.8708C54.1134 77.9125 53.9011 76.9014 53.9397 75.8376C53.9928 74.8122 54.2678 73.8442 54.7648 72.9386C55.2569 72.0377 55.9276 71.2806 56.7671 70.6817L73.109 58.4434C73.2731 58.3572 73.413 58.2469 73.5288 58.1032C73.6494 57.9642 73.7314 57.8013 73.7845 57.6288C73.8424 57.4515 73.8569 57.2742 73.8424 57.0921C73.8231 56.91 73.77 56.7375 73.6832 56.5746C73.5963 56.4117 73.4805 56.2727 73.3406 56.1577C73.1959 56.0427 73.0366 55.9565 72.863 55.9038C72.6844 55.8462 72.5059 55.8319 72.3226 55.8462C72.1392 55.8654 71.9655 55.9181 71.8015 56.0044L44.8689 65.3628C42.9052 66.0432 40.8835 66.4649 38.8088 66.623L29.6367 103.759H34.4809C36.1166 103.759 36.6907 104.023 37.1684 104.675C38.5386 106.567 40.0151 108.369 41.5976 110.085C43.185 111.8 44.8641 113.42 46.6445 114.939C48.42 116.458 50.2824 117.867 52.2269 119.17C54.1713 120.468 56.1881 121.652 58.2725 122.711C60.3568 123.775 62.4991 124.714 64.6992 125.524C66.8946 126.338 69.1333 127.019 71.4107 127.565C73.6928 128.116 75.9943 128.528 78.3247 128.806C80.6503 129.084 82.9856 129.223 85.3305 129.228H85.4897C85.8564 129.233 86.2086 129.18 86.556 129.07C86.9034 128.96 87.2218 128.797 87.5162 128.581C87.8105 128.37 88.0662 128.116 88.2737 127.824C88.486 127.527 88.6452 127.206 88.7513 126.861C89.0022 126.175 89.0312 125.476 88.8334 124.771C88.6355 124.067 88.2495 123.487 87.6802 123.022L82.8022 119.386C82.5417 119.199 82.3197 118.973 82.146 118.705C81.9675 118.437 81.8469 118.149 81.7842 117.833C81.7215 117.521 81.7166 117.205 81.7745 116.889C81.8276 116.578 81.9434 116.28 82.1123 116.007C82.3004 115.734 82.532 115.504 82.8167 115.322C83.0966 115.14 83.4053 115.02 83.7383 114.967C84.0664 114.91 84.3945 114.92 84.7225 115.001C85.0506 115.078 85.345 115.217 85.6152 115.418L90.4642 119.026L90.7006 119.208L98.927 125.356C99.3565 125.677 99.8293 125.922 100.341 126.094C100.852 126.262 101.378 126.348 101.918 126.348C102.454 126.348 102.98 126.262 103.491 126.089C104.008 125.922 104.476 125.677 104.91 125.356C105.87 124.666 106.488 123.746 106.772 122.606C106.898 122.131 106.956 121.647 106.941 121.158C106.922 120.67 106.835 120.191 106.676 119.731C106.517 119.266 106.29 118.834 106 118.437C105.711 118.039 105.373 117.694 104.977 117.397L95.0768 110.065C94.8403 109.898 94.6425 109.696 94.4785 109.457C94.3193 109.222 94.1986 108.963 94.1263 108.685C94.0491 108.407 94.0249 108.13 94.0491 107.842C94.0732 107.555 94.1456 107.281 94.2662 107.023C94.4206 106.692 94.6425 106.409 94.9272 106.179C95.2167 105.949 95.5351 105.791 95.8922 105.705C96.2492 105.619 96.6111 105.609 96.9681 105.686C97.33 105.758 97.6581 105.906 97.9476 106.127L107.887 113.554H107.935L113.474 117.68C113.894 118.005 114.357 118.259 114.854 118.446C115.356 118.628 115.872 118.734 116.403 118.758C116.938 118.787 117.459 118.729 117.976 118.595C118.492 118.456 118.974 118.245 119.423 117.962C119.751 117.742 120.05 117.488 120.321 117.2C120.591 116.908 120.822 116.592 121.015 116.247C121.208 115.902 121.358 115.538 121.464 115.159C121.57 114.781 121.628 114.392 121.643 114C121.657 113.607 121.623 113.214 121.541 112.83C121.464 112.442 121.339 112.073 121.17 111.714C121.001 111.359 120.793 111.024 120.543 110.717C120.296 110.41 120.012 110.137 119.698 109.893L107.202 100.549C106.965 100.381 106.767 100.18 106.603 99.9404C106.439 99.7056 106.319 99.4468 106.246 99.1689C106.169 98.891 106.145 98.6083 106.169 98.3256C106.193 98.038 106.266 97.7649 106.382 97.5014C106.541 97.1707 106.763 96.8928 107.047 96.6628C107.337 96.4328 107.655 96.2747 108.012 96.1884C108.369 96.1022 108.726 96.0974 109.088 96.1692C109.445 96.2411 109.773 96.3897 110.068 96.6101L122.603 105.973L122.656 106.021L124.47 107.396C124.996 107.794 125.575 108.082 126.212 108.259C126.844 108.436 127.49 108.494 128.147 108.427C128.803 108.364 129.42 108.187 130.009 107.89C130.598 107.593 131.109 107.2 131.548 106.711C132.426 105.638 132.783 104.416 132.624 103.045Z" fill="#092C4C"/>
<path d="M9.14751 48.7847C6.89123 53.311 5.04118 57.9918 3.60225 62.8273C2.16333 67.6675 1.1551 72.5899 0.577569 77.5993C-0.00485391 82.6086 -0.146788 87.6325 0.151764 92.666C0.450317 97.6995 1.17957 102.67 2.34931 107.578L21.8336 112.293L35.9879 55.2674L9.14751 48.7847Z" fill="#092C4C"/>
<path d="M165.965 48.6455L139.496 55.1251L153.46 112.095L172.691 107.382C174.221 100.811 174.989 94.1478 174.984 87.3977C174.999 80.6767 174.241 74.0474 172.72 67.5002C171.194 60.9529 168.944 54.6713 165.965 48.6455Z" fill="#092C4C"/>
<path d="M15.8747 105.942C15.3592 105.942 14.8682 105.852 14.392 105.674C13.9158 105.495 13.4935 105.241 13.1302 104.911C12.7669 104.576 12.4871 104.197 12.2907 103.764C12.0943 103.331 11.9961 102.88 11.9961 102.411C11.9961 101.947 12.0943 101.496 12.2907 101.063C12.4871 100.63 12.7669 100.247 13.1302 99.9163C13.4935 99.586 13.9158 99.3316 14.392 99.1531C14.8682 98.9745 15.3592 98.8853 15.8747 98.8853C16.3902 98.8853 16.8861 98.9745 17.3623 99.1531C17.8385 99.3316 18.2559 99.586 18.6241 99.9163C18.9874 100.247 19.2672 100.63 19.4636 101.063C19.66 101.496 19.7582 101.947 19.7582 102.411C19.7582 102.88 19.66 103.331 19.4636 103.764C19.2672 104.197 18.9874 104.576 18.6241 104.911C18.2559 105.241 17.8385 105.495 17.3623 105.674C16.8861 105.852 16.3902 105.942 15.8747 105.942Z" fill="#F39A4A"/>
<path d="M158.414 105.942C157.903 105.942 157.407 105.852 156.931 105.674C156.455 105.495 156.033 105.241 155.669 104.911C155.306 104.576 155.026 104.197 154.83 103.764C154.633 103.331 154.535 102.88 154.535 102.411C154.535 101.947 154.633 101.496 154.83 101.063C155.026 100.63 155.306 100.247 155.669 99.9163C156.033 99.586 156.455 99.3316 156.931 99.1531C157.407 98.9745 157.903 98.8853 158.414 98.8853C158.929 98.8853 159.425 98.9745 159.901 99.1531C160.378 99.3316 160.795 99.586 161.163 99.9163C161.526 100.247 161.806 100.63 162.003 101.063C162.199 101.496 162.297 101.947 162.297 102.411C162.297 102.88 162.199 103.331 162.003 103.764C161.806 104.197 161.526 104.576 161.163 104.911C160.795 105.241 160.378 105.495 159.901 105.674C159.425 105.852 158.929 105.942 158.414 105.942Z" fill="#F39A4A"/>
</svg>
