<svg width="299" height="291" viewBox="0 0 299 291" fill="none" xmlns="http://www.w3.org/2000/svg">
<g clip-path="url(#clip0_385_72449)">
<path d="M189.681 65.4453H109.383C107.554 65.4475 105.799 66.1757 104.505 67.4701C103.211 68.7645 102.484 70.5195 102.481 72.35V250.884L101.561 251.165L81.8627 257.199C80.9291 257.484 79.9208 257.387 79.059 256.928C78.1972 256.47 77.5524 255.688 77.2661 254.755L18.6723 63.2864C18.3872 62.3525 18.4844 61.3435 18.9425 60.4812C19.4007 59.6189 20.1823 58.9739 21.1157 58.6879L51.4709 49.3895L139.472 22.4425L169.827 13.1441C170.289 13.0019 170.774 12.9522 171.255 12.9979C171.736 13.0436 172.204 13.1837 172.631 13.4103C173.058 13.6369 173.436 13.9455 173.744 14.3185C174.051 14.6914 174.282 15.1214 174.423 15.5838L189.401 64.5247L189.681 65.4453Z" fill="#E1E8FF"/>
<path d="M207.206 64.5245L189.155 5.53953C188.854 4.55673 188.363 3.64276 187.71 2.84986C187.056 2.05695 186.253 1.40065 185.346 0.918447C184.439 0.436246 183.445 0.137594 182.423 0.0395707C181.4 -0.0584531 180.368 0.0460712 179.386 0.34716L136.709 13.4155L48.7125 40.3671L6.03502 53.4401C4.05245 54.0491 2.39241 55.4202 1.41929 57.2523C0.44617 59.0845 0.239466 61.2281 0.844558 63.2126L62.5395 264.799C63.031 266.401 64.0229 267.803 65.3694 268.8C66.716 269.796 68.3464 270.335 70.0214 270.337C70.7966 270.337 71.5675 270.221 72.3081 269.991L101.564 261.034L102.484 260.748V259.786L101.564 260.067L72.0367 269.112C70.2867 269.646 68.3966 269.463 66.781 268.605C65.1653 267.746 63.956 266.281 63.4184 264.532L1.72821 62.941C1.46183 62.0742 1.36899 61.1633 1.455 60.2606C1.54101 59.3578 1.80418 58.4809 2.22944 57.68C2.65471 56.8791 3.23372 56.1701 3.93331 55.5934C4.6329 55.0167 5.43932 54.5837 6.30641 54.3193L48.9839 41.2463L136.98 14.2994L179.658 1.22637C180.315 1.02558 180.999 0.923204 181.687 0.922563C183.162 0.925877 184.598 1.40182 185.784 2.28069C186.97 3.15956 187.843 4.39516 188.276 5.80652L206.244 64.5245L206.53 65.4451H207.487L207.206 64.5245Z" fill="#3F3D56"/>
<path d="M56.9495 58.8376C56.0627 58.837 55.1993 58.5521 54.4862 58.0246C53.7731 57.4972 53.2477 56.755 52.9871 55.9069L47.0604 36.5406C46.9012 36.0204 46.8459 35.4739 46.8978 34.9323C46.9497 34.3907 47.1077 33.8647 47.3629 33.3842C47.618 32.9037 47.9653 32.4783 48.3848 32.1321C48.8044 31.7859 49.2879 31.5257 49.808 31.3665L130.764 6.57216C131.814 6.25157 132.948 6.36091 133.918 6.87618C134.888 7.39146 135.613 8.27057 135.936 9.32058L141.863 28.6871C142.183 29.7377 142.073 30.8726 141.558 31.8426C141.043 32.8126 140.165 33.5387 139.115 33.8614L58.1594 58.6558C57.7674 58.7762 57.3596 58.8374 56.9495 58.8376Z" fill="#F39A4A"/>
<path d="M87.9957 20.6929C93.0782 20.6929 97.1984 16.5711 97.1984 11.4866C97.1984 6.40209 93.0782 2.28027 87.9957 2.28027C82.9132 2.28027 78.793 6.40209 78.793 11.4866C78.793 16.5711 82.9132 20.6929 87.9957 20.6929Z" fill="#F39A4A"/>
<path d="M87.9954 17.3167C91.2138 17.3167 93.8228 14.7066 93.8228 11.487C93.8228 8.26729 91.2138 5.65723 87.9954 5.65723C84.777 5.65723 82.168 8.26729 82.168 11.487C82.168 14.7066 84.777 17.3167 87.9954 17.3167Z" fill="#092C4C"/>
<path d="M277.792 267.984H122.267C121.23 267.983 120.236 267.57 119.502 266.837C118.769 266.103 118.357 265.109 118.355 264.071V77.6432C118.357 76.6058 118.769 75.6113 119.502 74.8777C120.236 74.1442 121.23 73.7316 122.267 73.7305H277.792C278.829 73.7317 279.823 74.1443 280.556 74.8778C281.29 75.6113 281.702 76.6058 281.703 77.6432V264.071C281.702 265.109 281.29 266.103 280.556 266.837C279.823 267.57 278.829 267.983 277.792 267.984Z" fill="#E1E8FF"/>
<path d="M206.243 64.5244H109.385C107.311 64.5273 105.323 65.3528 103.857 66.8197C102.391 68.2866 101.565 70.2753 101.562 72.3498V260.067L102.483 259.786V72.3498C102.485 70.5192 103.213 68.7643 104.507 67.4699C105.801 66.1755 107.555 65.4473 109.385 65.445H206.529L206.243 64.5244ZM290.678 64.5244H109.385C107.311 64.5273 105.323 65.3528 103.857 66.8197C102.391 68.2866 101.565 70.2753 101.562 72.3498V283.175C101.565 285.249 102.391 287.238 103.857 288.705C105.323 290.172 107.311 290.997 109.385 291H290.678C292.752 290.997 294.74 290.172 296.206 288.705C297.672 287.238 298.497 285.249 298.5 283.175V72.3498C298.497 70.2753 297.672 68.2866 296.206 66.8197C294.74 65.3528 292.752 64.5273 290.678 64.5244ZM297.58 283.175C297.578 285.005 296.85 286.76 295.556 288.055C294.262 289.349 292.508 290.077 290.678 290.079H109.385C107.555 290.077 105.801 289.349 104.507 288.055C103.213 286.76 102.485 285.005 102.483 283.175V72.3498C102.485 70.5192 103.213 68.7643 104.507 67.4699C105.801 66.1755 107.555 65.4473 109.385 65.445H290.678C292.508 65.4473 294.262 66.1755 295.556 67.4699C296.85 68.7643 297.578 70.5192 297.58 72.3498V283.175Z" fill="#3F3D56"/>
<path d="M242.365 84.7779H157.7C156.602 84.7767 155.549 84.3398 154.773 83.5631C153.997 82.7865 153.56 81.7334 153.559 80.6351V60.3811C153.56 59.2828 153.997 58.2297 154.773 57.4531C155.549 56.6764 156.602 56.2395 157.7 56.2383H242.365C243.463 56.2395 244.515 56.6764 245.292 57.4531C246.068 58.2297 246.505 59.2828 246.506 60.3811V80.6351C246.505 81.7334 246.068 82.7865 245.292 83.5631C244.515 84.3398 243.463 84.7767 242.365 84.7779Z" fill="#F39A4A"/>
<path d="M200.031 57.6197C205.113 57.6197 209.234 53.4979 209.234 48.4134C209.234 43.3288 205.113 39.207 200.031 39.207C194.948 39.207 190.828 43.3288 190.828 48.4134C190.828 53.4979 194.948 57.6197 200.031 57.6197Z" fill="#F39A4A"/>
<path d="M200.031 54.0207C203.127 54.0207 205.636 51.5101 205.636 48.4132C205.636 45.3162 203.127 42.8057 200.031 42.8057C196.935 42.8057 194.426 45.3162 194.426 48.4132C194.426 51.5101 196.935 54.0207 200.031 54.0207Z" fill="#092C4C"/>
</g>
<defs>
<clipPath id="clip0_385_72449">
<rect width="298" height="291" fill="white" transform="translate(0.5)"/>
</clipPath>
</defs>
</svg>
