<svg width="287" height="222" viewBox="0 0 287 222" fill="none" xmlns="http://www.w3.org/2000/svg">
<g clip-path="url(#clip0_385_73005)">
<rect width="287" height="222" fill="#092C4C"/>
<path d="M189.22 217.988L195.085 217.988L197.874 195.264L189.219 195.264L189.22 217.988Z" fill="#A0616A"/>
<path d="M209.313 217.855C209.496 218.164 209.592 219.161 209.592 219.52C209.592 220.624 208.701 221.52 207.602 221.52H189.439C188.689 221.52 188.081 220.909 188.081 220.156V219.396C188.081 219.396 187.183 217.113 189.033 214.299C189.033 214.299 191.332 216.503 194.767 213.052L195.78 211.208L203.113 216.595L207.178 217.098C208.067 217.208 208.856 217.081 209.313 217.855Z" fill="#F39A4A"/>
<path d="M207.109 211.994L212.647 213.933L222.729 193.398L214.556 190.536L207.109 211.994Z" fill="#A0616A"/>
<path d="M226.124 218.513C226.195 218.865 225.96 219.838 225.842 220.177C225.48 221.22 224.345 221.771 223.307 221.407L206.157 215.4C205.449 215.152 205.075 214.375 205.322 213.663L205.571 212.946C205.571 212.946 205.471 210.493 208.14 208.448C208.14 208.448 209.589 211.289 213.963 209.166L215.524 207.761L220.683 215.273L224.356 217.092C225.16 217.49 225.946 217.631 226.124 218.513Z" fill="#F39A4A"/>
<path d="M24.5639 77.8804H1.78721C0.821141 77.8804 0.0351562 77.0908 0.0351562 76.1204C0.0351562 75.1499 0.821141 74.3604 1.78721 74.3604H24.5639C25.53 74.3604 26.316 75.1499 26.316 76.1204C26.316 77.0908 25.53 77.8804 24.5639 77.8804Z" fill="#E6E6E6"/>
<path d="M85.4482 60.9717H0V61.4117H85.4482V60.9717Z" fill="#E6E6E6"/>
<path d="M59.1655 108.68H36.3888C35.4227 108.68 34.6367 107.891 34.6367 106.92C34.6367 105.95 35.4227 105.16 36.3888 105.16H59.1655C60.1316 105.16 60.9175 105.95 60.9175 106.92C60.9175 107.891 60.1316 108.68 59.1655 108.68Z" fill="#E6E6E6"/>
<path d="M120.05 91.7715H34.6016V92.2115H120.05V91.7715Z" fill="#E6E6E6"/>
<path d="M27.1928 149.161H4.41612C3.45005 149.161 2.66406 148.371 2.66406 147.401C2.66406 146.43 3.45005 145.641 4.41612 145.641H27.1928C28.1589 145.641 28.9449 146.43 28.9449 147.401C28.9449 148.371 28.1589 149.161 27.1928 149.161Z" fill="#E6E6E6"/>
<path d="M88.0771 132.252H2.62891V132.692H88.0771V132.252Z" fill="#FFFFFF"/>
<path d="M78.3314 134.221L74.7266 132.506C76.2051 134.579 77.4791 137.816 78.1612 140.392C79.316 137.992 81.1777 135.056 83.0204 133.303L79.2105 134.287C81.5582 122.729 90.3882 114.432 100.5 114.432V113.552C89.938 113.552 80.7284 122.197 78.3314 134.221Z" fill="#F39A4A"/>
<path d="M94.9233 151.832H72.1466C71.1805 151.832 70.3945 151.042 70.3945 150.072C70.3945 149.101 71.1805 148.312 72.1466 148.312H94.9233C95.8894 148.312 96.6754 149.101 96.6754 150.072C96.6754 151.042 95.8894 151.832 94.9233 151.832Z" fill="#F39A4A"/>
<path d="M242.667 118.424L239.062 116.709C240.541 118.782 241.815 122.019 242.497 124.595C243.652 122.196 245.514 119.26 247.356 117.506L243.546 118.49C245.894 106.932 254.724 98.6349 264.836 98.6349V97.7549C254.274 97.7549 245.064 106.4 242.667 118.424Z" fill="#F39A4A"/>
<path d="M259.259 136.035H236.483C235.516 136.035 234.73 135.245 234.73 134.275C234.73 133.304 235.516 132.515 236.483 132.515H259.259C260.225 132.515 261.011 133.304 261.011 134.275C261.011 135.245 260.225 136.035 259.259 136.035Z" fill="#F39A4A"/>
<path d="M217.647 84.9209L178.664 90.6409L188.3 208.122L199.251 207.682L202.755 127.601L217.209 163.241L208.449 207.242L219.399 206.812L232.54 162.801L223.779 112.641L217.647 84.9209Z" fill="#1E1E1E"/>
<path d="M206.26 27.2803H192.071L180.559 91.5007C180.559 91.5007 187.413 100.944 200.997 92.0525C214.582 83.1606 220.856 90.6207 220.856 90.6207L206.26 27.2803Z" fill="#F39A4A"/>
<path d="M184.064 138.581L197.501 113.961L198.377 41.8003L192.072 27.2803L188.302 33.4403L176.914 40.5254L179.121 71.7259L178.338 91.9918L177.932 102.501C176.512 108.799 179.036 134.557 184.064 138.581Z" fill="#F39A4A"/>
<path d="M206.646 28.8877L220.494 40.7006L228.598 110.441L228.739 110.421C229.483 113.35 229.535 131.216 227.862 133.728L207.792 113.301L201.879 41.3606L206.646 28.8877Z" fill="#F39A4A"/>
<path d="M252.898 100.062C254.218 102.628 253.97 105.391 252.344 106.235C250.719 107.078 248.332 105.682 247.013 103.117C246.435 101.994 246.158 100.833 246.165 99.8114L240.711 88.8701L245.877 86.4082L250.705 97.4555C251.539 98.0406 252.321 98.9395 252.898 100.062Z" fill="#A0616A"/>
<path d="M209.09 30.7393C209.09 30.7393 219.357 39.0659 222.524 41.969C224.208 43.5118 235.496 67.3165 235.496 67.3165L251.176 94.7469L243.025 97.8568L226.353 72.5647L211.955 55.8804L209.09 30.7393Z" fill="#F39A4A"/>
<path d="M145.172 102.702C143.853 105.268 144.101 108.031 145.726 108.874C147.351 109.718 149.738 108.322 151.057 105.756C151.635 104.633 151.912 103.472 151.905 102.451L157.359 91.5098L152.194 89.0479L147.365 100.095C146.531 100.68 145.749 101.579 145.172 102.702Z" fill="#A0616A"/>
<path d="M188.697 32.7813C188.697 32.7813 178.714 38.1855 175.546 41.0887C173.863 42.6314 162.574 69.9562 162.574 69.9562L146.895 97.3866L155.045 100.497L171.717 75.2044L183.049 61.1601L188.697 32.7813Z" fill="#F39A4A"/>
<path d="M199.478 24.9074C205.795 24.9074 210.917 19.7628 210.917 13.4166C210.917 7.07039 205.795 1.92578 199.478 1.92578C193.16 1.92578 188.039 7.07039 188.039 13.4166C188.039 19.7628 193.16 24.9074 199.478 24.9074Z" fill="#A0616A"/>
<path d="M204.172 4.40002e-06C204.172 4.40002e-06 204.99 3.28772 201.308 0.410971C199.965 -0.638021 198.248 1.05074 196.808 1.2329C194.298 1.55029 192.308 1.3101 192.308 2.87676C192.308 3.87831 190.983 2.35419 190.262 2.46579C189.207 2.62894 188.626 4.10965 188.626 4.10965C187.028 5.13094 185.762 7.39737 188.216 8.2193C185.762 11.096 188.037 12.5619 188.037 12.5619L190.262 9.86315C191.414 10.4946 192.979 12.1261 193.553 11.211C195.171 8.63026 199.933 11.3209 201.907 10.237C203.894 9.14557 204.99 13.5618 204.99 13.5618L205.9 14.0375C205.9 14.0375 205.399 13.1509 207.854 12.3289C209.081 11.918 209.388 13.1509 209.388 14.4865C209.388 15.9972 208.959 17.4769 208.221 18.7928L205.9 22.9249L206.919 22.2723C209.063 20.8988 210.464 18.7137 211.222 16.2749C211.258 16.1572 211.307 16.0509 211.369 15.96L211.127 13.9728L211.927 14.9171C212.051 14.5635 212.083 14.2332 211.945 13.9728C210.47 11.1851 212.763 9.45219 210.308 5.75351C206.67 0.271737 204.172 4.40002e-06 204.172 4.40002e-06Z" fill="#F39A4A"/>
<path d="M126.832 221.477C126.832 221.767 127.064 222 127.353 222H286.479C286.768 222 287.001 221.767 287.001 221.477C287.001 221.186 286.768 220.953 286.479 220.953H127.353C127.064 220.953 126.832 221.186 126.832 221.477Z" fill="#CCCCCC"/>
<path d="M108.224 109.78H94.487C92.7193 109.78 91.2812 108.336 91.2812 106.56V91.0006C91.2812 89.2249 92.7193 87.7803 94.487 87.7803H108.224C109.992 87.7803 111.43 89.2249 111.43 91.0006V106.56C111.43 108.336 109.992 109.78 108.224 109.78Z" fill="#092C4C"/>
<path d="M108.224 109.78H94.487C92.7193 109.78 91.2812 108.336 91.2812 106.56V91.0006C91.2812 89.2249 92.7193 87.7803 94.487 87.7803H108.224C109.992 87.7803 111.43 89.2249 111.43 91.0006C112.969 95.8961 112.813 101.112 111.43 106.56C111.43 108.336 109.992 109.78 108.224 109.78ZM94.487 88.2203C92.9608 88.2203 91.7193 89.4674 91.7193 91.0006V106.56C91.7193 108.093 92.9608 109.34 94.487 109.34H108.224C109.75 109.34 110.992 108.093 110.992 106.56V91.0006C110.992 89.4674 109.75 88.2203 108.224 88.2203H94.487Z" fill="#F39A4A"/>
<path d="M106.838 97.2405H95.5191C95.039 97.2405 94.6484 96.8481 94.6484 96.3658C94.6484 95.8836 95.039 95.4912 95.5191 95.4912H106.838C107.318 95.4912 107.709 95.8836 107.709 96.3658C107.709 96.8481 107.318 97.2405 106.838 97.2405Z" fill="#F39A4A"/>
<path d="M106.838 102.08H95.5191C95.039 102.08 94.6484 101.688 94.6484 101.206C94.6484 100.723 95.039 100.331 95.5191 100.331H106.838C107.318 100.331 107.709 100.723 107.709 101.206C107.709 101.688 107.318 102.08 106.838 102.08Z" fill="#F39A4A"/>
<path d="M21.5913 68.0655H7.8542C6.08653 68.0655 4.64844 66.6209 4.64844 64.8452V49.2857C4.64844 47.51 6.08652 46.0654 7.8542 46.0654H21.5913C23.359 46.0654 24.7971 47.51 24.7971 49.2857V64.8452C24.7971 66.6209 23.359 68.0655 21.5913 68.0655Z" fill="#092C4C"/>
<path d="M21.5931 68.0655H7.85593C6.08826 68.0655 4.65017 66.6209 4.65017 64.8452C3.95941 59.1158 3.76912 53.7798 4.65017 49.2857C4.65017 47.51 6.08826 46.0654 7.85593 46.0654H21.5931C23.3607 46.0654 24.7988 47.51 24.7988 49.2857V64.8452C24.7988 66.6209 23.3607 68.0655 21.5931 68.0655ZM7.85593 46.5054C6.32972 46.5054 5.08819 47.7526 5.08819 49.2857V64.8452C5.08819 66.3784 6.32972 67.6255 7.85593 67.6255H21.5931C23.1193 67.6255 24.3608 66.3784 24.3608 64.8452V49.2857C24.3608 47.7526 23.1193 46.5054 21.5931 46.5054H7.85593Z" fill="#F39A4A"/>
<path d="M20.2051 55.5256H8.8863C8.40621 55.5256 8.01562 55.1333 8.01562 54.651C8.01562 54.1687 8.40622 53.7764 8.8863 53.7764H20.2051C20.6852 53.7764 21.0758 54.1687 21.0758 54.651C21.0758 55.1333 20.6852 55.5256 20.2051 55.5256Z" fill="#F39A4A"/>
<path d="M20.2051 60.3655H8.8863C8.40621 60.3655 8.01562 59.9731 8.01562 59.4908C8.01562 59.0086 8.40622 58.6162 8.8863 58.6162H20.2051C20.6852 58.6162 21.0758 59.0086 21.0758 59.4908C21.0758 59.9731 20.6852 60.3655 20.2051 60.3655Z" fill="#F39A4A"/>
<path d="M20.2051 50.6858H8.8863C8.40621 50.6858 8.01562 50.2934 8.01562 49.8112C8.01562 49.3289 8.40622 48.9365 8.8863 48.9365H20.2051C20.6852 48.9365 21.0758 49.3289 21.0758 49.8112C21.0758 50.2934 20.6852 50.6858 20.2051 50.6858Z" fill="#F39A4A"/>
<path d="M168.174 99.8612L157.908 109.031C156.587 110.211 154.557 110.091 153.382 108.764C149.115 105.36 145.615 101.523 143.09 97.1369C141.915 95.8099 142.034 93.7704 143.355 92.5905L153.621 83.4208C154.942 82.2408 156.972 82.3604 158.147 83.6874L168.439 95.3148C169.614 96.6418 169.495 98.6813 168.174 99.8612Z" fill="#092C4C"/>
<path d="M168.174 99.8612L157.908 109.031C156.587 110.211 154.557 110.091 153.382 108.764C148.515 105.77 144.867 102.027 143.09 97.1369C141.915 95.8099 142.034 93.7704 143.355 92.5905L153.621 83.4208C154.942 82.2408 156.972 82.3604 158.147 83.6874L168.439 95.3148C169.614 96.6418 169.495 98.6813 168.174 99.8612ZM143.646 92.9193C142.506 93.938 142.403 95.6988 143.417 96.8445C145.694 101.484 149.204 105.307 153.71 108.472C154.724 109.618 156.477 109.721 157.617 108.702L167.883 99.5324C169.023 98.5137 169.126 96.7529 168.112 95.6072L157.819 83.9798C156.805 82.8341 155.053 82.7308 153.912 83.7496L143.646 92.9193Z" fill="#F39A4A"/>
<path d="M158.841 91.4165L150.382 98.9719C150.024 99.2924 149.472 99.2599 149.153 98.8995C148.834 98.5391 148.867 97.9852 149.225 97.6647L157.684 90.1093C158.042 89.7888 158.594 89.8213 158.913 90.1817C159.232 90.5421 159.2 91.096 158.841 91.4165Z" fill="#F39A4A"/>
<path d="M162.044 95.0337L153.586 102.589C153.227 102.91 152.675 102.877 152.356 102.517C152.037 102.156 152.07 101.602 152.428 101.282L160.887 93.7265C161.246 93.406 161.797 93.4385 162.116 93.7989C162.435 94.1593 162.403 94.7132 162.044 95.0337Z" fill="#F39A4A"/>
<path d="M155.642 87.7993L147.183 95.3548C146.824 95.6752 146.273 95.6427 145.954 95.2824C145.635 94.922 145.667 94.368 146.026 94.0476L154.485 86.4921C154.843 86.1717 155.395 86.2041 155.714 86.5645C156.033 86.9249 156 87.4788 155.642 87.7993Z" fill="#F39A4A"/>
<path d="M50.0601 145.066H36.3229C34.5553 145.066 33.1172 143.621 33.1172 141.845V126.286C33.1172 124.51 34.5553 123.065 36.3229 123.065H50.0601C51.8277 123.065 53.2658 124.51 53.2658 126.286V141.845C53.2658 143.621 51.8277 145.066 50.0601 145.066Z" fill="#092C4C"/>
<path d="M50.061 145.066H36.3239C34.5562 145.066 33.1181 143.621 33.1181 141.845C31.9003 136.718 32.0012 131.527 33.1181 126.286C33.1181 124.51 34.5562 123.065 36.3239 123.065H50.061C51.8287 123.065 53.2668 124.51 53.2668 126.286V141.845C53.2668 143.621 51.8287 145.066 50.061 145.066ZM36.3239 123.505C34.7977 123.505 33.5562 124.753 33.5562 126.286V141.845C33.5562 143.378 34.7977 144.626 36.3239 144.626H50.061C51.5872 144.626 52.8288 143.378 52.8288 141.845V126.286C52.8288 124.753 51.5872 123.505 50.061 123.505H36.3239Z" fill="#F39A4A"/>
<path d="M48.6738 132.526H37.355C36.875 132.526 36.4844 132.133 36.4844 131.651C36.4844 131.169 36.875 130.776 37.355 130.776H48.6738C49.1539 130.776 49.5445 131.169 49.5445 131.651C49.5445 132.133 49.1539 132.526 48.6738 132.526Z" fill="#F39A4A"/>
</g>
<defs>
<clipPath id="clip0_385_73005">
<rect width="287" height="222" fill="white"/>
</clipPath>
</defs>
</svg>
