<svg width="287" height="276" viewBox="0 0 287 276" fill="none" xmlns="http://www.w3.org/2000/svg">
<g clip-path="url(#clip0_385_75039)">
<rect width="287" height="275.463" fill="#092C4C"/>
<path d="M241.538 65.2895H240.03V23.9348C240.03 17.5869 237.509 11.499 233.02 7.01034C228.531 2.5217 222.443 3.12217e-09 216.095 3.12217e-09H128.478C125.335 -5.07631e-05 122.223 0.618991 119.319 1.82178C116.415 3.02457 113.776 4.78755 111.554 7.01007C109.331 9.23258 107.568 11.8711 106.365 14.775C105.162 17.6789 104.543 20.7913 104.543 23.9344V250.809C104.543 257.157 107.065 263.245 111.553 267.734C116.042 272.222 122.13 274.744 128.478 274.744H216.094C222.442 274.744 228.53 272.222 233.019 267.734C237.507 263.245 240.029 257.157 240.029 250.809V94.7264H241.537L241.538 65.2895Z" fill="white"/>
<path d="M235.122 22.3317V252.412C235.122 257.225 233.21 261.84 229.807 265.244C226.404 268.647 221.789 270.56 216.976 270.562H127.561C122.746 270.563 118.128 268.651 114.723 265.247C111.318 261.843 109.404 257.226 109.402 252.412V22.3317C109.404 17.5171 111.318 12.9002 114.723 9.49653C118.128 6.09282 122.746 4.18103 127.56 4.18164H138.407C137.874 5.49135 137.671 6.91184 137.816 8.31824C137.961 9.72464 138.45 11.0739 139.238 12.2474C140.027 13.421 141.091 14.3828 142.339 15.0485C143.586 15.7141 144.978 16.0632 146.392 16.065H197.369C198.783 16.0632 200.174 15.7141 201.422 15.0485C202.669 14.3828 203.734 13.421 204.522 12.2474C205.311 11.0739 205.799 9.72464 205.944 8.31824C206.089 6.91184 205.886 5.49135 205.354 4.18164H216.972C221.785 4.18246 226.401 6.09448 229.804 9.49736C233.208 12.9002 235.121 17.5154 235.122 22.3283V22.3317Z" fill="#092C4C"/>
<path d="M172.244 114.694C192.86 114.694 209.573 97.9814 209.573 77.3648C209.573 56.7482 192.86 40.0352 172.244 40.0352C151.627 40.0352 134.914 56.7482 134.914 77.3648C134.914 97.9814 151.627 114.694 172.244 114.694Z" fill="#F39A4A"/>
<path d="M212.958 154.86H133.503C133.112 154.86 132.738 154.705 132.463 154.429C132.187 154.153 132.032 153.779 132.031 153.389V133.68C132.032 133.29 132.187 132.916 132.463 132.64C132.739 132.364 133.112 132.209 133.503 132.208H212.958C213.348 132.209 213.722 132.364 213.998 132.64C214.274 132.916 214.429 133.29 214.429 133.68V153.389C214.429 153.779 214.274 154.153 213.998 154.429C213.722 154.705 213.348 154.86 212.958 154.861V154.86ZM133.503 132.797C133.268 132.797 133.044 132.89 132.878 133.056C132.713 133.221 132.62 133.446 132.62 133.68V153.389C132.62 153.623 132.713 153.848 132.878 154.013C133.044 154.179 133.268 154.272 133.503 154.272H212.958C213.192 154.272 213.417 154.179 213.582 154.013C213.748 153.848 213.841 153.623 213.841 153.389V133.68C213.841 133.446 213.748 133.221 213.582 133.056C213.417 132.89 213.192 132.797 212.958 132.797H133.503Z" fill="#E6E6E6"/>
<path d="M158.073 139.307C157.8 139.307 157.538 139.415 157.345 139.608C157.151 139.801 157.043 140.063 157.043 140.337C157.043 140.61 157.151 140.872 157.345 141.065C157.538 141.258 157.8 141.367 158.073 141.367H206.629C206.902 141.377 207.168 141.279 207.368 141.093C207.569 140.907 207.687 140.65 207.698 140.377C207.708 140.104 207.61 139.838 207.424 139.637C207.238 139.437 206.981 139.318 206.708 139.308C206.693 139.307 206.677 139.307 206.662 139.307L158.073 139.307Z" fill="#E6E6E6"/>
<path d="M158.073 145.486C157.8 145.486 157.538 145.594 157.345 145.788C157.151 145.981 157.043 146.243 157.043 146.516C157.043 146.789 157.151 147.051 157.345 147.244C157.538 147.437 157.8 147.546 158.073 147.546H206.629C206.902 147.556 207.168 147.458 207.368 147.272C207.569 147.087 207.687 146.829 207.698 146.556C207.708 146.283 207.61 146.017 207.424 145.816C207.238 145.616 206.981 145.497 206.708 145.487C206.693 145.486 206.677 145.486 206.662 145.486L158.073 145.486Z" fill="#E6E6E6"/>
<path d="M212.958 187.712H133.503C133.112 187.711 132.738 187.556 132.463 187.28C132.187 187.005 132.032 186.631 132.031 186.241V166.531C132.032 166.141 132.187 165.767 132.463 165.492C132.739 165.216 133.112 165.061 133.503 165.06H212.958C213.348 165.061 213.722 165.216 213.998 165.492C214.274 165.767 214.429 166.141 214.429 166.531V186.241C214.429 186.631 214.274 187.005 213.998 187.28C213.722 187.556 213.348 187.711 212.958 187.712ZM133.503 165.648C133.268 165.649 133.044 165.742 132.878 165.907C132.713 166.073 132.62 166.297 132.62 166.531V186.241C132.62 186.475 132.713 186.699 132.878 186.865C133.044 187.031 133.268 187.124 133.503 187.124H212.958C213.192 187.124 213.417 187.031 213.582 186.865C213.748 186.699 213.841 186.475 213.841 186.241V166.531C213.841 166.297 213.748 166.073 213.582 165.907C213.417 165.742 213.192 165.649 212.958 165.648H133.503Z" fill="#E6E6E6"/>
<path d="M158.073 172.265C157.8 172.265 157.538 172.373 157.345 172.566C157.151 172.76 157.043 173.022 157.043 173.295C157.043 173.568 157.151 173.83 157.345 174.023C157.538 174.216 157.8 174.325 158.073 174.325H206.629C206.898 174.323 207.156 174.216 207.347 174.027C207.539 173.837 207.649 173.581 207.653 173.311C207.657 173.042 207.556 172.782 207.371 172.586C207.186 172.391 206.932 172.275 206.662 172.265H158.073V172.265Z" fill="#E6E6E6"/>
<path d="M158.073 178.445C157.8 178.445 157.538 178.553 157.345 178.747C157.151 178.94 157.043 179.202 157.043 179.475C157.043 179.748 157.151 180.01 157.345 180.203C157.538 180.396 157.8 180.505 158.073 180.505H206.629C206.898 180.503 207.156 180.396 207.347 180.207C207.539 180.018 207.649 179.761 207.653 179.492C207.657 179.222 207.556 178.962 207.371 178.766C207.186 178.571 206.932 178.456 206.662 178.445H158.073V178.445Z" fill="#E6E6E6"/>
<path d="M212.958 220.67H133.503C133.112 220.67 132.738 220.515 132.463 220.239C132.187 219.963 132.032 219.589 132.031 219.199V199.49C132.032 199.1 132.187 198.726 132.463 198.45C132.739 198.174 133.112 198.019 133.503 198.019H212.958C213.348 198.019 213.722 198.174 213.998 198.45C214.274 198.726 214.429 199.1 214.429 199.49V219.199C214.429 219.589 214.274 219.963 213.998 220.239C213.722 220.515 213.348 220.67 212.958 220.671V220.67ZM133.503 198.607C133.268 198.607 133.044 198.7 132.878 198.866C132.713 199.031 132.62 199.256 132.62 199.49V219.199C132.62 219.434 132.713 219.658 132.878 219.824C133.044 219.989 133.268 220.082 133.503 220.082H212.958C213.192 220.082 213.417 219.989 213.582 219.824C213.748 219.658 213.841 219.434 213.841 219.199V199.49C213.841 199.256 213.748 199.031 213.582 198.866C213.417 198.7 213.192 198.607 212.958 198.607H133.503Z" fill="#E6E6E6"/>
<path d="M158.073 205.224C157.8 205.224 157.538 205.333 157.345 205.526C157.151 205.719 157.043 205.981 157.043 206.254C157.043 206.527 157.151 206.789 157.345 206.982C157.538 207.176 157.8 207.284 158.073 207.284H206.629C206.764 207.289 206.899 207.268 207.026 207.221C207.153 207.174 207.269 207.102 207.368 207.011C207.468 206.919 207.548 206.808 207.604 206.685C207.661 206.562 207.693 206.429 207.698 206.294C207.703 206.159 207.681 206.024 207.634 205.897C207.587 205.77 207.516 205.654 207.424 205.555C207.332 205.455 207.222 205.375 207.099 205.319C206.976 205.262 206.843 205.23 206.708 205.225C206.693 205.225 206.677 205.224 206.662 205.224L158.073 205.224Z" fill="#E6E6E6"/>
<path d="M158.073 211.404C157.8 211.404 157.538 211.513 157.345 211.706C157.151 211.899 157.043 212.161 157.043 212.434C157.043 212.708 157.151 212.97 157.345 213.163C157.538 213.356 157.8 213.464 158.073 213.464H206.629C206.764 213.47 206.899 213.448 207.026 213.401C207.153 213.354 207.269 213.283 207.368 213.191C207.468 213.099 207.548 212.988 207.604 212.865C207.661 212.742 207.693 212.61 207.698 212.474C207.703 212.339 207.681 212.204 207.634 212.077C207.587 211.95 207.516 211.834 207.424 211.735C207.332 211.636 207.222 211.555 207.099 211.499C206.976 211.442 206.843 211.411 206.708 211.405C206.693 211.405 206.677 211.405 206.662 211.405H158.073L158.073 211.404Z" fill="#E6E6E6"/>
<path d="M286.251 275.463H0.749178C0.335156 275.463 0 275.282 0 275.059C0 274.836 0.335543 274.655 0.749178 274.655H286.251C286.664 274.655 287 274.836 287 275.059C287 275.282 286.665 275.463 286.251 275.463Z" fill="#E6E6E6"/>
<path d="M274.162 259.704C272.942 260.133 271.632 260.241 270.359 260.016C269.086 259.792 267.892 259.244 266.892 258.424C264.346 256.287 263.547 252.766 262.898 249.505L260.977 239.862L264.999 242.632C267.892 244.624 270.849 246.68 272.853 249.565C274.856 252.45 275.73 256.388 274.121 259.51" fill="#E6E6E6"/>
<path d="M273.541 272.051C274.048 268.362 274.568 264.626 274.213 260.898C273.898 257.587 272.888 254.354 270.831 251.702C269.739 250.297 268.411 249.094 266.906 248.146C266.514 247.898 266.152 248.52 266.543 248.766C269.147 250.413 271.162 252.843 272.296 255.708C273.548 258.894 273.749 262.366 273.533 265.75C273.402 267.796 273.126 269.829 272.847 271.86C272.825 271.952 272.839 272.048 272.885 272.13C272.932 272.212 273.008 272.274 273.098 272.302C273.19 272.327 273.288 272.314 273.371 272.267C273.454 272.22 273.515 272.142 273.541 272.051H273.541Z" fill="#F2F2F2"/>
<path d="M269.895 266.132C269.372 266.927 268.653 267.574 267.807 268.011C266.961 268.447 266.018 268.658 265.066 268.624C262.622 268.508 260.584 266.802 258.75 265.184L253.324 260.392L256.915 260.22C259.497 260.097 262.147 259.982 264.608 260.778C267.069 261.574 269.336 263.491 269.786 266.035" fill="#E6E6E6"/>
<path d="M274.971 274.171C272.536 269.858 269.707 265.065 264.656 263.533C263.251 263.108 261.778 262.956 260.317 263.085C259.856 263.123 259.971 263.835 260.433 263.795C262.883 263.592 265.328 264.239 267.357 265.627C269.31 266.956 270.83 268.803 272.116 270.763C272.904 271.961 273.61 273.214 274.316 274.464C274.54 274.863 275.2 274.575 274.971 274.171Z" fill="#F2F2F2"/>
<path d="M143.414 149.593C146.827 149.593 149.594 146.827 149.594 143.414C149.594 140.001 146.827 137.234 143.414 137.234C140.001 137.234 137.234 140.001 137.234 143.414C137.234 146.827 140.001 149.593 143.414 149.593Z" fill="#F39A4A"/>
<path d="M140.457 142.259C140.386 142.259 140.328 142.72 140.328 143.289C140.328 143.858 140.386 144.319 140.457 144.319H146.533C146.605 144.329 146.663 143.875 146.664 143.307C146.704 142.952 146.661 142.594 146.538 142.26H140.457V142.259Z" fill="#E6E6E6"/>
<path d="M143.414 182.566C146.827 182.566 149.594 179.799 149.594 176.386C149.594 172.973 146.827 170.206 143.414 170.206C140.001 170.206 137.234 172.973 137.234 176.386C137.234 179.799 140.001 182.566 143.414 182.566Z" fill="#F39A4A"/>
<path d="M140.457 175.231C140.386 175.231 140.328 175.693 140.328 176.261C140.328 176.83 140.386 177.291 140.457 177.291H146.533C146.605 177.301 146.663 176.847 146.664 176.279C146.704 175.925 146.661 175.566 146.538 175.232L140.457 175.231Z" fill="#E6E6E6"/>
<path d="M143.414 215.524C146.827 215.524 149.594 212.757 149.594 209.344C149.594 205.931 146.827 203.165 143.414 203.165C140.001 203.165 137.234 205.931 137.234 209.344C137.234 212.757 140.001 215.524 143.414 215.524Z" fill="#F39A4A"/>
<path d="M140.457 208.19C140.386 208.19 140.328 208.651 140.328 209.22C140.328 209.788 140.386 210.25 140.457 210.25H146.533C146.605 210.259 146.663 209.806 146.664 209.237C146.704 208.883 146.661 208.525 146.538 208.19L140.457 208.19Z" fill="#E6E6E6"/>
<path d="M164.179 67.1145L161.992 69.3013L180.307 87.6157L182.493 85.4289L164.179 67.1145Z" fill="#092C4C"/>
<path d="M182.495 69.3011L180.309 67.1143L161.994 85.4287L164.181 87.6155L182.495 69.3011Z" fill="#092C4C"/>
<path d="M34.8925 176.33C35.4282 176.141 35.9159 175.836 36.3211 175.437C36.7263 175.039 37.0392 174.557 37.2378 174.024C37.4363 173.492 37.5158 172.922 37.4704 172.356C37.4251 171.789 37.256 171.239 36.9753 170.745L46.085 160.36L38.9738 159.379L31.4133 169.391C30.6145 169.918 30.0366 170.719 29.7892 171.644C29.5418 172.568 29.642 173.551 30.0709 174.406C30.4997 175.262 31.2274 175.93 32.1161 176.284C33.0048 176.639 33.9926 176.655 34.8925 176.33Z" fill="#9F616A"/>
<path d="M45.8799 268.366L39.5265 268.366L36.5039 243.859L45.8811 243.86L45.8799 268.366Z" fill="#9F616A"/>
<path d="M47.4982 274.525L27.0117 274.524V274.265C27.0119 272.151 27.852 270.122 29.3474 268.627C30.8427 267.132 32.8708 266.292 34.9856 266.292H34.9861L47.4985 266.292L47.4982 274.525Z" fill="white"/>
<path d="M79.1355 263.049L73.0678 264.933L62.9141 242.425L71.8695 239.645L79.1355 263.049Z" fill="#9F616A"/>
<path d="M82.5123 268.451L62.9471 274.525L62.8703 274.278C62.2433 272.258 62.4442 270.072 63.4289 268.201C64.4136 266.329 66.1013 264.925 68.1209 264.298L68.1214 264.298L80.0711 260.588L82.5123 268.451Z" fill="white"/>
<path d="M41.0112 155.381L31.6016 166.158L38.9682 166.821L41.0112 155.381Z" fill="#E6E6E6"/>
<path d="M37.3364 169.272C37.3364 169.272 34.0679 170.906 33.6593 178.26C33.2507 185.615 34.8852 204.818 34.8852 204.818C34.8852 204.818 33.2511 213.398 34.8852 221.16C36.5192 228.923 33.2511 257.112 35.2938 257.112C37.3364 257.112 47.9587 258.338 48.3674 257.112C48.776 255.886 49.1846 237.501 49.1846 237.501C49.1846 237.501 52.4531 228.104 49.1846 222.386C49.1846 222.386 60.5966 242.313 67.9779 257.521C69.5934 260.85 81.8687 257.113 79.8261 253.436C77.7834 249.759 72.8809 233.008 72.8809 233.008C72.8809 233.008 69.2038 220.751 62.6672 215.44L65.9356 189.293C65.9356 189.293 72.8812 171.725 68.7963 169.273C64.7114 166.822 37.3364 169.272 37.3364 169.272Z" fill="white"/>
<path d="M49.5911 102.677C55.4576 102.677 60.2134 97.9215 60.2134 92.0549C60.2134 86.1884 55.4576 81.4326 49.5911 81.4326C43.7245 81.4326 38.9688 86.1884 38.9688 92.0549C38.9688 97.9215 43.7245 102.677 49.5911 102.677Z" fill="#A0616A"/>
<path d="M61.4408 103.494L48.2354 111.257C48.2354 111.257 43.179 114.104 41.2902 119.019C39.2769 124.257 40.4471 131.632 41.2902 133.318C42.9243 136.587 40.6048 144.758 40.6048 144.758L38.5622 163.551C38.5622 163.551 31.2084 170.497 36.9281 171.314C42.6479 172.131 52.8616 170.905 58.99 171.314C65.1183 171.722 72.0635 172.54 70.0209 168.453C67.9782 164.367 65.527 161.507 67.9782 153.338C69.8964 146.944 69.8133 123.037 69.6865 112.941C69.669 111.554 69.2972 110.195 68.6063 108.993C67.9153 107.791 66.9283 106.786 65.7392 106.073L61.4408 103.494Z" fill="#E5E5E5"/>
<path opacity="0.1" d="M44.619 164.711L43.5649 164.31L55.5473 142.342L55.6063 142.234L55.6082 142.111L55.7736 131.734L56.2382 141.181L44.619 164.711Z" fill="#1E1E1E" stroke="#1E1E1E"/>
<path opacity="0.1" d="M64.0463 152.857L68.4986 145.523V146.44L64.0463 152.857Z" fill="#1E1E1E" stroke="#1E1E1E"/>
<path d="M42.0546 82.2144L40.3 81.5124C40.3 81.5124 43.9724 77.47 49.0803 77.8213L47.6434 76.2395C47.6434 76.2395 51.1554 74.8335 54.3485 78.5241C56.027 80.4644 57.9688 82.7452 59.1807 85.3139H61.0614L60.2766 87.0423L63.0236 88.7707L60.204 88.4614C60.471 89.9535 60.3796 91.4878 59.9372 92.9376L60.0145 94.3038C60.0145 94.3038 56.7445 89.2439 56.7445 88.5419V90.2996C56.7445 90.2996 54.9883 88.7177 54.9883 87.6632L54.0304 88.8936L53.5514 86.9608L47.6445 88.8936L48.6017 87.311L44.9292 87.8383L46.3661 85.9054C46.3661 85.9054 42.2155 88.1901 42.0558 90.1237C41.8961 92.0574 39.821 94.5175 39.821 94.5175L38.8631 92.7598C38.8631 92.7598 37.4266 84.8508 42.0546 82.2144Z" fill="white"/>
<path d="M48.9262 177.487C49.4198 177.205 49.8456 176.818 50.1736 176.354C50.5017 175.89 50.724 175.36 50.8249 174.801C50.9258 174.241 50.9028 173.667 50.7576 173.117C50.6125 172.568 50.3486 172.057 49.9846 171.621L57.1063 159.784L49.9339 160.08L44.2706 171.276C43.5779 171.936 43.1515 172.827 43.0721 173.78C42.9927 174.734 43.2658 175.683 43.8396 176.449C44.4135 177.215 45.2483 177.743 46.1858 177.934C47.1232 178.126 48.0983 177.966 48.9262 177.487Z" fill="#9F616A"/>
<path d="M65.1194 108.806L68.1834 108.193C68.1834 108.193 77.3758 114.934 74.5159 128.417C71.656 141.899 58.991 162.327 58.991 162.327C58.991 162.327 56.1304 166.004 55.3139 166.821C54.4975 167.637 52.8627 166.821 53.6799 168.046C54.4971 169.272 52.454 170.089 52.454 170.089C52.454 170.089 43.4658 170.089 44.283 166.821C45.1002 163.552 58.991 140.263 58.991 140.263L56.9484 118.61C56.9484 118.61 55.3135 107.989 65.1194 108.806Z" fill="#E5E5E5"/>
</g>
<defs>
<clipPath id="clip0_385_75039">
<rect width="287" height="275.463" fill="white"/>
</clipPath>
</defs>
</svg>
