<svg width="398" height="398" viewBox="0 0 398 398" fill="none" xmlns="http://www.w3.org/2000/svg">
<rect width="398" height="398" fill="#092C4C"/>
<path d="M68.6779 356.29C-3.28847 314.738 -3.28847 247.365 68.6779 205.846C140.644 164.326 257.33 164.294 329.32 205.846C401.31 247.397 401.286 314.77 329.32 356.29C257.354 397.809 140.652 397.849 68.6779 356.29Z" fill="#F5F5F5"/>
<path d="M126.274 358.296C157.505 358.296 182.822 343.681 182.822 325.652C182.822 307.623 157.505 293.008 126.274 293.008C95.0439 293.008 69.7266 307.623 69.7266 325.652C69.7266 343.681 95.0439 358.296 126.274 358.296Z" fill="#E0E0E0"/>
<path d="M256.969 310.395C296.18 289.246 319.436 256.284 308.912 236.771C298.388 217.258 258.069 218.584 218.858 239.732C179.646 260.881 156.391 293.843 166.915 313.356C177.439 332.869 217.758 331.543 256.969 310.395Z" fill="#E0E0E0"/>
<path d="M295.995 264.041C303.835 254.696 316.118 248.607 329.928 245.009C343.572 241.467 346.015 233.069 336.973 230.355C326.728 227.266 313.945 232.934 305.698 240.822C291.338 254.569 289.531 265.068 289.531 265.068L295.995 264.041Z" fill="#F39A4A"/>
<path opacity="0.15" d="M329.803 244.525L329.802 244.525C316.01 248.118 303.671 254.202 295.732 263.577L290.187 264.458C290.262 264.175 290.368 263.81 290.513 263.369C290.899 262.194 291.563 260.477 292.674 258.33C294.895 254.036 298.903 248.019 306.044 241.183C310.121 237.283 315.32 233.933 320.758 231.941C326.199 229.949 331.841 229.33 336.829 230.833L336.829 230.833C339.025 231.493 340.449 232.476 341.192 233.572C341.92 234.646 342.03 235.883 341.495 237.181C340.953 238.499 339.736 239.895 337.78 241.19C335.83 242.48 333.173 243.65 329.803 244.525Z" fill="#1E1E1E" stroke="#1E1E1E"/>
<path d="M291.961 263.476C291.904 263.488 291.844 263.488 291.786 263.476C291.739 263.453 291.697 263.421 291.662 263.382C291.628 263.343 291.601 263.297 291.584 263.247C291.567 263.198 291.56 263.145 291.563 263.093C291.567 263.041 291.58 262.99 291.603 262.943C303.241 239.063 329.015 233.188 335.256 233.634C335.36 233.642 335.457 233.691 335.525 233.77C335.594 233.849 335.629 233.951 335.622 234.056C335.612 234.161 335.561 234.258 335.481 234.326C335.401 234.394 335.297 234.429 335.192 234.422C329.079 233.96 303.774 239.779 292.32 263.293C292.28 263.351 292.227 263.399 292.164 263.431C292.102 263.463 292.032 263.478 291.961 263.476Z" fill="#092C4C"/>
<path d="M289.531 266.525C289.532 266.909 289.634 267.286 289.828 267.617C290.021 267.949 290.299 268.223 290.633 268.413C290.967 268.602 291.345 268.699 291.729 268.695C292.113 268.69 292.489 268.584 292.819 268.388C300.11 264.145 310.745 261.797 327.954 266.7C337.108 269.303 341.614 267.56 343.54 263.834C345.689 259.695 341.152 255.691 335.978 253.805C318.362 247.365 302.466 251.759 289.531 264.607V266.525Z" fill="#F39A4A"/>
<path d="M290.542 266.867C290.485 266.868 290.429 266.857 290.377 266.835C290.325 266.813 290.278 266.781 290.239 266.74C290.166 266.664 290.125 266.563 290.125 266.457C290.125 266.352 290.166 266.25 290.239 266.174C305.451 252.579 329.013 255.229 337.928 260.531C338.018 260.584 338.084 260.671 338.111 260.772C338.138 260.873 338.123 260.981 338.071 261.072C338.016 261.163 337.928 261.229 337.826 261.256C337.723 261.282 337.614 261.268 337.522 261.215C328.766 256.018 305.682 253.431 290.773 266.787C290.705 266.836 290.625 266.863 290.542 266.867Z" fill="#092C4C"/>
<path d="M119.339 298.221C112.653 288.017 101.174 280.518 87.8811 275.321C74.763 270.194 73.3222 261.574 82.6195 259.934C93.1585 258.079 105.186 265.219 112.446 274.023C125.086 289.37 125.635 300.028 125.635 300.028L119.339 298.221Z" fill="#F39A4A"/>
<path opacity="0.15" d="M125.056 299.342L119.655 297.792C112.875 287.546 101.339 280.046 88.0631 274.855L88.063 274.855C84.8226 273.589 82.3239 272.114 80.5406 270.603C78.7527 269.088 77.7093 267.558 77.3261 266.185C76.9487 264.833 77.2035 263.618 78.0528 262.636C78.9188 261.634 80.4482 260.825 82.7062 260.426L125.056 299.342ZM125.056 299.342C125.015 299.052 124.953 298.677 124.862 298.222C124.618 297.008 124.161 295.222 123.312 292.956C121.615 288.426 118.345 281.973 112.06 274.341C108.471 269.989 103.702 266.048 98.5362 263.427C93.3671 260.806 87.8371 259.523 82.7063 260.426L125.056 299.342Z" fill="#1E1E1E" stroke="#1E1E1E"/>
<path d="M123.388 298.158C123.445 298.169 123.505 298.169 123.563 298.158C123.662 298.122 123.744 298.048 123.79 297.953C123.836 297.858 123.843 297.749 123.81 297.648C115.054 272.566 90.1865 263.691 83.914 263.42C83.8098 263.416 83.708 263.453 83.6305 263.523C83.5531 263.593 83.5063 263.69 83.5001 263.794C83.4978 263.9 83.5361 264.003 83.6071 264.081C83.6782 264.16 83.7766 264.208 83.8822 264.216C90.0114 264.471 114.449 273.235 123.053 297.935C123.084 297.998 123.132 298.052 123.19 298.092C123.249 298.131 123.317 298.154 123.388 298.158Z" fill="#092C4C"/>
<path d="M125.692 299.543C125.63 300.109 125.423 300.649 125.091 301.111C124.759 301.573 124.313 301.942 123.797 302.182C123.281 302.422 122.712 302.525 122.145 302.481C121.577 302.437 121.031 302.248 120.558 301.931C113.808 297.41 103.755 294.472 87.2853 297.155C77.8925 298.659 73.6259 296.359 72.1613 292.466C70.5215 288.104 75.5045 284.674 80.8616 283.408C99.1138 279.094 114.381 285.334 125.708 299.607L125.692 299.543Z" fill="#F39A4A"/>
<path d="M124.433 301.684C124.489 301.692 124.545 301.687 124.599 301.671C124.653 301.654 124.702 301.626 124.744 301.589C124.817 301.513 124.858 301.411 124.858 301.306C124.858 301.2 124.817 301.099 124.744 301.023C111.212 285.732 87.5306 285.581 78.0502 289.792C77.9531 289.835 77.8771 289.915 77.8391 290.014C77.801 290.114 77.8039 290.224 77.8472 290.321C77.8905 290.418 77.9706 290.494 78.0698 290.532C78.1691 290.57 78.2794 290.567 78.3766 290.524C87.6659 286.393 110.909 286.544 124.147 301.549C124.181 301.591 124.225 301.626 124.274 301.649C124.324 301.672 124.378 301.684 124.433 301.684Z" fill="#092C4C"/>
<path d="M303.131 116.352C317.252 123.659 326.597 140.271 327.799 164.51C330.251 213.121 299.111 273.952 258.244 300.379C237.883 313.545 218.954 315.67 204.777 308.506M303.131 116.352L303.004 116.288L272.66 98.8236M303.131 116.352L302.901 116.796L302.78 116.735L302.767 116.729L302.754 116.721L272.427 99.2665M303.131 116.352L302.907 116.799L302.904 116.797C316.81 123.995 326.103 140.403 327.3 164.534L327.3 164.535C328.52 188.732 321.378 216.005 308.821 240.535C296.264 265.066 278.315 286.804 257.973 299.959C237.704 313.065 218.973 315.115 205.011 308.064M272.66 98.8236L272.477 98.7361C258.3 91.5721 239.387 93.7292 219.041 106.879M272.66 98.8236L272.411 99.257L272.427 99.2665M272.66 98.8236L272.444 99.2747L272.427 99.2665M219.041 106.879C178.175 133.306 147.035 194.137 149.487 242.748M219.041 106.879L219.313 107.299M219.041 106.879L219.313 107.299C219.313 107.299 219.313 107.299 219.313 107.299M149.487 242.748C150.705 266.971 160.05 283.583 174.163 290.89L174.282 290.954L204.634 308.426M149.487 242.748L149.986 242.723C151.199 266.84 160.493 283.25 174.393 290.446L174.398 290.449L174.518 290.513L174.525 290.517L174.532 290.521L204.877 307.989L204.634 308.426M149.487 242.748L149.986 242.723C148.766 218.526 155.908 191.252 168.465 166.722C181.022 142.192 198.971 120.454 219.313 107.299M204.634 308.426L204.777 308.506M204.634 308.426L204.883 307.993L205.011 308.064M204.777 308.506L205.02 308.069L205.011 308.064M204.777 308.506L205.003 308.06C205.006 308.061 205.008 308.063 205.011 308.064M219.313 107.299C239.571 94.2059 258.289 92.1267 272.251 99.1823L272.251 99.1824L272.261 99.1871L272.427 99.2665" fill="#1E1E1E" stroke="#1E1E1E"/>
<path d="M195.808 302.784C186.302 293.86 180.286 279.367 179.354 260.213C179.354 260.213 179.354 260.213 179.354 260.213L179.853 260.189C178.763 238.506 184.343 214.411 194.5 192.035L195.808 302.784ZM195.808 302.784L174.582 290.511L174.577 290.508L174.438 290.424L174.424 290.415L174.408 290.407C160.508 283.194 151.222 266.785 150.001 242.699L195.808 302.784ZM164.591 174.805L193.86 192.236L150.001 242.699C148.916 221.123 154.482 197.119 164.591 174.805Z" fill="#1E1E1E" stroke="#1E1E1E"/>
<path d="M327.316 164.519C328.536 188.716 321.395 215.99 308.837 240.52C296.28 265.05 278.332 286.788 257.989 299.943C237.644 313.099 218.842 315.131 204.86 307.971C190.879 300.812 181.535 284.368 180.314 260.171C179.094 235.978 186.238 208.707 198.797 184.178C211.356 159.649 229.307 137.91 249.649 124.755C269.994 111.599 288.795 109.564 302.774 116.72C316.754 123.876 326.095 140.318 327.316 164.519Z" fill="#1E1E1E" stroke="#1E1E1E"/>
<path d="M241.781 218.982L241.284 218.443L230.266 206.51C230.265 206.509 230.264 206.508 230.263 206.507C227.066 203.181 222.694 201.241 218.083 201.102C213.47 200.964 208.987 202.64 205.597 205.771C202.207 208.902 200.18 213.237 199.951 217.846C199.723 222.453 201.31 226.967 204.371 230.417C204.372 230.418 204.373 230.419 204.374 230.421L233.414 261.879L233.414 261.88C236.517 265.25 240.815 267.272 245.39 267.513H245.39H245.392H245.394H245.396H245.398H245.4H245.402H245.404H245.406H245.408H245.41H245.412H245.414H245.416H245.418H245.42H245.422H245.424H245.426H245.427H245.429H245.431H245.433H245.435H245.437H245.439H245.441H245.443H245.445H245.447H245.449H245.451H245.453H245.455H245.457H245.459H245.461H245.463H245.465H245.467H245.469H245.471H245.473H245.475H245.476H245.478H245.48H245.482H245.484H245.486H245.488H245.49H245.492H245.494H245.496H245.498H245.5H245.502H245.504H245.506H245.508H245.51H245.512H245.514H245.516H245.518H245.52H245.522H245.523H245.525H245.527H245.529H245.531H245.533H245.535H245.537H245.539H245.541H245.543H245.545H245.547H245.549H245.551H245.553H245.555H245.557H245.559H245.561H245.563H245.565H245.567H245.569H245.57H245.572H245.574H245.576H245.578H245.58H245.582H245.584H245.586H245.588H245.59H245.592H245.594H245.596H245.598H245.6H245.602H245.604H245.606H245.608H245.61H245.612H245.614H245.616H245.618H245.619H245.621H245.623H245.625H245.627H245.629H245.631H245.633H245.635H245.637H245.639H245.641H245.643H245.645H245.647H245.649H245.651H245.653H245.655H245.657H245.659H245.661H245.663H245.665H245.666H245.668H245.67H245.672H245.674H245.676H245.678H245.68H245.682H245.684H245.686H245.688H245.69H245.692H245.694H245.696H245.698H245.7H245.702H245.704H245.706H245.708H245.71H245.712H245.713H245.715H245.717H245.719H245.721H245.723H245.725H245.727H245.729H245.731H245.733H245.735H245.737H245.739H245.741H245.743H245.745H245.747H245.749H245.751H245.753H245.755H245.757H245.759H245.76H245.762H245.764H245.766H245.768H245.77H245.772H245.774H245.776H245.778H245.78H245.782H245.784H245.786H245.788H245.79H245.792H245.794H245.796H245.798H245.8H245.802H245.804H245.806H245.808H245.809H245.811H245.813H245.815H245.817H245.819H245.821H245.823H245.825H245.827H245.829H245.831H245.833H245.835H245.837H245.839H245.841H245.843H245.845H245.847H245.849H245.851H245.853H245.855H245.856H245.858H245.86H245.862H245.864H245.866H245.868H245.87H245.872H245.874H245.876H245.878H245.88H245.882H245.884H245.886H245.888H245.89H245.892H245.894H245.896H245.898H245.9H245.902H245.903H245.905H245.907H245.909H245.911H245.913H245.915H245.917H245.919H245.921H245.923H245.925H245.927H245.929H245.931H245.933H245.935H245.937H245.939H245.941H245.943H245.945H245.947H245.949H245.951H245.952H245.954H245.956H245.958H245.96H245.962H245.964H245.966H245.968H245.97H245.972H245.974H245.976H245.978H245.98H245.982H245.984H245.986H245.988H245.99H245.992H245.994H245.996H245.998H245.999H246.001H246.003H246.005H246.007H246.009H246.011H246.013H246.015H246.017H246.019H246.021H246.023H246.025H246.027H246.029H246.031H246.033H246.035H246.037H246.039H246.041H246.043H246.045H246.046H246.048H246.05H246.052H246.054H246.056H246.058H246.06H246.062H246.064H246.066H246.068H246.07H246.072H246.074H246.076H246.078H246.08H246.082H246.084H246.086H246.088H246.09H246.092H246.094H246.095H246.097H246.099H246.101H246.103H246.105H246.107H246.109H246.111H246.113H246.115H246.117H246.119H246.121H246.123H246.125H246.127H246.129H246.131H246.133H246.135H246.137H246.139H246.141H246.142H246.144H246.146H246.148H246.15H246.152H246.154H246.156H246.158H246.16H246.162H246.164H246.166H246.168H246.17H246.172H246.174H246.176H246.178H246.18H246.182H246.184H246.186H246.188H246.189H246.191H246.193H246.195H246.197H246.199H246.201H246.203H246.205H246.207H246.209H246.211H246.213H246.215H246.217H246.219H246.221H246.223H246.225H246.227H246.229H246.231H246.233H246.235H246.236H246.238H246.24H246.242H246.244H246.246H246.248H246.25H246.252H246.254H246.256H246.258H246.26H246.262H246.264H246.266H246.268H246.27H246.272H246.274H246.276H246.278H246.28H246.282H246.284H246.285H246.287H246.289H246.291H246.293H246.295H246.297H246.299H246.301H246.303H246.305H246.307H246.309H246.311H246.313H246.315H246.317H246.319H246.321H246.323H246.325H246.327H246.329H246.331H246.332H246.334H246.336H246.338H246.34H246.342H246.344H246.346H246.348H246.35H246.352H246.354H246.356H246.358H246.36H246.362H246.364H246.366H246.368H246.37H246.372H246.374H246.376H246.378H246.379C247.234 267.512 248.088 267.45 248.934 267.327M241.781 218.982L248.934 267.327M241.781 218.982L242.101 218.322L293.154 113.146C305.232 115.664 314.958 123.761 320.874 136.809M241.781 218.982L320.874 136.809M248.934 267.327C251.777 266.914 254.476 265.81 256.794 264.112C259.112 262.415 260.979 260.176 262.232 257.591L262.232 257.59L320.874 136.809M248.934 267.327L320.874 136.809" fill="#1E1E1E" stroke="#1E1E1E"/>
<path d="M334.467 77.825C334.149 77.642 333.814 77.4668 333.48 77.3076C329.726 75.4884 325.403 75.2327 321.46 76.5967C317.518 77.9606 314.277 80.8328 312.45 84.5831L247.273 218.836L243.564 214.856C242.493 213.687 241.247 212.69 239.87 211.903C237.928 210.789 229.666 206.005 228.328 205.233C225.069 203.347 221.241 202.693 217.54 203.388C213.839 204.084 210.511 206.084 208.159 209.025C205.806 211.965 204.587 215.652 204.721 219.415C204.855 223.179 206.334 226.769 208.89 229.535L237.936 260.993C239.025 262.174 240.29 263.181 241.685 263.978C243.58 265.052 251.81 269.828 253.164 270.608C255.035 271.692 257.11 272.379 259.259 272.625C261.408 272.871 263.585 272.671 265.653 272.039C267.721 271.406 269.637 270.354 271.28 268.948C272.924 267.541 274.26 265.812 275.205 263.866L352.313 105.04C354.047 101.461 354.363 97.3579 353.198 93.555C352.033 89.752 349.474 86.5301 346.033 84.5353L334.467 77.825Z" fill="#F39A4A"/>
<path opacity="0.15" d="M228.328 205.233C228.716 205.457 229.686 206.018 230.916 206.729C233.926 208.471 238.491 211.112 239.87 211.903C241.247 212.69 242.493 213.687 243.564 214.856L246.908 218.444L246.823 218.618L247.273 218.836L247.639 218.496L247.507 218.354L312.45 84.5831M228.328 205.233L241.933 263.543C241.933 263.543 241.932 263.543 241.932 263.543C240.581 262.772 239.358 261.797 238.304 260.654L238.304 260.653L209.257 229.195L209.257 229.195C206.783 226.518 205.351 223.041 205.221 219.397C205.091 215.754 206.272 212.184 208.549 209.337C210.827 206.49 214.049 204.553 217.633 203.88C221.216 203.206 224.922 203.84 228.078 205.666L228.078 205.666C228.465 205.889 229.431 206.448 230.656 207.156C233.666 208.898 238.241 211.545 239.622 212.337L239.622 212.337C240.954 213.099 242.159 214.062 243.195 215.194L243.198 215.197L246.907 219.177L247.405 219.711L247.723 219.055L312.899 84.8021L312.45 84.5831M228.328 205.233C225.069 203.347 221.241 202.693 217.54 203.388M228.328 205.233L217.54 203.388M312.45 84.5831C314.277 80.8328 317.518 77.9606 321.46 76.5967C325.403 75.2327 329.726 75.4884 333.48 77.3076L312.9 84.8015M312.45 84.5831L312.9 84.8015M312.9 84.8015C314.669 81.1705 317.807 78.3898 321.624 77.0692C325.441 75.7485 329.627 75.9961 333.262 77.7576L333.265 77.7591C333.588 77.9127 333.91 78.0816 334.217 78.2578L312.9 84.8015ZM351.863 104.822C353.542 101.356 353.848 97.3837 352.72 93.7014C351.592 90.0191 349.114 86.8994 345.782 84.9679L345.782 84.9678L334.218 78.2585L274.755 263.648M351.863 104.822L274.755 263.648M351.863 104.822L352.313 105.04M351.863 104.822L351.864 104.822L352.313 105.04M274.755 263.648L275.205 263.866M274.755 263.648L274.755 263.648L275.205 263.866M275.205 263.866L352.313 105.04M275.205 263.866C274.26 265.812 272.924 267.541 271.28 268.948C269.637 270.354 267.721 271.406 265.653 272.039C263.585 272.671 261.408 272.871 259.259 272.625C257.11 272.379 255.035 271.692 253.164 270.608L352.313 105.04M352.313 105.04C354.047 101.461 354.363 97.3579 353.198 93.555C352.033 89.752 349.474 86.5301 346.033 84.5353L352.313 105.04ZM217.54 203.388C213.839 204.084 210.511 206.084 208.159 209.025M217.54 203.388L208.159 209.025M208.159 209.025C205.806 211.965 204.587 215.652 204.721 219.415M208.159 209.025L204.721 219.415M204.721 219.415C204.855 223.179 206.334 226.769 208.89 229.535L204.721 219.415Z" fill="#1E1E1E" stroke="#1E1E1E"/>
<path opacity="0.15" d="M220.06 236.506L248.466 267.278C245.827 265.748 242.945 264.086 241.9 263.51C240.551 262.738 239.328 261.764 238.274 260.622L238.274 260.622L209.229 229.165C209.229 229.165 209.229 229.165 209.228 229.164C208.337 228.192 207.578 227.109 206.969 225.944L217.01 231.736C217.731 233.496 218.764 235.112 220.059 236.505C220.06 236.505 220.06 236.506 220.06 236.506Z" fill="#1E1E1E" stroke="#1E1E1E"/>
<path opacity="0.15" d="M312.9 84.8015L312.9 84.8007C313.707 83.1304 314.817 81.6248 316.17 80.3594L326.82 86.5097C325.481 87.8174 324.377 89.3482 323.558 91.0352C323.558 91.0352 323.558 91.0353 323.558 91.0353L256.839 228.466L247.872 218.748L312.9 84.8015Z" fill="#1E1E1E" stroke="#1E1E1E"/>
<path d="M345.037 83.9781C341.282 82.1632 336.961 81.9098 333.02 83.2733C329.078 84.6368 325.837 87.5063 324.007 91.2535L256.968 229.344L243.571 214.825C240.704 211.912 236.816 210.23 232.73 210.134C228.645 210.039 224.683 211.537 221.682 214.311C218.682 217.086 216.879 220.92 216.656 225C216.433 229.081 217.807 233.088 220.487 236.173L249.525 267.639C251.263 269.52 253.434 270.948 255.85 271.799C258.265 272.65 260.851 272.899 263.385 272.524C265.918 272.15 268.322 271.162 270.387 269.648C272.452 268.133 274.117 266.138 275.236 263.834L352.344 105.008C354.161 101.25 354.412 96.9244 353.042 92.9812C351.672 89.0381 348.793 85.7999 345.037 83.9781Z" fill="#F39A4A"/>
<path d="M125.158 99.4998C119.084 99.4998 114.929 101.092 110.615 107.221C106.635 112.857 95.7775 131.642 95.7775 131.642C95.7775 131.642 87.8175 115.308 87.0215 112.053C86.2255 108.797 86.2732 107.348 87.0215 105.931C88.117 104.257 88.8041 102.348 89.0274 100.359C89.3378 96.4432 90.293 93.092 89.4174 92.9806C86.9896 92.8452 86.8941 95.9656 85.6205 97.8043C85.4587 97.9818 85.2574 98.1187 85.0329 98.2039C84.8083 98.2891 84.5669 98.3201 84.3281 98.2945C84.0893 98.2689 83.8599 98.1874 83.6585 98.0566C83.4571 97.9258 83.2893 97.7494 83.1688 97.5416C82.6355 96.4511 82.9221 94.6601 82.6673 93.3706C82.7364 92.653 82.8507 91.9405 83.0096 91.2373C83.9291 91.4027 84.8682 91.4296 85.7956 91.3169C86.8463 92.9646 87.5627 93.6572 89.0274 92.9885C89.2184 92.686 88.3985 90.6005 87.4354 89.0085C87.2908 88.765 87.0564 88.5878 86.7827 88.515C85.0168 88.0678 83.1739 88.0162 81.3858 88.3638C81.2506 88.3776 81.1196 88.4186 81.0006 88.4843C80.8816 88.5499 80.7771 88.6389 80.6933 88.7458C80.0212 89.7304 79.4857 90.8015 79.1013 91.9298C78.9978 92.2721 78.6794 92.2642 78.5998 91.9696C77.8038 88.125 77.8038 82.6644 77.8038 80.1092C77.8038 78.0954 74.8665 77.777 74.7631 80.6585C74.5885 84.5248 74.655 88.3982 74.9621 92.2562C74.9621 92.6064 74.6118 92.7736 74.4685 92.3915C73.9591 91.0304 72.7094 86.915 72.184 79.8147C72.0407 77.9043 68.9523 77.5939 69 80.2764C69.121 85.0324 69.74 89.7625 70.8467 94.3895C70.9423 94.7238 70.6318 95.0183 70.401 94.6362C68.9519 91.8439 67.7943 88.9098 66.9463 85.8802C66.2857 83.5718 63.2051 84.1609 63.7623 87.0344C64.7255 92.1846 66.2538 98.6958 68.5383 103.352C70.9741 108.327 73.0755 110.819 74.2855 114.727C75.4954 118.636 80.5022 140.772 85.8593 149.401C90.0542 156.167 94.8541 155.538 100.02 151.972C105.186 148.406 123.645 122.687 123.645 122.687L125.158 99.4998Z" fill="#9E6767"/>
<path d="M95.7812 131.635C95.7812 131.635 98.3682 136.02 98.7663 139.531C99.4238 136.122 98.7699 132.591 96.9354 129.645L95.7812 131.635Z" fill="#874C4C"/>
<path d="M98.7296 126.788C98.6991 126.687 98.6745 126.601 98.6554 126.532L98.8553 126.208L99.697 124.844C100.403 123.701 101.365 122.143 102.392 120.482C104.447 117.159 106.76 113.428 107.797 111.787C108.232 111.1 108.636 110.403 109.04 109.707C110.617 106.99 112.188 104.285 115.498 102.2C119.444 99.7129 122.997 99.6805 125.958 99.9544L126.412 118.342L111.019 139.225C106.134 138.061 103.046 134.91 101.164 131.994C100.203 130.505 99.5609 129.085 99.1595 128.037C98.9589 127.513 98.819 127.084 98.7296 126.788Z" fill="#1E1E1E" stroke="#1E1E1E"/>
<path d="M136.012 308.65L136.009 308.659L136.005 308.668C135.126 311.064 134.326 312.627 131.846 315.799L131.846 315.8C129.108 319.312 122.749 325.1 113.104 322.581C110.74 321.961 109.616 321.233 108.81 320.427C108.489 320.102 108.264 319.693 108.163 319.247C108.072 318.85 108.082 318.437 108.191 318.046L140.607 294.455C140.647 294.488 140.695 294.537 140.752 294.605C140.925 294.813 141.112 295.127 141.286 295.497C141.458 295.863 141.608 296.258 141.715 296.613C141.826 296.978 141.879 297.26 141.881 297.41C141.887 297.729 141.714 298.335 141.348 299.142C140.995 299.92 140.495 300.814 139.925 301.685C138.34 303.837 137.026 306.177 136.012 308.65Z" fill="#1E1E1E" stroke="#1E1E1E"/>
<path d="M121.496 290.928L121.491 290.966C121.386 291.65 121.406 292.347 121.549 293.023L121.554 293.044L121.556 293.065C121.838 295.327 121.638 297.623 120.968 299.802C120.298 301.981 119.174 303.994 117.671 305.707L117.664 305.715L117.656 305.723C116.244 307.198 114.649 308.487 112.911 309.559C110.42 311.135 109.123 312.414 108.509 313.637C107.915 314.822 107.927 316.029 108.26 317.58C108.624 318.35 109.516 319.117 110.855 319.744C112.203 320.375 113.934 320.829 115.827 320.996C119.621 321.333 123.964 320.514 127.111 317.813L127.12 317.806L127.13 317.798C129.886 315.658 131.994 312.793 133.216 309.525L133.22 309.516L133.22 309.516C134.179 307.093 135.294 304.735 136.557 302.456C136.883 301.84 137.28 301.21 137.684 300.584C137.769 300.453 137.854 300.322 137.939 300.191C138.263 299.691 138.586 299.195 138.886 298.695C139.65 297.422 140.206 296.232 140.237 295.142L140.237 295.142C140.254 294.594 139.979 293.723 139.488 292.667C139.009 291.637 138.362 290.51 137.719 289.484L121.496 290.928ZM121.496 290.928V290.89M121.496 290.928V290.89M121.496 290.89V290.879C121.586 290.612 121.751 290.377 121.972 290.201C122.195 290.046 122.467 289.976 122.738 290.003L122.791 290.008L122.844 290.002C123.962 289.875 125.086 289.807 126.211 289.798C126.34 289.803 126.474 289.805 126.612 289.808C126.971 289.814 127.357 289.821 127.742 289.87C128.273 289.937 128.638 290.069 128.825 290.261C129 290.53 129.081 290.849 129.055 291.168L129.053 291.196L129.054 291.224L129.125 293.524C129.118 293.759 129.161 293.993 129.251 294.211L129.258 294.226L129.265 294.242C129.351 294.414 129.49 294.554 129.661 294.641C129.833 294.728 130.027 294.758 130.217 294.727L130.285 294.715L130.347 294.686C130.487 294.62 130.61 294.524 130.708 294.405C130.798 294.295 130.865 294.169 130.904 294.033C131.146 293.413 131.292 292.735 131.428 292.102C131.467 291.922 131.505 291.746 131.544 291.576C131.73 290.77 131.947 290.058 132.371 289.471L132.371 289.471L132.374 289.467C132.704 288.999 133.15 288.679 133.679 288.34C133.745 288.298 133.813 288.255 133.882 288.211C134.344 287.919 134.866 287.59 135.302 287.138L135.501 286.932M121.496 290.89L135.501 286.932M135.501 286.932L135.424 286.655M135.501 286.932L135.424 286.655M135.424 286.655L135.361 286.434M135.424 286.655L135.361 286.434M135.361 286.434C135.548 286.569 135.752 286.761 135.973 287.009C136.533 287.637 137.12 288.53 137.719 289.484L135.361 286.434Z" fill="#1E1E1E" stroke="#1E1E1E"/>
<path d="M104.139 244.523C106.79 253.239 119.184 283.416 119.924 285.23L122.392 291.216C124.017 291.751 125.758 291.825 127.422 291.431C127.685 294.321 128.123 298.85 128.29 301.135C128.354 303.785 128.584 307.065 128.011 309.684C127.526 311.912 126.961 314.253 126.539 316.489C126.356 317.476 126.173 318.471 126.021 319.466C125.765 320.509 125.851 321.606 126.268 322.595C126.522 323.026 126.857 323.405 127.255 323.709C129.023 325.098 131.258 325.753 133.496 325.54C134.679 325.483 135.824 325.103 136.807 324.441C138.733 323.064 139.41 320.668 140.389 318.631C141.456 316.426 141.113 316.179 141.185 313.815C141.249 312.159 141.71 307.956 142.371 303.562C143.032 299.168 145.882 283.726 147.251 268.339C147.809 261.505 147.809 254.637 147.251 247.803C158.124 218.263 162.964 200.695 164.389 190.889C165.829 180.923 165.137 177.357 164.954 171.633L112.075 172.907C107.841 200.242 100.581 232.838 104.139 244.523Z" fill="#9E6767"/>
<path d="M103.305 222.713C104.395 212.667 111.909 174.053 111.909 174.053H165.178C165.178 174.053 165.52 181.464 165.425 184.871C165.329 188.278 164.231 194.494 162.328 202.383C160.426 210.271 153.373 232.535 151.98 235.815C150.587 239.094 148 248.607 148 248.607C149.306 266.469 145.907 282.5 143.359 303.809C143.359 303.809 142.619 306.683 135.073 306.118C127.734 305.56 126.253 302.854 126.253 302.854L125.768 284.474C125.768 284.474 121.788 285.7 119.4 285.143C119.4 285.143 103.631 246.211 102.867 243.87C102.103 241.53 102.214 232.758 103.305 222.713Z" fill="#F39A4A"/>
<path opacity="0.45" d="M147.518 248.475L147.495 248.558L147.501 248.643C148.488 262.137 146.78 274.565 144.784 289.097C144.149 293.717 143.485 298.55 142.869 303.698C142.866 303.705 142.862 303.715 142.857 303.726C142.835 303.775 142.793 303.856 142.72 303.958C142.575 304.159 142.3 304.453 141.797 304.742C140.787 305.322 138.827 305.897 135.111 305.619C131.499 305.345 129.371 304.545 128.162 303.844C127.557 303.494 127.18 303.167 126.959 302.938C126.86 302.836 126.792 302.753 126.749 302.696L126.268 284.461L126.25 283.803L125.621 283.996L125.621 283.996L125.62 283.997L125.619 283.997L125.611 283.999L125.58 284.009C125.568 284.012 125.552 284.017 125.534 284.022C125.512 284.029 125.485 284.036 125.455 284.045C125.345 284.077 125.184 284.121 124.983 284.173C124.581 284.277 124.021 284.41 123.389 284.526C122.199 284.744 120.822 284.887 119.762 284.706L119.686 284.518L119.184 283.278C118.752 282.209 118.133 280.679 117.388 278.836C115.897 275.149 113.902 270.21 111.884 265.197C107.839 255.155 103.717 244.864 103.342 243.715C103.173 243.196 103.038 242.264 102.959 240.959C102.88 239.668 102.856 238.053 102.89 236.19C102.959 232.466 103.258 227.777 103.802 222.767C104.345 217.767 106.491 205.624 108.508 194.707C109.515 189.253 110.488 184.114 111.209 180.337C111.57 178.449 111.868 176.902 112.075 175.827C112.179 175.289 112.26 174.87 112.316 174.584L112.322 174.553H164.699C164.708 174.747 164.718 174.994 164.73 175.285C164.761 176.032 164.8 177.063 164.837 178.201C164.911 180.48 164.972 183.171 164.925 184.857C164.831 188.206 163.744 194.378 161.842 202.266C160.895 206.192 158.661 213.715 156.486 220.678C154.307 227.651 152.204 234.008 151.52 235.619C150.81 237.291 149.807 240.518 148.988 243.299C148.577 244.696 148.209 245.99 147.945 246.934C147.812 247.406 147.706 247.791 147.632 248.059C147.595 248.192 147.567 248.296 147.547 248.367L147.525 248.448L147.52 248.468L147.518 248.474L147.518 248.475L147.518 248.475C147.518 248.475 147.518 248.475 148 248.607L147.518 248.475ZM142.877 303.677L142.877 303.677L142.878 303.673C142.879 303.672 142.878 303.674 142.877 303.677Z" fill="#1E1E1E" stroke="#1E1E1E"/>
<path opacity="0.2" d="M125.905 199.223L126.4 199.294L126.438 199.03L126.24 198.851C122.503 195.485 120.227 192.469 118.888 190.305C118.752 190.086 118.626 189.876 118.51 189.675C121.753 192.895 125.417 195.668 129.407 197.916L129.393 197.989C129.341 198.268 129.264 198.679 129.167 199.204C128.972 200.254 128.694 201.763 128.362 203.598C127.698 207.267 126.819 212.241 125.955 217.458C125.092 222.675 124.245 228.139 123.646 232.787C123.05 237.416 122.692 241.289 122.827 243.291C123.09 247.177 123.701 257.478 124.246 266.812C124.367 268.89 124.486 270.92 124.596 272.82C124.312 270.805 124.01 268.657 123.707 266.486C122.416 257.234 121.115 247.641 121.04 246.242C120.956 244.404 121.244 240.564 121.732 235.793C122.218 231.036 122.899 225.396 123.59 219.987C124.282 214.579 124.985 209.406 125.514 205.584C125.779 203.673 126 202.101 126.156 201.006C126.233 200.459 126.295 200.031 126.336 199.739L126.384 199.408L126.396 199.323L126.399 199.301L126.4 199.296L126.4 199.295C126.4 199.294 126.4 199.294 125.905 199.223Z" fill="#1E1E1E" stroke="#1E1E1E"/>
<path d="M139.118 329.12L139.109 329.125L139.101 329.131C136.972 330.581 135.195 332.49 133.902 334.718C131.901 337.776 129.256 340.359 126.152 342.288C122.041 344.617 117.198 345.296 112.605 344.184C110.119 343.479 108.865 342.846 108.227 342.222C107.708 341.714 107.568 341.183 107.556 340.451L142.403 323.344C142.41 323.36 142.417 323.378 142.424 323.398C142.49 323.581 142.533 323.848 142.545 324.164C142.57 324.785 142.472 325.448 142.345 325.785C141.559 327.144 140.451 328.289 139.118 329.12Z" fill="#1E1E1E" stroke="#1E1E1E"/>
<mask id="path-33-inside-1_385_75689" fill="white">
<path d="M127.044 311.172C125.731 317.54 123.446 322.221 118.153 326.153C113.934 329.289 110.878 330.881 107.511 333.675C106.086 334.869 105.966 337.408 107.057 340.147C109.333 341.97 112.565 343.02 116.903 343.012C121.759 343.012 123.622 342.145 126.408 340.242C127.776 339.307 129.05 338.24 130.212 337.058C132.545 334.718 134.192 331.828 135.848 329.974C137.504 328.119 141.173 326.225 142.216 323.988C142.789 322.762 142.55 319.92 142.168 317.5C141.818 315.28 142.495 311.379 141.428 311.132L141.277 312.724C141.189 313.083 140.966 313.266 140.218 313.52C139.546 313.666 138.852 313.685 138.172 313.576C137.931 313.489 137.668 313.479 137.421 313.549C137.174 313.619 136.955 313.765 136.795 313.966C136.079 314.81 135.888 316.004 134.965 316.704C134.905 316.757 134.834 316.795 134.758 316.816C134.722 316.836 134.682 316.846 134.641 316.844C134.6 316.843 134.561 316.83 134.527 316.808C134.502 316.769 134.486 316.726 134.479 316.681C134.472 316.636 134.475 316.589 134.487 316.545L134.75 314.157C134.781 313.92 134.781 313.679 134.75 313.441C134.7 313.219 134.603 313.011 134.465 312.829C134.328 312.648 134.154 312.498 133.954 312.39C133.283 312 132.563 311.703 131.812 311.507C131.031 311.294 130.232 311.159 129.424 311.101C128.632 310.999 127.829 311.023 127.044 311.172Z"/>
</mask>
<path d="M127.044 311.172C125.731 317.54 123.446 322.221 118.153 326.153C113.934 329.289 110.878 330.881 107.511 333.675C106.086 334.869 105.966 337.408 107.057 340.147C109.333 341.97 112.565 343.02 116.903 343.012C121.759 343.012 123.622 342.145 126.408 340.242C127.776 339.307 129.05 338.24 130.212 337.058C132.545 334.718 134.192 331.828 135.848 329.974C137.504 328.119 141.173 326.225 142.216 323.988C142.789 322.762 142.55 319.92 142.168 317.5C141.818 315.28 142.495 311.379 141.428 311.132L141.277 312.724C141.189 313.083 140.966 313.266 140.218 313.52C139.546 313.666 138.852 313.685 138.172 313.576C137.931 313.489 137.668 313.479 137.421 313.549C137.174 313.619 136.955 313.765 136.795 313.966C136.079 314.81 135.888 316.004 134.965 316.704C134.905 316.757 134.834 316.795 134.758 316.816C134.722 316.836 134.682 316.846 134.641 316.844C134.6 316.843 134.561 316.83 134.527 316.808C134.502 316.769 134.486 316.726 134.479 316.681C134.472 316.636 134.475 316.589 134.487 316.545L134.75 314.157C134.781 313.92 134.781 313.679 134.75 313.441C134.7 313.219 134.603 313.011 134.465 312.829C134.328 312.648 134.154 312.498 133.954 312.39C133.283 312 132.563 311.703 131.812 311.507C131.031 311.294 130.232 311.159 129.424 311.101C128.632 310.999 127.829 311.023 127.044 311.172Z" fill="#1E1E1E"/>
<path d="M127.044 311.172L126.858 310.19L126.2 310.315L126.065 310.97L127.044 311.172ZM118.153 326.153L117.557 325.35L117.556 325.35L118.153 326.153ZM107.511 333.675L106.872 332.906L106.868 332.909L107.511 333.675ZM107.057 340.147L106.128 340.517L106.226 340.762L106.432 340.927L107.057 340.147ZM116.903 343.012V342.012L116.901 342.012L116.903 343.012ZM126.408 340.242L126.971 341.068L126.972 341.068L126.408 340.242ZM130.212 337.058L129.504 336.352L129.499 336.357L130.212 337.058ZM142.216 323.988L141.31 323.564L141.31 323.565L142.216 323.988ZM142.168 317.5L141.181 317.656L141.181 317.656L142.168 317.5ZM141.428 311.132L141.653 310.158L140.541 309.901L140.433 311.038L141.428 311.132ZM141.277 312.724L142.248 312.962L142.265 312.891L142.272 312.819L141.277 312.724ZM140.218 313.52L140.43 314.498L140.486 314.486L140.54 314.467L140.218 313.52ZM138.172 313.576L137.832 314.516L137.921 314.549L138.014 314.564L138.172 313.576ZM136.795 313.966L137.558 314.613L137.568 314.601L137.578 314.588L136.795 313.966ZM134.965 316.704L134.36 315.908L134.332 315.929L134.305 315.952L134.965 316.704ZM134.758 316.816L134.492 315.852L134.375 315.884L134.269 315.943L134.758 316.816ZM134.527 316.808L133.685 317.347L133.8 317.528L133.979 317.645L134.527 316.808ZM134.487 316.545L135.451 316.811L135.472 316.734L135.481 316.655L134.487 316.545ZM134.75 314.157L133.758 314.025L133.757 314.036L133.756 314.048L134.75 314.157ZM134.75 313.441L135.741 313.309L135.735 313.265L135.725 313.221L134.75 313.441ZM133.954 312.39L133.451 313.254L133.464 313.262L133.478 313.27L133.954 312.39ZM131.812 311.507L131.55 312.472L131.56 312.474L131.812 311.507ZM129.424 311.101L129.297 312.093L129.325 312.096L129.353 312.098L129.424 311.101ZM126.065 310.97C124.786 317.173 122.599 321.605 117.557 325.35L118.749 326.956C124.294 322.837 126.676 317.907 128.024 311.374L126.065 310.97ZM117.556 325.35C115.473 326.899 113.68 328.065 111.958 329.21C110.241 330.352 108.598 331.473 106.872 332.906L108.149 334.445C109.79 333.083 111.359 332.011 113.066 330.875C114.77 329.742 116.614 328.543 118.75 326.956L117.556 325.35ZM106.868 332.909C105.885 333.733 105.426 334.961 105.342 336.268C105.259 337.577 105.542 339.046 106.128 340.517L107.986 339.777C107.481 338.509 107.278 337.339 107.338 336.395C107.398 335.45 107.712 334.811 108.153 334.442L106.868 332.909ZM106.432 340.927C108.933 342.93 112.408 344.021 116.905 344.012L116.901 342.012C112.722 342.02 109.733 341.009 107.682 339.366L106.432 340.927ZM116.903 344.012C119.387 344.012 121.18 343.791 122.736 343.293C124.296 342.794 125.554 342.036 126.971 341.068L125.844 339.416C124.475 340.351 123.408 340.978 122.127 341.388C120.842 341.8 119.276 342.012 116.903 342.012V344.012ZM126.972 341.068C128.394 340.096 129.718 338.988 130.926 337.759L129.499 336.357C128.383 337.493 127.158 338.518 125.843 339.417L126.972 341.068ZM130.921 337.764C132.144 336.536 133.177 335.177 134.092 333.924C135.026 332.645 135.809 331.519 136.594 330.64L135.102 329.308C134.232 330.283 133.363 331.53 132.476 332.744C131.57 333.985 130.613 335.24 129.504 336.352L130.921 337.764ZM136.594 330.64C137.344 329.8 138.548 328.956 139.879 327.911C141.112 326.943 142.486 325.776 143.122 324.41L141.31 323.565C140.904 324.436 139.922 325.335 138.644 326.338C137.466 327.263 136.008 328.293 135.102 329.308L136.594 330.64ZM143.122 324.411C143.519 323.563 143.586 322.33 143.55 321.161C143.512 319.937 143.351 318.577 143.156 317.345L141.181 317.656C141.368 318.844 141.517 320.114 141.551 321.223C141.587 322.386 141.487 323.187 141.31 323.564L143.122 324.411ZM143.156 317.345C142.997 316.333 143.075 314.961 143.067 313.57C143.063 312.927 143.038 312.256 142.923 311.712C142.865 311.441 142.772 311.131 142.599 310.855C142.417 310.563 142.113 310.265 141.653 310.158L141.203 312.107C141.01 312.062 140.918 311.939 140.904 311.916C140.9 311.91 140.932 311.963 140.966 312.126C141.035 312.452 141.063 312.942 141.067 313.582C141.074 314.759 140.99 316.447 141.181 317.656L143.156 317.345ZM140.433 311.038L140.281 312.63L142.272 312.819L142.424 311.227L140.433 311.038ZM140.305 312.487C140.302 312.499 140.308 312.472 140.333 312.432C140.345 312.414 140.357 312.397 140.369 312.385C140.381 312.372 140.388 312.367 140.388 312.367C140.385 312.369 140.355 312.391 140.269 312.43C140.185 312.469 140.066 312.516 139.896 312.574L140.54 314.467C140.927 314.335 141.304 314.184 141.602 313.956C141.964 313.679 142.157 313.337 142.248 312.962L140.305 312.487ZM140.006 312.543C139.455 312.663 138.887 312.678 138.331 312.589L138.014 314.564C138.816 314.692 139.636 314.67 140.43 314.498L140.006 312.543ZM138.513 312.636C138.074 312.477 137.597 312.46 137.149 312.587L137.694 314.512C137.739 314.499 137.788 314.5 137.832 314.516L138.513 312.636ZM137.149 312.587C136.7 312.714 136.302 312.979 136.012 313.344L137.578 314.588C137.608 314.551 137.648 314.524 137.694 314.512L137.149 312.587ZM136.033 313.319C135.579 313.854 135.284 314.513 135.068 314.932C134.825 315.405 134.631 315.703 134.36 315.908L135.569 317.501C136.222 317.006 136.585 316.356 136.847 315.846C137.137 315.282 137.296 314.922 137.558 314.613L136.033 313.319ZM134.305 315.952C134.359 315.905 134.423 315.871 134.492 315.852L135.023 317.78C135.245 317.719 135.45 317.608 135.624 317.457L134.305 315.952ZM134.269 315.943C134.393 315.874 134.534 315.84 134.676 315.845L134.607 317.844C134.83 317.851 135.051 317.798 135.246 317.689L134.269 315.943ZM134.676 315.845C134.817 315.85 134.955 315.893 135.074 315.971L133.979 317.645C134.166 317.767 134.383 317.836 134.607 317.844L134.676 315.845ZM135.369 316.269C135.42 316.348 135.453 316.438 135.468 316.531L133.49 316.831C133.518 317.015 133.584 317.191 133.685 317.347L135.369 316.269ZM135.468 316.531C135.482 316.624 135.476 316.72 135.451 316.811L133.523 316.28C133.473 316.459 133.462 316.647 133.49 316.831L135.468 316.531ZM135.481 316.655L135.744 314.267L133.756 314.048L133.493 316.436L135.481 316.655ZM135.741 314.29C135.784 313.964 135.784 313.634 135.741 313.309L133.758 313.573C133.778 313.723 133.778 313.875 133.758 314.025L135.741 314.29ZM135.725 313.221C135.644 312.86 135.486 312.52 135.263 312.225L133.668 313.433C133.719 313.501 133.755 313.578 133.774 313.661L135.725 313.221ZM135.263 312.225C135.039 311.93 134.755 311.687 134.429 311.51L133.478 313.27C133.552 313.31 133.617 313.366 133.668 313.433L135.263 312.225ZM134.457 311.526C133.708 311.09 132.903 310.758 132.065 310.539L131.56 312.474C132.222 312.647 132.859 312.91 133.451 313.254L134.457 311.526ZM132.074 310.542C131.231 310.313 130.368 310.166 129.496 310.103L129.353 312.098C130.096 312.151 130.832 312.276 131.55 312.472L132.074 310.542ZM129.552 310.109C128.655 309.994 127.746 310.021 126.858 310.19L127.231 312.155C127.912 312.025 128.609 312.004 129.297 312.093L129.552 310.109Z" fill="#1E1E1E" mask="url(#path-33-inside-1_385_75689)"/>
<path d="M160.373 101.784C160.373 101.784 162.562 104.793 164.353 110.994C166.533 121.178 167.654 131.56 167.697 141.974C167.697 156.04 165.802 178.829 165.802 178.829C149.476 187.012 123.144 182.172 111.555 174.189C112.024 171.657 112.422 158.348 113.338 149.568C113.951 134.508 114.46 126.62 114.564 119.917C114.778 106.529 121.441 99.6113 126.504 99.5078L139.287 99.7068L160.373 101.784Z" fill="#F39A4A"/>
<path d="M164.398 174.698C161.97 176.696 157.234 180.533 156.335 182.467C155.332 184.68 154.743 188.039 154.066 189.297C153.389 190.554 154.408 191.191 155.809 190.737C157.21 190.284 158.046 189.098 159.128 186.2C160.211 183.303 163.22 181.034 163.22 181.034L164.398 174.698Z" fill="#874C4C"/>
<path d="M155.537 200.751C156.118 201.873 157.471 201.881 158.721 201.977C160.244 202.152 161.788 201.977 163.234 201.468C164.972 200.965 166.497 199.905 167.572 198.451C168.798 196.684 169.116 194.471 169.817 192.441C171.282 188.182 175.644 185.11 176.36 180.596C176.655 178.734 176.655 176.537 177.156 175.383C177.466 174.698 184.638 162.352 187.202 157.003C189.653 151.861 191.492 149.441 189.263 143.264C187.034 137.087 179.448 115.348 174.075 107.794C171.035 103.512 166.203 102.286 160.344 101.784C155.887 113.39 161.069 125.386 161.069 125.386L172.897 148.136C172.897 148.136 168.312 163.801 165.447 172.509C164.651 174.897 163.059 176.425 161.236 179.108C160.44 180.27 158.641 182.292 158.004 183.558C157.208 185.15 157.208 186.2 156.81 188.453C156.189 192.043 155.226 200.218 155.537 200.751Z" fill="#9E6767"/>
<path d="M184.241 130.384C184.305 130.551 184.354 130.68 184.387 130.768C184.374 130.823 184.357 130.896 184.333 130.984C184.27 131.215 184.163 131.554 183.992 131.97C183.65 132.803 183.05 133.946 182.021 135.163C180.003 137.548 176.305 140.255 169.565 141.43L160.2 124.158C160.193 124.139 160.182 124.109 160.168 124.071C160.139 123.991 160.096 123.871 160.044 123.714C159.938 123.399 159.791 122.933 159.628 122.337C159.3 121.144 158.906 119.431 158.643 117.357C158.128 113.289 158.12 107.852 160.091 102.236C161.54 102.305 163.244 102.463 164.898 102.748C166.701 103.058 168.412 103.513 169.668 104.149C170.947 104.796 172.011 105.506 173.128 106.788C174.257 108.082 175.455 109.974 176.968 113.008C178.478 116.037 180.344 120.506 181.837 124.229C182.582 126.088 183.232 127.757 183.697 128.961C183.929 129.563 184.114 130.049 184.241 130.384Z" fill="#1E1E1E" stroke="#1E1E1E"/>
<path d="M119.234 49.4633L119.453 49.7929L119.5 49.8646L119.671 49.4633M119.234 49.4633C119.303 49.4342 119.377 49.4192 119.453 49.4192C119.528 49.4192 119.602 49.4342 119.671 49.4633M119.234 49.4633L119.38 49.812L119.003 49.8375C119.012 49.7621 119.037 49.6897 119.077 49.6251C119.117 49.5605 119.17 49.5053 119.234 49.4633ZM119.671 49.4633C120.469 49.8037 121.285 50.0987 122.115 50.3469L119.502 49.8671L119.671 49.4633ZM119.265 55.2742C118.893 55.1018 118.534 54.9022 118.191 54.6772C117.607 54.2855 117.095 53.7953 116.678 53.2284L119.265 55.2742ZM119.265 55.2742C119.363 55.3193 119.463 55.3601 119.564 55.3964M119.265 55.2742L119.564 55.3964M119.564 55.3964C119.67 55.5614 119.783 55.7225 119.902 55.8793L120.3 55.5766L120.368 55.0812C120.206 55.0592 120.047 55.0247 119.892 54.978L119.564 55.3964ZM123.452 73.0297L123.429 72.9879L123.398 72.9513C122.714 72.131 121.937 71.3917 121.085 70.7477C120.755 70.4382 120.398 70.1463 120.053 69.8653C120.008 69.8281 119.962 69.7912 119.917 69.7544C119.518 69.4281 119.14 69.1112 118.803 68.7669L118.803 68.7668C118.263 68.2155 117.819 67.5781 117.489 66.8807L117.488 66.8786C117.12 66.1114 116.951 65.2639 116.996 64.4143C117.042 63.5647 117.301 62.7402 117.748 62.0167L117.941 61.7048L117.702 61.427C116.746 60.3194 116.073 58.9968 115.741 57.5723L115.74 57.57C115.577 56.8883 115.558 56.1803 115.683 55.4907C115.799 54.8454 116.04 54.2294 116.391 53.6764C116.819 54.2258 117.333 54.7039 117.912 55.0924L117.912 55.0925L117.917 55.0952C118.28 55.3337 118.661 55.5452 119.055 55.7279L119.056 55.728C119.429 55.9005 119.825 56.0164 120.233 56.072L121.429 56.2354L120.698 55.274C120.127 54.5229 119.724 53.658 119.516 52.7377C119.308 51.8174 119.3 50.8631 119.492 49.9394L119.494 49.9312C120.303 50.2756 121.13 50.5743 121.972 50.826L122.003 50.8353L122.036 50.8405C122.737 50.9537 123.45 50.9878 124.159 50.942C125.75 50.9026 127.335 50.7376 128.9 50.4485L128.9 50.4486L128.908 50.4471C131.643 49.898 134.42 49.5791 137.208 49.4937C140.044 49.4788 142.872 49.7924 145.636 50.4282L145.646 50.4304L145.655 50.4321C147.702 50.8216 149.648 51.6242 151.375 52.791L151.382 52.7957L151.389 52.8001C152.239 53.334 152.958 54.0517 153.494 54.9005C154.03 55.7485 154.368 56.7058 154.485 57.702C154.559 58.3895 154.495 59.0849 154.296 59.7472L154.185 60.1158L154.514 60.3171C155.511 60.9291 156.298 61.831 156.769 62.9022L156.772 62.9091L156.775 62.9159C157.838 65.1454 157.856 67.7066 157.353 70.3062C156.85 72.9051 155.837 75.4889 154.895 77.7349L154.895 77.7349L154.892 77.7426L154.89 77.7463C154.88 77.7698 154.823 77.9063 154.725 78.1416C154.617 78.3971 154.464 78.7619 154.277 79.2042C153.905 80.0888 153.399 81.2831 152.866 82.5319C151.796 85.0399 150.626 87.7385 150.182 88.6155L150.181 88.6179C149.908 89.1628 149.653 89.6843 149.423 90.1577L149.639 86.1139L149.664 85.6326L149.184 85.5893L142.92 85.0242L142.919 85.0241C142.48 84.9851 142.03 84.9327 141.569 84.879L141.568 84.8789C141.109 84.8254 140.638 84.7706 140.168 84.7286C139.23 84.6448 138.268 84.6091 137.344 84.7406C135.807 84.9592 134.323 84.2085 132.908 83.3021L132.907 83.3015C132.714 83.1788 132.521 83.0562 132.327 82.9333C130.137 81.5438 127.901 80.1256 126.273 78.2537C125.587 77.3873 125.011 76.4387 124.56 75.4299C124.249 74.604 123.879 73.8019 123.452 73.0297ZM117.037 67.0947C117.391 67.8423 117.867 68.5256 118.446 69.1166L115.19 55.4017C115.053 56.1593 115.075 56.9371 115.254 57.686C115.605 59.1892 116.315 60.5849 117.323 61.7536C116.831 62.5484 116.547 63.4542 116.497 64.3875C116.447 65.3209 116.633 66.2519 117.037 67.0947ZM119.493 49.8816L119.453 49.8567L119.493 49.8816Z" fill="#1E1E1E" stroke="#1E1E1E"/>
<path d="M142.094 62.3027C142.071 63.4914 142.224 64.6771 142.548 65.821C142.926 66.8259 143.534 67.7283 144.323 68.4558C145.216 69.2134 146.042 70.047 146.791 70.9473C147.599 72.3486 148.073 73.9177 148.176 75.5322C148.18 76.0078 148.291 76.4763 148.501 76.9033C148.71 77.3303 149.012 77.705 149.386 77.9998C151.089 79.0585 152.108 77.0128 153.015 76.0098C154.185 74.9273 157.664 73.6218 159.272 77.2993C160.935 81.1201 157.863 86.1827 155.069 86.9628C150.253 88.308 149.202 85.0285 149.202 85.0285L148.279 102.222C145.565 107.372 139.181 109.012 134.986 108.192C131.364 107.484 129.374 104.944 132.781 101.267L132.964 96.0292C132.964 96.0292 128.618 96.5466 126.524 96.1486C123.03 95.4959 121.303 92.5268 120.355 88.6981C118.851 82.545 118.158 76.0735 120.029 62.2152C120.881 61.7455 124.327 64.428 129.581 64.7862C133.899 65.0906 138.22 64.2331 142.094 62.3027Z" fill="#9E6767"/>
<path d="M132.931 96.0135C132.931 96.0135 140.811 94.6921 143.597 93.323C145.232 92.5356 146.592 91.2733 147.498 89.7012C147.033 91.2889 146.253 92.7668 145.205 94.0473C143.12 96.5388 132.859 98.099 132.859 98.099L132.931 96.0135Z" fill="#874C4C"/>
<path d="M140.095 68.3188C140.197 68.5076 140.256 68.714 140.271 68.9239L137.714 68.1418C137.727 68.1226 137.741 68.1037 137.755 68.0851C137.867 67.938 138.008 67.8149 138.169 67.7234C138.33 67.6318 138.507 67.5735 138.691 67.552C138.873 67.5308 139.057 67.5459 139.232 67.5965C139.602 67.7175 139.911 67.9761 140.095 68.3188Z" fill="#1E1E1E" stroke="#1E1E1E"/>
<path d="M135.764 85.8406L130.359 87.6714C130.465 88.0326 130.641 88.3691 130.879 88.6607C131.117 88.9524 131.411 89.1933 131.743 89.3693C132.076 89.5452 132.44 89.6526 132.815 89.685C133.19 89.7174 133.568 89.6742 133.925 89.5579C134.653 89.2957 135.25 88.7623 135.593 88.0693C135.936 87.3764 135.997 86.5777 135.764 85.8406Z" fill="#874C4C"/>
<path d="M135.323 87.1619C134.617 87.1624 133.932 87.3972 133.374 87.8294C132.817 88.2616 132.419 88.8668 132.242 89.5499C132.788 89.7291 133.376 89.7291 133.922 89.5499C134.425 89.3718 134.871 89.0598 135.21 88.6474C135.55 88.2351 135.77 87.738 135.848 87.2096C135.675 87.178 135.499 87.162 135.323 87.1619Z" fill="#F28F8F"/>
<path d="M122.377 67.4553L122.377 67.4553L122.383 67.4544C122.558 67.4292 122.736 67.4394 122.907 67.4842C123.078 67.529 123.238 67.6076 123.378 67.7152L123.668 67.3376L123.378 67.7152C123.518 67.8229 123.635 67.9575 123.722 68.1112C123.726 68.1179 123.73 68.1247 123.733 68.1316L121.198 68.4613C121.25 68.2859 121.335 68.1206 121.452 67.9753C121.681 67.6889 122.013 67.5025 122.377 67.4553Z" fill="#1E1E1E" stroke="#1E1E1E"/>
<path d="M144.143 72.9642L144.114 71.3317L154.035 74.7115C153.924 74.7583 153.814 74.8091 153.705 74.864C153.135 75.1531 152.626 75.5483 152.206 76.0272L144.143 72.9642Z" fill="#1E1E1E" stroke="#1E1E1E"/>
<path d="M122.987 75.4721L122.988 75.4571L122.988 75.4421C122.989 75.3102 123.017 75.1799 123.069 75.0585C123.12 74.9372 123.195 74.8272 123.29 74.735C123.384 74.6427 123.496 74.5699 123.618 74.5207C123.738 74.4726 123.865 74.448 123.994 74.4482C124.123 74.4553 124.249 74.4874 124.366 74.5429C124.485 74.5996 124.591 74.6796 124.679 74.7781C124.767 74.8766 124.834 74.9917 124.876 75.1165C124.919 75.2414 124.936 75.3735 124.927 75.505L124.926 75.52L124.925 75.5351C124.924 75.667 124.897 75.7973 124.845 75.9186C124.793 76.04 124.718 76.1499 124.624 76.2422C124.529 76.3345 124.418 76.4073 124.295 76.4565C124.176 76.5046 124.048 76.5292 123.919 76.5289C123.79 76.5219 123.664 76.4898 123.548 76.4343C123.429 76.3776 123.322 76.2976 123.234 76.1991C123.147 76.1005 123.08 75.9855 123.037 75.8606C122.995 75.7358 122.978 75.6037 122.987 75.4721Z" fill="#1E1E1E" stroke="#1E1E1E"/>
<path d="M137.219 75.9695C137.114 75.8125 137.057 75.6283 137.055 75.4394C137.06 75.1759 137.169 74.9251 137.358 74.7411C137.547 74.5572 137.801 74.4549 138.064 74.4563C138.253 74.4635 138.436 74.5255 138.59 74.6348C138.745 74.7451 138.865 74.8988 138.934 75.0766L139.371 74.9071L138.934 75.0766C139.003 75.2545 139.018 75.4487 138.978 75.6351C138.937 75.8216 138.842 75.9919 138.706 76.125C138.569 76.2581 138.396 76.3481 138.209 76.3837C138.022 76.4193 137.828 76.3991 137.652 76.3254C137.476 76.2518 137.325 76.128 137.219 75.9695Z" fill="#1E1E1E" stroke="#1E1E1E"/>
<path d="M116.399 72.9329L116.405 72.9402C116.6 73.1788 116.739 73.4574 116.813 73.7561L116.814 73.7593L116.814 73.7594C116.908 74.1484 117 74.6584 117.097 75.1946C117.15 75.4933 117.206 75.8002 117.264 76.0989C117.432 76.9669 117.626 77.7902 117.883 78.3603L117.889 78.3741L117.894 78.3882C118.241 79.3036 118.867 80.0866 119.684 80.626C120.5 81.1653 121.466 81.4337 122.444 81.3929L122.464 81.3921L122.484 81.3929C123.021 81.413 123.558 81.3683 124.083 81.2596L124.133 81.2492H124.185H124.252C124.67 81.1458 125.071 80.9868 125.446 80.7764L125.506 80.7346L125.52 80.7246L125.535 80.7155L125.642 80.6515L125.762 80.569L125.881 80.4717L125.889 80.4652L125.889 80.4653L126.04 80.3459L126.054 80.3348L126.069 80.3247C126.086 80.313 126.102 80.2991 126.115 80.2834L126.135 80.2603L126.158 80.2398C126.238 80.1676 126.313 80.0902 126.383 80.0082L126.391 79.999L126.391 79.9991C126.824 79.5149 127.173 78.9621 127.425 78.3634L127.429 78.3533L127.429 78.3534C127.676 77.8003 127.804 77.1848 127.936 76.5523C127.986 76.3121 128.036 76.0694 128.094 75.8268C128.192 75.413 128.317 74.9895 128.517 74.644C128.725 74.2847 129.038 73.974 129.511 73.8668L129.565 73.8544H129.621H129.765H129.924C130.48 73.8544 130.905 74.0859 131.217 74.4524C131.508 74.7941 131.693 75.2429 131.838 75.6828C131.927 75.9542 132.012 76.2621 132.096 76.5662C132.146 76.7464 132.196 76.9253 132.246 77.0944C132.386 77.5719 132.543 78.0262 132.754 78.4277C133.207 79.2871 133.76 80.0922 134.595 80.6925C135.423 81.2879 136.57 81.7115 138.261 81.7348H138.712H138.728L138.745 81.7359C138.845 81.7426 138.945 81.7426 139.044 81.7359L139.047 81.7357C139.306 81.7199 139.563 81.684 139.817 81.6283L140.074 81.5658L140.084 81.5635L140.084 81.5636C140.152 81.5485 140.219 81.5296 140.285 81.507L140.297 81.5028L140.309 81.4993L140.462 81.4558C140.757 81.3507 141.041 81.2153 141.309 81.0519L141.319 81.0458L141.319 81.0459C141.41 80.9932 141.497 80.9342 141.58 80.8694L141.586 80.8647L141.592 80.8601C141.765 80.7337 141.926 80.5916 142.073 80.4356L142.437 80.7781M116.399 72.9329L124.826 70.9294C125.894 71.2777 126.645 71.6397 127.295 71.9531C127.409 72.0083 127.521 72.062 127.63 72.1138C128.361 72.46 129.031 72.737 129.908 72.737C130.77 72.737 131.463 72.4915 132.237 72.1832C132.341 72.1416 132.448 72.0987 132.557 72.0547C133.26 71.7709 134.08 71.44 135.229 71.1275C137.3 70.5663 140.843 70.6961 143.624 71.0376C143.625 71.0377 143.625 71.0378 143.626 71.0378L144.435 71.1418C144.616 71.2136 144.772 71.3389 144.88 71.5014C144.994 71.6707 145.051 71.8714 145.043 72.0748C144.961 72.5916 144.729 73.0733 144.376 73.4602L144.347 73.4923L144.323 73.529C144.16 73.7858 144.046 74.0704 143.986 74.3687C143.89 74.7859 143.808 75.3396 143.723 75.9131C143.684 76.1733 143.645 76.4376 143.604 76.695C143.465 77.5602 143.299 78.3692 143.055 78.9191L143.055 78.919L143.05 78.9288C142.817 79.4854 142.485 79.9958 142.072 80.4359L142.437 80.7781M116.399 72.9329L116.393 72.9258M116.399 72.9329L116.393 72.9258M142.437 80.7781C142.891 80.2946 143.255 79.7339 143.511 79.1224L140.614 81.9323C140.947 81.8149 141.268 81.6628 141.569 81.4786C141.68 81.4143 141.787 81.3425 141.888 81.2637C142.085 81.119 142.269 80.9565 142.437 80.7781ZM116.393 72.9258C116.033 72.5159 115.799 72.0107 115.72 71.4711M116.393 72.9258L115.72 71.4711M115.72 71.4711C115.711 71.2853 115.762 71.1013 115.864 70.9456C115.96 70.8003 116.096 70.6866 116.255 70.6183L116.981 70.5457C118.261 70.428 119.738 70.3635 121.143 70.4104C122.557 70.4576 123.865 70.6166 124.826 70.9293L115.72 71.4711Z" fill="#1E1E1E" stroke="#1E1E1E"/>
<path d="M130.353 74.3941L130.075 84.6306L124.367 82.975L129.692 74.3065C129.916 74.2851 130.142 74.3151 130.353 74.3941Z" fill="#874C4C"/>
<path d="M210.156 75.6916C226.444 75.6916 239.648 64.1271 239.648 49.8614C239.648 35.5958 226.444 24.0312 210.156 24.0312C193.868 24.0312 180.664 35.5958 180.664 49.8614C180.664 64.1271 193.868 75.6916 210.156 75.6916Z" fill="#F39A4A"/>
<path d="M186.621 64.8025C186.453 68.2651 183.524 74.458 178.231 76.7425C178.16 76.7726 178.101 76.8241 178.061 76.8899C178.021 76.9556 178.003 77.0322 178.009 77.1088C178.015 77.1854 178.045 77.2582 178.095 77.3167C178.145 77.3752 178.212 77.4166 178.286 77.435C181.312 78.1056 184.468 77.8783 187.367 76.7811C190.266 75.6838 192.781 73.7643 194.604 71.258L186.621 64.8025Z" fill="#F39A4A"/>
<path d="M190.166 47.8158C190.232 46.6837 190.502 45.5729 190.962 44.5363C191.395 43.522 192.041 42.6127 192.856 41.8697C193.717 41.0817 194.723 40.4681 195.817 40.0627C198.442 39.1711 201.288 39.1711 203.913 40.0627C205.018 40.4663 206.034 41.0799 206.906 41.8697C207.717 42.6279 208.358 43.5506 208.784 44.5761C209.244 45.6127 209.514 46.7235 209.58 47.8556C209.62 48.7471 209.636 49.6784 209.636 50.6495C209.636 51.6207 209.636 52.5361 209.58 53.3798C209.514 54.5119 209.244 55.6227 208.784 56.6593C208.346 57.6755 207.701 58.5891 206.89 59.3419C206.024 60.1392 205.006 60.7538 203.897 61.1488C201.269 62.0189 198.43 62.0189 195.802 61.1488C194.697 60.7545 193.684 60.1397 192.824 59.3419C192.011 58.5914 191.365 57.6772 190.93 56.6593C190.47 55.6227 190.201 54.5119 190.134 53.3798C190.094 52.5361 190.07 51.6207 190.07 50.6495C190.07 49.6784 190.126 48.7073 190.166 47.8158ZM203.777 53.1888C203.777 52.8147 203.817 52.3928 203.841 51.947C203.865 51.5013 203.841 51.0237 203.841 50.5461C203.841 50.0685 203.841 49.6068 203.841 49.161C203.841 48.7153 203.793 48.365 203.777 47.967C203.743 47.478 203.633 46.9973 203.451 46.5422C203.28 46.1169 203.025 45.7299 202.703 45.4039C202.363 45.0704 201.956 44.8127 201.509 44.6477C200.423 44.2765 199.244 44.2765 198.158 44.6477C197.709 44.8144 197.3 45.0719 196.956 45.4039C196.636 45.7302 196.384 46.1172 196.215 46.5422C196.033 46.9973 195.923 47.478 195.889 47.967C195.84 48.3632 195.813 48.7618 195.809 49.161C195.809 49.6068 195.809 50.0685 195.809 50.5461C195.809 51.0237 195.809 51.4853 195.809 51.947C195.814 52.3621 195.84 52.7766 195.889 53.1888C195.937 54.1456 196.314 55.0565 196.956 55.7678C197.337 56.1286 197.79 56.4057 198.285 56.5811C198.78 56.7566 199.306 56.8266 199.829 56.7867C200.351 56.8284 200.875 56.7591 201.367 56.5835C201.86 56.4079 202.31 56.1299 202.687 55.7678C203.323 55.0507 203.706 54.1447 203.777 53.1888Z" fill="#FAFAFA"/>
<path d="M231.631 60.4244C231.697 60.5258 231.728 60.6461 231.718 60.7667C231.72 60.8557 231.703 60.9439 231.668 61.0261C231.634 61.1082 231.583 61.1825 231.519 61.2443C231.458 61.3093 231.384 61.3612 231.302 61.3968C231.22 61.4324 231.131 61.4509 231.042 61.4513H226.059C225.806 61.4605 225.557 61.394 225.343 61.2602C225.135 61.1092 224.948 60.9327 224.785 60.7349L218.895 53.3321V60.5995C218.892 60.8142 218.808 61.0198 218.661 61.1759C218.513 61.332 218.313 61.4274 218.099 61.4433H214.023C213.913 61.4441 213.803 61.4218 213.702 61.3779C213.601 61.3341 213.51 61.2696 213.434 61.1886C213.355 61.1128 213.292 61.0213 213.249 60.9199C213.207 60.8185 213.186 60.7094 213.188 60.5995V40.5483C213.186 40.4384 213.207 40.3293 213.249 40.228C213.292 40.1266 213.355 40.0351 213.434 39.9593C213.51 39.8783 213.601 39.8138 213.702 39.7699C213.803 39.7261 213.913 39.7038 214.023 39.7045H218.099C218.313 39.7204 218.513 39.8158 218.661 39.9719C218.808 40.1281 218.892 40.3337 218.895 40.5483V47.0994L224.363 40.3891C224.489 40.2392 224.622 40.0957 224.761 39.9593C224.998 39.7669 225.301 39.6754 225.605 39.7045H230.445C230.536 39.7038 230.626 39.7218 230.709 39.7574C230.793 39.793 230.868 39.8455 230.93 39.9115C230.994 39.9733 231.045 40.0476 231.079 40.1297C231.114 40.2119 231.131 40.3001 231.129 40.3891C231.138 40.5108 231.104 40.6316 231.034 40.7314L223.392 50.1481L231.631 60.4244Z" fill="#FAFAFA"/>
<path d="M286.26 74.2827L281.794 75.6279L278.57 64.858L283.02 63.5208L286.26 74.2827Z" fill="#E0E0E0"/>
<path d="M300.196 64.7228C300.233 65.1597 300.13 65.5971 299.903 65.9719C299.675 66.3467 299.335 66.6396 298.93 66.8083C299.22 67.1375 299.434 67.526 299.559 67.9466C299.814 68.7426 299.137 69.8968 297.792 70.3346L287.579 73.4072L284.578 63.4015C284.578 63.4015 286.305 58.9837 286.393 58.315C286.481 57.6464 285.462 55.1947 285.318 54.733C285.175 54.2713 286.831 53.6664 288.136 54.1917C288.44 54.3267 288.711 54.5248 288.932 54.7728C289.402 55.2729 289.796 55.8387 290.102 56.4524C290.536 57.3271 290.749 58.2944 290.723 59.2702L296.908 57.3837C297.335 57.2293 297.803 57.2293 298.23 57.3837C298.509 57.4941 298.755 57.6749 298.944 57.9085C299.133 58.1421 299.259 58.4206 299.308 58.7169C299.358 59.0132 299.33 59.3174 299.228 59.5998C299.125 59.8823 298.951 60.1334 298.723 60.3289C299.091 60.3022 299.458 60.3999 299.764 60.6063C300.07 60.8127 300.297 61.1159 300.411 61.4672C300.505 61.8756 300.455 62.3042 300.269 62.68C300.084 63.0558 299.773 63.3557 299.392 63.5288C299.804 63.8074 300.093 64.2356 300.196 64.7228Z" fill="#E0E0E0"/>
<path d="M350.247 185.954L344.523 184.577L347.859 170.774L353.582 172.151L350.247 185.954Z" fill="#E0E0E0"/>
<path d="M371.553 184.401C371.315 184.901 370.925 185.313 370.439 185.578C369.953 185.842 369.395 185.946 368.846 185.874C368.949 186.417 368.936 186.976 368.806 187.514C368.552 188.588 367.095 189.376 365.376 188.954L352.273 185.77L355.362 172.947C355.362 172.947 360.066 169.23 360.584 168.553C361.101 167.876 361.547 164.573 361.69 163.96C361.833 163.347 364.022 163.761 365.113 165.17C365.378 165.512 365.563 165.909 365.654 166.332C365.848 167.175 365.917 168.041 365.861 168.903C365.775 170.135 365.393 171.329 364.747 172.382L372.659 174.292C373.22 174.411 373.722 174.724 374.076 175.176C374.272 175.434 374.411 175.73 374.484 176.046C374.556 176.361 374.561 176.689 374.498 177.006C374.392 177.425 374.171 177.805 373.86 178.105C373.549 178.405 373.161 178.611 372.739 178.702C373.157 178.907 373.495 179.247 373.697 179.667C373.899 180.087 373.954 180.563 373.853 181.018C373.692 181.521 373.363 181.954 372.921 182.244C372.479 182.534 371.951 182.663 371.425 182.61C371.699 183.168 371.745 183.811 371.553 184.401Z" fill="#E0E0E0"/>
<path d="M61.1562 177.699L67.4048 179.578L71.9261 164.502L65.6855 162.623L61.1562 177.699Z" fill="#E0E0E0"/>
<path d="M41.6265 164.303C41.5744 164.915 41.7183 165.528 42.0373 166.053C42.3564 166.578 42.8342 166.988 43.4016 167.224C43.0004 167.687 42.702 168.229 42.526 168.816C42.1678 169.986 43.123 171.554 44.9936 172.111L59.3216 176.418L63.5085 162.384C63.5085 162.384 61.0808 156.191 60.9614 155.22C60.842 154.249 62.2748 150.858 62.4658 150.205C62.625 149.68 60.3484 148.717 58.4858 149.457C58.0429 149.631 57.6455 149.903 57.3236 150.253C56.6622 150.964 56.1096 151.769 55.6839 152.641C55.0739 153.877 54.7735 155.243 54.8083 156.621L46.2115 154.026C45.6053 153.827 44.9479 153.849 44.3568 154.09C43.965 154.244 43.6199 154.497 43.3551 154.824C43.0903 155.152 42.9149 155.542 42.8459 155.957C42.777 156.373 42.8168 156.799 42.9617 157.194C43.1065 157.59 43.3513 157.941 43.6722 158.213C43.1527 158.169 42.6334 158.302 42.1995 158.591C41.7656 158.88 41.4429 159.308 41.2842 159.805C41.1519 160.378 41.2214 160.98 41.481 161.507C41.7406 162.035 42.1743 162.457 42.7091 162.703C42.1637 163.085 41.7783 163.654 41.6265 164.303Z" fill="#E0E0E0"/>
</svg>
