<svg width="398" height="293" viewBox="0 0 398 293" fill="none" xmlns="http://www.w3.org/2000/svg">
<g clip-path="url(#clip0_385_78291)">
<rect width="398" height="292.868" fill="#092C4C"/>
<path d="M369.742 292.868V259.612C369.742 259.612 382.691 283.189 369.742 292.868Z" fill="#F1F1F1"/>
<path d="M370.543 292.862L346.066 270.372C346.066 270.372 372.176 276.769 370.543 292.862Z" fill="#F1F1F1"/>
<path d="M264.802 205.022C264.747 204.413 264.827 203.8 265.035 203.225C265.243 202.65 265.574 202.128 266.006 201.695C266.437 201.263 266.958 200.93 267.532 200.721C268.106 200.511 268.718 200.43 269.327 200.484L273.739 192.01L279.537 193.438L273.138 205.317C272.981 206.334 272.457 207.258 271.665 207.914C270.872 208.57 269.867 208.912 268.839 208.875C267.812 208.839 266.833 208.427 266.089 207.717C265.345 207.006 264.887 206.048 264.802 205.022H264.802Z" fill="#FFB7B7"/>
<path d="M291.143 287.568L286.25 287.567L283.922 268.678L291.144 268.678L291.143 287.568Z" fill="#FFB7B7"/>
<path d="M292.39 292.315L276.613 292.314V292.114C276.613 290.484 277.26 288.921 278.412 287.769C279.564 286.616 281.125 285.968 282.754 285.968H282.754L292.39 285.969L292.39 292.315Z" fill="#F39A4A"/>
<path d="M330.495 283.909L325.774 285.197L318.562 267.586L325.53 265.685L330.495 283.909Z" fill="#FFB7B7"/>
<path d="M332.947 288.16L317.726 292.315L317.673 292.122C317.245 290.549 317.458 288.871 318.266 287.455C319.074 286.04 320.411 285.004 321.982 284.575L321.982 284.575L331.279 282.038L332.947 288.16Z" fill="#F39A4A"/>
<path d="M282.21 205.97L279.77 243.067L285.013 284.687L293.6 282.063L293.962 244.876L300.832 223.432L321.172 280.706L330.482 277.268L322.799 240.081L318.46 205.156L282.21 205.97Z" fill="#F39A4A"/>
<path d="M305.937 140.828L291.476 142.963L286.266 148.12L284.648 166.65L285.653 183.062L281.465 212.006C281.465 212.006 291.997 206.154 300.159 213.48C308.321 220.805 319.742 214.774 319.977 209.901L305.937 140.828Z" fill="#CBCBCB"/>
<path d="M298.594 164.068L298.594 164.047L305.778 140.609L305.871 140.602C306.382 140.569 318.427 139.859 321.121 145.811L321.134 145.84L320.316 170.197L321.443 208.345L299.166 213.174L299.004 213.209L298.594 164.068Z" fill="#F39A4A"/>
<path d="M290.633 162.447L291.951 142.578C282.578 143.161 282.719 149.813 282.73 150.103L282.627 179.824L280.75 211.62L287.575 211.108L290.633 162.447Z" fill="#F39A4A"/>
<path d="M269.496 198.602L277.818 179.272L283.626 168.596L286.658 187.854L276.13 203.66L269.496 198.602Z" fill="#F39A4A"/>
<path d="M303.887 191.49C304.015 190.892 304.271 190.329 304.64 189.841C305.008 189.354 305.478 188.953 306.018 188.667C306.558 188.38 307.154 188.216 307.764 188.186C308.373 188.155 308.983 188.259 309.548 188.489L316.262 181.696L321.381 184.773L311.766 194.233C311.316 195.158 310.543 195.886 309.592 196.279C308.642 196.672 307.581 196.702 306.609 196.364C305.638 196.026 304.825 195.343 304.323 194.444C303.821 193.546 303.666 192.495 303.887 191.49Z" fill="#FFB7B7"/>
<path d="M309.531 186.009L323.219 170.98L314.159 158.039L315.091 151.712L320.431 145.11L320.536 145.245C321.105 145.982 334.481 163.376 334.865 169.96C335.25 176.57 316.024 193.287 315.205 193.996L315.091 194.094L309.531 186.009Z" fill="#F39A4A"/>
<path d="M297.592 139.2C302.965 139.2 307.321 134.841 307.321 129.463C307.321 124.085 302.965 119.725 297.592 119.725C292.219 119.725 287.863 124.085 287.863 129.463C287.863 134.841 292.219 139.2 297.592 139.2Z" fill="#FFB7B7"/>
<path d="M306.743 121.678L307.215 120.728L304.842 119.548C304.842 119.548 302.224 115.284 297.486 116.482C292.749 117.681 290.618 118.398 290.618 118.398L288.25 119.59L289.438 120.773L287.307 121.49L288.731 122.198L287.074 123.151L287.966 128.037C287.966 128.037 289.447 124.331 292.295 125.748C295.143 127.164 300.352 125.016 300.352 125.016L304.878 133.782C304.878 133.782 305.811 130.709 307.476 131.528C307.476 131.528 311.728 124.75 306.743 121.678Z" fill="#F39A4A"/>
<path d="M196.661 176.808L48.7171 217.645L0 40.8376L147.944 0L196.661 176.808Z" fill="#092C4C"/>
<path d="M196.661 176.808L48.7171 217.645L0 40.8376L147.944 0L196.661 176.808ZM50.6073 214.312L193.331 174.916L146.054 3.33274L3.32976 42.7295L50.6073 214.312Z" fill="#F1F1F1"/>
<path d="M115.75 79.2069L78.6649 89.4436C78.1417 89.5874 77.583 89.5176 77.1112 89.2495C76.6394 88.9815 76.2931 88.537 76.1483 88.0138L65.9208 50.8954C65.7771 50.3718 65.8469 49.8125 66.1147 49.3403C66.3825 48.8681 66.8265 48.5215 67.3493 48.3765L104.434 38.1398C104.957 37.9961 105.516 38.0659 105.988 38.3339C106.46 38.602 106.806 39.0464 106.951 39.5697L117.178 76.688C117.322 77.2117 117.252 77.7709 116.984 78.2431C116.717 78.7154 116.273 79.062 115.75 79.2069ZM67.5669 49.1663C67.2532 49.2533 66.9868 49.4612 66.8261 49.7446C66.6654 50.0279 66.6236 50.3635 66.7098 50.6777L76.9373 87.796C77.0242 88.11 77.2319 88.3766 77.515 88.5375C77.7981 88.6983 78.1334 88.7402 78.4472 88.6539L115.532 78.4172C115.846 78.3302 116.112 78.1223 116.273 77.8389C116.434 77.5556 116.475 77.22 116.389 76.9059L106.162 39.7875C106.075 39.4736 105.867 39.2069 105.584 39.0461C105.301 38.8852 104.966 38.8433 104.652 38.9296L67.5669 49.1663Z" fill="#E5E5E5"/>
<path d="M106.346 86.6883L69.2614 96.925C68.7906 97.0544 68.2877 96.9916 67.8631 96.7503C67.4385 96.5091 67.1268 96.1091 66.9965 95.6381L56.7689 58.5198C56.6397 58.0485 56.7024 57.5452 56.9435 57.1202C57.1845 56.6952 57.5841 56.3832 58.0547 56.2528L95.1395 46.0161C95.6104 45.8867 96.1132 45.9495 96.5379 46.1907C96.9625 46.432 97.2741 46.832 97.4045 47.3029L107.632 84.4213C107.761 84.8925 107.699 85.3959 107.457 85.8209C107.216 86.2459 106.817 86.5578 106.346 86.6883Z" fill="#F39A4A"/>
<path d="M149.31 91.7556L45.8203 120.322L46.9232 124.325L150.413 95.7584L149.31 91.7556Z" fill="#F1F1F1"/>
<path d="M152.185 102.192L48.6953 130.759L49.7982 134.762L153.288 106.195L152.185 102.192Z" fill="#F1F1F1"/>
<path d="M155.06 112.629L51.5703 141.195L52.6732 145.198L156.163 116.631L155.06 112.629Z" fill="#F1F1F1"/>
<path d="M160.122 130.997L56.6328 159.563L57.7357 163.566L161.225 135L160.122 130.997Z" fill="#F1F1F1"/>
<path d="M162.997 141.434L59.5078 170L60.6107 174.003L164.1 145.436L162.997 141.434Z" fill="#F1F1F1"/>
<path d="M165.872 151.87L62.3828 180.437L63.4857 184.44L166.975 155.873L165.872 151.87Z" fill="#F1F1F1"/>
<path d="M244.018 217.054H90.5508V33.6462H244.018V217.054Z" fill="#092C4C"/>
<path d="M244.018 217.054H90.5508V33.6462H244.018V217.054ZM93.2582 214.345H241.31V36.3561H93.2582V214.345Z" fill="#E5E5E5"/>
<path d="M216.079 112.491H128.336V116.643H216.079V112.491Z" fill="#F39A4A"/>
<path d="M216.079 123.287H128.336V127.439H216.079V123.287Z" fill="#F39A4A"/>
<path d="M216.079 134.083H128.336V138.235H216.079V134.083Z" fill="#F39A4A"/>
<path d="M121.2 117.885C122.695 117.885 123.907 116.672 123.907 115.176C123.907 113.679 122.695 112.466 121.2 112.466C119.704 112.466 118.492 113.679 118.492 115.176C118.492 116.672 119.704 117.885 121.2 117.885Z" fill="#F39A4A"/>
<path d="M216.079 65.9722H128.336V70.1244H216.079V65.9722Z" fill="#E5E5E5"/>
<path d="M216.079 76.7681H128.336V80.9203H216.079V76.7681Z" fill="#E5E5E5"/>
<path d="M216.079 87.564H128.336V91.7162H216.079V87.564Z" fill="#E5E5E5"/>
<path d="M121.2 70.9148C122.695 70.9148 123.907 69.7016 123.907 68.205C123.907 66.7084 122.695 65.4951 121.2 65.4951C119.704 65.4951 118.492 66.7084 118.492 68.205C118.492 69.7016 119.704 70.9148 121.2 70.9148Z" fill="#E5E5E5"/>
<path d="M216.079 159.462H128.336V163.614H216.079V159.462Z" fill="#E5E5E5"/>
<path d="M216.079 170.258H128.336V174.41H216.079V170.258Z" fill="#E5E5E5"/>
<path d="M216.079 181.053H128.336V185.206H216.079V181.053Z" fill="#E5E5E5"/>
<path d="M121.2 164.404C122.695 164.404 123.907 163.191 123.907 161.694C123.907 160.198 122.695 158.985 121.2 158.985C119.704 158.985 118.492 160.198 118.492 161.694C118.492 163.191 119.704 164.404 121.2 164.404Z" fill="#E5E5E5"/>
<path d="M236.852 232.848C254.176 232.848 268.22 218.791 268.22 201.452C268.22 184.113 254.176 170.056 236.852 170.056C219.528 170.056 205.484 184.113 205.484 201.452C205.484 218.791 219.528 232.848 236.852 232.848Z" fill="#F39A4A"/>
<path d="M245.544 199.449V193.442C245.545 192.299 245.321 191.167 244.885 190.111C244.448 189.055 243.808 188.095 243.001 187.287C242.194 186.479 241.236 185.837 240.181 185.4C239.126 184.962 237.996 184.737 236.854 184.737C235.712 184.737 234.581 184.962 233.527 185.4C232.472 185.837 231.513 186.479 230.706 187.287C229.899 188.095 229.259 189.055 228.823 190.111C228.386 191.167 228.162 192.299 228.163 193.442V199.449C227.001 199.501 225.905 200 225.101 200.841C224.297 201.682 223.848 202.801 223.848 203.965V218.161H249.86V203.965C249.859 202.801 249.41 201.682 248.607 200.841C247.803 200 246.706 199.501 245.544 199.449ZM236.854 187.806C238.347 187.808 239.778 188.402 240.833 189.459C241.889 190.515 242.482 191.948 242.484 193.442V199.439H231.223V193.442C231.225 191.948 231.819 190.515 232.874 189.459C233.93 188.402 235.361 187.808 236.854 187.806Z" fill="#092C4C"/>
<path d="M239.192 206.459C239.192 206.056 239.088 205.659 238.89 205.308C238.691 204.957 238.406 204.662 238.061 204.454C237.715 204.246 237.322 204.131 236.919 204.119C236.516 204.108 236.117 204.201 235.761 204.39C235.404 204.579 235.103 204.856 234.885 205.196C234.668 205.536 234.542 205.926 234.519 206.329C234.497 206.732 234.579 207.134 234.758 207.495C234.936 207.857 235.205 208.167 235.538 208.394V213.48H238.169V208.394C238.484 208.179 238.742 207.891 238.92 207.554C239.099 207.217 239.192 206.841 239.192 206.459Z" fill="#F39A4A"/>
<path d="M397.541 292.681H222.545C222.423 292.681 222.307 292.633 222.22 292.547C222.134 292.46 222.086 292.343 222.086 292.221C222.086 292.1 222.134 291.983 222.22 291.896C222.307 291.81 222.423 291.762 222.545 291.762H397.541C397.663 291.762 397.78 291.81 397.866 291.896C397.952 291.983 398 292.1 398 292.221C398 292.343 397.952 292.46 397.866 292.547C397.78 292.633 397.663 292.681 397.541 292.681Z" fill="#CBCBCB"/>
</g>
<defs>
<clipPath id="clip0_385_78291">
<rect width="398" height="292.868" fill="white"/>
</clipPath>
</defs>
</svg>
