<svg width="298" height="335" viewBox="0 0 298 335" fill="none" xmlns="http://www.w3.org/2000/svg">
<path d="M149.151 0C147.126 0 145.1 0.0478967 143.075 0.150534C141.05 0.246327 139.031 0.396862 137.012 0.595293C134.994 0.793723 132.982 1.04005 130.977 1.34112C128.973 1.63534 126.975 1.98431 124.99 2.38117C122.999 2.77119 121.022 3.21595 119.058 3.7086C117.094 4.20126 115.137 4.74181 113.201 5.33026C111.258 5.91871 109.335 6.55506 107.426 7.23931C105.517 7.91671 103.628 8.64885 101.753 9.42204C99.8785 10.2021 98.0311 11.0232 96.1973 11.8853C94.3635 12.7543 92.5503 13.6644 90.7644 14.6223C88.9785 15.5734 87.2132 16.5724 85.4752 17.6193C83.7372 18.6593 82.0266 19.7404 80.3365 20.8695C78.6533 21.9916 76.9974 23.1617 75.3689 24.3659C73.7404 25.5771 72.1461 26.8224 70.5792 28.1088C69.0054 29.3951 67.4727 30.7157 65.9742 32.0774C64.4689 33.439 63.0046 34.8349 61.5677 36.2718C60.1376 37.7019 58.7349 39.173 57.3801 40.6715C56.0185 42.1768 54.691 43.7095 53.4047 45.2765C52.1183 46.8434 50.873 48.4377 49.6618 50.0662C48.4576 51.6947 47.2875 53.3505 46.1654 55.0406C45.0364 56.7239 43.9552 58.4345 42.9084 60.1725C41.8683 61.9104 40.8693 63.6758 39.9182 65.4617C38.9603 67.2544 38.0502 69.0608 37.1812 70.8946C36.3122 72.7283 35.4911 74.5826 34.7179 76.4506C33.9448 78.3255 33.2126 80.214 32.5284 82.123C31.8441 84.0321 31.2078 85.9548 30.6193 87.898C30.0309 89.8344 29.4903 91.7914 28.9977 93.7552C28.505 95.7189 28.0603 97.6964 27.6702 99.6876C27.2734 101.672 26.9244 103.67 26.6302 105.675C26.3291 107.68 26.0828 109.691 25.8844 111.71C25.6859 113.728 25.5354 115.747 25.4328 117.772C25.337 119.798 25.2891 121.823 25.2891 123.848C25.2891 125.88 25.337 127.906 25.4328 129.924C25.5354 131.95 25.6859 133.975 25.8844 135.994C26.0828 138.005 26.3291 140.017 26.6233 142.022C26.9244 144.027 27.2665 146.025 27.6634 148.016C28.0603 150 28.505 151.978 28.9977 153.948C29.4903 155.912 30.0309 157.862 30.6193 159.805C31.2078 161.742 31.8441 163.671 32.5215 165.58C33.2058 167.489 33.9379 169.378 34.7111 171.253C35.4911 173.121 36.3122 174.975 37.1744 176.809C38.0434 178.643 38.9534 180.449 39.9114 182.235C40.8625 184.028 41.8615 185.786 42.9084 187.524C43.9484 189.269 45.0295 190.979 46.1585 192.663C47.2807 194.346 48.4507 196.009 49.655 197.637C50.8661 199.259 52.1114 200.86 53.3978 202.427C54.6842 203.994 56.0048 205.526 57.3664 207.032C58.7281 208.53 60.1239 210.001 61.5609 211.432C62.9909 212.868 64.4621 214.264 65.9605 215.626C67.4659 216.988 68.9986 218.308 70.5655 219.595C72.1324 220.881 73.7267 222.126 75.3552 223.337C76.9837 224.542 78.6396 225.712 80.3297 226.841C82.0129 227.963 83.7235 229.051 85.4615 230.091C87.2063 231.131 88.9648 232.13 90.7507 233.088C92.5434 234.039 94.3498 234.956 96.1836 235.818C98.0174 236.687 99.8717 237.508 101.74 238.281C103.615 239.061 105.503 239.787 107.412 240.471C109.321 241.155 111.244 241.791 113.187 242.38C115.124 242.968 117.08 243.509 119.044 244.002C121.008 244.494 122.985 244.939 124.977 245.336C126.968 245.726 128.959 246.075 130.964 246.376C132.969 246.67 134.98 246.916 136.999 247.115C139.017 247.313 141.036 247.464 143.061 247.566C145.087 247.662 147.112 247.71 149.137 247.71C151.17 247.717 153.195 247.662 155.22 247.566C157.239 247.464 159.264 247.313 161.283 247.115C163.294 246.916 165.306 246.67 167.311 246.376C169.316 246.075 171.314 245.733 173.305 245.336C175.289 244.939 177.267 244.494 179.237 244.002C181.201 243.509 183.158 242.968 185.094 242.38C187.038 241.791 188.96 241.155 190.869 240.471C192.778 239.793 194.667 239.061 196.542 238.288C198.41 237.508 200.264 236.687 202.098 235.825C203.932 234.956 205.738 234.046 207.524 233.088C209.317 232.137 211.075 231.138 212.82 230.091C214.558 229.051 216.269 227.97 217.952 226.841C219.635 225.712 221.298 224.548 222.926 223.337C224.548 222.133 226.149 220.888 227.716 219.601C229.283 218.315 230.816 216.994 232.321 215.633C233.819 214.271 235.29 212.868 236.721 211.438C238.157 210.001 239.553 208.537 240.915 207.032C242.277 205.533 243.597 204.001 244.884 202.434C246.17 200.867 247.415 199.266 248.626 197.637C249.831 196.009 251.001 194.353 252.123 192.67C253.252 190.986 254.333 189.269 255.38 187.531C256.42 185.793 257.419 184.034 258.377 182.242C259.328 180.456 260.238 178.643 261.107 176.816C261.976 174.982 262.797 173.128 263.57 171.253C264.35 169.385 265.076 167.489 265.76 165.58C266.444 163.678 267.08 161.749 267.669 159.812C268.257 157.869 268.798 155.919 269.291 153.955C269.783 151.984 270.228 150.007 270.618 148.023C271.015 146.031 271.364 144.033 271.658 142.029C271.959 140.024 272.205 138.012 272.404 136C272.602 133.982 272.753 131.957 272.849 129.931C272.951 127.913 272.999 125.88 272.999 123.855C272.999 121.83 272.951 119.804 272.849 117.779C272.753 115.754 272.602 113.735 272.404 111.717C272.205 109.698 271.959 107.686 271.658 105.682C271.364 103.677 271.015 101.679 270.625 99.6944C270.228 97.7033 269.783 95.7258 269.291 93.762C268.798 91.7982 268.257 89.8413 267.669 87.9049C267.08 85.9616 266.444 84.0389 265.76 82.1299C265.083 80.2208 264.35 78.3323 263.577 76.4575C262.797 74.5895 261.976 72.7352 261.114 70.9014C260.245 69.0676 259.335 67.2612 258.377 65.4685C257.426 63.6826 256.427 61.9241 255.387 60.1793C254.34 58.4413 253.259 56.7307 252.13 55.0475C251.008 53.3642 249.838 51.7015 248.633 50.073C247.422 48.4513 246.177 46.8502 244.89 45.2833C243.604 43.7164 242.283 42.1837 240.922 40.6783C239.56 39.1798 238.164 37.7087 236.727 36.2786C235.297 34.8417 233.826 33.4459 232.328 32.0842C230.822 30.7226 229.29 29.402 227.723 28.1156C226.156 26.8292 224.562 25.5839 222.933 24.3728C221.305 23.1685 219.649 21.9985 217.959 20.8763C216.275 19.7473 214.565 18.6662 212.827 17.6193C211.089 16.5792 209.323 15.5802 207.538 14.6223C205.752 13.6712 203.938 12.7612 202.105 11.8922C200.278 11.0232 198.423 10.2021 196.549 9.42889C194.674 8.65569 192.785 7.92355 190.876 7.23931C188.967 6.55506 187.044 5.91871 185.108 5.33026C183.165 4.74181 181.215 4.20126 179.244 3.7086C177.28 3.22279 175.303 2.77803 173.318 2.38117C171.327 1.98431 169.329 1.63534 167.325 1.34112C165.32 1.04005 163.308 0.793723 161.289 0.595293C159.278 0.396862 157.252 0.246327 155.227 0.150534C153.209 0.0478967 151.183 0 149.151 0Z" fill="#F39A4A"/>
<path d="M218.733 93.5634L216.47 93.9716C210.17 95.1146 204.035 94.5499 198.051 92.2844L161.915 78.4935C160.285 77.8744 158.6 77.4662 156.867 77.2689C155.127 77.0716 153.394 77.092 151.66 77.3301C149.934 77.5682 148.256 78.0173 146.646 78.6772C145.03 79.3372 143.524 80.1808 142.121 81.2217L108.956 105.823C108.653 106.048 108.42 106.327 108.254 106.66C108.083 106.994 108 107.347 108 107.715C108 108.089 108.083 108.443 108.254 108.769C108.42 109.103 108.653 109.382 108.956 109.606C109.706 110.157 110.497 110.647 111.322 111.076C112.154 111.504 113.007 111.865 113.894 112.151C114.782 112.443 115.689 112.661 116.611 112.811C117.533 112.96 118.461 113.035 119.397 113.035C120.332 113.035 121.26 112.96 122.182 112.811C123.111 112.661 124.012 112.443 124.899 112.151C125.786 111.865 126.646 111.504 127.478 111.076C128.303 110.647 129.094 110.157 129.844 109.606L143.414 99.537C144.232 98.9383 145.085 98.4008 145.986 97.9381C146.887 97.4755 147.823 97.0809 148.785 96.7679C149.748 96.4481 150.739 96.21 151.736 96.0535C152.74 95.8903 153.751 95.8086 154.769 95.8086C155.787 95.8086 156.791 95.8903 157.795 96.0535C158.799 96.21 159.783 96.4481 160.746 96.7679C161.716 97.0809 162.644 97.4755 163.545 97.9381C164.446 98.4008 165.306 98.9383 166.117 99.537L214.235 135.46C215.755 136.562 217.013 137.902 218.004 139.481C219.001 141.059 219.661 142.767 219.984 144.604V144.699C220.046 145.046 220.163 145.366 220.342 145.672C220.521 145.971 220.741 146.237 221.016 146.454C221.284 146.679 221.587 146.849 221.917 146.965C222.254 147.08 222.598 147.135 222.949 147.135H232L218.733 93.5634Z" fill="#092C4C"/>
<path d="M212.948 146.03C212.811 145.012 212.476 144.068 211.95 143.185C211.423 142.302 210.739 141.562 209.905 140.964L161.974 105.116C160.948 104.349 159.827 103.765 158.61 103.358C157.393 102.957 156.141 102.753 154.856 102.753C153.577 102.753 152.326 102.957 151.109 103.358C149.892 103.765 148.77 104.349 147.745 105.116L134.261 115.167C133.215 115.934 132.114 116.62 130.959 117.217C129.803 117.822 128.606 118.324 127.376 118.732C126.138 119.139 124.873 119.445 123.588 119.648C122.302 119.852 121.01 119.961 119.704 119.961C118.405 119.961 117.106 119.852 115.82 119.648C114.535 119.445 113.277 119.139 112.039 118.732C110.801 118.324 109.605 117.822 108.449 117.217C107.294 116.62 106.2 115.934 105.154 115.167C103.937 114.263 103 113.136 102.343 111.771C101.687 110.413 101.386 108.98 101.441 107.473C101.516 106.02 101.906 104.648 102.61 103.364C103.307 102.088 104.258 101.015 105.448 100.166L128.606 82.8227C128.839 82.7004 129.037 82.5442 129.201 82.3405C129.372 82.1436 129.489 81.9127 129.564 81.6682C129.646 81.417 129.666 81.1657 129.646 80.9077C129.618 80.6496 129.543 80.4052 129.42 80.1743C129.297 79.9434 129.133 79.7465 128.935 79.5835C128.73 79.4205 128.504 79.2983 128.258 79.2236C128.005 79.1421 127.752 79.1217 127.492 79.1421C127.232 79.1693 126.986 79.244 126.753 79.3662L88.5862 92.6284C85.8033 93.5926 82.9384 94.1902 79.9982 94.4143L67 147.042H73.8649C76.1829 147.042 76.9965 147.415 77.6734 148.339C79.6153 151.021 81.7076 153.575 83.9503 156.006C86.1999 158.437 88.5794 160.732 91.1024 162.885C93.6186 165.037 96.2579 167.034 99.0135 168.881C101.769 170.721 104.627 172.398 107.581 173.899C110.535 175.407 113.571 176.738 116.689 177.885C119.8 179.04 122.972 180.004 126.2 180.778C129.434 181.559 132.695 182.143 135.998 182.537C139.294 182.931 142.603 183.128 145.926 183.134H146.152C146.671 183.141 147.17 183.066 147.663 182.91C148.155 182.754 148.606 182.523 149.023 182.218C149.441 181.919 149.803 181.559 150.097 181.145C150.398 180.724 150.623 180.269 150.774 179.78C151.129 178.809 151.17 177.817 150.89 176.819C150.61 175.821 150.063 174.999 149.256 174.34L142.343 169.186C141.974 168.921 141.659 168.602 141.413 168.222C141.16 167.842 140.989 167.434 140.9 166.986C140.812 166.545 140.805 166.097 140.887 165.648C140.962 165.207 141.126 164.786 141.365 164.399C141.632 164.012 141.96 163.686 142.364 163.428C142.76 163.17 143.198 163 143.67 162.925C144.135 162.844 144.6 162.857 145.064 162.973C145.529 163.082 145.947 163.278 146.329 163.564L153.201 168.677L153.536 168.935L165.194 177.647C165.803 178.102 166.473 178.449 167.198 178.693C167.922 178.931 168.668 179.053 169.434 179.053C170.193 179.053 170.938 178.931 171.663 178.686C172.394 178.449 173.057 178.102 173.673 177.647C175.034 176.67 175.909 175.366 176.312 173.75C176.49 173.077 176.572 172.392 176.551 171.699C176.524 171.006 176.401 170.327 176.175 169.675C175.95 169.017 175.628 168.405 175.218 167.842C174.808 167.278 174.329 166.789 173.769 166.368L159.738 155.978C159.403 155.741 159.123 155.456 158.89 155.116C158.664 154.783 158.493 154.417 158.391 154.023C158.282 153.629 158.247 153.235 158.282 152.828C158.316 152.42 158.418 152.033 158.589 151.666C158.808 151.198 159.123 150.797 159.526 150.471C159.936 150.145 160.387 149.921 160.893 149.799C161.399 149.677 161.912 149.663 162.418 149.772C162.931 149.874 163.396 150.084 163.806 150.397L177.892 160.922H177.96L185.81 166.769C186.404 167.231 187.061 167.591 187.765 167.855C188.476 168.113 189.208 168.263 189.96 168.297C190.719 168.337 191.457 168.256 192.189 168.066C192.921 167.869 193.604 167.57 194.24 167.169C194.705 166.857 195.129 166.497 195.512 166.09C195.895 165.676 196.223 165.227 196.497 164.738C196.77 164.25 196.982 163.733 197.133 163.197C197.283 162.66 197.365 162.11 197.386 161.554C197.406 160.997 197.358 160.44 197.242 159.897C197.133 159.347 196.955 158.824 196.715 158.314C196.476 157.812 196.182 157.337 195.827 156.902C195.478 156.467 195.074 156.08 194.63 155.734L176.921 142.492C176.586 142.255 176.305 141.969 176.073 141.63C175.84 141.297 175.669 140.93 175.567 140.537C175.457 140.143 175.423 139.742 175.457 139.341C175.492 138.934 175.594 138.547 175.758 138.173C175.984 137.705 176.298 137.311 176.702 136.985C177.112 136.659 177.563 136.435 178.069 136.313C178.575 136.19 179.081 136.184 179.594 136.286C180.1 136.387 180.565 136.598 180.982 136.91L198.746 150.179L198.821 150.247L201.392 152.196C202.138 152.76 202.958 153.167 203.861 153.418C204.756 153.67 205.673 153.751 206.603 153.656C207.532 153.568 208.408 153.317 209.242 152.896C210.076 152.474 210.801 151.918 211.423 151.225C212.667 149.704 213.173 147.972 212.948 146.03Z" fill="#092C4C"/>
<path d="M37.9633 69.1348C34.7659 75.5492 32.1441 82.1826 30.1049 89.0351C28.0657 95.8945 26.6369 102.87 25.8185 109.969C24.9931 117.068 24.792 124.188 25.2151 131.321C25.6382 138.454 26.6716 145.498 28.3293 152.453L55.9413 159.135L76 78.3217L37.9633 69.1348Z" fill="#092C4C"/>
<path d="M260.198 68.9377L222.688 78.1203L242.476 158.854L269.729 152.176C271.898 142.864 272.986 133.421 272.979 123.855C273 114.331 271.926 104.936 269.77 95.6575C267.608 86.3791 264.42 77.4771 260.198 68.9377Z" fill="#092C4C"/>
<path d="M47.4965 150.135C46.766 150.135 46.0702 150.008 45.3953 149.755C44.7204 149.502 44.1221 149.142 43.6072 148.674C43.0923 148.199 42.6958 147.662 42.4175 147.048C42.1392 146.435 42 145.796 42 145.132C42 144.474 42.1392 143.835 42.4175 143.221C42.6958 142.608 43.0923 142.064 43.6072 141.596C44.1221 141.128 44.7204 140.767 45.3953 140.514C46.0702 140.261 46.766 140.135 47.4965 140.135C48.2271 140.135 48.9298 140.261 49.6047 140.514C50.2796 140.767 50.871 141.128 51.3928 141.596C51.9077 142.064 52.3042 142.608 52.5825 143.221C52.8608 143.835 53 144.474 53 145.132C53 145.796 52.8608 146.435 52.5825 147.048C52.3042 147.662 51.9077 148.199 51.3928 148.674C50.871 149.142 50.2796 149.502 49.6047 149.755C48.9298 150.008 48.2271 150.135 47.4965 150.135Z" fill="#F39A4A"/>
<path d="M249.497 150.135C248.773 150.135 248.07 150.008 247.395 149.755C246.72 149.502 246.122 149.142 245.607 148.674C245.092 148.199 244.696 147.662 244.417 147.048C244.139 146.435 244 145.796 244 145.132C244 144.474 244.139 143.835 244.417 143.221C244.696 142.608 245.092 142.064 245.607 141.596C246.122 141.128 246.72 140.767 247.395 140.514C248.07 140.261 248.773 140.135 249.497 140.135C250.227 140.135 250.93 140.261 251.605 140.514C252.28 140.767 252.871 141.128 253.393 141.596C253.908 142.064 254.304 142.608 254.583 143.221C254.861 143.835 255 144.474 255 145.132C255 145.796 254.861 146.435 254.583 147.048C254.304 147.662 253.908 148.199 253.393 148.674C252.871 149.142 252.28 149.502 251.605 149.755C250.93 150.008 250.227 150.135 249.497 150.135Z" fill="#F39A4A"/>
<path d="M0 272.813H27.3614V274.477H19.3104V324.387H22.0436C26.3587 324.387 29.7975 323.072 32.3524 320.435C34.9073 317.784 37.4993 313.721 40.136 308.255H41.7402L40.3142 326.05H0V324.387H4.48596V274.477H0V272.813Z" fill="#F39A4A"/>
<path d="M45.3242 272.813H72.6856V274.477H64.6346V324.387H67.3678C71.6829 324.387 75.1217 323.072 77.6766 320.435C80.2315 317.784 82.8236 313.721 85.4602 308.255H87.0644L85.6384 326.05H45.3242V324.387H49.8102V274.477H45.3242V272.813Z" fill="#F39A4A"/>
<path d="M90.6484 272.813H130.19L130.963 287.875H129.566C127.442 282.75 125.214 279.23 122.882 277.329C120.542 275.427 117.126 274.477 112.633 274.477H109.959V297.976H112.543C114.92 297.976 116.918 297.085 118.545 295.302C120.164 293.505 121.307 291.076 121.961 288.024H123.12V310.543H121.812C120.899 306.74 119.673 304.029 118.129 302.402C116.584 300.783 114.46 299.966 111.771 299.966H109.959V324.387H112.841C117.512 324.387 121.486 322.99 124.754 320.198C128.022 317.405 130.257 313.833 131.468 309.473H133.013L132.389 326.05H90.6484V324.387H95.1344V274.477H90.6484V272.813Z" fill="#F39A4A"/>
<path d="M166.143 325.278C168.638 325.278 170.22 324.825 170.896 323.911C171.587 323.005 171.936 321.46 171.936 319.277V304.542H167.064V302.848H188.959V304.542H186.018V325.961H184.859C183.946 324.699 182.661 324.06 180.997 324.06C180.284 324.06 178.16 324.528 174.639 325.456C171.112 326.362 168.104 326.823 165.608 326.823C157.349 326.823 150.947 324.595 146.416 320.138C141.879 315.667 139.613 308.953 139.613 299.996C139.613 291.047 141.975 284.147 146.714 279.289C151.467 274.417 157.839 271.981 165.846 271.981C168.935 271.981 172.033 272.382 175.144 273.17C178.271 273.942 180.083 274.328 180.581 274.328C181.094 274.328 181.48 274.224 181.74 274.001C181.992 273.764 182.274 273.37 182.572 272.813H183.433L184.027 289.331H182.661C180.165 284.399 177.655 280.53 175.144 277.715C172.649 274.907 169.856 273.496 166.767 273.496C158.998 273.496 155.121 281.072 155.121 296.223V302.254C155.121 309.859 156.072 315.608 157.973 319.485C159.874 323.347 162.593 325.278 166.143 325.278Z" fill="#F39A4A"/>
<path d="M224.334 324.595L218.778 308.166H203.716L197.864 324.595H203.568V326.05H191.922V324.595H195.517L214.886 272.367H221.125L240.317 324.595H243.793V326.05H218.927V324.595H224.334ZM211.559 286.568L204.399 306.502H218.184L211.559 286.568Z" fill="#F39A4A"/>
<path d="M269.205 299.135H265.165V324.595H270.096V326.05H245.379V324.595H250.34V274.269H245.379V272.813H268.373C274.946 272.813 279.61 273.162 282.366 273.853C285.136 274.529 287.089 275.353 288.218 276.319C290.654 278.302 291.872 281.451 291.872 285.766C291.872 290.066 290.803 293.148 288.664 295.005C286.54 296.847 283.294 297.946 278.92 298.303V298.511C283.034 299.068 285.909 300.286 287.535 302.165C289.154 304.051 289.971 307.2 289.971 311.612V315.623C289.971 318.259 290.105 320.042 290.387 320.97C290.662 321.884 291.256 322.337 292.17 322.337C293.076 322.337 293.803 321.921 294.338 321.089C294.873 320.242 295.363 318.467 295.824 315.771L297.101 315.949C296.544 320.25 295.564 323.139 294.16 324.624C292.771 326.087 290.001 326.823 285.842 326.823C281.682 326.823 278.727 325.842 276.989 323.882C275.243 321.921 274.374 318.259 274.374 312.89V307.334C274.374 304.504 274.003 302.432 273.275 301.125C272.54 299.803 271.181 299.135 269.205 299.135ZM265.165 274.269V297.679H267.601C270.49 297.679 272.629 296.802 274.018 295.035C275.421 293.252 276.127 290.363 276.127 286.36V284.132C276.127 280.136 275.451 277.492 274.107 276.2C272.755 274.915 270.609 274.269 267.66 274.269H265.165Z" fill="#F39A4A"/>
</svg>
