<svg width="24" height="24" viewBox="0 0 24 24" fill="none" xmlns="http://www.w3.org/2000/svg">
<path d="M12 18.6667C12.3778 18.6667 12.6947 18.5387 12.9507 18.2827C13.2067 18.0267 13.3342 17.7102 13.3333 17.3333V13.3333H17.3333C17.7111 13.3333 18.028 13.2053 18.284 12.9493C18.54 12.6933 18.6676 12.3769 18.6667 12C18.6667 11.6222 18.5387 11.3053 18.2827 11.0493C18.0267 10.7933 17.7102 10.6658 17.3333 10.6667H13.3333V6.66667C13.3333 6.28889 13.2053 5.972 12.9493 5.716C12.6933 5.46 12.3769 5.33245 12 5.33333C11.6222 5.33333 11.3053 5.46133 11.0493 5.71733C10.7933 5.97333 10.6658 6.28978 10.6667 6.66667V10.6667H6.66667C6.28889 10.6667 5.972 10.7947 5.716 11.0507C5.46 11.3067 5.33245 11.6231 5.33333 12C5.33333 12.3778 5.46133 12.6947 5.71733 12.9507C5.97333 13.2067 6.28978 13.3342 6.66667 13.3333H10.6667V17.3333C10.6667 17.7111 10.7947 18.028 11.0507 18.284C11.3067 18.54 11.6231 18.6676 12 18.6667ZM2.66667 24C1.93334 24 1.30534 23.7387 0.782669 23.216C0.260002 22.6933 -0.000886625 22.0658 2.26372e-06 21.3333V2.66667C2.26372e-06 1.93334 0.261336 1.30534 0.784002 0.782669C1.30667 0.260002 1.93422 -0.000886625 2.66667 2.26372e-06H21.3333C22.0667 2.26372e-06 22.6947 0.261336 23.2173 0.784002C23.74 1.30667 24.0009 1.93422 24 2.66667V21.3333C24 22.0667 23.7387 22.6947 23.216 23.2173C22.6933 23.74 22.0658 24.0009 21.3333 24H2.66667Z" fill="#1E1E1E"/>
</svg>
