<svg width="32" height="32" viewBox="0 0 32 32" fill="none" xmlns="http://www.w3.org/2000/svg">
<g clip-path="url(#clip0_385_66998)">
<path fill-rule="evenodd" clip-rule="evenodd" d="M32 6.93335V25.0667C32.0018 25.9777 31.8237 26.8801 31.476 27.7221C31.1282 28.5641 30.6175 29.3292 29.9733 29.9733C29.3292 30.6175 28.5641 31.1282 27.7221 31.476C26.8801 31.8237 25.9777 32.0018 25.0667 32H6.93335C6.02234 32.0018 5.11994 31.8237 4.27792 31.476C3.43591 31.1282 2.67086 30.6175 2.02668 29.9733C1.3825 29.3292 0.871863 28.5641 0.524075 27.7221C0.176287 26.8801 -0.00180629 25.9777 1.38112e-05 25.0667V6.93335C-0.00180629 6.02234 0.176287 5.11994 0.524075 4.27792C0.871863 3.43591 1.3825 2.67086 2.02668 2.02668C2.67086 1.3825 3.43591 0.871863 4.27792 0.524075C5.11994 0.176287 6.02234 -0.00180629 6.93335 1.38112e-05H25.0667C25.9777 -0.00180629 26.8801 0.176287 27.7221 0.524075C28.5641 0.871863 29.3292 1.3825 29.9733 2.02668C30.6175 2.67086 31.1282 3.43591 31.476 4.27792C31.8237 5.11994 32.0018 6.02234 32 6.93335Z" fill="url(#paint0_linear_385_66998)"/>
<path fill-rule="evenodd" clip-rule="evenodd" d="M22.0273 18.3999H26.0007C26.3897 18.3999 26.7627 18.5544 27.0378 18.8295C27.3128 19.1045 27.4673 19.4776 27.4673 19.8666C27.4673 20.2556 27.3128 20.6286 27.0378 20.9037C26.7627 21.1787 26.3897 21.3332 26.0007 21.3332H22.0273V18.3999Z" fill="#092C4C"/>
<path fill-rule="evenodd" clip-rule="evenodd" d="M17.1485 18.4C17.4256 18.3983 17.7003 18.4517 17.9566 18.557C18.213 18.6622 18.4459 18.8174 18.6418 19.0133C18.8378 19.2093 18.9929 19.4422 19.0982 19.6985C19.2035 19.9548 19.2568 20.2295 19.2552 20.5066C19.2562 20.79 19.2019 21.0708 19.0952 21.3333H6.00182C5.61284 21.3333 5.23979 21.1788 4.96473 20.9037C4.68968 20.6287 4.53516 20.2556 4.53516 19.8666C4.53516 19.4777 4.68968 19.1046 4.96473 18.8296C5.23979 18.5545 5.61284 18.4 6.00182 18.4H17.1485ZM16.7752 8.74664V11.3066H15.0685L12.9885 7.73331C12.8971 7.57571 12.8377 7.40164 12.8137 7.22107C12.7897 7.04049 12.8015 6.85695 12.8484 6.68094C12.8954 6.50493 12.9766 6.33991 13.0874 6.19531C13.1982 6.05071 13.3364 5.92938 13.4942 5.83824C13.6519 5.74711 13.826 5.68796 14.0066 5.66419C14.1873 5.64042 14.3708 5.65249 14.5467 5.69971C14.7227 5.74693 14.8876 5.82837 15.032 5.93938C15.1764 6.05039 15.2976 6.18878 15.3885 6.34664L16.7752 8.74664ZM18.2418 11.2266L25.5218 23.84C25.7163 24.1759 25.7694 24.5754 25.6694 24.9504C25.5693 25.3255 25.3244 25.6455 24.9885 25.84C24.6525 26.0345 24.2531 26.0875 23.878 25.9875C23.503 25.8875 23.183 25.6426 22.9885 25.3066L18.5885 17.6533C18.1885 16.9066 17.8952 16.32 17.7085 16C17.2703 15.2534 17.0854 14.385 17.1815 13.5246C17.2777 12.6643 17.6496 11.8581 18.2418 11.2266Z" fill="#092C4C"/>
<path fill-rule="evenodd" clip-rule="evenodd" d="M12.2662 19.7334H8.87957L16.5329 6.48006C16.7274 6.14412 17.0474 5.8992 17.4224 5.79918C17.7975 5.69916 18.197 5.75223 18.5329 5.94673C18.8688 6.14122 19.1138 6.4612 19.2138 6.83627C19.3138 7.21134 19.2607 7.61079 19.0662 7.94673L12.2662 19.7334ZM10.4796 22.8001L9.06624 25.2801C8.96993 25.4464 8.84181 25.5921 8.68918 25.709C8.53656 25.8258 8.36241 25.9114 8.17669 25.9609C7.99098 26.0105 7.79732 26.0229 7.60679 25.9976C7.41626 25.9723 7.23258 25.9097 7.06624 25.8134C6.8999 25.7171 6.75415 25.589 6.63733 25.4363C6.5205 25.2837 6.43488 25.1096 6.38536 24.9238C6.33583 24.7381 6.32337 24.5445 6.34869 24.3539C6.374 24.1634 6.4366 23.9797 6.5329 23.8134L7.5729 22.0001C7.89587 21.8394 8.25218 21.7571 8.6129 21.7601C8.98913 21.7477 9.36163 21.838 9.69047 22.0212C10.0193 22.2044 10.2921 22.4736 10.4796 22.8001Z" fill="#092C4C"/>
</g>
<defs>
<linearGradient id="paint0_linear_385_66998" x1="15.9997" y1="32" x2="15.9997" y2="1.52588e-05" gradientUnits="userSpaceOnUse">
<stop stop-color="#1D6FF2"/>
<stop offset="1" stop-color="#1AC8FC"/>
</linearGradient>
<clipPath id="clip0_385_66998">
<rect width="32" height="32" fill="white"/>
</clipPath>
</defs>
</svg>
