<svg width="32" height="32" viewBox="0 0 32 32" fill="none" xmlns="http://www.w3.org/2000/svg">
<path d="M21.7812 5.10366C22.5241 4.40655 23.0906 3.59683 23.4481 2.721C23.8055 1.84516 23.947 0.920463 23.8643 0C21.5835 0.149889 19.4662 1.02322 17.9688 2.43184C17.2517 3.10695 16.7083 3.89235 16.3708 4.74152C16.0332 5.59068 15.9084 6.48636 16.0036 7.37551C17.1162 7.38306 18.216 7.18208 19.2178 6.78812C20.2197 6.39417 21.0968 5.81781 21.7812 5.10366ZM26.7334 17.0069C26.7466 15.7809 27.1432 14.5779 27.8859 13.5114C28.6286 12.4449 29.6928 11.55 30.9781 10.9113C30.1669 9.95972 29.0946 9.17512 27.8461 8.61971C26.5977 8.06429 25.2074 7.75333 23.7857 7.71149C20.72 7.4555 17.8902 9.16739 16.2591 9.16739C14.628 9.16739 12.3288 7.74349 9.77411 7.77548C8.10398 7.82027 6.47662 8.2167 5.05076 8.92611C3.62489 9.63551 2.44921 10.6337 1.63837 11.8232C-1.8203 16.7189 0.75405 23.9984 4.21272 27.9501C5.78484 29.886 7.75 32.0779 10.344 31.9979C12.938 31.9179 13.783 30.686 16.7897 30.686C19.7964 30.686 20.72 31.9979 23.2747 31.9499C25.8294 31.9019 27.6374 29.966 29.2881 28.0301C30.4574 26.6247 31.3709 25.0889 32 23.4704C30.4426 22.9297 29.1138 22.0294 28.1779 20.8807C27.2419 19.732 26.7397 18.3853 26.7334 17.0069Z" fill="#1E1E1E"/>
</svg>
