<svg width="20" height="22" viewBox="0 0 20 22" fill="none" xmlns="http://www.w3.org/2000/svg">
<g clip-path="url(#clip0_385_67065)">
<path d="M0.418527 10.029C-0.139509 10.5661 -0.139509 11.4383 0.418527 11.9754L7.56138 18.8504C8.11942 19.3876 9.02567 19.3876 9.58371 18.8504C10.1417 18.3133 10.1417 17.4411 9.58371 16.904L4.87388 12.375H18.5703C19.3605 12.375 19.9989 11.7606 19.9989 11C19.9989 10.2395 19.3605 9.62505 18.5703 9.62505H4.87835L9.57924 5.09614C10.1373 4.55903 10.1373 3.68677 9.57924 3.14966C9.02121 2.61255 8.11496 2.61255 7.55692 3.14966L0.414063 10.0247L0.418527 10.029Z" fill="#1E1E1E"/>
</g>
<defs>
<clipPath id="clip0_385_67065">
<rect width="20" height="22" fill="white"/>
</clipPath>
</defs>
</svg>
