<svg width="32" height="37" viewBox="0 0 32 37" fill="none" xmlns="http://www.w3.org/2000/svg">
<g clip-path="url(#clip0_385_60137)">
<path d="M16 14.4752C15.2465 14.4754 14.51 14.6991 13.8837 15.118C13.2573 15.5368 12.7692 16.1319 12.481 16.8281C12.1929 17.5243 12.1176 18.2904 12.2648 19.0293C12.412 19.7683 12.775 20.447 13.3079 20.9797C13.8408 21.5124 14.5196 21.8752 15.2587 22.0221C15.9977 22.1689 16.7637 22.0934 17.4598 21.805C18.1559 21.5166 18.7508 21.0283 19.1694 20.4017C19.588 19.7752 19.8114 19.0386 19.8114 18.2852C19.8107 17.2747 19.4088 16.3058 18.6942 15.5914C17.9795 14.877 17.0105 14.4755 16 14.4752ZM24.9079 11.5466C24.7139 11.055 24.421 10.6086 24.0474 10.2349C23.6737 9.86129 23.2273 9.5684 22.7357 9.37444C21.2357 8.7823 17.6643 8.91516 16 8.91516C14.3357 8.91516 10.7679 8.7773 9.26357 9.37444C8.77203 9.5684 8.32559 9.86129 7.95193 10.2349C7.57828 10.6086 7.28539 11.055 7.09143 11.5466C6.5 13.0466 6.63214 16.6216 6.63214 18.2844C6.63214 19.9473 6.5 23.518 7.09429 25.023C7.28825 25.5146 7.58114 25.961 7.95479 26.3347C8.32844 26.7083 8.77489 27.0012 9.26643 27.1952C10.7664 27.7873 14.3379 27.6544 16.0029 27.6544C17.6679 27.6544 21.2343 27.7923 22.7386 27.1952C23.2301 27.0012 23.6766 26.7083 24.0502 26.3347C24.4239 25.961 24.7168 25.5146 24.9107 25.023C25.5071 23.523 25.37 19.948 25.37 18.2852C25.37 16.6223 25.5071 13.0523 24.9107 11.5473L24.9079 11.5466ZM16 24.1423C14.8416 24.1423 13.7091 23.7988 12.7459 23.1552C11.7827 22.5116 11.032 21.5968 10.5887 20.5266C10.1454 19.4563 10.0294 18.2787 10.2554 17.1425C10.4814 16.0063 11.0392 14.9627 11.8584 14.1435C12.6775 13.3244 13.7212 12.7666 14.8573 12.5406C15.9935 12.3146 17.1712 12.4305 18.2414 12.8739C19.3117 13.3172 20.2264 14.0679 20.87 15.0311C21.5136 15.9943 21.8571 17.1267 21.8571 18.2852C21.8581 19.0546 21.7072 19.8167 21.4132 20.5277C21.1192 21.2387 20.6878 21.8848 20.1437 22.4289C19.5996 22.973 18.9536 23.4043 18.2425 23.6984C17.5315 23.9924 16.7694 24.1432 16 24.1423ZM22.0986 13.5494C21.8281 13.5496 21.5638 13.4695 21.3388 13.3194C21.1139 13.1692 20.9386 12.9558 20.835 12.706C20.7314 12.4562 20.7042 12.1813 20.7569 11.916C20.8096 11.6508 20.9397 11.4071 21.1309 11.2158C21.3221 11.0246 21.5657 10.8943 21.8309 10.8415C22.0961 10.7887 22.371 10.8157 22.6209 10.9192C22.8707 11.0226 23.0843 11.1978 23.2345 11.4227C23.3848 11.6475 23.465 11.9119 23.465 12.1823C23.4658 12.3619 23.431 12.5398 23.3629 12.706C23.2947 12.8721 23.1944 13.0232 23.0677 13.1504C22.941 13.2777 22.7904 13.3787 22.6246 13.4477C22.4588 13.5167 22.281 13.5522 22.1014 13.5523L22.0986 13.5494ZM28.5714 2.28516H3.42857C2.51926 2.28516 1.64719 2.64638 1.00421 3.28936C0.361223 3.93234 0 4.80441 0 5.71373L0 30.8566C0 31.7659 0.361223 32.638 1.00421 33.281C1.64719 33.9239 2.51926 34.2852 3.42857 34.2852H28.5714C29.4807 34.2852 30.3528 33.9239 30.9958 33.281C31.6388 32.638 32 31.7659 32 30.8566V5.71373C32 4.80441 31.6388 3.93234 30.9958 3.28936C30.3528 2.64638 29.4807 2.28516 28.5714 2.28516ZM27.3486 22.9994C27.2564 24.8302 26.8386 26.4523 25.5021 27.7852C24.1657 29.118 22.545 29.5444 20.7164 29.6316C18.83 29.738 13.1743 29.738 11.2879 29.6316C9.45714 29.5394 7.84071 29.1209 6.50214 27.7852C5.16357 26.4494 4.74286 24.8266 4.65571 22.9994C4.54929 21.1123 4.54929 15.4559 4.65571 13.5709C4.74786 11.7402 5.16071 10.118 6.50214 8.78516C7.84357 7.4523 9.46429 7.03087 11.2879 6.94373C13.1743 6.8373 18.83 6.8373 20.7164 6.94373C22.5471 7.03587 24.1686 7.45444 25.5021 8.79016C26.8357 10.1259 27.2614 11.7487 27.3486 13.5794C27.455 15.4594 27.455 21.1109 27.3486 22.9994Z" fill="#092C4C"/>
</g>
<defs>
<clipPath id="clip0_385_60137">
<rect width="32" height="36.5714" fill="white"/>
</clipPath>
</defs>
</svg>
