<svg width="32" height="32" viewBox="0 0 32 32" fill="none" xmlns="http://www.w3.org/2000/svg">
<path d="M16 5C8.81875 5 3 10.8188 3 18V24.5C3 25.3312 2.33125 26 1.5 26C0.66875 26 0 25.3312 0 24.5V18C0 9.1625 7.1625 2 16 2C24.8375 2 32 9.1625 32 18V24.5C32 25.3312 31.3312 26 30.5 26C29.6688 26 29 25.3312 29 24.5V18C29 10.8188 23.1812 5 16 5ZM5 22C5 19.7938 6.79375 18 9 18H10C11.1062 18 12 18.8937 12 20V28C12 29.1063 11.1062 30 10 30H9C6.79375 30 5 28.2062 5 26V22ZM23 18C25.2062 18 27 19.7938 27 22V26C27 28.2062 25.2062 30 23 30H22C20.8937 30 20 29.1063 20 28V20C20 18.8937 20.8937 18 22 18H23Z" fill="#092C4C"/>
</svg>
