<svg width="32" height="37" viewBox="0 0 32 37" fill="none" xmlns="http://www.w3.org/2000/svg">
<path d="M16 8.77087C10.8071 8.77087 6.58571 12.9923 6.57857 18.1852C6.57857 19.9637 7.07857 21.6994 8.02143 23.1923L8.24286 23.5494L7.29286 27.0209L10.8571 26.0852L11.2 26.2923C12.6429 27.1494 14.3 27.6066 15.9929 27.6066H16C21.1857 27.6066 25.5214 23.3852 25.5214 18.1923C25.5214 15.678 24.4357 13.3137 22.6571 11.5352C20.8714 9.74944 18.5143 8.77087 16 8.77087ZM21.5357 22.228C21.3 22.8923 20.1714 23.4923 19.6286 23.5709C18.7286 23.7066 18.0286 23.6352 16.2357 22.8637C13.4 21.6352 11.5429 18.778 11.4 18.5923C11.2571 18.4066 10.2429 17.0566 10.2429 15.6637C10.2429 14.2709 10.9714 13.5852 11.2357 13.2994C11.4929 13.0137 11.8 12.9423 11.9929 12.9423C12.1786 12.9423 12.3714 12.9423 12.5357 12.9494C12.7071 12.9566 12.9429 12.8852 13.1714 13.4352C13.4071 13.9994 13.9714 15.3923 14.0429 15.5352C14.1143 15.678 14.1643 15.8423 14.0643 16.028C13.5214 17.1137 12.9429 17.0709 13.2357 17.5709C14.3286 19.4494 15.4214 20.0994 17.0857 20.9352C17.3714 21.078 17.5357 21.0566 17.7 20.8637C17.8643 20.678 18.4071 20.0352 18.5929 19.7566C18.7786 19.4709 18.9714 19.5209 19.2286 19.6137C19.4857 19.7066 20.8786 20.3923 21.1643 20.5352C21.45 20.678 21.6357 20.7494 21.7071 20.8637C21.7714 20.9994 21.7714 21.5709 21.5357 22.228ZM28.5714 2.28516H3.42857C1.53571 2.28516 0 3.82087 0 5.71373V30.8566C0 32.7494 1.53571 34.2852 3.42857 34.2852H28.5714C30.4643 34.2852 32 32.7494 32 30.8566V5.71373C32 3.82087 30.4643 2.28516 28.5714 2.28516ZM15.9929 29.5137C14.0929 29.5137 12.2286 29.0352 10.5786 28.1352L4.57143 29.7137L6.17857 23.8423C5.18571 22.128 4.66429 20.178 4.66429 18.178C4.67143 11.9352 9.75 6.85659 15.9929 6.85659C19.0214 6.85659 21.8643 8.03516 24.0071 10.178C26.1429 12.3209 27.4286 15.1637 27.4286 18.1923C27.4286 24.4352 22.2357 29.5137 15.9929 29.5137Z" fill="#092C4C"/>
</svg>
