<svg width="24" height="28" viewBox="0 0 24 28" fill="none" xmlns="http://www.w3.org/2000/svg">
<path d="M3.2 0C1.435 0 0 1.56953 0 3.5V24.5C0 26.4305 1.435 28 3.2 28H17.6C19.365 28 20.8 26.4305 20.8 24.5V3.5C20.8 1.56953 19.365 0 17.6 0H3.2ZM8.8 15.75H12C14.21 15.75 16 17.7078 16 20.125C16 20.6063 15.64 21 15.2 21H5.6C5.16 21 4.8 20.6063 4.8 20.125C4.8 17.7078 6.59 15.75 8.8 15.75ZM13.6 10.5C13.6 12.4305 12.165 14 10.4 14C8.635 14 7.2 12.4305 7.2 10.5C7.2 8.56953 8.635 7 10.4 7C12.165 7 13.6 8.56953 13.6 10.5ZM24 4.375C24 3.89375 23.64 3.5 23.2 3.5C22.76 3.5 22.4 3.89375 22.4 4.375V7.875C22.4 8.35625 22.76 8.75 23.2 8.75C23.64 8.75 24 8.35625 24 7.875V4.375ZM23.2 10.5C22.76 10.5 22.4 10.8938 22.4 11.375V14.875C22.4 15.3562 22.76 15.75 23.2 15.75C23.64 15.75 24 15.3562 24 14.875V11.375C24 10.8938 23.64 10.5 23.2 10.5ZM24 18.375C24 17.8937 23.64 17.5 23.2 17.5C22.76 17.5 22.4 17.8937 22.4 18.375V21.875C22.4 22.3563 22.76 22.75 23.2 22.75C23.64 22.75 24 22.3563 24 21.875V18.375Z" fill="#1E1E1E"/>
</svg>
