<svg width="32" height="32" viewBox="0 0 32 32" fill="none" xmlns="http://www.w3.org/2000/svg">
<path d="M28.8 4.2666C29.6487 4.2666 30.4626 4.60374 31.0627 5.20386C31.6629 5.80398 32 6.61791 32 7.4666V10.6666H0V7.4666C0 6.61791 0.337142 5.80398 0.937258 5.20386C1.53737 4.60374 2.35131 4.2666 3.2 4.2666H28.8Z" fill="#27AE61"/>
<path fill-rule="evenodd" clip-rule="evenodd" d="M0 12.7998V24.5331C0 25.3818 0.337142 26.1958 0.937258 26.7959C1.53737 27.396 2.35131 27.7331 3.2 27.7331H28.8C29.6487 27.7331 30.4626 27.396 31.0627 26.7959C31.6629 26.1958 32 25.3818 32 24.5331V12.7998H0ZM4.26667 21.3331H17.0667V19.1998H4.26667V21.3331ZM27.7333 21.3331H21.3333V19.1998H27.7333V21.3331Z" fill="#27AE61"/>
</svg>
