<svg width="63" height="56" viewBox="0 0 63 56" fill="none" xmlns="http://www.w3.org/2000/svg">
<path d="M33.7969 11.5938C35.0438 10.8281 35.875 9.43906 35.875 7.875C35.875 5.45781 33.9172 3.5 31.5 3.5C29.0828 3.5 27.125 5.45781 27.125 7.875C27.125 9.45 27.9562 10.8281 29.2031 11.5938L22.9359 24.1281C21.9406 26.1188 19.3594 26.6875 17.6203 25.2984L7.875 17.5C8.42188 16.7672 8.75 15.8594 8.75 14.875C8.75 12.4578 6.79219 10.5 4.375 10.5C1.95781 10.5 0 12.4578 0 14.875C0 17.2922 1.95781 19.25 4.375 19.25C4.39687 19.25 4.42969 19.25 4.45156 19.25L9.45 46.7469C10.0516 50.0719 12.95 52.5 16.3406 52.5H46.6594C50.0391 52.5 52.9375 50.0828 53.55 46.7469L58.5484 19.25C58.5703 19.25 58.6031 19.25 58.625 19.25C61.0422 19.25 63 17.2922 63 14.875C63 12.4578 61.0422 10.5 58.625 10.5C56.2078 10.5 54.25 12.4578 54.25 14.875C54.25 15.8594 54.5781 16.7672 55.125 17.5L45.3797 25.2984C43.6406 26.6875 41.0594 26.1188 40.0641 24.1281L33.7969 11.5938Z" fill="#E2B93B"/>
</svg>
