<svg width="24" height="28" viewBox="0 0 24 28" fill="none" xmlns="http://www.w3.org/2000/svg">
<g clip-path="url(#clip0_385_61522)">
<path d="M11.999 1.75C8.63229 1.75 5.93646 3.7625 3.97396 6.15781C2.02396 8.53125 0.719792 11.375 0.103125 13.3273C-0.034375 13.7594 -0.034375 14.2406 0.103125 14.6727C0.719792 16.625 2.02396 19.4688 3.97396 21.8422C5.93646 24.2375 8.63229 26.25 11.999 26.25C15.3656 26.25 18.0615 24.2375 20.024 21.8422C21.974 19.4633 23.2781 16.625 23.899 14.6727C24.0365 14.2406 24.0365 13.7594 23.899 13.3273C23.2781 11.375 21.974 8.53125 20.024 6.15781C18.0615 3.7625 15.3656 1.75 11.999 1.75ZM17.999 14C17.999 18.3477 15.3115 21.875 11.999 21.875C8.68646 21.875 5.99896 18.3477 5.99896 14C5.99896 9.65234 8.68646 6.125 11.999 6.125C15.3115 6.125 17.999 9.65234 17.999 14ZM11.999 10.5C11.999 12.4305 10.8031 14 9.33229 14C8.85313 14 8.40312 13.8359 8.01562 13.5406C8.00729 13.6938 7.99896 13.8414 7.99896 14C7.99896 16.8984 9.79063 19.25 11.999 19.25C14.2073 19.25 15.999 16.8984 15.999 14C15.999 11.1016 14.2073 8.75 11.999 8.75C11.8823 8.75 11.7656 8.75547 11.649 8.77187C11.8698 9.28047 11.999 9.87109 11.999 10.5Z" fill="#1E1E1E"/>
</g>
<defs>
<clipPath id="clip0_385_61522">
<rect width="24" height="28" fill="white"/>
</clipPath>
</defs>
</svg>
