<svg width="34" height="33" viewBox="0 0 34 33" fill="none" xmlns="http://www.w3.org/2000/svg">
<path d="M31.8559 0H2.13177C1.22935 0 0.5 0.613594 0.5 1.36125V4.92938H33.5V1.36125C33.4938 0.613594 32.7645 0 31.8559 0ZM5.27786 4.08891C4.20856 4.08891 3.33087 3.36188 3.33087 2.46469C3.33087 1.57266 4.20238 0.840469 5.27786 0.840469C6.35334 0.840469 7.22486 1.5675 7.22486 2.46469C7.22486 3.35672 6.34716 4.08891 5.27786 4.08891ZM9.85175 4.08891C8.78245 4.08891 7.90476 3.36188 7.90476 2.46469C7.90476 1.57266 8.77627 0.840469 9.85175 0.840469C10.9211 0.840469 11.7926 1.5675 11.7926 2.46469C11.7926 3.35672 10.9211 4.08891 9.85175 4.08891ZM14.4195 4.08891C13.3502 4.08891 12.4786 3.36188 12.4786 2.46469C12.4786 1.57266 13.344 0.840469 14.4195 0.840469C15.4949 0.840469 16.3665 1.5675 16.3665 2.46469C16.3665 3.35672 15.4949 4.08891 14.4195 4.08891ZM30.6568 3.38766C30.6568 3.68156 30.3786 3.91875 30.0201 3.91875H23.3262C22.9677 3.91875 22.6895 3.68156 22.6895 3.38766V1.54172C22.6895 1.24781 22.9677 1.01063 23.3262 1.01063H30.0201C30.3786 1.01063 30.6568 1.24781 30.6568 1.54172V3.38766ZM0.5 31.6336C0.5 32.3916 1.23553 33 2.13177 33H31.8559C32.7645 33 33.4938 32.3864 33.4938 31.6336V5.99156H0.5V31.6336ZM16.5581 8.87906C23.5734 8.87906 29.2784 13.6434 29.2784 19.4958C29.2784 25.3481 23.5734 30.1073 16.5581 30.1073C9.54271 30.1073 3.8377 25.3481 3.8377 19.4958C3.8377 13.6434 9.53653 8.87906 16.5581 8.87906Z" fill="#092C4C"/>
<path d="M5.27801 3.28965C5.82419 3.28965 6.26696 2.92028 6.26696 2.46465C6.26696 2.00901 5.82419 1.63965 5.27801 1.63965C4.73183 1.63965 4.28906 2.00901 4.28906 2.46465C4.28906 2.92028 4.73183 3.28965 5.27801 3.28965Z" fill="#092C4C"/>
<path d="M9.85223 1.63965C9.30831 1.63965 8.86328 2.0109 8.86328 2.46465C8.86328 2.9184 9.30831 3.28965 9.85223 3.28965C10.3962 3.28965 10.835 2.9184 10.835 2.46465C10.835 2.0109 10.3962 1.63965 9.85223 1.63965ZM14.4199 1.63965C13.876 1.63965 13.4372 2.0109 13.4372 2.46465C13.4372 2.9184 13.876 3.28965 14.4199 3.28965C14.9639 3.28965 15.4089 2.9184 15.4089 2.46465C15.4089 2.0109 14.9639 1.63965 14.4199 1.63965Z" fill="#092C4C"/>
<path d="M29.7058 1.81006H23.6484V3.11975H29.7058V1.81006Z" fill="#092C4C"/>
<path d="M16.5565 29.0453C22.8672 29.0453 28.0036 24.7605 28.0036 19.4959C28.0036 14.2263 22.8672 9.94141 16.5565 9.94141C10.2395 9.94141 5.10938 14.2263 5.10938 19.4959C5.10937 24.7605 10.2395 29.0453 16.5565 29.0453ZM16.5565 11.4316C21.8844 11.4316 26.2173 15.0513 26.2173 19.4959C26.2173 23.9406 21.8844 27.5552 16.5565 27.5552C11.2285 27.5552 6.88948 23.9406 6.88948 19.4959C6.88948 15.0513 11.2285 11.4316 16.5565 11.4316Z" fill="#092C4C"/>
<path d="M17.6658 19.0985C17.7029 19.1088 17.7338 19.114 17.7709 19.1192C17.8141 19.1243 17.8574 19.1243 17.9007 19.1346C22.3324 19.939 23.8653 17.2835 24.1867 16.5926C22.8578 14.1743 19.9466 12.4985 16.5594 12.4985C11.9361 12.4985 8.17188 15.6387 8.17188 19.4956C8.17188 20.1401 8.28313 20.7692 8.48092 21.357C10.3661 19.6348 13.3639 18.1085 17.6658 19.0985Z" fill="#092C4C"/>
<path d="M16.5599 26.493C21.1833 26.493 24.9413 23.358 24.9413 19.5011C24.9413 18.9752 24.8733 18.4596 24.7373 17.9697C23.7669 19.2227 21.6901 20.883 17.7281 20.1921C17.5983 20.1869 17.4747 20.1611 17.3325 20.1302C14.0443 19.3722 11.2443 20.1766 8.98828 22.5021C10.3295 24.8585 13.2222 26.493 16.5599 26.493Z" fill="#092C4C"/>
</svg>
