<svg width="33" height="33" viewBox="0 0 33 33" fill="none" xmlns="http://www.w3.org/2000/svg">
<path d="M33 28.8389H0V32.9999H33V28.8389Z" fill="#092C4C"/>
<path d="M20.5894 10.3032L9.49212 15.5074L7.52344 19.0208L21.7391 12.355L20.5894 10.3032Z" fill="#092C4C"/>
<path d="M16.5004 8.146L12.6057 9.95328L10.6875 13.3764L19.1847 9.39161L16.5004 8.146Z" fill="#092C4C"/>
<path d="M4.36328 24.6646L23.5877 15.6497L22.4384 13.5986L6.33212 21.1509L4.36328 24.6646Z" fill="#092C4C"/>
<path d="M26.4387 8.5883L25.3477 9.6477L26.5104 10.5807L28.5623 8.5883L26.991 7.06244L28.5624 5.53679L26.991 4.01121L28.0819 2.95209L26.9192 2.01904L24.8672 4.01121L26.4386 5.53679L24.8672 7.06237L26.4387 8.5883Z" fill="#092C4C"/>
<path d="M5.22385 13.4428L4.13289 14.5022L5.29559 15.4352L7.34748 13.4428L5.77613 11.9169L7.34756 10.3913L5.77613 8.86571L6.86702 7.80658L5.70431 6.87354L3.65234 8.86571L5.22377 10.3913L3.65234 11.9169L5.22385 13.4428Z" fill="#092C4C"/>
<path d="M27.9767 23.4849L19.5156 27.4521H30.1997L27.9767 23.4849Z" fill="#092C4C"/>
<path d="M25.4336 18.9453L24.2839 16.8936L3.16889 26.7951L2.80078 27.4521H7.29184L25.4336 18.9453Z" fill="#092C4C"/>
<path d="M10.6406 27.452H16.1658L27.2797 22.241L26.1299 20.189L10.6406 27.452Z" fill="#092C4C"/>
<path d="M13.5786 7.93463L16.4995 6.57924L19.4204 7.93463L18.8625 5.06386L21.2256 3.03077L17.9599 2.61196L16.4995 0L15.0391 2.61196L11.7734 3.03077L14.1365 5.06386L13.5786 7.93463Z" fill="#092C4C"/>
</svg>
