<svg width="32" height="32" viewBox="0 0 32 32" fill="none" xmlns="http://www.w3.org/2000/svg">
<g clip-path="url(#clip0_385_66990)">
<path d="M31.9847 16.2994C31.9847 14.9884 31.8758 14.0317 31.6402 13.0396H16.3203V18.9569H25.3128C25.1315 20.4274 24.1525 22.642 21.9769 24.1301L21.9464 24.3282L26.7902 27.9952L27.1258 28.0279C30.2079 25.2463 31.9847 21.1537 31.9847 16.2994Z" fill="#4285F4"/>
<path d="M16.3188 31.8901C20.7244 31.8901 24.4228 30.4727 27.1243 28.0279L21.9754 24.1301C20.5975 25.0691 18.7482 25.7246 16.3188 25.7246C12.0039 25.7246 8.34163 22.9432 7.03614 19.0986L6.84479 19.1145L1.80806 22.9236L1.74219 23.1025C4.42541 28.3112 9.93697 31.8901 16.3188 31.8901Z" fill="#34A853"/>
<path d="M7.0344 19.0987C6.68993 18.1066 6.49058 17.0435 6.49058 15.9451C6.49058 14.8466 6.68993 13.7837 7.01628 12.7915L7.00715 12.5803L1.9073 8.70996L1.74045 8.78752C0.63456 10.949 0 13.3762 0 15.9451C0 18.5141 0.63456 20.9412 1.74045 23.1026L7.0344 19.0987Z" fill="#FBBC05"/>
<path d="M16.3188 6.16537C19.3827 6.16537 21.4495 7.45869 22.628 8.53948L27.2331 4.14571C24.4048 1.57679 20.7244 0 16.3188 0C9.93697 0 4.42541 3.57875 1.74219 8.78742L7.01802 12.7915C8.34163 8.94693 12.0039 6.16537 16.3188 6.16537Z" fill="#EB4335"/>
</g>
<defs>
<clipPath id="clip0_385_66990">
<rect width="32" height="32" fill="white"/>
</clipPath>
</defs>
</svg>
