<svg width="24" height="28" viewBox="0 0 24 28" fill="none" xmlns="http://www.w3.org/2000/svg">
<g clip-path="url(#clip0_385_61503)">
<path d="M12 28C18.6281 28 24 21.7328 24 14C24 6.26719 18.6281 0 12 0C5.37188 0 0 6.26719 0 14C0 21.7328 5.37188 28 12 28ZM10.125 18.375H11.25V14.875H10.125C9.50156 14.875 9 14.2898 9 13.5625C9 12.8352 9.50156 12.25 10.125 12.25H12.375C12.9984 12.25 13.5 12.8352 13.5 13.5625V18.375H13.875C14.4984 18.375 15 18.9602 15 19.6875C15 20.4148 14.4984 21 13.875 21H10.125C9.50156 21 9 20.4148 9 19.6875C9 18.9602 9.50156 18.375 10.125 18.375ZM12 10.5C11.1703 10.5 10.5 9.71797 10.5 8.75C10.5 7.78203 11.1703 7 12 7C12.8297 7 13.5 7.78203 13.5 8.75C13.5 9.71797 12.8297 10.5 12 10.5Z" fill="#1E1E1E"/>
</g>
<defs>
<clipPath id="clip0_385_61503">
<rect width="24" height="28" fill="white"/>
</clipPath>
</defs>
</svg>
