<svg width="29" height="28" viewBox="0 0 29 28" fill="none" xmlns="http://www.w3.org/2000/svg">
<path d="M11.875 19.2407C11.875 20.7508 11.875 25.375 11.875 25.375C11.875 25.8582 11.4832 26.25 11 26.25H4C3.51675 26.25 3.125 25.8582 3.125 25.375V13.125C3.125 12.8929 3.21719 12.6704 3.38128 12.5063L13.8813 2.00628C14.223 1.66457 14.777 1.66457 15.1187 2.00628L25.6187 12.5063C25.7828 12.6704 25.875 12.8929 25.875 13.125V25.375C25.875 25.8582 25.4832 26.25 25 26.25H18C17.5168 26.25 17.125 25.8582 17.125 25.375C17.125 25.375 17.125 21.2809 17.125 19.25C17.125 18.8125 16.6875 18.375 16.25 18.375C14.7273 18.375 13.5741 18.375 12.75 18.375C12.3125 18.375 11.875 18.8125 11.875 19.2407Z" fill="#092C4C"/>
<path fill-rule="evenodd" clip-rule="evenodd" d="M23.25 4.375V10.5L19.75 7V4.375C19.75 3.89175 20.1418 3.5 20.625 3.5H22.375C22.8582 3.5 23.25 3.89175 23.25 4.375Z" fill="#092C4C"/>
</svg>
