<svg width="29" height="28" viewBox="0 0 29 28" fill="none" xmlns="http://www.w3.org/2000/svg">
<path fill-rule="evenodd" clip-rule="evenodd" d="M13.8813 2.00628C14.223 1.66457 14.777 1.66457 15.1187 2.00628L25.6187 12.5063C25.7828 12.6704 25.875 12.8929 25.875 13.125V25.375C25.875 25.8582 25.4832 26.25 25 26.25H17.125C16.6418 26.25 16.25 25.8582 16.25 25.375V18.375H12.75V25.375C12.75 25.8582 12.3582 26.25 11.875 26.25H4C3.51675 26.25 3.125 25.8582 3.125 25.375V13.125C3.125 12.8929 3.21719 12.6704 3.38128 12.5063L13.8813 2.00628ZM4.875 13.4874V24.5H11V17.5C11 17.0168 11.3918 16.625 11.875 16.625H17.125C17.6082 16.625 18 17.0168 18 17.5V24.5H24.125V13.4874L14.5 3.86244L4.875 13.4874Z" fill="#092C4C"/>
<path fill-rule="evenodd" clip-rule="evenodd" d="M23.25 4.375V10.5L19.75 7V4.375C19.75 3.89175 20.1418 3.5 20.625 3.5H22.375C22.8582 3.5 23.25 3.89175 23.25 4.375Z" fill="#092C4C"/>
</svg>
