<svg width="29" height="28" viewBox="0 0 29 28" fill="none" xmlns="http://www.w3.org/2000/svg">
<path fill-rule="evenodd" clip-rule="evenodd" d="M0.5 3.5C0.5 1.567 2.067 0 4 0H25C26.933 0 28.5 1.567 28.5 3.5V17.5C28.5 19.433 26.933 21 25 21H8.22487C7.76074 21 7.31563 21.1844 6.98744 21.5126L1.99372 26.5063C1.4425 27.0575 0.5 26.6671 0.5 25.8876V3.5ZM9.25 10.5C9.25 11.4665 8.4665 12.25 7.5 12.25C6.5335 12.25 5.75 11.4665 5.75 10.5C5.75 9.5335 6.5335 8.75 7.5 8.75C8.4665 8.75 9.25 9.5335 9.25 10.5ZM16.25 10.5C16.25 11.4665 15.4665 12.25 14.5 12.25C13.5335 12.25 12.75 11.4665 12.75 10.5C12.75 9.5335 13.5335 8.75 14.5 8.75C15.4665 8.75 16.25 9.5335 16.25 10.5ZM21.5 12.25C22.4665 12.25 23.25 11.4665 23.25 10.5C23.25 9.5335 22.4665 8.75 21.5 8.75C20.5335 8.75 19.75 9.5335 19.75 10.5C19.75 11.4665 20.5335 12.25 21.5 12.25Z" fill="#092C4C"/>
</svg>
