<svg width="29" height="28" viewBox="0 0 29 28" fill="none" xmlns="http://www.w3.org/2000/svg">
<path fill-rule="evenodd" clip-rule="evenodd" d="M25 1.75H4C3.0335 1.75 2.25 2.5335 2.25 3.5V23.7751L5.75 20.2751C6.40638 19.6187 7.29661 19.25 8.22487 19.25H25C25.9665 19.25 26.75 18.4665 26.75 17.5V3.5C26.75 2.5335 25.9665 1.75 25 1.75ZM4 0C2.067 0 0.5 1.567 0.5 3.5V25.8876C0.5 26.6671 1.4425 27.0575 1.99372 26.5063L6.98744 21.5126C7.31563 21.1844 7.76074 21 8.22487 21H25C26.933 21 28.5 19.433 28.5 17.5V3.5C28.5 1.567 26.933 0 25 0H4Z" fill="#092C4C"/>
<path d="M9.25 10.5C9.25 11.4665 8.4665 12.25 7.5 12.25C6.5335 12.25 5.75 11.4665 5.75 10.5C5.75 9.5335 6.5335 8.75 7.5 8.75C8.4665 8.75 9.25 9.5335 9.25 10.5Z" fill="#092C4C"/>
<path d="M16.25 10.5C16.25 11.4665 15.4665 12.25 14.5 12.25C13.5335 12.25 12.75 11.4665 12.75 10.5C12.75 9.5335 13.5335 8.75 14.5 8.75C15.4665 8.75 16.25 9.5335 16.25 10.5Z" fill="#092C4C"/>
<path d="M23.25 10.5C23.25 11.4665 22.4665 12.25 21.5 12.25C20.5335 12.25 19.75 11.4665 19.75 10.5C19.75 9.5335 20.5335 8.75 21.5 8.75C22.4665 8.75 23.25 9.5335 23.25 10.5Z" fill="#092C4C"/>
</svg>
