<svg width="24" height="28" viewBox="0 0 24 28" fill="none" xmlns="http://www.w3.org/2000/svg">
<path d="M7.5 5.25C8.32969 5.25 9 4.46797 9 3.5C9 2.53203 8.32969 1.75 7.5 1.75H4.5C2.01562 1.75 0 4.10156 0 7V21C0 23.8984 2.01562 26.25 4.5 26.25H7.5C8.32969 26.25 9 25.468 9 24.5C9 23.532 8.32969 22.75 7.5 22.75H4.5C3.67031 22.75 3 21.968 3 21V7C3 6.03203 3.67031 5.25 4.5 5.25H7.5ZM23.6484 14.9516C23.8734 14.7055 24 14.3609 24 14C24 13.6391 23.8734 13.2945 23.6484 13.0484L16.8984 5.61094C16.5703 5.25 16.0922 5.15156 15.6797 5.35938C15.2672 5.56719 15 6.04297 15 6.5625V10.5H9C8.17031 10.5 7.5 11.282 7.5 12.25V15.75C7.5 16.718 8.17031 17.5 9 17.5H15V21.4375C15 21.9625 15.2672 22.4328 15.6797 22.6406C16.0922 22.8484 16.5703 22.75 16.8984 22.3891L23.6484 14.9516Z" fill="#EB5757"/>
</svg>
