<svg width="46" height="29" viewBox="0 0 46 29" fill="none" xmlns="http://www.w3.org/2000/svg">
<path fill-rule="evenodd" clip-rule="evenodd" d="M23.0139 24.9697C25.5282 27.2833 28.8217 28.5651 32.2385 28.5598C35.8963 28.5365 39.3964 27.0672 41.9746 24.4725C44.5529 21.8777 46 18.3684 46 14.7106C46 11.0527 44.5529 7.54337 41.9746 4.94866C39.3964 2.35396 35.8963 0.884598 32.2385 0.861346C28.8217 0.855863 25.5281 2.13767 23.0139 4.45146C21.5836 5.75045 20.4408 7.33416 19.6587 9.10092C18.8767 10.8677 18.4727 12.7784 18.4727 14.7106C18.4727 16.6427 18.8767 18.5534 19.6587 20.3202C20.4408 22.087 21.5836 23.6707 23.0139 24.9697Z" fill="#E9B040"/>
<path fill-rule="evenodd" clip-rule="evenodd" d="M44.1762 22.4263C44.176 22.3701 44.1869 22.3144 44.2084 22.2623C44.2298 22.2103 44.2613 22.1631 44.3011 22.1233C44.3408 22.0835 44.3881 22.052 44.4401 22.0306C44.4921 22.0092 44.5478 21.9983 44.6041 21.9985C44.6621 21.9959 44.72 22.0049 44.7744 22.0252C44.8288 22.0455 44.8786 22.0765 44.9207 22.1165C44.9629 22.1564 44.9965 22.2044 45.0197 22.2577C45.0428 22.3109 45.055 22.3683 45.0554 22.4263C45.0575 22.4862 45.0472 22.5458 45.0253 22.6016C45.0034 22.6573 44.9702 22.7079 44.9279 22.7503C44.8855 22.7927 44.835 22.8259 44.7793 22.8479C44.7236 22.8699 44.6639 22.8802 44.6041 22.8783C44.546 22.8777 44.4886 22.8655 44.4353 22.8423C44.3821 22.8191 44.334 22.7854 44.2941 22.7433C44.2541 22.7011 44.2231 22.6513 44.2029 22.5968C44.1826 22.5424 44.1736 22.4844 44.1762 22.4263ZM44.6041 22.7834C44.6979 22.781 44.7872 22.7427 44.8536 22.6763C44.9199 22.6098 44.9581 22.5205 44.9603 22.4266C44.957 22.3353 44.9177 22.249 44.8509 22.1867C44.7842 22.1243 44.6954 22.091 44.6041 22.0939C44.5164 22.0957 44.4328 22.1313 44.3708 22.1933C44.3088 22.2553 44.2732 22.3389 44.2714 22.4266C44.2728 22.5167 44.3076 22.6031 44.3691 22.669C44.4305 22.735 44.5143 22.7757 44.6041 22.7834ZM44.5565 22.6407H44.4614V22.2363H44.6276C44.6612 22.2326 44.695 22.2412 44.7227 22.2604C44.7703 22.2839 44.7703 22.308 44.7703 22.3555C44.7703 22.4031 44.7468 22.4507 44.6992 22.4507L44.7944 22.641H44.6752L44.6276 22.4731H44.5565V22.4017H44.6517C44.6752 22.4017 44.6752 22.3776 44.6752 22.3541C44.6752 22.3306 44.6752 22.3301 44.6517 22.3066H44.5565V22.6407Z" fill="#E9B040"/>
<path fill-rule="evenodd" clip-rule="evenodd" d="M27.46 13.2485C27.4125 12.7493 27.3173 12.2738 27.2222 11.7744H18.8057C18.9074 11.2845 19.0343 10.8002 19.186 10.3235H26.8181C26.6525 9.82297 26.4623 9.33161 26.2476 8.84938H19.7806C20.0185 8.3457 20.2796 7.85434 20.5641 7.37528H25.4383C25.1247 6.86751 24.7752 6.38283 24.3923 5.92497H21.6115C22.0418 5.39944 22.5107 4.90671 23.0142 4.45087C21.3466 2.96046 19.342 1.89734 17.1727 1.35292C15.0034 0.808495 12.7344 0.799051 10.5607 1.3254C8.38691 1.85175 6.37352 2.89814 4.69357 4.37461C3.01363 5.85108 1.71739 7.71346 0.916305 9.80163C0.115221 11.8898 -0.166744 14.1413 0.0946539 16.3625C0.356051 18.5838 1.15299 20.7083 2.41695 22.5534C3.68092 24.3986 5.37409 25.9092 7.3509 26.9553C9.32771 28.0014 11.529 28.5518 13.7656 28.5592C17.1896 28.5646 20.4906 27.2832 23.0142 24.9691C23.5101 24.5212 23.9712 24.0363 24.3935 23.5185H21.6115C21.2359 23.0467 20.8866 22.5546 20.5652 22.0444H25.4394C25.7459 21.5742 26.0162 21.0814 26.2478 20.5703H19.7806C19.558 20.0971 19.3596 19.6129 19.186 19.1197H26.8181C26.978 18.6356 27.1128 18.1436 27.2219 17.6456C27.3262 17.1586 27.4056 16.6666 27.4598 16.1715C27.5079 15.6895 27.5319 15.2053 27.5314 14.7209C27.5314 14.2225 27.5076 13.7233 27.46 13.2479V13.2485Z" fill="#CC2131"/>
<path fill-rule="evenodd" clip-rule="evenodd" d="M44.1762 17.9321C44.1736 17.8741 44.1827 17.8161 44.2029 17.7617C44.2232 17.7073 44.2542 17.6576 44.2942 17.6154C44.3341 17.5733 44.3822 17.5397 44.4354 17.5165C44.4886 17.4934 44.546 17.4812 44.6041 17.4807C44.6639 17.4787 44.7235 17.489 44.7792 17.5109C44.8348 17.5329 44.8854 17.5661 44.9277 17.6084C44.9701 17.6507 45.0032 17.7013 45.0252 17.757C45.0472 17.8127 45.0575 17.8723 45.0554 17.9321C45.0575 17.9911 45.0477 18.05 45.0266 18.1052C45.0054 18.1603 44.9734 18.2107 44.9324 18.2532C44.8913 18.2957 44.8422 18.3295 44.7878 18.3526C44.7334 18.3757 44.6749 18.3876 44.6158 18.3876C44.5567 18.3876 44.4983 18.3757 44.4439 18.3526C44.3895 18.3295 44.3403 18.2957 44.2993 18.2532C44.2583 18.2107 44.2262 18.1603 44.2051 18.1052C44.1839 18.05 44.1741 17.9911 44.1762 17.9321ZM44.6041 18.2648C44.6498 18.268 44.6956 18.2618 44.7388 18.2466C44.782 18.2313 44.8215 18.2074 44.8551 18.1761C44.8886 18.1449 44.9153 18.1072 44.9336 18.0652C44.9518 18.0232 44.9613 17.9779 44.9613 17.9321C44.9613 17.8863 44.9518 17.841 44.9336 17.799C44.9153 17.757 44.8886 17.7192 44.8551 17.688C44.8215 17.6568 44.782 17.6328 44.7388 17.6176C44.6956 17.6023 44.6498 17.5961 44.6041 17.5994C44.5158 17.5994 44.4312 17.6344 44.3688 17.6968C44.3064 17.7592 44.2714 17.8438 44.2714 17.9321C44.2714 18.0203 44.3064 18.1049 44.3688 18.1673C44.4312 18.2297 44.5158 18.2648 44.6041 18.2648ZM44.5565 18.1221H44.4614V17.7418H44.7227C44.7703 17.7659 44.7703 17.8134 44.7703 17.861C44.767 17.8814 44.7588 17.9007 44.7465 17.9173C44.7341 17.9339 44.7179 17.9472 44.6992 17.9561L44.7944 18.1224H44.6751L44.6276 17.9796H44.5565V17.9083H44.6041C44.6276 17.9083 44.6516 17.9083 44.6516 17.8842C44.6751 17.8842 44.6751 17.8607 44.6751 17.8367C44.6752 17.8335 44.6747 17.8305 44.6735 17.8276C44.6724 17.8247 44.6706 17.8221 44.6684 17.8199C44.6662 17.8177 44.6636 17.8159 44.6607 17.8148C44.6578 17.8136 44.6547 17.8131 44.6516 17.8131C44.6516 17.7891 44.6276 17.8131 44.6041 17.8131H44.5565V18.1221Z" fill="white"/>
<path fill-rule="evenodd" clip-rule="evenodd" d="M18.33 18.7164C17.9673 18.8277 17.5917 18.8917 17.2127 18.9067C16.4994 18.9067 16.0713 18.4547 16.0713 17.6475C16.0763 17.4718 16.0922 17.2965 16.1188 17.1228L16.214 16.5763L16.2853 16.1244L16.9272 12.2259H18.3543L18.1864 13.0819H19.0905L18.8765 14.509H17.9732L17.5929 16.8388C17.5763 16.9169 17.5684 16.9967 17.5691 17.0766C17.5691 17.3858 17.7119 17.5045 18.0683 17.5045C18.22 17.5018 18.3711 17.4859 18.52 17.4569L18.33 18.7161V18.7164ZM22.9426 18.6688C22.4476 18.8097 21.9355 18.8817 21.4209 18.8826C19.8041 18.8826 18.8768 18.0266 18.8768 16.339C18.8768 14.3654 19.9706 12.9389 21.492 12.9389C22.7044 12.9389 23.4891 13.7473 23.4891 15.0071C23.4844 15.4794 23.4286 15.9498 23.3228 16.4101H20.3497C20.3327 16.472 20.3247 16.5361 20.326 16.6004C20.326 17.2661 20.7776 17.5988 21.6336 17.5988C22.1688 17.5969 22.6969 17.4752 23.179 17.2426L22.9426 18.6688ZM22.0628 15.269V14.9836C22.0751 14.8859 22.0653 14.7867 22.0341 14.6934C22.003 14.6 21.9513 14.5148 21.8828 14.4441C21.8144 14.3734 21.7309 14.3189 21.6386 14.2847C21.5463 14.2505 21.4475 14.2374 21.3495 14.2465C20.8738 14.2465 20.5411 14.603 20.3981 15.2687H22.0625L22.0628 15.269ZM6.9183 18.7875H5.44364L6.29961 13.3908L4.37388 18.7875H3.35169L3.23277 13.4149L2.32922 18.7875H0.878906L2.0438 11.774H4.20739L4.25495 16.1014L5.70527 11.774H8.08375L6.9183 18.7875ZM10.5087 16.2439C10.4147 16.2257 10.319 16.2177 10.2233 16.2198C9.3673 16.2198 8.93945 16.5525 8.93945 17.0758C8.9314 17.1518 8.93964 17.2286 8.96361 17.3012C8.98758 17.3738 9.02673 17.4404 9.07846 17.4967C9.13019 17.5529 9.19331 17.5975 9.26362 17.6275C9.33393 17.6574 9.40981 17.6721 9.48622 17.6704C10.1995 17.6704 10.4846 17.0758 10.5087 16.2433V16.2439ZM11.6974 18.7875H10.413L10.4368 18.1934C10.1038 18.6447 9.65327 18.8826 8.86754 18.8826C8.15427 18.8826 7.53614 18.241 7.53614 17.3136C7.53894 17.0635 7.57902 16.8152 7.65507 16.5769C7.89264 15.6968 8.7724 15.1498 10.1276 15.1263C10.2955 15.1263 10.5554 15.1263 10.7933 15.1503C10.8283 15.0266 10.8442 14.8983 10.8406 14.7698C10.8406 14.3892 10.5328 14.2703 9.84215 14.2703C9.4226 14.2679 9.00533 14.3322 8.6059 14.4606L8.39184 14.5081L8.2967 14.5316L8.51076 13.2478C9.06911 13.054 9.65471 12.9501 10.2457 12.94C11.5295 12.94 12.219 13.5344 12.219 14.6279C12.234 15.0019 12.2101 15.3765 12.1476 15.7455L11.8152 17.789L11.7676 18.1458L11.7438 18.4312L11.72 18.6215L11.6963 18.7875H11.6974ZM30.1233 13.1292C30.5916 13.1449 31.0488 13.2755 31.4547 13.5095L31.7161 11.9878C31.5924 11.9324 31.4654 11.8848 31.3358 11.8451L30.7418 11.6772C30.5155 11.6261 30.2839 11.6022 30.052 11.6058C29.3147 11.6058 28.8868 11.6296 28.4355 11.8912C28.1102 12.1054 27.8144 12.3612 27.5554 12.6521L27.3651 12.6045L25.8435 13.6743L25.9151 13.0799H24.3456L23.4188 18.7858H24.917L25.4635 15.7192C25.4635 15.7192 25.6778 15.2908 25.7727 15.1487C25.8651 15.0184 25.9916 14.9161 26.1384 14.8532C26.2852 14.7902 26.4465 14.769 26.6046 14.7919H26.7238C26.6739 15.1542 26.65 15.5197 26.6522 15.8854C26.6522 17.7398 27.6981 18.905 29.3149 18.905C29.7576 18.9021 30.1977 18.8381 30.6228 18.7147L30.8847 17.0982C30.503 17.3273 30.0703 17.458 29.6255 17.4784C28.7461 17.4784 28.2225 16.8128 28.2225 15.7668C28.2225 14.2213 29.006 13.1278 30.1253 13.1278L30.1233 13.1292ZM42.7475 11.774L42.4151 13.7711C42.2832 13.5265 42.0875 13.3222 41.8489 13.1799C41.6102 13.0376 41.3375 12.9625 41.0596 12.9627C40.6414 12.9749 40.235 13.1039 39.8863 13.3349C39.5375 13.566 39.2604 13.89 39.086 14.2703V14.2468L38.1346 13.676L38.2298 13.0816H36.6368L35.7332 18.7875H37.2073L37.7068 15.7209C37.7068 15.7209 38.0871 15.2925 38.1825 15.1503C38.2623 15.0476 38.3628 14.9627 38.4774 14.9012C38.5921 14.8398 38.7184 14.8031 38.8482 14.7936C38.6676 15.3378 38.5792 15.9084 38.5868 16.4817C38.5868 17.9088 39.3236 18.8602 40.4171 18.8602C40.6808 18.8655 40.9421 18.8103 41.1811 18.699C41.4201 18.5877 41.6305 18.4232 41.7961 18.218L41.725 18.7886H43.1272L44.2683 11.7751H42.7464L42.7475 11.774ZM40.9166 17.4326C40.4171 17.4326 40.1558 17.0523 40.1558 16.3149C40.1558 15.1973 40.6315 14.3892 41.3204 14.3892C41.8434 14.3892 42.1039 14.7936 42.1039 15.5068C42.1039 16.6479 41.6282 17.4326 40.9152 17.4326H40.9166ZM34.0459 16.2439C33.9519 16.2257 33.8562 16.2177 33.7605 16.2198C32.9039 16.2198 32.4761 16.5525 32.4761 17.0758C32.4681 17.1518 32.4764 17.2286 32.5004 17.3012C32.5244 17.3738 32.5635 17.4404 32.6153 17.4967C32.6671 17.5529 32.7302 17.5975 32.8005 17.6275C32.8708 17.6574 32.9467 17.6721 33.0231 17.6704C33.7364 17.6704 34.0218 17.0758 34.0459 16.2439ZM35.2346 18.7875H33.9267L33.9743 18.1934C33.6415 18.6447 33.1908 18.8826 32.4053 18.8826C31.668 18.8826 31.0263 18.2645 31.0263 17.3136C31.0263 15.9587 32.0482 15.1265 33.6651 15.1265C33.8794 15.1234 34.0937 15.1314 34.3072 15.1506C34.3479 15.0275 34.372 14.8995 34.3789 14.7701C34.3789 14.3895 34.0711 14.2706 33.3564 14.2706C32.937 14.2701 32.52 14.3343 32.1202 14.4609L31.9299 14.5084L31.8347 14.5319L32.0485 13.2481C32.6069 13.0543 33.1925 12.9504 33.7834 12.9403C35.0672 12.9403 35.7329 13.5346 35.7329 14.6282C35.7605 15.0022 35.7366 15.3783 35.6619 15.7458L35.3541 17.7904L35.3065 18.1472L35.2589 18.4326L35.2354 18.6229V18.7886L35.2346 18.7875ZM14.8112 14.2941C15.1857 14.2961 15.5594 14.3279 15.9288 14.3892L16.1429 13.0578C15.7148 13.0103 15.1442 12.9389 14.8112 12.9389C13.1471 12.9389 12.6006 13.8424 12.6006 14.8884C12.6006 15.5782 12.9084 16.0771 13.718 16.4574C14.3123 16.7428 14.4074 16.7901 14.4074 17.052C14.4074 17.4082 14.0996 17.6226 13.5277 17.6226C13.0656 17.6225 12.607 17.5421 12.1725 17.3847L12.0046 18.692L12.0281 18.7161L12.3135 18.7637C12.4391 18.7939 12.5661 18.8176 12.6941 18.8347C13.0506 18.8588 13.3598 18.8823 13.5501 18.8823C15.2144 18.8823 15.9039 18.2407 15.9039 16.9795C15.9039 16.196 15.5234 15.7203 14.7863 15.3871C14.1444 15.1014 14.0731 15.0544 14.0731 14.7924C14.0731 14.5305 14.3585 14.2932 14.8101 14.2932L14.8112 14.2941Z" fill="#1B3771"/>
<path fill-rule="evenodd" clip-rule="evenodd" d="M32.1211 11.5365L31.8592 13.0582C31.4533 12.8241 30.9961 12.6935 30.5278 12.6779C29.4102 12.6779 28.625 13.7715 28.625 15.3169C28.625 16.387 29.148 17.0286 30.028 17.0286C30.4693 17.0067 30.8998 16.8849 31.2872 16.6724L31.0259 18.2648C30.6015 18.3946 30.1616 18.4667 29.718 18.4792C28.1014 18.4792 27.1028 17.314 27.1028 15.4361C27.1028 12.9396 28.4817 11.18 30.455 11.18C30.6868 11.1764 30.9181 11.2004 31.1442 11.2514L31.7388 11.3941C31.9294 11.4655 31.977 11.4892 32.1197 11.5365H32.1211ZM27.3185 12.5828H27.1758C26.6769 12.5828 26.3923 12.8206 25.9395 13.5098L26.0823 12.6301H24.7268L23.8 18.3362H25.2982C25.8447 14.8412 25.9874 14.2469 26.7007 14.2469H26.7958C26.9051 13.6752 27.0973 13.1225 27.3664 12.6063L27.3185 12.5828ZM18.7118 18.2648C18.3692 18.3911 18.007 18.4555 17.642 18.4551C16.8812 18.4551 16.453 18.0273 16.453 17.1959C16.4582 17.0286 16.4741 16.8618 16.5006 16.6964L16.5957 16.1259L16.6671 15.6745L17.309 11.7749H18.7839L18.6161 12.6309H19.3769L19.1866 14.0337H18.4263L18.0223 16.4121C18.0037 16.49 17.9957 16.57 17.9985 16.65C17.9985 16.9354 18.1412 17.0543 18.4977 17.0543C18.6342 17.0667 18.7718 17.0505 18.9018 17.0068L18.7118 18.266V18.2648ZM12.9818 14.4369C12.9818 15.1504 13.3146 15.6494 14.0992 16.0299C14.7173 16.3153 14.8124 16.4102 14.8124 16.648C14.8124 17.0048 14.5508 17.171 13.9565 17.171C13.5044 17.1679 13.0554 17.0958 12.6251 16.9572L12.411 18.2646L12.4824 18.2886L12.744 18.3362C12.876 18.3696 13.0119 18.3856 13.1481 18.3838C13.416 18.4195 13.6862 18.4354 13.9565 18.4313C15.5254 18.4313 16.2628 17.8367 16.2628 16.5286C16.2628 15.7437 15.955 15.2917 15.2168 14.9355C14.5749 14.6512 14.5027 14.5802 14.5027 14.3185C14.5027 14.0107 14.7643 13.8669 15.2397 13.8669C15.5975 13.87 15.9548 13.8939 16.3098 13.9382L16.5235 12.6306C16.0913 12.5578 15.6542 12.518 15.2159 12.5117C13.5516 12.5117 12.9572 13.3912 12.981 14.4372L12.9818 14.4369ZM43.5104 18.3362H42.1074L42.179 17.7891C42.0085 17.9871 41.7965 18.1451 41.5581 18.2519C41.3197 18.3587 41.0607 18.4118 40.7995 18.4073C39.7059 18.4073 38.9927 17.4805 38.9927 16.054C38.9927 14.1512 40.1103 12.5349 41.4176 12.5349C41.7019 12.5365 41.9813 12.609 42.2304 12.7458C42.4796 12.8826 42.6908 13.0794 42.8447 13.3184L43.1774 11.3214H44.6515L43.5104 18.3351V18.3362ZM41.3227 17.0048C42.0125 17.0048 42.4879 16.1964 42.4879 15.0788C42.4879 14.3417 42.226 13.9612 41.7044 13.9612C41.0387 13.9612 40.5398 14.7447 40.5398 15.864C40.5398 16.6251 40.801 17.0056 41.3233 17.0054L41.3227 17.0048ZM23.2765 18.2173C22.7775 18.3793 22.2556 18.4596 21.731 18.4551C20.0666 18.4551 19.2107 17.5756 19.2107 15.8875C19.2107 13.938 20.3045 12.4876 21.8024 12.4876C23.0386 12.4876 23.823 13.2961 23.823 14.5561C23.8196 15.0379 23.7557 15.5173 23.6327 15.9832H20.6851C20.6669 16.0372 20.6589 16.0941 20.6613 16.1511C20.6613 16.8168 21.1132 17.1495 21.9689 17.1495C22.5055 17.1592 23.0363 17.0366 23.5143 16.7927L23.2765 18.2198V18.2173ZM22.4443 14.8174V14.5323C22.4566 14.4346 22.4468 14.3355 22.4156 14.2421C22.3845 14.1488 22.3327 14.0636 22.2643 13.9928C22.1959 13.9221 22.1124 13.8676 22.0201 13.8334C21.9278 13.7992 21.829 13.7862 21.731 13.7953C21.2553 13.7953 20.9226 14.152 20.7796 14.8174H22.444H22.4443ZM7.29951 18.3365H5.82541L6.68138 12.9393L4.75565 18.3365H3.73318L3.61426 12.9869L2.71099 18.3365H1.33203L2.49833 11.3228H4.63812L4.70892 15.6737L6.13601 11.3228H8.46608L7.30119 18.3365H7.29951ZM10.9848 15.7923C10.842 15.7923 10.7707 15.7688 10.6518 15.7688C9.81958 15.7688 9.39257 16.0766 9.39257 16.6483C9.38227 16.7216 9.38831 16.7962 9.41025 16.8669C9.43219 16.9375 9.4695 17.0024 9.51948 17.057C9.56947 17.1115 9.63091 17.1543 9.69938 17.1823C9.76786 17.2103 9.84168 17.2228 9.91556 17.2189C10.5337 17.2189 10.9618 16.6483 10.9856 15.7918L10.9848 15.7923ZM12.0783 18.3365H10.8418L10.865 17.7419C10.6783 17.9747 10.4381 18.159 10.1649 18.2791C9.89172 18.3992 9.59353 18.4515 9.29575 18.4316C8.48735 18.4316 7.94058 17.8135 7.94058 16.8862C7.94058 15.4837 8.89197 14.6756 10.5558 14.6756C10.7237 14.6756 10.9363 14.6994 11.1739 14.7229C11.2076 14.6071 11.2237 14.4869 11.2215 14.3664C11.2215 13.9861 10.9599 13.8434 10.2701 13.8434C9.85362 13.8383 9.43819 13.8862 9.03384 13.9861L8.81978 14.0574L8.67707 14.0812L8.89113 12.7974C9.46769 12.6125 10.069 12.5163 10.6744 12.512C11.9583 12.512 12.6477 13.0825 12.6477 14.1761C12.6386 14.5591 12.5988 14.9408 12.5288 15.3175L12.1958 17.3386L12.1483 17.6948L12.1245 17.9803L12.1007 18.1946L12.0775 18.3368L12.0783 18.3365ZM34.5225 15.7923C34.3546 15.7923 34.2847 15.7688 34.1898 15.7688C33.3338 15.7688 32.9054 16.0766 32.9054 16.6483C32.8978 16.7231 32.9065 16.7987 32.931 16.8698C32.9554 16.9409 32.995 17.0058 33.0471 17.0601C33.0991 17.1143 33.1623 17.1566 33.2323 17.1841C33.3023 17.2115 33.3774 17.2234 33.4525 17.2189C34.0471 17.2189 34.4985 16.6483 34.5225 15.7918V15.7923ZM35.6161 18.3365H34.3798L34.4033 17.7419C34.2167 17.9747 33.9766 18.1591 33.7034 18.2792C33.4302 18.3993 33.1321 18.4516 32.8343 18.4316C32.0259 18.4316 31.4789 17.8135 31.4789 16.8862C31.4789 15.4837 32.4303 14.6756 34.0941 14.6756C34.262 14.6756 34.4749 14.6994 34.6887 14.7229C34.7269 14.6073 34.7509 14.4877 34.7604 14.3664C34.7604 13.9861 34.4984 13.8434 33.809 13.8434C33.3849 13.8384 32.9619 13.8864 32.5498 13.9861L32.3595 14.0574L32.2168 14.0812L32.4306 12.7974C33.0071 12.6125 33.6084 12.5163 34.2139 12.512C35.4977 12.512 36.1634 13.0825 36.1634 14.1761C36.1668 14.5598 36.127 14.9427 36.0447 15.3175L35.7369 17.3386L35.6894 17.6948L35.6418 17.9803L35.6183 18.1946V18.3368L35.6161 18.3365ZM39.6102 12.5828H39.4675C38.9686 12.5828 38.684 12.8206 38.2313 13.5098L38.374 12.6301H37.0185L36.115 18.3362H37.588C38.135 14.8412 38.2777 14.2469 38.991 14.2469H39.0861C39.1954 13.6752 39.3876 13.1225 39.6567 12.6063L39.6091 12.5828H39.6102Z" fill="white"/>
</svg>
