<svg width="36" height="36" viewBox="0 0 36 36" fill="none" xmlns="http://www.w3.org/2000/svg">
<g clip-path="url(#clip0_385_60446)">
<path d="M18 24C21.9 24 25 20.9 25 17V9C25 5.1 21.9 2 18 2C14.1 2 11 5.1 11 9V17C11 20.9 14.1 24 18 24Z" fill="#1E1E1E"/>
<path d="M30 17H28C28 22.5 23.5 27 18 27C12.5 27 8 22.5 8 17H6C6 23.3 10.8 28.4 17 28.9V32H14C13.4 32 13 32.4 13 33C13 33.6 13.4 34 14 34H22C22.6 34 23 33.6 23 33C23 32.4 22.6 32 22 32H19V28.9C25.2 28.4 30 23.3 30 17Z" fill="#1E1E1E"/>
</g>
<defs>
<clipPath id="clip0_385_60446">
<rect width="36" height="36" fill="white"/>
</clipPath>
</defs>
</svg>
