<svg width="24" height="28" viewBox="0 0 24 28" fill="none" xmlns="http://www.w3.org/2000/svg">
<path d="M3 3.5C3 2.53203 2.32969 1.75 1.5 1.75C0.670312 1.75 0 2.53203 0 3.5V21.875C0 24.2922 1.67812 26.25 3.75 26.25H22.5C23.3297 26.25 24 25.468 24 24.5C24 23.532 23.3297 22.75 22.5 22.75H3.75C3.3375 22.75 3 22.3563 3 21.875V3.5ZM22.0594 8.23594C22.6453 7.55234 22.6453 6.44219 22.0594 5.75859C21.4734 5.075 20.5219 5.075 19.9359 5.75859L15 11.5227L12.3094 8.38359C11.7234 7.7 10.7719 7.7 10.1859 8.38359L4.93594 14.5086C4.35 15.1922 4.35 16.3023 4.93594 16.9859C5.52188 17.6695 6.47344 17.6695 7.05938 16.9859L11.25 12.1023L13.9406 15.2414C14.5266 15.925 15.4781 15.925 16.0641 15.2414L22.0641 8.24141L22.0594 8.23594Z" fill="#1E1E1E"/>
</svg>
