<svg width="24" height="28" viewBox="0 0 24 28" fill="none" xmlns="http://www.w3.org/2000/svg">
<path fill-rule="evenodd" clip-rule="evenodd" d="M12 5.76341L21 16.2634V23.6258C21 25.0756 19.9926 26.2508 18.75 26.2508H5.25C4.00736 26.2508 3 25.0756 3 23.6258V16.2634L12 5.76341Z" fill="#1E1E1E"/>
<path fill-rule="evenodd" clip-rule="evenodd" d="M19.5 4.37584V10.5008L16.5 7.00084V4.37584C16.5 3.8926 16.8358 3.50084 17.25 3.50084H18.75C19.1642 3.50084 19.5 3.8926 19.5 4.37584Z" fill="#1E1E1E"/>
<path fill-rule="evenodd" clip-rule="evenodd" d="M10.9393 2.62584C11.5251 1.94242 12.4749 1.94243 13.0607 2.62584L23.0303 14.2571C23.3232 14.5988 23.3232 15.1529 23.0303 15.4946C22.7374 15.8363 22.2626 15.8363 21.9697 15.4946L12 3.86328L2.03033 15.4946C1.73744 15.8363 1.26256 15.8363 0.96967 15.4946C0.676777 15.1529 0.676777 14.5988 0.96967 14.2571L10.9393 2.62584Z" fill="#1E1E1E"/>
</svg>
