<svg width="24" height="28" viewBox="0 0 24 28" fill="none" xmlns="http://www.w3.org/2000/svg">
<g clip-path="url(#clip0_385_61488)">
<path d="M11.999 0C11.0508 0 10.2847 0.782031 10.2847 1.75V2.8C6.37397 3.60938 3.42755 7.14219 3.42755 11.375V12.4031C3.42755 14.9734 2.50076 17.4562 0.829332 19.3813L0.432903 19.8352C-0.0170969 20.3492 -0.12424 21.0875 0.148975 21.7164C0.422189 22.3453 1.03826 22.75 1.71326 22.75H22.2847C22.9597 22.75 23.5704 22.3453 23.849 21.7164C24.1275 21.0875 24.015 20.3492 23.565 19.8352L23.1686 19.3813C21.4972 17.4562 20.5704 14.9789 20.5704 12.4031V11.375C20.5704 7.14219 17.624 3.60938 13.7133 2.8V1.75C13.7133 0.782031 12.9472 0 11.999 0ZM14.4258 26.9773C15.0686 26.3211 15.4275 25.4297 15.4275 24.5H11.999H8.5704C8.5704 25.4297 8.92933 26.3211 9.57219 26.9773C10.215 27.6336 11.0883 28 11.999 28C12.9097 28 13.7829 27.6336 14.4258 26.9773Z" fill="#1E1E1E"/>
</g>
<defs>
<clipPath id="clip0_385_61488">
<rect width="24" height="28" fill="white"/>
</clipPath>
</defs>
</svg>
