<svg width="32" height="32" viewBox="0 0 32 32" fill="none" xmlns="http://www.w3.org/2000/svg">
<g clip-path="url(#clip0_385_65041)">
<path d="M26.7219 11.6133V5.33326H20.4552L16.0019 0.919922L11.6152 5.33326H5.33521V11.6133L0.921875 15.9999L5.33521 20.4533V26.7199H11.6152L16.0019 31.1333L20.4552 26.7199H26.7219V20.4533L31.1352 15.9999L26.7219 11.6133ZM11.7752 9.39992C13.0819 9.39992 14.1352 10.4533 14.1352 11.7733C14.1352 12.3992 13.8866 12.9994 13.444 13.442C13.0014 13.8846 12.4011 14.1333 11.7752 14.1333C10.4552 14.1333 9.40188 13.0799 9.40188 11.7733C9.40188 10.4533 10.4552 9.39992 11.7752 9.39992ZM20.2952 22.6666C18.9885 22.6666 17.9352 21.5999 17.9352 20.2933C17.9352 19.6673 18.1839 19.0671 18.6264 18.6245C19.069 18.1819 19.6693 17.9333 20.2952 17.9333C21.6019 17.9333 22.6685 18.9866 22.6685 20.2933C22.6685 20.9227 22.4185 21.5264 21.9734 21.9715C21.5283 22.4165 20.9247 22.6666 20.2952 22.6666ZM11.3352 22.7066L9.33521 20.7066L20.7085 9.33326L22.7085 11.3333L11.3352 22.7066Z" fill="#E1E8FF"/>
</g>
<defs>
<clipPath id="clip0_385_65041">
<rect width="32" height="32" fill="white"/>
</clipPath>
</defs>
</svg>
