<svg width="28" height="28" viewBox="0 0 28 28" fill="none" xmlns="http://www.w3.org/2000/svg">
<path fill-rule="evenodd" clip-rule="evenodd" d="M0 2.625C0 2.14175 0.391751 1.75 0.875 1.75H3.5C3.90151 1.75 4.25149 2.02326 4.34888 2.41278L5.05818 5.25H25.375C25.6353 5.25 25.8821 5.36589 26.0483 5.56619C26.2146 5.7665 26.283 6.03041 26.235 6.28625L23.61 20.2863C23.5324 20.7001 23.1711 21 22.75 21H21H8.75H7C6.57894 21 6.21758 20.7001 6.13999 20.2863L3.5198 6.3119L2.81682 3.5H0.875C0.391751 3.5 0 3.10825 0 2.625ZM5.42931 7L7.72619 19.25H22.0238L24.3207 7H5.42931ZM8.75 21C6.817 21 5.25 22.567 5.25 24.5C5.25 26.433 6.817 28 8.75 28C10.683 28 12.25 26.433 12.25 24.5C12.25 22.567 10.683 21 8.75 21ZM21 21C19.067 21 17.5 22.567 17.5 24.5C17.5 26.433 19.067 28 21 28C22.933 28 24.5 26.433 24.5 24.5C24.5 22.567 22.933 21 21 21ZM8.75 22.75C7.7835 22.75 7 23.5335 7 24.5C7 25.4665 7.7835 26.25 8.75 26.25C9.7165 26.25 10.5 25.4665 10.5 24.5C10.5 23.5335 9.7165 22.75 8.75 22.75ZM21 22.75C20.0335 22.75 19.25 23.5335 19.25 24.5C19.25 25.4665 20.0335 26.25 21 26.25C21.9665 26.25 22.75 25.4665 22.75 24.5C22.75 23.5335 21.9665 22.75 21 22.75Z" fill="#092C4C"/>
</svg>
