<svg width="28" height="28" viewBox="0 0 28 28" fill="none" xmlns="http://www.w3.org/2000/svg">
<path fill-rule="evenodd" clip-rule="evenodd" d="M0 0.933333C0 0.417868 0.417867 0 0.933333 0H3.73333C4.16161 0 4.53493 0.291478 4.6388 0.706967L5.39539 3.73333H27.0667C27.3443 3.73333 27.6075 3.85695 27.7849 4.07061C27.9622 4.28426 28.0352 4.56577 27.984 4.83867L25.184 19.772C25.1012 20.2134 24.7158 20.5333 24.2667 20.5333H22.4H9.33333H7.46666C7.01753 20.5333 6.63209 20.2134 6.54932 19.772L3.75445 4.86603L3.00461 1.86667H0.933333C0.417867 1.86667 0 1.4488 0 0.933333ZM9.33333 20.5333C7.27147 20.5333 5.6 22.2048 5.6 24.2667C5.6 26.3285 7.27147 28 9.33333 28C11.3952 28 13.0667 26.3285 13.0667 24.2667C13.0667 22.2048 11.3952 20.5333 9.33333 20.5333ZM22.4 20.5333C20.3381 20.5333 18.6667 22.2048 18.6667 24.2667C18.6667 26.3285 20.3381 28 22.4 28C24.4619 28 26.1333 26.3285 26.1333 24.2667C26.1333 22.2048 24.4619 20.5333 22.4 20.5333ZM9.33333 22.4C8.3024 22.4 7.46666 23.2357 7.46666 24.2667C7.46666 25.2976 8.3024 26.1333 9.33333 26.1333C10.3643 26.1333 11.2 25.2976 11.2 24.2667C11.2 23.2357 10.3643 22.4 9.33333 22.4ZM22.4 22.4C21.3691 22.4 20.5333 23.2357 20.5333 24.2667C20.5333 25.2976 21.3691 26.1333 22.4 26.1333C23.4309 26.1333 24.2667 25.2976 24.2667 24.2667C24.2667 23.2357 23.4309 22.4 22.4 22.4Z" fill="#092C4C"/>
</svg>
