<svg width="32" height="32" viewBox="0 0 32 32" fill="none" xmlns="http://www.w3.org/2000/svg">
<path d="M16 32C7.1632 32 0 24.8368 0 16C0 7.1632 7.1632 0 16 0C24.8368 0 32 7.1632 32 16C32 24.8368 24.8368 32 16 32ZM10.4 19.2V22.4H14.4V25.6H17.6V22.4H19.2C20.2609 22.4 21.2783 21.9786 22.0284 21.2284C22.7786 20.4783 23.2 19.4609 23.2 18.4C23.2 17.3391 22.7786 16.3217 22.0284 15.5716C21.2783 14.8214 20.2609 14.4 19.2 14.4H12.8C12.5878 14.4 12.3843 14.3157 12.2343 14.1657C12.0843 14.0157 12 13.8122 12 13.6C12 13.3878 12.0843 13.1843 12.2343 13.0343C12.3843 12.8843 12.5878 12.8 12.8 12.8H21.6V9.6H17.6V6.4H14.4V9.6H12.8C11.7391 9.6 10.7217 10.0214 9.97157 10.7716C9.22143 11.5217 8.8 12.5391 8.8 13.6C8.8 14.6609 9.22143 15.6783 9.97157 16.4284C10.7217 17.1786 11.7391 17.6 12.8 17.6H19.2C19.4122 17.6 19.6157 17.6843 19.7657 17.8343C19.9157 17.9843 20 18.1878 20 18.4C20 18.6122 19.9157 18.8157 19.7657 18.9657C19.6157 19.1157 19.4122 19.2 19.2 19.2H10.4Z" fill="#27AE61"/>
</svg>
