<svg width="32" height="38" viewBox="0 0 32 38" fill="none" xmlns="http://www.w3.org/2000/svg">
<path d="M27.2131 2.84243C25.4668 0.852941 22.31 0 18.2715 0H6.55072C6.15115 1.47877e-05 5.76469 0.142496 5.46082 0.401827C5.15696 0.661158 4.95561 1.02033 4.89299 1.41476L0.0126645 32.3515C-0.0843404 32.9616 0.388277 33.514 1.0069 33.514H8.24292L10.0602 21.9931L10.0038 22.3538C10.1333 21.5395 10.8301 20.9388 11.6553 20.9388H15.0938C21.8488 20.9388 27.1381 18.1965 28.6831 10.2635C28.729 10.0289 28.7687 9.80049 28.8031 9.57739C28.6081 9.47417 28.6081 9.47417 28.8031 9.57739C29.2632 6.64527 28.7999 4.6494 27.2131 2.84243Z" fill="#27346A"/>
<path d="M12.8289 8.52136C13.0268 8.42721 13.2431 8.37842 13.4622 8.37856H22.6511C23.7392 8.37856 24.7541 8.44934 25.6816 8.59853C25.9411 8.63989 26.1993 8.68927 26.4557 8.7466C26.8192 8.82677 27.1785 8.9249 27.5323 9.04061C27.9883 9.19281 28.4129 9.37007 28.8031 9.57764C29.2631 6.64432 28.7999 4.64952 27.2131 2.8425C25.4658 0.852963 22.31 0 18.2715 0H6.54971C5.72441 0 5.02232 0.600544 4.89298 1.4148L0.0126652 32.3512C-0.0843396 32.9623 0.388277 33.514 1.0059 33.514H8.2429L12.0132 9.61622C12.0503 9.38133 12.1439 9.15895 12.286 8.96823C12.4281 8.77751 12.6144 8.62416 12.8289 8.52136Z" fill="#27346A"/>
<path d="M28.7233 10.2532C27.1786 18.1927 21.8907 20.9389 15.1373 20.9389H11.6985C10.8736 20.9389 10.1768 21.5401 10.0486 22.3552L7.78833 36.694C7.70388 37.2284 8.11687 37.7126 8.65716 37.7126H14.7555C15.1048 37.7125 15.4426 37.5877 15.7082 37.3606C15.9738 37.1336 16.1497 36.8191 16.2043 36.4738L16.2637 36.1628L17.4131 28.8733L17.4871 28.4704C17.5417 28.1252 17.7176 27.8107 17.9831 27.5836C18.2487 27.3565 18.5865 27.2317 18.9358 27.2316H19.8485C25.756 27.2316 30.3816 24.8299 31.7334 17.8839C32.2976 14.9812 32.0056 12.5577 30.5131 10.8554C30.0604 10.3398 29.4982 9.91398 28.8432 9.56641C28.8078 9.79085 28.7693 10.0183 28.7233 10.2532Z" fill="#2790C3"/>
<path d="M27.2169 8.95107C26.9762 8.88078 26.7331 8.81856 26.4882 8.7645C26.2318 8.70813 25.9738 8.65911 25.7146 8.61749C24.7867 8.46736 23.7732 8.39649 22.6848 8.39649H13.5031C13.2839 8.39599 13.0676 8.44518 12.8702 8.54036C12.6556 8.64279 12.4691 8.79599 12.3271 8.98668C12.185 9.17737 12.0916 9.39981 12.0548 9.63474L10.1032 22.0058L10.0469 22.3664C10.1753 21.5524 10.8716 20.9519 11.6964 20.9519H15.1337C21.8842 20.9519 27.1699 18.2107 28.714 10.281C28.7599 10.0464 28.7985 9.81918 28.834 9.59517C28.4429 9.38882 28.0197 9.21051 27.564 9.05938C27.449 9.02126 27.3333 8.98515 27.217 8.95107" fill="#1F264F"/>
</svg>
