<svg width="32" height="32" viewBox="0 0 32 32" fill="none" xmlns="http://www.w3.org/2000/svg">
<path d="M9.33464 22.6667H22.668C22.9346 22.6667 23.1346 22.5445 23.268 22.3C23.4013 22.0556 23.3791 21.8222 23.2013 21.6L19.5346 16.7C19.4013 16.5222 19.2235 16.4333 19.0013 16.4333C18.7791 16.4333 18.6013 16.5222 18.468 16.7L15.0013 21.3333L12.5346 18.0333C12.4013 17.8556 12.2235 17.7667 12.0013 17.7667C11.7791 17.7667 11.6013 17.8556 11.468 18.0333L8.8013 21.6C8.62353 21.8222 8.60131 22.0556 8.73464 22.3C8.86797 22.5445 9.06797 22.6667 9.33464 22.6667ZM5.33464 28C4.6013 28 3.9733 27.7387 3.45064 27.216C2.92797 26.6933 2.66708 26.0658 2.66797 25.3333V9.33334C2.66797 8.60001 2.9293 7.97201 3.45197 7.44934C3.97464 6.92667 4.60219 6.66579 5.33464 6.66667H9.53464L11.2013 4.86667C11.4457 4.57779 11.7404 4.3609 12.0853 4.21601C12.4302 4.07112 12.7906 3.99912 13.1666 4.00001H18.8333C19.2111 4.00001 19.5724 4.07245 19.9173 4.21734C20.2622 4.36223 20.5564 4.57867 20.8 4.86667L22.468 6.66667H26.668C27.4013 6.66667 28.0293 6.92801 28.552 7.45067C29.0746 7.97334 29.3355 8.6009 29.3346 9.33334V25.3333C29.3346 26.0667 29.0733 26.6947 28.5506 27.2173C28.028 27.74 27.4004 28.0009 26.668 28H5.33464ZM26.668 25.3333V9.33334H5.33464V25.3333H26.668Z" fill="#1E1E1E"/>
</svg>
