<svg width="34" height="33" viewBox="0 0 34 33" fill="none" xmlns="http://www.w3.org/2000/svg">
<path d="M15.1003 18.8311C14.3377 19.1347 13.6336 19.6203 13.03 20.259L14.9638 22.5911C15.3464 22.1686 15.7514 21.7765 16.1762 21.4175C15.6328 20.6864 15.2614 19.7935 15.1003 18.8311ZM15.5371 23.2825L21.5357 30.5165C22.21 29.5901 22.6766 28.471 22.8909 27.2658C20.7324 24.2612 17.7707 22.5292 16.8554 22.0427C16.3911 22.4161 15.9505 22.8305 15.5371 23.2825ZM14.9611 23.9602C14.5819 24.4416 14.2326 24.9561 13.9162 25.4995C13.9222 25.5125 13.9281 25.5256 13.9331 25.5393C14.3279 26.6232 15.7669 30.2206 18.2712 32.837C19.2706 32.5785 20.1986 32.0159 20.9667 31.2026L14.9611 23.9602ZM16.8698 20.8756C17.791 20.209 18.7738 19.6747 19.7979 19.2834C18.5932 18.527 17.2127 18.2806 15.8779 18.5838C16.0081 19.4514 16.354 20.2507 16.8698 20.8756ZM13.4011 26.4664C12.8569 27.591 12.4368 28.7964 12.1514 30.0522C12.7275 31.0105 13.4923 31.781 14.3768 32.2943C15.2613 32.8076 16.2378 33.0475 17.2184 32.9925C15.6436 31.0987 14.3521 28.8908 13.4011 26.4664ZM13.3941 24.7054C13.6991 24.201 14.0311 23.7211 14.3879 23.2689L12.461 20.9451C11.9314 21.6731 11.5287 22.5222 11.277 23.4419C12.0619 23.6336 12.7916 24.0691 13.3941 24.7054ZM17.6815 21.4346C19.6635 22.5772 21.4689 24.1199 23.0198 25.9961C23.0638 24.8399 22.8743 23.6882 22.4677 22.6398C22.061 21.5914 21.4494 20.6778 20.6854 19.9774C19.6391 20.3157 18.6306 20.805 17.6815 21.4346ZM12.9336 25.5204C12.4178 24.9306 11.7711 24.5342 11.072 24.3796C10.8317 25.9293 11.0135 27.5312 11.5902 28.9461C11.9219 27.7431 12.3729 26.5929 12.9336 25.5204ZM19.2742 12.6939C19.2733 12.026 19.0706 11.3813 18.7041 10.8805C18.3376 10.3797 17.8323 10.0571 17.2828 9.97314V15.4147C17.8323 15.3307 18.3376 15.0081 18.7041 14.5073C19.0706 14.0066 19.2733 13.3619 19.2742 12.6939Z" fill="#092C4C"/>
<path d="M27.5272 14.7522C28.4699 14.7522 29.2341 13.8306 29.2341 12.6937C29.2341 11.5569 28.4699 10.6353 27.5272 10.6353C26.5845 10.6353 25.8203 11.5569 25.8203 12.6937C25.8203 13.8306 26.5845 14.7522 27.5272 14.7522Z" fill="#092C4C"/>
<path d="M30.6538 13.723V11.6646H29.6328C29.8562 12.3243 29.8562 13.0633 29.6328 13.723H30.6538Z" fill="#092C4C"/>
<path d="M33.4985 9.26318H31.2227V16.1247H33.4985V9.26318Z" fill="#092C4C"/>
<path d="M14.7223 12.6939C14.7231 13.3619 14.9258 14.0065 15.2923 14.5073C15.6589 15.0081 16.1642 15.3307 16.7136 15.4147V9.97312C16.1642 10.0571 15.6589 10.3797 15.2923 10.8805C14.9258 11.3813 14.7231 12.0259 14.7223 12.6939ZM23.2567 12.6939C23.2589 15.0588 24.0389 17.3261 25.4256 18.9984C26.8122 20.6706 28.6923 21.6112 30.6533 21.6139H32.6447V16.8108H30.9378C30.9004 16.8108 30.8634 16.802 30.8289 16.7847C30.7944 16.7675 30.763 16.7422 30.7366 16.7104C30.7102 16.6785 30.6892 16.6407 30.6749 16.599C30.6606 16.5574 30.6533 16.5128 30.6533 16.4677V14.4093H29.2977C29.003 14.8532 28.6013 15.1757 28.148 15.3323C27.6947 15.489 27.2123 15.4719 26.7674 15.2836C26.3225 15.0953 25.9371 14.745 25.6644 14.281C25.3917 13.8171 25.2453 13.2625 25.2453 12.6939C25.2453 12.1253 25.3917 11.5707 25.6644 11.1068C25.9371 10.6428 26.3225 10.2925 26.7674 10.1042C27.2123 9.91586 27.6947 9.89884 28.148 10.0555C28.6013 10.2121 29.003 10.5346 29.2977 10.9785H30.6533V8.92007C30.6533 8.87501 30.6606 8.83039 30.6749 8.78876C30.6892 8.74713 30.7102 8.70931 30.7366 8.67745C30.763 8.64559 30.7944 8.62032 30.8289 8.60308C30.8634 8.58584 30.9004 8.57698 30.9378 8.57699H32.6447V3.77393H30.6533C28.6923 3.77657 26.8122 4.7172 25.4256 6.38945C24.0389 8.0617 23.2589 10.329 23.2567 12.6939ZM10.7395 12.6939C10.7373 10.329 9.95732 8.0617 8.57067 6.38945C7.18402 4.7172 5.30396 3.77657 3.34294 3.77393H1.35156V8.57699H3.05846C3.09582 8.57698 3.13282 8.58584 3.16734 8.60308C3.20186 8.62032 3.23322 8.64559 3.25964 8.67745C3.28606 8.70931 3.30701 8.74713 3.32131 8.78876C3.3356 8.83039 3.34295 8.87501 3.34294 8.92007V10.9785H4.6985C4.9932 10.5346 5.39495 10.2121 5.84823 10.0555C6.30151 9.89884 6.78393 9.91586 7.22884 10.1042C7.67375 10.2925 8.05917 10.6428 8.33184 11.1068C8.60451 11.5707 8.75096 12.1253 8.75096 12.6939C8.75096 13.2625 8.60451 13.8171 8.33184 14.281C8.05917 14.745 7.67375 15.0953 7.22884 15.2836C6.78393 15.4719 6.30151 15.489 5.84823 15.3323C5.39495 15.1757 4.9932 14.8532 4.6985 14.4093H3.34294V16.4677C3.34295 16.5128 3.3356 16.5574 3.32131 16.599C3.30701 16.6407 3.28606 16.6785 3.25964 16.7104C3.23322 16.7422 3.20186 16.7675 3.16734 16.7847C3.13282 16.802 3.09582 16.8108 3.05846 16.8108H1.35156V21.6139H3.34294C5.30396 21.6112 7.18402 20.6706 8.57067 18.9984C9.95732 17.3261 10.7373 15.0588 10.7395 12.6939Z" fill="#092C4C"/>
<path d="M16.7136 17.5056V16.1072C16.0119 16.0222 15.3614 15.6259 14.8883 14.9952C14.4152 14.3645 14.1533 13.5443 14.1533 12.6938C14.1533 11.8433 14.4152 11.0232 14.8883 10.3925C15.3614 9.76176 16.0119 9.36546 16.7136 9.28047V1.16027e-08H1.63605C1.59868 -1.17077e-05 1.56169 0.0088545 1.52717 0.0260915C1.49265 0.0433286 1.46128 0.0685983 1.43486 0.100458C1.40845 0.132318 1.38749 0.170143 1.3732 0.211772C1.3589 0.253401 1.35155 0.298019 1.35156 0.343076V3.08768H3.34294C5.45553 3.08768 7.48159 4.09976 8.97541 5.90125C10.4692 7.70275 11.3085 10.1461 11.3085 12.6938C11.3085 15.2415 10.4692 17.6849 8.97541 19.4864C7.48159 21.2879 5.45553 22.2999 3.34294 22.2999H1.35156V25.0445C1.35155 25.0896 1.3589 25.1342 1.3732 25.1758C1.38749 25.2175 1.40845 25.2553 1.43486 25.2872C1.46128 25.319 1.49265 25.3443 1.52717 25.3615C1.56169 25.3788 1.59868 25.3876 1.63605 25.3876H10.1777C10.249 23.3247 10.9605 21.3695 12.1711 19.9095C13.3818 18.4496 15.0031 17.5916 16.7136 17.5056ZM30.6533 22.2999C28.5407 22.2999 26.5146 21.2879 25.0208 19.4864C23.527 17.6849 22.6878 15.2415 22.6878 12.6938C22.6878 10.1461 23.527 7.70275 25.0208 5.90125C26.5146 4.09976 28.5407 3.08768 30.6533 3.08768H32.6447V0.343076C32.6447 0.298019 32.6373 0.253401 32.623 0.211772C32.6087 0.170143 32.5878 0.132318 32.5614 0.100458C32.5349 0.0685983 32.5036 0.0433286 32.4691 0.0260915C32.4345 0.0088545 32.3975 -1.17077e-05 32.3602 1.16027e-08H17.2826V9.28045C17.9843 9.36545 18.6348 9.76175 19.1079 10.3925C19.581 11.0232 19.8429 11.8433 19.8429 12.6938C19.8429 13.5443 19.581 14.3644 19.1079 14.9952C18.6348 15.6259 17.9843 16.0222 17.2826 16.1072V17.5055C18.9932 17.5916 20.6145 18.4496 21.8251 19.9095C23.0357 21.3695 23.7472 23.3247 23.8185 25.3876H32.3602C32.3975 25.3876 32.4345 25.3788 32.4691 25.3615C32.5036 25.3443 32.5349 25.319 32.5614 25.2872C32.5878 25.2553 32.6087 25.2175 32.623 25.1758C32.6373 25.1342 32.6447 25.0896 32.6447 25.0445V22.2999H30.6533Z" fill="#092C4C"/>
<path d="M6.47252 14.7522C7.41521 14.7522 8.17942 13.8306 8.17942 12.6937C8.17942 11.5569 7.41521 10.6353 6.47252 10.6353C5.52983 10.6353 4.76562 11.5569 4.76562 12.6937C4.76562 13.8306 5.52983 14.7522 6.47252 14.7522Z" fill="#092C4C"/>
<path d="M3.34375 11.6646V13.723H4.36476C4.14135 13.0633 4.14135 12.3243 4.36476 11.6646H3.34375Z" fill="#092C4C"/>
<path d="M2.77586 9.26318H0.5V16.1247H2.77586V9.26318Z" fill="#092C4C"/>
</svg>
