<svg width="24" height="28" viewBox="0 0 24 28" fill="none" xmlns="http://www.w3.org/2000/svg">
<g clip-path="url(#clip0_385_61510)">
<path d="M15.75 19.25C20.3062 19.25 24 14.9406 24 9.625C24 4.30938 20.3062 0 15.75 0C11.1938 0 7.5 4.30938 7.5 9.625C7.5 10.6477 7.63594 11.6375 7.88906 12.5617L0.328125 21.3828C0.117188 21.6289 0 21.9625 0 22.3125V26.6875C0 27.4148 0.501562 28 1.125 28H4.875C5.49844 28 6 27.4148 6 26.6875V24.5H7.875C8.49844 24.5 9 23.9148 9 23.1875V21H10.875C11.175 21 11.4609 20.8633 11.6719 20.6172L13.2328 18.7961C14.025 19.0914 14.8734 19.25 15.75 19.25ZM17.625 9.625C16.5891 9.625 15.75 8.64609 15.75 7.4375C15.75 6.22891 16.5891 5.25 17.625 5.25C18.6609 5.25 19.5 6.22891 19.5 7.4375C19.5 8.64609 18.6609 9.625 17.625 9.625Z" fill="#1E1E1E"/>
</g>
<defs>
<clipPath id="clip0_385_61510">
<rect width="24" height="28" fill="white"/>
</clipPath>
</defs>
</svg>
