<svg width="33" height="33" viewBox="0 0 33 33" fill="none" xmlns="http://www.w3.org/2000/svg">
<path d="M1.70825 16.7915L16.504 2.64494L31.2997 16.7915C31.507 16.9855 31.7752 17.0814 32.0463 17.0585C32.3173 17.0356 32.5692 16.8958 32.7473 16.6693C32.9255 16.4428 33.0155 16.148 32.9978 15.8488C32.9802 15.5495 32.8562 15.2701 32.653 15.071L17.1806 0.278074C16.9931 0.098729 16.7532 0 16.505 0C16.2568 0 16.0169 0.098729 15.8294 0.278074L10.315 5.5489V3.41417C10.315 2.81058 10.0977 2.23172 9.71077 1.80491C9.32389 1.37811 8.79916 1.13834 8.25203 1.13834C7.70489 1.13834 7.18016 1.37811 6.79328 1.80491C6.40639 2.23172 6.18904 2.81058 6.18904 3.41417V9.49292L0.354929 15.071C0.14861 15.2693 0.021919 15.5497 0.00258695 15.8509C-0.0167451 16.152 0.0728569 16.4493 0.25178 16.6777C0.627242 17.1511 1.27708 17.2034 1.70825 16.7915ZM12.378 21.6208H20.6299V33H26.8189C27.366 33 27.8907 32.7602 28.2776 32.3334C28.6645 31.9066 28.8819 31.3278 28.8819 30.7242V19.5703C28.8819 18.8876 28.6054 18.2435 28.1268 17.8111L17.8119 8.48245C17.4434 8.14807 16.9811 7.96526 16.504 7.96526C16.0268 7.96526 15.5645 8.14807 15.196 8.48245L4.88111 17.8111C4.64478 18.0241 4.4544 18.2925 4.3238 18.5968C4.1932 18.9011 4.12566 19.2336 4.12606 19.5703V30.7242C4.12606 31.3278 4.34341 31.9066 4.73029 32.3334C5.11718 32.7602 5.64191 33 6.18904 33H12.378V21.6208Z" fill="#092C4C"/>
</svg>
