<svg width="24" height="28" viewBox="0 0 24 28" fill="none" xmlns="http://www.w3.org/2000/svg">
<g clip-path="url(#clip0_385_71595)">
<path d="M12 0C12.2156 0 12.4313 0.0546875 12.6281 0.158594L21.4547 4.52813C22.486 5.03672 23.2547 6.22344 23.25 7.65625C23.2266 13.0813 21.3141 23.007 13.2328 27.5188C12.45 27.9563 11.5406 27.9563 10.7578 27.5188C2.68596 23.007 0.773459 13.0813 0.750021 7.65625C0.745334 6.22344 1.51408 5.03672 2.54533 4.52813L11.3766 0.158594C11.5688 0.0546875 11.7844 0 12 0ZM12 3.65313V24.325C18.4688 20.6719 20.2078 12.5836 20.25 7.73281L12 3.65313Z" fill="#1E1E1E"/>
</g>
<defs>
<clipPath id="clip0_385_71595">
<rect width="24" height="28" fill="white"/>
</clipPath>
</defs>
</svg>
