<svg width="150" height="150" viewBox="0 0 150 150" fill="none" xmlns="http://www.w3.org/2000/svg">
<g clip-path="url(#clip0_9_2)">
<path d="M75 150C116.421 150 150 116.421 150 75C150 33.5786 116.421 0 75 0C33.5786 0 0 33.5786 0 75C0 116.421 33.5786 150 75 150Z" fill="url(#paint0_linear_9_2)"/>
<g clip-path="url(#clip1_9_2)">
<mask id="mask0_9_2" style="mask-type:luminance" maskUnits="userSpaceOnUse" x="43" y="47" width="65" height="56">
<path d="M107.575 47H43V103H107.575V47Z" fill="white"/>
</mask>
<g mask="url(#mask0_9_2)">
<path d="M77.6418 58.5938C78.9198 57.8281 79.7719 56.4391 79.7719 54.875C79.7719 52.4578 77.7651 50.5 75.2875 50.5C72.8099 50.5 70.8031 52.4578 70.8031 54.875C70.8031 56.45 71.6552 57.8281 72.9332 58.5938L66.5093 71.1281C65.4891 73.1188 62.8434 73.6875 61.0608 72.2984L51.0719 64.5C51.6324 63.7672 51.9688 62.8594 51.9688 61.875C51.9688 59.4578 49.962 57.5 47.4844 57.5C45.0068 57.5 43 59.4578 43 61.875C43 64.2922 45.0068 66.25 47.4844 66.25C47.5068 66.25 47.5404 66.25 47.5628 66.25L52.6862 93.7469C53.3029 97.0719 56.2738 99.5 59.7491 99.5H90.8259C94.29 99.5 97.2609 97.0828 97.8888 93.7469L103.012 66.25C103.035 66.25 103.068 66.25 103.091 66.25C105.568 66.25 107.575 64.2922 107.575 61.875C107.575 59.4578 105.568 57.5 103.091 57.5C100.613 57.5 98.6063 59.4578 98.6063 61.875C98.6063 62.8594 98.9426 63.7672 99.5031 64.5L89.5142 72.2984C87.7316 73.6875 85.0859 73.1188 84.0657 71.1281L77.6418 58.5938Z" fill="white"/>
</g>
</g>
</g>
<defs>
<linearGradient id="paint0_linear_9_2" x1="-18" y1="-69" x2="116" y2="150" gradientUnits="userSpaceOnUse">
<stop stop-color="#06C149" stop-opacity="0"/>
<stop offset="1" stop-color="#06C149"/>
</linearGradient>
<clipPath id="clip0_9_2">
<rect width="150" height="150" fill="white"/>
</clipPath>
<clipPath id="clip1_9_2">
<rect width="65" height="56" fill="white" transform="translate(43 47)"/>
</clipPath>
</defs>
</svg>
