<svg width="32" height="32" viewBox="0 0 32 32" fill="none" xmlns="http://www.w3.org/2000/svg">
<g clip-path="url(#clip0_385_67012)">
<g style="mix-blend-mode:multiply">
<path d="M14.814 13.4374C13.3375 13.2284 11.8323 13.4758 10.5003 14.1465C9.16838 14.8172 8.07333 15.8791 7.36202 17.1898C6.6507 18.5005 6.35713 19.9973 6.52067 21.4796C6.68421 22.9619 7.29704 24.3588 8.27698 25.4829C9.25693 26.607 10.5571 27.4046 12.0033 27.7688C13.4494 28.133 14.9723 28.0463 16.3678 27.5204C17.7633 26.9946 18.9646 26.0546 19.8107 24.8266C20.6568 23.5985 21.1072 22.1412 21.1015 20.6499V12.6499C22.7052 13.7971 24.6298 14.4095 26.6015 14.3999V10.4624C25.1428 10.4624 23.7439 9.88294 22.7124 8.85149C21.681 7.82004 21.1015 6.42109 21.1015 4.9624H17.1265V20.6874C17.1251 21.3932 16.9004 22.0804 16.4846 22.6506C16.0688 23.2209 15.4832 23.645 14.8117 23.8621C14.1402 24.0793 13.4172 24.0785 12.7463 23.8597C12.0753 23.6409 11.4907 23.2155 11.0763 22.6442C10.6618 22.0729 10.4388 21.3852 10.439 20.6795C10.4393 19.9737 10.6628 19.2861 11.0777 18.7152C11.4925 18.1442 12.0774 17.7192 12.7485 17.5009C13.4197 17.2826 14.1427 17.2822 14.814 17.4999V13.4374Z" fill="#FF004F"/>
</g>
<g style="mix-blend-mode:multiply">
<path d="M13.689 12.4999C12.2125 12.2909 10.7073 12.5383 9.37534 13.209C8.04338 13.8797 6.94833 14.9416 6.23702 16.2523C5.5257 17.563 5.23213 19.0598 5.39567 20.5421C5.55921 22.0244 6.17204 23.4213 7.15198 24.5454C8.13193 25.6695 9.43214 26.4671 10.8783 26.8313C12.3244 27.1955 13.8473 27.1088 15.2428 26.5829C16.6383 26.0571 17.8396 25.1171 18.6857 23.8891C19.5318 22.661 19.9822 21.2037 19.9765 19.7124V11.7124C21.5802 12.8596 23.5048 13.472 25.4765 13.4624V9.5249C24.0178 9.5249 22.6189 8.94544 21.5874 7.91399C20.556 6.88254 19.9765 5.48359 19.9765 4.0249H16.0015V19.7499C16.0001 20.4557 15.7754 21.1429 15.3596 21.7131C14.9438 22.2834 14.3582 22.7075 13.6867 22.9246C13.0152 23.1418 12.2922 23.141 11.6213 22.9222C10.9503 22.7034 10.3657 22.278 9.95127 21.7067C9.53683 21.1354 9.31377 20.4477 9.31402 19.742C9.31427 19.0362 9.53783 18.3486 9.95267 17.7777C10.3675 17.2067 10.9524 16.7817 11.6235 16.5634C12.2947 16.3451 13.0177 16.3447 13.689 16.5624V12.4999Z" fill="#00F2EA"/>
</g>
</g>
<defs>
<clipPath id="clip0_385_67012">
<rect width="32" height="32" fill="white"/>
</clipPath>
</defs>
</svg>
