<svg width="33" height="33" viewBox="0 0 33 33" fill="none" xmlns="http://www.w3.org/2000/svg">
<path d="M32.7951 29.1362C32.7564 29.5207 32.692 29.8958 32.5953 30.1865C32.4213 30.7023 32.2537 30.7492 31.5963 30.7023C30.7455 30.646 29.5273 30.7023 28.2383 30.7773C28.2383 31.2931 28.2512 31.5369 28.2512 31.5369C28.335 32.9529 28.7732 32.9998 28.9473 32.9998H31.7187C31.9637 32.9998 32.1893 32.9998 32.3633 32.831C32.5889 32.6153 32.6855 31.987 32.7693 30.8899C32.7822 30.7304 32.7887 30.5241 32.7951 30.2803V30.2709C32.7951 30.1959 32.8016 30.1021 32.8016 29.999V29.8958C32.8016 29.6426 32.8016 29.3613 32.7951 29.1362Z" fill="#092C4C"/>
<path d="M0.193945 29.1362C0.232617 29.5207 0.29707 29.8958 0.39375 30.1865C0.567773 30.7023 0.735352 30.7492 1.39277 30.7023C2.24355 30.646 3.46172 30.7023 4.75078 30.7773C4.75078 31.2931 4.73789 31.5369 4.73789 31.5369C4.6541 32.9529 4.21582 32.9998 4.0418 32.9998H1.27031C1.02539 32.9998 0.819141 32.9998 0.625781 32.831C0.39375 32.6341 0.303516 31.987 0.219727 30.8899C0.206836 30.7304 0.200391 30.5241 0.193945 30.2803V30.2709C0.193945 30.1959 0.1875 30.1021 0.1875 29.999V29.8958C0.193945 29.6426 0.193945 29.3613 0.193945 29.1362Z" fill="#092C4C"/>
<path d="M33 20.2933C33 17.4143 32.7422 14.601 32.6391 14.2916C32.5617 14.0665 32.0654 13.4757 30.9375 12.3598C29.7967 11.2251 29.8225 11.3939 29.6162 10.653C29.8031 10.5686 29.9836 10.4092 30.0932 10.3905C30.3381 10.353 30.351 10.6905 30.8602 10.6905C31.3693 10.6905 32.4715 10.4936 32.6971 10.1654C32.9227 9.83718 32.9936 9.72465 32.9936 9.43394C32.9936 9.14323 32.8775 8.54306 32.6584 8.18671C32.4393 7.83036 31.5047 7.65218 30.9568 7.54903C30.409 7.44587 30.3316 7.54903 30.1898 7.68031C29.9643 7.88662 29.9514 9.77153 29.9514 9.77153L29.4164 9.79029C29.0684 8.54306 28.585 6.02984 27.8309 4.05115C27.0059 1.89429 26.1422 1.2191 25.7812 1.0503C25.4268 0.890879 25.1045 0.778347 22.6875 0.421995C20.2189 0.0468884 18.2531 0 16.5 0C14.7469 0 12.7811 0.056266 10.3125 0.421995C7.89551 0.787724 7.57324 0.890879 7.21875 1.0503C6.86426 1.20972 5.99414 1.89429 5.16914 4.05115C4.41504 6.02984 3.93164 8.54306 3.58359 9.79029L3.04863 9.77153C3.04863 9.77153 3.04219 7.88662 2.81016 7.68031C2.66836 7.54903 2.59102 7.43649 2.04316 7.54903C1.49531 7.66156 0.560742 7.83036 0.341602 8.18671C0.122461 8.54306 0.00644531 9.14323 0.00644531 9.43394C0.00644531 9.72465 0.0773437 9.84656 0.30293 10.1654C0.528516 10.4936 1.63066 10.6905 2.13984 10.6905C2.64902 10.6905 2.66191 10.353 2.90684 10.3905C3.01641 10.4092 3.20332 10.5686 3.38379 10.653C3.17109 11.3939 3.20332 11.2251 2.0625 12.3598C0.93457 13.4851 0.431836 14.0665 0.360938 14.2916C0.257812 14.601 0 17.4143 0 20.2933C0 23.1722 0.141797 25.7605 0.141797 26.6795C0.141797 27.064 0.141797 27.7392 0.199805 28.3862C0.238477 28.7707 0.296484 29.1458 0.399609 29.4365C0.573633 29.9523 0.734766 29.9992 1.39863 29.9523C2.24941 29.896 3.48047 29.9523 4.7502 30.0273C5.60098 30.0742 6.47109 30.1211 7.24453 30.1492C9.17813 30.2055 8.61094 29.7366 9.43594 29.7554C10.2609 29.7741 13.5158 29.971 16.4936 29.971C19.4713 29.971 22.7326 29.7741 23.5512 29.7554C24.3762 29.7366 23.809 30.2055 25.7426 30.1492C26.516 30.1305 27.3861 30.0742 28.2369 30.0273C29.5066 29.9617 30.7441 29.896 31.5885 29.9523C32.2523 29.9992 32.4135 29.9523 32.5875 29.4365C32.6842 29.1458 32.7486 28.7707 32.7873 28.3862C32.8518 27.7392 32.8453 27.064 32.8453 26.6795C32.8582 25.7698 33 23.1722 33 20.2933ZM5.55586 6.09549C5.86523 5.04519 6.79336 2.93521 7.24453 2.5601C7.3541 2.46633 8.31445 2.02558 10.7186 1.79114C12.9293 1.57545 15.3721 1.49105 16.5064 1.49105C17.6408 1.49105 20.0836 1.57545 22.2943 1.79114C24.692 2.02558 25.6652 2.45695 25.7684 2.5601C26.3484 3.14152 27.1477 5.04519 27.457 6.09549C27.7664 7.14579 28.1789 9.20887 28.1016 9.4902C28.0242 9.77153 28.1789 9.9122 27.1348 9.79029C26.0971 9.67776 19.5809 9.55585 16.5129 9.55585C13.4514 9.55585 6.93516 9.67776 5.89102 9.79029C4.84688 9.90282 5.00156 9.77153 4.92422 9.4902C4.83398 9.20887 5.24648 7.15516 5.55586 6.09549ZM7.92773 17.8363C7.46367 18.0051 7.18652 18.3709 6.60645 18.3615C6.02637 18.3615 4.46016 17.977 4.125 17.9582C3.78984 17.9395 3.49336 18.2865 3.31934 18.3521C3.14531 18.4177 2.80371 18.2396 2.28809 18.0051C1.77246 17.7707 1.46953 17.8363 1.30195 16.8142C1.12793 15.8014 1.30195 14.3478 1.30195 14.3478C2.41699 14.2728 3.49336 14.4229 5.51074 15.2481C7.52812 16.0733 8.64961 17.6582 8.64961 17.6582C8.64961 17.6582 8.3918 17.6675 7.92773 17.8363ZM23.0871 25.2259C22.1654 25.4041 18.3047 25.451 16.5 25.451C14.6953 25.451 10.8346 25.3947 9.91289 25.2259C8.97188 25.0478 7.74727 23.4067 8.5916 22.1032C9.73242 20.3308 9.51973 20.3871 12.1107 19.8994C14.3537 19.4774 16.0553 19.4587 16.5 19.4587C16.9383 19.4587 18.6463 19.4868 20.8893 19.8994C23.4803 20.3871 23.2676 20.3308 24.4084 22.1032C25.2527 23.4067 24.0281 25.0478 23.0871 25.2259ZM31.698 16.8235C31.524 17.8363 31.2275 17.7801 30.7119 18.0145C30.1963 18.2489 29.8547 18.4177 29.6807 18.3615C29.5066 18.3052 29.2102 17.9582 28.875 17.9676C28.5398 17.9864 26.9736 18.3709 26.3936 18.3709C25.8135 18.3709 25.5363 18.0145 25.0723 17.8457C24.6082 17.6769 24.3504 17.6769 24.3504 17.6769C24.3504 17.6769 25.4654 16.0827 27.4893 15.2668C29.5066 14.4416 30.583 14.2916 31.698 14.3666C31.698 14.3478 31.8721 15.8014 31.698 16.8235Z" fill="#092C4C"/>
</svg>
