<?xml version="1.0" encoding="UTF-8"?>
<svg xmlns="http://www.w3.org/2000/svg" xmlns:xlink="http://www.w3.org/1999/xlink" width="24px" height="28px" viewBox="0 0 24 28" version="1.1">
<g id="surface1">
<path style="fill-rule:nonzero;fill:rgb(11.764706%,11.764706%,11.764706%);fill-opacity:1;stroke-width:1;stroke-linecap:butt;stroke-linejoin:miter;stroke:rgb(11.764706%,11.764706%,11.764706%);stroke-opacity:1;stroke-miterlimit:4;" d="M 973.18099 818.488839 L 818.81901 818.488839 C 806.253906 818.488839 796 828.756696 796 841.340402 L 796 950.659598 C 796 963.243304 806.253906 973.511161 818.81901 973.511161 L 973.18099 973.511161 C 985.746094 973.511161 996 963.243304 996 950.659598 L 996 841.340402 C 996 828.756696 985.746094 818.488839 973.18099 818.488839 Z M 896 961.513393 L 818.81901 961.513393 C 812.861979 961.513393 808.011719 956.63058 808.011719 950.659598 L 808.011719 841.340402 C 808.011719 835.36942 812.861979 830.486607 818.81901 830.486607 L 896 830.486607 Z M 978.584635 872.116071 C 978.03125 881.267857 972.920573 899.376116 957.71875 911.987723 C 962.341146 912.992188 967.354167 913.550223 972.627604 913.550223 L 972.627604 925.547991 C 962.080729 925.547991 952.380208 923.622768 944.177083 920.21875 C 936.46224 923.511161 927.184896 925.547991 916.052083 925.547991 L 916.052083 913.550223 C 921.16276 913.550223 925.947917 913.047991 930.407552 912.043527 C 921.976562 905.040179 917.028646 895.748884 917.028646 885.257812 L 929.007812 885.257812 C 929.007812 894.13058 934.671875 901.77567 943.916667 906.881696 C 948.539062 904.231027 952.608073 900.771205 956.058594 896.530134 C 961.690104 889.666295 964.554688 882.021205 965.824219 876.496652 L 916.052083 876.496652 L 916.052083 864.498884 L 938.35026 864.498884 L 938.35026 852.501116 L 950.329427 852.501116 L 950.329427 864.498884 L 971.390625 864.498884 C 973.376302 864.498884 975.296875 865.335938 976.63151 866.78683 C 977.998698 868.209821 978.682292 870.162946 978.584635 872.116071 Z M 978.584635 872.116071 " transform="matrix(0.12,0,0,0.14,-95.52,-111.44)"/>
<path style="fill-rule:nonzero;fill:rgb(11.764706%,11.764706%,11.764706%);fill-opacity:1;stroke-width:1;stroke-linecap:butt;stroke-linejoin:miter;stroke:rgb(11.764706%,11.764706%,11.764706%);stroke-opacity:1;stroke-miterlimit:4;" d="M 839.033854 914.27567 L 834.574219 925.520089 L 818.623698 925.520089 L 844.958333 864.44308 L 860.941406 864.44308 L 886.690104 925.520089 L 870.088542 925.520089 L 865.726562 914.27567 Z M 852.477865 879.872768 L 843.558594 902.473214 L 861.201823 902.473214 Z M 852.477865 879.872768 " transform="matrix(0.12,0,0,0.14,-95.52,-111.44)"/>
</g>
</svg>
