<svg width="28" height="28" viewBox="0 0 28 28" fill="none" xmlns="http://www.w3.org/2000/svg">
<path d="M26 5.2093H3.14286C2.76398 5.2093 2.40061 5.03779 2.1327 4.7325C1.8648 4.42721 1.71429 4.01314 1.71429 3.5814C1.71429 3.14965 1.8648 2.73558 2.1327 2.43029C2.40061 2.125 2.76398 1.95349 3.14286 1.95349H22.5714C22.7988 1.95349 23.0168 1.85058 23.1775 1.66741C23.3383 1.48423 23.4286 1.23579 23.4286 0.976744C23.4286 0.717696 23.3383 0.469257 23.1775 0.286082C23.0168 0.102907 22.7988 0 22.5714 0H3.14286C2.31048 0.00428235 1.51326 0.382982 0.924673 1.0537C0.336086 1.72441 0.00375798 2.63287 0 3.5814V24.4186C0.00375798 25.3671 0.336086 26.2756 0.924673 26.9463C1.51326 27.617 2.31048 27.9957 3.14286 28H26C26.5304 28 27.0391 27.7599 27.4142 27.3325C27.7893 26.9051 28 26.3254 28 25.7209V7.48837C28 6.88393 27.7893 6.30423 27.4142 5.87683C27.0391 5.44942 26.5304 5.2093 26 5.2093ZM26.2857 25.7209C26.2857 25.8073 26.2556 25.8901 26.202 25.9512C26.1485 26.0122 26.0758 26.0465 26 26.0465H3.14286C2.76398 26.0465 2.40061 25.875 2.1327 25.5697C1.8648 25.2644 1.71429 24.8504 1.71429 24.4186V6.77209C2.15726 7.02738 2.64646 7.16117 3.14286 7.16279H26C26.0758 7.16279 26.1485 7.19709 26.202 7.25815C26.2556 7.31921 26.2857 7.40202 26.2857 7.48837V25.7209ZM22.2857 16.6047C22.2857 16.9266 22.2019 17.2414 22.045 17.5091C21.888 17.7768 21.6649 17.9854 21.4038 18.1086C21.1428 18.2319 20.8556 18.2641 20.5784 18.2013C20.3013 18.1385 20.0468 17.9834 19.847 17.7558C19.6472 17.5281 19.5111 17.238 19.456 16.9222C19.4009 16.6065 19.4292 16.2791 19.5373 15.9817C19.6454 15.6842 19.8285 15.43 20.0635 15.2511C20.2984 15.0722 20.5746 14.9767 20.8571 14.9767C21.236 14.9767 21.5994 15.1483 21.8673 15.4535C22.1352 15.7588 22.2857 16.1729 22.2857 16.6047Z" fill="#092C4C"/>
</svg>
