<svg width="28" height="28" viewBox="0 0 28 28" fill="none" xmlns="http://www.w3.org/2000/svg">
<path d="M25.76 5.09091H3.36C3.06296 5.09091 2.77808 4.95682 2.56804 4.71814C2.358 4.47945 2.24 4.15573 2.24 3.81818C2.24 3.48063 2.358 3.15691 2.56804 2.91823C2.77808 2.67955 3.06296 2.54545 3.36 2.54545H22.4C22.697 2.54545 22.9819 2.41136 23.192 2.17268C23.402 1.934 23.52 1.61028 23.52 1.27273C23.52 0.935179 23.402 0.611456 23.192 0.372773C22.9819 0.134091 22.697 0 22.4 0H3.36C2.47001 0.00418786 1.61752 0.407804 0.988193 1.12295C0.358868 1.83809 0.00368532 2.80683 0 3.81818V24.1818C0.00368532 25.1932 0.358868 26.1619 0.988193 26.8771C1.61752 27.5922 2.47001 27.9958 3.36 28H25.76C26.3541 28 26.9238 27.7318 27.3439 27.2545C27.764 26.7771 28 26.1296 28 25.4545V7.63636C28 6.96127 27.764 6.31382 27.3439 5.83646C26.9238 5.35909 26.3541 5.09091 25.76 5.09091ZM20.72 18.4545C20.3877 18.4545 20.0629 18.3426 19.7866 18.1328C19.5104 17.923 19.295 17.6249 19.1679 17.276C19.0407 16.9272 19.0075 16.5433 19.0723 16.173C19.1371 15.8027 19.2971 15.4625 19.5321 15.1955C19.767 14.9285 20.0664 14.7467 20.3922 14.673C20.7181 14.5994 21.0559 14.6372 21.3629 14.7817C21.6699 14.9262 21.9323 15.1709 22.1169 15.4848C22.3015 15.7988 22.4 16.1679 22.4 16.5455C22.4 17.0518 22.223 17.5374 21.9079 17.8954C21.5929 18.2534 21.1656 18.4545 20.72 18.4545Z" fill="#092C4C"/>
</svg>
