<svg width="16" height="16" viewBox="0 0 16 16" fill="none" xmlns="http://www.w3.org/2000/svg">
<g clip-path="url(#clip0_385_65095)">
<path d="M4.13307 15.2999C3.24418 15.1777 2.48018 14.7972 1.84107 14.1586C1.20196 13.5199 0.821516 12.7559 0.699739 11.8666C0.677516 11.7221 0.719072 11.597 0.824406 11.4912C0.929739 11.3855 1.06041 11.3328 1.21641 11.3332C1.33863 11.3332 1.44418 11.3777 1.53307 11.4666C1.62196 11.5555 1.67752 11.661 1.69974 11.7832C1.79974 12.4388 2.08041 12.9972 2.54174 13.4586C3.00307 13.9199 3.5613 14.2004 4.21641 14.2999C4.33863 14.3221 4.44418 14.3806 4.53307 14.4752C4.62196 14.5699 4.66641 14.6781 4.66641 14.7999C4.66641 14.9555 4.61352 15.0832 4.50774 15.1832C4.40196 15.2832 4.27707 15.3221 4.13307 15.2999ZM14.7997 4.66657C14.6775 4.66657 14.5691 4.62213 14.4744 4.53324C14.3797 4.44435 14.3215 4.3388 14.2997 4.21657C14.1997 3.57213 13.9164 3.01657 13.4497 2.54991C12.9831 2.08324 12.4275 1.79991 11.7831 1.69991C11.6609 1.67769 11.5553 1.61924 11.4664 1.52457C11.3775 1.42991 11.3331 1.32169 11.3331 1.19991C11.3331 1.04435 11.3857 0.916575 11.4911 0.816575C11.5964 0.716575 11.7215 0.677686 11.8664 0.699908C12.7553 0.82213 13.5193 1.2028 14.1584 1.84191C14.7975 2.48102 15.178 3.2448 15.2997 4.13324C15.322 4.27769 15.2831 4.4028 15.1831 4.50857C15.0831 4.61435 14.9553 4.66702 14.7997 4.66657ZM13.6497 13.6499C14.7609 12.5388 15.3164 11.2055 15.3164 9.64991C15.3164 8.09435 14.7609 6.76102 13.6497 5.64991L11.2997 3.28324C10.9775 2.96102 10.5857 2.79991 10.1244 2.79991C9.66307 2.79991 9.27152 2.96102 8.94974 3.28324C8.90529 3.32769 8.86352 3.37213 8.82441 3.41657C8.7853 3.46102 8.75485 3.50546 8.73307 3.54991L7.04974 1.86657C6.72752 1.54435 6.33596 1.38324 5.87507 1.38324C5.41418 1.38324 5.02241 1.54435 4.69974 1.86657C4.64418 1.92213 4.59974 1.97213 4.56641 2.01657L4.46641 2.14991C4.14418 1.92769 3.78307 1.83324 3.38307 1.86657C2.98307 1.89991 2.63863 2.06102 2.34974 2.34991C2.09418 2.60546 1.93863 2.89724 1.88307 3.22524C1.82752 3.55324 1.86641 3.87813 1.99974 4.19991C1.93307 4.23324 1.86929 4.27213 1.8084 4.31657C1.74752 4.36102 1.68907 4.41102 1.63307 4.46657C1.31085 4.7888 1.14974 5.18057 1.14974 5.64191C1.14974 6.10324 1.31085 6.4948 1.63307 6.81658L1.89974 7.08324C1.8553 7.10546 1.81085 7.13613 1.76641 7.17524C1.72196 7.21435 1.67752 7.25591 1.63307 7.29991C1.31085 7.62213 1.14974 8.01391 1.14974 8.47524C1.14974 8.93657 1.31085 9.32813 1.63307 9.64991L5.64974 13.6499C6.76085 14.761 8.09418 15.3166 9.64974 15.3166C11.2053 15.3166 12.5386 14.761 13.6497 13.6499ZM11.5331 6.34991L9.88307 4.69991C9.81641 4.63324 9.78307 4.55546 9.78307 4.46657C9.78307 4.37769 9.81641 4.29991 9.88307 4.23324C9.94974 4.16657 10.0275 4.13613 10.1164 4.14191C10.2053 4.14769 10.2831 4.17813 10.3497 4.23324L12.7164 6.58324C13.1386 7.00546 13.4553 7.48324 13.6664 8.01657C13.8775 8.54991 13.9831 9.09435 13.9831 9.64991C13.9831 10.2055 13.8775 10.7499 13.6664 11.2832C13.4553 11.8166 13.1386 12.2944 12.7164 12.7166C12.2942 13.1388 11.8164 13.4555 11.2831 13.6666C10.7497 13.8777 10.2053 13.9832 9.64974 13.9832C9.09418 13.9832 8.54974 13.8777 8.01641 13.6666C7.48307 13.4555 7.00529 13.1388 6.58307 12.7166L2.58307 8.69991C2.51641 8.63324 2.48307 8.55546 2.48307 8.46657C2.48307 8.37769 2.51641 8.29991 2.58307 8.23324C2.64974 8.16657 2.72752 8.13324 2.81641 8.13324C2.90529 8.13324 2.98307 8.16657 3.04974 8.23324L4.93307 10.1166C5.05529 10.2388 5.21085 10.3028 5.39974 10.3086C5.58863 10.3144 5.74418 10.2504 5.86641 10.1166C5.99974 9.97213 6.06641 9.81102 6.06641 9.63324C6.06641 9.45546 5.99974 9.29991 5.86641 9.16657L2.58307 5.88324C2.51641 5.81657 2.48307 5.73613 2.48307 5.64191C2.48307 5.54769 2.51641 5.46702 2.58307 5.39991C2.64974 5.34435 2.72752 5.31369 2.81641 5.30791C2.90529 5.30213 2.98307 5.3328 3.04974 5.39991L5.88307 8.23324C6.01641 8.36657 6.17196 8.43324 6.34974 8.43324C6.52752 8.43324 6.68307 8.36657 6.81641 8.23324C6.94974 8.09991 7.01641 7.94169 7.01641 7.75857C7.01641 7.57546 6.94974 7.41702 6.81641 7.28324L3.28307 3.74991C3.2164 3.68324 3.18307 3.60546 3.18307 3.51658C3.18307 3.42769 3.2164 3.34991 3.28307 3.28324C3.34974 3.21657 3.42752 3.18324 3.51641 3.18324C3.60529 3.18324 3.68307 3.21657 3.74974 3.28324L7.29974 6.83324C7.42196 6.95546 7.57752 7.01657 7.76641 7.01657C7.95529 7.01657 8.11085 6.94991 8.23307 6.81658C8.36641 6.68324 8.43307 6.52769 8.43307 6.34991C8.43307 6.17213 8.36641 6.01657 8.23307 5.88324L5.64974 3.28324C5.58307 3.21657 5.54974 3.1388 5.54974 3.04991C5.54974 2.96102 5.58307 2.88324 5.64974 2.81657C5.70529 2.74991 5.78018 2.71657 5.87441 2.71657C5.96863 2.71657 6.04929 2.74991 6.11641 2.81657L10.3164 7.01657C10.1275 7.50546 10.0553 8.00546 10.0997 8.51657C10.1442 9.02769 10.2997 9.51102 10.5664 9.96657C10.6775 10.1555 10.8415 10.2528 11.0584 10.2586C11.2753 10.2644 11.4669 10.1837 11.6331 10.0166C11.722 9.92769 11.772 9.80835 11.7831 9.65857C11.7942 9.5088 11.7609 9.36702 11.6831 9.23324C11.5164 8.94435 11.4275 8.63613 11.4164 8.30857C11.4053 7.98102 11.472 7.66702 11.6164 7.36657C11.7053 7.17769 11.7442 6.99146 11.7331 6.80791C11.722 6.62435 11.6553 6.47169 11.5331 6.34991Z" fill="#092C4C"/>
</g>
<defs>
<clipPath id="clip0_385_65095">
<rect width="16" height="16" fill="white" transform="matrix(-1 0 0 1 16 0)"/>
</clipPath>
</defs>
</svg>
